<?xml version="1.0" encoding="utf-8"?>
<!-- Generator: Adobe Illustrator 17.1.0, SVG Export Plug-In . SVG Version: 6.00 Build 0)  -->
<!DOCTYPE svg PUBLIC "-//W3C//DTD SVG 1.1//EN" "http://www.w3.org/Graphics/SVG/1.1/DTD/svg11.dtd">
<svg version="1.1" xmlns="http://www.w3.org/2000/svg" xmlns:xlink="http://www.w3.org/1999/xlink" x="0px" y="0px" width="290px"
	 height="160px" viewBox="0 0 290 160" enable-background="new 0 0 290 160" xml:space="preserve">
<g id="Layer_3">
	<path opacity="0.2" fill="#545454" d="M285.8,63.9c-0.4-0.6-1.3-0.7-1.8-0.3c-5.6,4-10.8,5.9-16,5.9c-10.6,0-19.6-8.1-29-16.8
		c5.3-2.5,10-6.4,13.3-12.6c0.3-0.6,0.1-1.3-0.5-1.6c-0.1-0.1-0.4-0.1-0.6-0.1c-0.4,0-0.9,0.2-1.1,0.6c-2.3,4.2-5.8,8.8-13.2,11.9
		c-6.2-5.7-12.7-11.2-19.8-13.9c0-0.2,0-0.4,0-0.5c0-4-1.5-7.7-4.3-10.5c-2.8-2.8-6.5-4.3-10.5-4.3c-8.2,0-14.8,6.7-14.8,14.8
		c0,0.6,0,1.1,0.1,1.7c-6.8,3-12.3,8-16,14.5c-3.3,0.2-6.8,0.6-10.1,1.4c-4.1-3.2-9.6-5.4-16.4-5.4c0,0-0.1,0-0.1,0c0,0-0.1,0-0.1,0
		c-6.9,0-12.4,2.2-16.4,5.4c-3.3-0.8-6.8-1.2-10.1-1.4c-3.7-6.5-9.2-11.6-16-14.5c0.1-0.6,0.1-1.1,0.1-1.7c0-4-1.5-7.7-4.3-10.5
		c-2.8-2.8-6.5-4.3-10.5-4.3c-4,0-7.7,1.5-10.5,4.3c-2.8,2.8-4.3,6.5-4.3,10.5c0,0.2,0,0.4,0,0.5c-7.1,2.8-13.5,8.3-19.8,14
		c-5.3-2.3-10-6-13.2-11.9c-0.2-0.4-0.6-0.6-1.1-0.6c-0.2,0-0.4,0.1-0.6,0.1c-0.6,0.3-0.8,1-0.5,1.6c3.3,6.2,8,10.1,13.3,12.6
		c-9.5,8.7-18.4,16.8-29,16.8c-5.2,0-10.4-1.9-16-5.9c-0.6-0.4-1.4-0.3-1.8,0.3C4,64.2,4,64.5,4,64.8c0.1,0.3,0.2,0.6,0.5,0.8
		c6,4.2,11.7,6.3,17.4,6.3c11.9,0,21.6-8.9,31-17.5c0.3-0.2,0.5-0.5,0.8-0.7c3.6,1.3,7.5,2.1,11.3,2.5c0.4,1.9,2.1,3.3,4,3.3h0
		c1.8,0,3.3-1.2,3.9-2.8c0.6,0,1.1,0,1.7,0c6.2,0,12.8-0.5,19.2-1c6.2-0.5,12.7-1,18.8-1c1.4,0,2.7,0,4.1,0.1
		c2,3.8,3.3,8.1,3.8,12.8c0.1,0.6,0.6,1.3,1.3,1.3h0c0.6,0,1.2-0.6,1.3-1.3c0.7-4.6,3-8.3,6.2-11c6.4,1.7,11,4.7,14.5,9.1
		c0,0.3,0.2,0.6,0.5,0.8c0.2,0.2,0.5,0.2,0.7,0.2c0,0,0.1,0,0.1,0c0,0,0.1,0,0.1,0c0.3,0,0.5-0.1,0.7-0.2c0.3-0.2,0.4-0.5,0.5-0.8
		c3.4-4.4,8.1-7.4,14.5-9.1c3.2,2.7,5.5,6.5,6.2,11c0.1,0.6,0.6,1.3,1.3,1.3h0c0,0,0,0,0,0c0.6,0,1.2-0.7,1.3-1.3
		c0.5-4.6,1.9-8.9,3.8-12.7c1.3-0.1,2.7-0.1,4.1-0.1c6.1,0,12.5,0.6,18.8,1c6.4,0.5,12.9,1.1,19.2,1.1c0,0,0,0,0,0
		c0.6,0,1.1,0.1,1.7,0.1c0.6,1.6,2.1,2.9,3.9,2.9h0.1v-0.2c2,0,3.6-1.5,4-3.4c3.8-0.4,7.6-1.2,11.2-2.6c0.3,0.2,0.5,0.5,0.8,0.7
		c9.4,8.6,19.1,17.5,31,17.5c5.8,0,11.5-2.1,17.4-6.3c0.3-0.2,0.5-0.5,0.5-0.8C286,64.5,286,64.2,285.8,63.9z M69.1,51.3
		c-1.1,0-2.1,0.4-2.9,1.2c-0.4,0.4-0.7,0.9-0.9,1.4c-3.2-0.4-6.4-1-9.4-2c5.6-5,11.3-9.8,17.4-12.3c1.5,6.6,7.4,11.6,14.5,11.6
		c6.7,0,12.3-4.4,14.2-10.5c5.5,2.5,10.1,6.6,13.4,11.7c-0.9,0-1.8,0-2.6,0c-6.2,0-12.7,0.5-18.9,1c-6.3,0.5-12.8,1-19,1
		c-0.5,0-1.1,0-1.6,0C72.6,52.6,71,51.3,69.1,51.3z M96.3,27.7c2.3,2.3,3.6,5.4,3.6,8.6c0,0.2,0,0.5,0,0.7c-1.7-0.6-3.5-1.1-5.4-1.4
		c-0.3-3.5-3.3-6.2-6.8-6.2c-3.4,0-6.1,2.4-6.7,5.6c-1.9,0.1-3.7,0.4-5.5,0.9c0.1-3.1,1.3-6.1,3.6-8.3c2.3-2.3,5.4-3.6,8.7-3.6
		C90.9,24.2,94,25.4,96.3,27.7z M87.6,43L87.6,43c3.1,0,5.7-2,6.6-4.8c1.8,0.3,3.5,0.9,5.2,1.5c-1.5,5.1-6.2,8.9-11.8,8.9
		c-6,0-10.9-4.3-12-9.9c1.7-0.5,3.5-1,5.3-1.1C81.6,40.8,84.3,43,87.6,43z M126.2,56c-1.8,1.8-3.2,3.8-4.1,5.9
		c-0.6-2.4-1.4-4.7-2.4-6.8C122,55.3,124.2,55.6,126.2,56z M145,63.6c-3.6-4.4-8.3-7.1-13.3-8.7c3.9-2.4,8.6-3.7,13.2-3.7
		c0,0,0.1,0,0.1,0c0,0,0.1,0,0.1,0c4.5,0,9.2,1.3,13.2,3.7C153.3,56.6,148.6,59.3,145,63.6z M170.3,55.1c-1,2.1-1.8,4.4-2.4,6.8
		c-1-2.1-2.4-4.1-4.1-5.9C165.8,55.6,168,55.3,170.3,55.1z M223.9,52.5c-0.8-0.8-1.8-1.2-2.9-1.2c-1.9,0-3.5,1.3-4,3.1
		c-0.5,0-1.1,0-1.6,0c-6.2,0-12.7-0.5-19-1c-6.3-0.5-12.8-1-18.9-1c-0.9,0-1.7,0-2.6,0c3.3-5.1,7.9-9.2,13.4-11.7
		c1.9,6.1,7.5,10.5,14.2,10.5c4,0,7.7-1.5,10.5-4.3c2-2,3.4-4.5,4-7.3c6.1,2.5,11.8,7.3,17.4,12.3c-2.7,0.9-5.8,1.5-9.4,2
		C224.6,53.4,224.3,52.9,223.9,52.5z M190.1,36.4c0-6.7,5.5-12.2,12.2-12.2c3.3,0,6.3,1.3,8.6,3.6c2.2,2.2,3.5,5.2,3.6,8.3
		c-1.8-0.5-3.6-0.8-5.5-0.9c-0.2-1.4-0.9-2.6-1.9-3.6c-1.3-1.3-3-2-4.8-2c-3.5,0-6.5,2.7-6.8,6.2c-1.9,0.3-3.7,0.8-5.4,1.4
		C190.1,36.9,190.1,36.6,190.1,36.4z M202.3,43.3C202.3,43.3,202.3,43.3,202.3,43.3c3.3,0,6.1-2.4,6.7-5.5c1.8,0.1,3.6,0.4,5.3,1
		c-0.5,2.4-1.6,4.6-3.4,6.3c-2.3,2.3-5.4,3.6-8.7,3.6c-5.6,0-10.3-3.8-11.8-8.9c1.7-0.6,3.4-1.1,5.2-1.4
		C196.6,41.2,199.2,43.3,202.3,43.3z"/>
	<path opacity="0.2" fill="#545454" d="M4.2,86.7c0.4,0.6,1.3,0.7,1.8,0.3c5.6-4,10.8-5.9,16-5.9c10.6,0,19.6,8.1,29,16.8
		c-5.3,2.5-10,6.4-13.3,12.6c-0.3,0.6-0.1,1.3,0.5,1.6c0.1,0.1,0.4,0.1,0.6,0.1c0.4,0,0.9-0.2,1.1-0.6c2.3-4.2,5.8-8.8,13.2-11.9
		c6.2,5.7,12.7,11.2,19.8,13.9c0,0.2,0,0.4,0,0.5c0,4,1.5,7.7,4.3,10.5c2.8,2.8,6.5,4.3,10.5,4.3c8.2,0,14.8-6.7,14.8-14.8
		c0-0.6,0-1.1-0.1-1.7c6.8-3,12.3-8,16-14.5c3.3-0.2,6.8-0.6,10.1-1.4c4.1,3.2,9.6,5.4,16.4,5.4c0,0,0.1,0,0.1,0c0,0,0.1,0,0.1,0
		c6.9,0,12.4-2.2,16.4-5.4c3.3,0.8,6.8,1.2,10.1,1.4c3.7,6.5,9.2,11.6,16,14.5c-0.1,0.6-0.1,1.1-0.1,1.7c0,4,1.5,7.7,4.3,10.5
		c2.8,2.8,6.5,4.3,10.5,4.3c4,0,7.7-1.5,10.5-4.3c2.8-2.8,4.3-6.5,4.3-10.5c0-0.2,0-0.4,0-0.5c7.1-2.8,13.5-8.3,19.8-14
		c5.3,2.3,10,6,13.2,11.9c0.2,0.4,0.6,0.6,1.1,0.6c0.2,0,0.4-0.1,0.6-0.1c0.6-0.3,0.8-1,0.5-1.6c-3.3-6.2-8-10.1-13.3-12.6
		c9.5-8.7,18.4-16.8,29-16.8c5.2,0,10.4,1.9,16,5.9c0.6,0.4,1.4,0.3,1.8-0.3c0.2-0.3,0.3-0.6,0.2-1c-0.1-0.3-0.2-0.6-0.5-0.8
		c-6-4.2-11.7-6.3-17.4-6.3c-11.9,0-21.6,8.9-31,17.5c-0.3,0.2-0.5,0.5-0.8,0.7c-3.6-1.3-7.5-2.1-11.3-2.5c-0.4-1.9-2.1-3.3-4-3.3h0
		c-1.8,0-3.3,1.2-3.9,2.8c-0.6,0-1.1,0-1.7,0c-6.2,0-12.8,0.5-19.2,1c-6.2,0.5-12.7,1-18.8,1c-1.4,0-2.7,0-4.1-0.1
		c-2-3.8-3.3-7.9-3.8-12.5c-0.1-0.6-0.6-1.1-1.3-1.1h0c-0.6,0-1.2,0.4-1.3,1c-0.7,4.6-3,8.2-6.2,10.8c-6.4-1.7-11-4.7-14.5-9.1
		c0-0.3-0.2-0.6-0.5-0.8c-0.2-0.2-0.5-0.2-0.7-0.2c0,0-0.1,0-0.1,0c0,0-0.1,0-0.1,0c-0.3,0-0.5,0.1-0.7,0.2
		c-0.3,0.2-0.4,0.5-0.5,0.8c-3.4,4.4-8.1,7.4-14.5,9.1c-3.2-2.7-5.5-6.2-6.2-10.8c-0.1-0.6-0.6-1-1.3-1h0c0,0,0,0,0,0
		c-0.6,0-1.2,0.4-1.3,1.1c-0.5,4.6-1.9,8.8-3.8,12.6c-1.3,0.1-2.7,0.1-4.1,0.1c-6.1,0-12.5-0.4-18.8-0.9C87.5,94.4,80.9,94,74.7,94
		c0,0,0,0,0,0c-0.6,0-1.1-0.1-1.7-0.1c-0.6-1.6-2.1-2.9-3.9-2.9H69v-0.2c-2,0-3.6,1.5-4,3.4c-3.8,0.4-7.6,1.2-11.2,2.6
		c-0.3-0.2-0.5-0.5-0.8-0.7c-9.4-8.6-19.1-17.5-31-17.5c-5.8,0-11.5,2.1-17.4,6.3c-0.3,0.2-0.5,0.5-0.5,0.8C4,86.1,4,86.4,4.2,86.7z
		 M220.9,99.3c1.1,0,2.1-0.4,2.9-1.2c0.4-0.4,0.7-0.9,0.9-1.4c3.2,0.4,6.4,1,9.4,2c-5.6,5-11.3,9.8-17.4,12.3
		c-1.5-6.6-7.4-11.6-14.5-11.6c-6.7,0-12.3,4.4-14.2,10.5c-5.5-2.5-10.1-6.6-13.4-11.7c0.9,0,1.8,0,2.6,0c6.2,0,12.7-0.5,18.9-1
		c6.3-0.5,12.8-1,19-1c0.5,0,1.1,0,1.6,0C217.4,98,219,99.3,220.9,99.3z M193.7,122.8c-2.3-2.3-3.6-5.4-3.6-8.6c0-0.2,0-0.5,0-0.7
		c1.7,0.6,3.5,1.1,5.4,1.4c0.3,3.5,3.3,6.2,6.8,6.2c3.4,0,6.1-2.4,6.7-5.6c1.9-0.1,3.7-0.4,5.5-0.9c-0.1,3.1-1.3,6.1-3.6,8.3
		c-2.3,2.3-5.4,3.6-8.7,3.6C199.1,126.4,196,125.1,193.7,122.8z M202.4,108L202.4,108c-3.1,0-5.7,1.7-6.6,4.6
		c-1.8-0.3-3.5-1-5.2-1.6c1.5-5.1,6.2-9,11.8-9c6,0,10.9,4.2,12,9.9c-1.7,0.5-3.5,1.2-5.3,1.3C208.4,110,205.7,108,202.4,108z
		 M163.8,94.6c1.8-1.8,3.2-3.8,4.1-5.9c0.6,2.4,1.4,4.7,2.4,6.8C168,95.2,165.8,95,163.8,94.6z M145,86.9c3.6,4.4,8.3,7.1,13.3,8.7
		c-3.9,2.4-8.6,3.7-13.2,3.7c0,0-0.1,0-0.1,0c0,0-0.1,0-0.1,0c-4.5,0-9.2-1.3-13.2-3.7C136.7,94,141.4,91.3,145,86.9z M119.7,95.4
		c1-2.1,1.8-4.4,2.4-6.8c1,2.1,2.4,4.1,4.1,5.9C124.2,95,122,95.2,119.7,95.4z M66.1,98c0.8,0.8,1.8,1.2,2.9,1.2
		c1.9,0,3.5-1.3,4-3.1c0.5,0,1.1,0,1.6,0c6.2,0,12.7,0.5,19,1c6.3,0.5,12.8,1,18.9,1c0.9,0,1.7,0,2.6,0c-3.3,5.1-7.9,9.2-13.4,11.7
		c-1.9-6.1-7.5-10.5-14.2-10.5c-4,0-7.7,1.5-10.5,4.3c-2,2-3.4,4.5-4,7.3c-6.1-2.5-11.8-7.3-17.4-12.3c2.7-0.9,5.8-1.5,9.4-2
		C65.4,97.2,65.7,97.7,66.1,98z M99.9,114.2c0,6.7-5.5,12.2-12.2,12.2c-3.3,0-6.3-1.3-8.6-3.6c-2.2-2.2-3.5-5.2-3.6-8.3
		c1.8,0.5,3.6,0.8,5.5,0.9c0.2,1.4,0.9,2.6,1.9,3.6c1.3,1.3,3,2,4.8,2c3.5,0,6.5-2.7,6.8-6.2c1.9-0.3,3.7-0.8,5.4-1.4
		C99.9,113.7,99.9,113.9,99.9,114.2z M87.7,107.3C87.7,107.3,87.7,107.3,87.7,107.3c-3.3,0-6.1,2.4-6.7,5.5c-1.8-0.1-3.6-0.4-5.3-1
		c0.5-2.4,1.6-4.6,3.4-6.3c2.3-2.3,5.4-3.6,8.7-3.6c5.6,0,10.3,3.8,11.8,8.9c-1.7,0.6-3.4,1.1-5.2,1.4
		C93.4,109.4,90.8,107.3,87.7,107.3z"/>
</g>
<g id="Layer_4">
	<g>
		<path fill="#545454" d="M41.9,57.4l10.4,23l10.4-23h12.9L55,102.6h-5.6L37.7,76.8L26,102.6h-5.6L0,57.4h12.9l10.4,23l10.4-23H41.9
			z"/>
		<path fill="#545454" d="M94.2,102h-12V57.4h12V102z"/>
		<path fill="#545454" d="M149.8,102h-9.9l-22-25.2V102h-12V57.4h10.7l21.2,24v-24h12V102z"/>
		<path fill="#545454" d="M200.6,67.3h-15.3V102h-12V67.3H158v-9.9h42.6V67.3z"/>
		<path fill="#545454" d="M241.3,102h-32.5V57.4h32.1V67h-20.1v7.2H240v9.5h-19.2v8.7h20.5V102z"/>
		<path fill="#545454" d="M269.8,57.4c12,0,16.7,6.6,16.7,13.1c0,4.7-2.3,9-6.7,11.5c2.5,1.7,3.2,4.1,6,10.6c2.2,5.1,3,6.8,4.2,9.4
			h-13.2c-4.8-14.9-6.4-16.7-10.5-16.7h-3.1V102h-12V57.4H269.8z M263.2,66.4v9.8h4.1c2.7,0,6.8-0.2,6.8-4.9c0-4.7-4.2-5-6.8-5
			H263.2z"/>
	</g>
</g>
</svg>
