<?xml version="1.0" encoding="utf-8"?>
<!-- Generator: Adobe Illustrator 17.1.0, SVG Export Plug-In . SVG Version: 6.00 Build 0)  -->
<!DOCTYPE svg PUBLIC "-//W3C//DTD SVG 1.1//EN" "http://www.w3.org/Graphics/SVG/1.1/DTD/svg11.dtd">
<svg version="1.1" xmlns="http://www.w3.org/2000/svg" xmlns:xlink="http://www.w3.org/1999/xlink" x="0px" y="0px" width="290px"
	 height="160px" viewBox="0 0 290 160" enable-background="new 0 0 290 160" xml:space="preserve">
<g id="Layer_3">
	<g opacity="0.2">
		<path fill="#545454" d="M180.7,49.4C180.7,49.4,180.7,49.4,180.7,49.4C180.7,49.4,180.8,49.4,180.7,49.4L180.7,49.4z"/>
		<path fill="#545454" d="M187,57.1C187,57.1,187,57.1,187,57.1C186.9,57.1,186.9,57.1,187,57.1L187,57.1z"/>
		<path fill="#545454" d="M169.6,35.3C169.6,35.3,169.6,35.3,169.6,35.3C169.6,35.3,169.7,35.3,169.6,35.3z"/>
		<path fill="#545454" d="M169.6,35.3C169.6,35.3,169.6,35.3,169.6,35.3C169.6,35.3,169.6,35.3,169.6,35.3z"/>
		<path fill="#545454" d="M162,22.7C162,22.6,162,22.6,162,22.7c0.1-0.1,0.1-0.2,0.1-0.3C162.1,22.5,162.1,22.6,162,22.7z"/>
		<path fill="#545454" d="M161,22.3c0,0.1,0,0.1,0,0.1C161,22.4,161,22.3,161,22.3z"/>
		<polygon fill="#545454" points="169,43.5 169,43.5 169,43.5 		"/>
		<path fill="#545454" d="M167.5,19.3c0,0,0,0.1,0,0.1C167.5,19.4,167.6,19.4,167.5,19.3C167.6,19.3,167.5,19.3,167.5,19.3z"/>
		<path fill="#545454" d="M200.1,93.6c-0.1-0.3-0.1-0.6,0-0.9c0-0.1,0.1-0.1,0.1-0.2c0.1-0.2,0.2-0.3,0.3-0.5c0.3-0.5,0.1-0.9-0.4-1
			c-0.2,0-0.3-0.2-0.5-0.4c0.2-0.1,0.3-0.3,0.4-0.4c0.1-0.1,0.3-0.3,0.3-0.5c0.1-0.3,0.1-0.7,0.1-1c0.1,0,0.1,0,0.2,0l0,0h0
			c0-0.1-0.1-0.2-0.1-0.4c0,0,0-0.1,0-0.1c0-0.3-0.1-0.7-0.1-1c0-0.2,0-0.3,0-0.3c-0.2-0.2-0.5-0.3-0.6-0.5c-0.1-0.5-0.1-1-0.2-1.5
			c0-0.2-0.1-0.4-0.2-0.6c-0.2,0.1-0.6,0.2-0.7,0.4c0,0.1-0.1,0.1-0.1,0.2c0,0,0,0,0,0c0,0-0.1,0.1-0.1,0.1c0,0,0,0-0.1,0
			c0,0-0.1,0-0.1,0c0,0,0,0-0.1,0c-0.1,0-0.1,0-0.2,0c0.2,0.1,0.4,0.3,0.6,0.3c0.6,0.2,0.7,0.3,0.3,0.8c-0.3-0.1-0.6-0.1-0.9-0.2
			c-0.1,0-0.1,0-0.2-0.1c0,0-0.1-0.1-0.1-0.1c0,0,0,0-0.1,0c0,0-0.1,0-0.1,0c0,0,0,0,0,0c0,0,0,0,0,0c0,0,0,0,0,0
			c-0.2,0.2-0.4,0.5-0.5,0.8c-0.1,0.4-0.2,0.9-0.2,1.3c0,0.4-0.4,0.9,0.1,1.3c0.1,0,0,0.2,0,0.3c-0.3-0.1-0.6-0.1-0.9-0.2
			c0-0.2,0.1-0.4,0.1-0.6c0,0-0.1,0-0.2,0c0,0,0,0.2-0.1,0.2c0,0,0,0.2-0.1,0.2c0,0,0,0,0,0c0,0-0.1-0.2-0.1-0.2
			c0,0-0.1-0.1-0.1-0.1c0,0-0.1-0.1-0.1-0.1c0,0,0,0,0,0c0,0-0.1,0-0.1,0c0,0,0,0,0,0c0,0-0.1,0-0.1-0.1c0,0,0,0,0,0
			c0,0-0.1-0.1-0.1-0.1c0,0-0.1,0-0.1,0c0-0.1-0.2-0.1-0.2-0.2v0c0-0.1,0.1-0.3,0.1-0.5c0-0.3,0-0.6,0.3-0.8c0,0.1,0,0.1,0,0.2
			c0,0,0,0,0,0c0,0,0,0.1,0,0.1c0,0,0,0,0,0c0,0,0,0,0,0.1c0,0,0,0,0,0c0,0,0,0,0,0.1c0,0,0,0,0,0c0,0,0,0,0,0c0,0,0,0,0,0
			c0,0,0,0.3,0,0.3c0,0,0,0.3,0,0.3c0,0,0,0,0,0c0,0,0-0.3,0-0.3c0,0,0.1-0.1,0.1-0.2c0.3-0.5,0.5-0.9,0.7-1.3
			c-0.1-0.1-0.1-0.1-0.2-0.2c-0.3,0.2-0.5,0.3-0.9,0.5c-0.1-0.1-0.1-0.1-0.2-0.2c0,0,0,0-0.1,0c0,0-0.1-0.1-0.1-0.1c0,0,0,0-0.1,0
			c0,0-0.1,0-0.1,0c0,0-0.1,0-0.1,0c0,0-0.1,0-0.1,0c0,0,0,0,0,0c0,0,0,0,0,0c-0.1,0-0.1,0-0.2,0c0,0,0,0,0,0c-0.1,0-0.2,0-0.2,0.1
			c0,0,0,0-0.1,0c-0.1,0-0.1,0.1-0.2,0.1c0,0,0,0,0,0c-0.1,0-0.2,0.1-0.2,0.1c-0.1,0-0.1,0.1-0.2,0.1c0,0,0,0-0.1,0
			c-0.1,0-0.2,0.1-0.2,0.1c0,0,0,0,0,0c-0.1,0-0.1,0.1-0.2,0.1c0,0,0,0-0.1,0c-0.1,0-0.2,0-0.3,0l0,0c0-0.6,0.1-1.2,0.1-1.8
			c0-0.2,0-0.4,0-0.6c0-0.7-0.2-1.3-0.3-2c-0.1,0-0.1,0-0.2,0c0,0.4-0.2,0.6-0.3,0.8c-0.2,0.2-0.4,0.4-0.7,0.6c0,0-0.1,0.1-0.1,0.1
			c-0.2,0.1-0.3,0.2-0.4,0.3c0,0.1-0.1,0.1-0.1,0.1c0,0,0,0,0,0c0,0-0.1,0-0.1,0.1c0,0,0,0-0.1,0c0,0-0.1,0-0.1,0c0,0,0,0-0.1,0
			c0,0-0.1,0-0.1,0c0,0,0,0-0.1,0c-0.1,0-0.1,0-0.2,0c0,0,0,0,0,0c-0.1,0-0.1-0.1-0.2-0.1c0,0,0-0.1,0-0.2c0-0.2,0.1-0.4,0.1-0.6
			c0,0,0,0,0,0c0,0,0-0.1,0-0.1c-0.3-0.2-0.6-0.4-0.9-0.6c0,0.1-0.1,0.1-0.1,0.2c0.2,0.2,0.3,0.3,0.6,0.7c-0.5,0-0.9-0.1-1.2-0.1
			c-0.1,0-0.2,0-0.4,0c0-0.1,0-0.1-0.1-0.2c0.2-0.2,0.4-0.3,0.7-0.5c0-0.3-0.1-0.6-0.2-1c-0.3,0.3-0.5,0.5-0.8,0.9
			c-0.1-0.4-0.3-0.8-0.2-0.9c0.4-0.7-0.2-1.3-0.1-2c0,0,0,0,0,0c0-0.1-0.2-0.1-0.2-0.2c0,0-0.1,0-0.1,0c0,0-0.5,0-0.5,0
			c-0.1,0-0.9,0.1-0.9,0.1c0,0,0,0,0,0c0-0.1,0.9-0.9,0.8-0.9c0,0,0,0,0,0c0,0-0.8,0.4-0.8,0.4v0.1c0,0,0.6,0,0.7-0.1
			c-0.3-0.3-0.4-0.4-0.7-0.7c-0.1-0.1,0.1-0.5,0.1-0.5c0.8-0.2,1.6-0.3,2.4-0.4c0.1,0,0.3,0.3,0.3,0.3c0,0,0.1,0,0.1,0v-0.2
			c0-0.3,1.3-0.6,1.9-0.9c0-0.1,0-0.2,0-0.2c-0.4-0.3-0.8-0.5-1.2-0.8c-0.5-0.4-1.1-0.9-1.6-0.9h0h0c0,0,0-0.1,0-0.1
			c0,0.1,0,0-0.1,0.1c0,0,0,0,0,0c0,0,0,0-0.1,0.1c0,0,0,0,0,0c0,0-0.1,0.1-0.1,0.1c0,0,0-0.1,0-0.1c0,0-0.1-0.1-0.1-0.1
			c0,0,0,0-0.1,0c0,0-0.1,0.1-0.1,0.1c0,0,0,0-0.1,0c-0.1,0-0.1,0.2-0.2,0.1c-0.4-0.3-0.9-0.2-1.4-0.2c0,0,0,0,0,0
			c0,0,0-0.2-0.1-0.2c0,0-0.1,0-0.1,0c0.2,0.1,0.3,0.2,0.4,0.3c-0.1,0-0.1,0-0.2,0c0,0.2,0,0.4,0,0.7c0,0.1,0,0.2,0,0.3
			c-0.2-0.4-0.5-0.7-0.6-1c0-0.1-0.1-0.1-0.1-0.2c0,0,0,0,0,0c0-0.1-0.1-0.1-0.1-0.1c0,0,0,0,0,0c0,0-0.1-0.1-0.1-0.1c0,0,0,0,0,0
			c-0.1,0-0.1,0.1-0.2,0.1c0,0,0,0.2,0,0.2c0,0,0,0,0,0c0,0-0.1-0.2-0.1-0.2c0.2-0.1,0.4-0.2,0.6-0.3c0.2-0.1,0.4-0.1,0.6-0.2
			c0,0,0-0.1,0-0.2c-0.3,0-0.6-0.1-1-0.2c0.1-0.1,0.3-0.1,0.4-0.2c0.3,0,0.7,0,0.5-0.6c-0.2,0-0.3,0.1-0.4,0.1
			c-0.1-0.3-0.1-0.6-0.1-0.9c-0.3,0.2-0.5,0.4-1,0.8c0-0.4,0-0.7-0.2-0.8c-0.1-0.1-0.2-0.1-0.3-0.2c-0.1-0.1-0.3-0.1-0.4-0.1
			c-0.1,0-0.1,0-0.2,0c-0.1,0-0.1,0-0.1-0.1c-0.2,0.2-0.4,0.3-0.6,0.4c-0.2,0.1-0.4,0.1-0.6,0.3c-0.1,0.2-0.1,0.4-0.2,0.8
			c0,0,0.2,0.1,0.3,0.2c0.1,0.1,0.1,0.3,0.1,0.4c0,0,0,0,0,0.1c0,0,0,0,0,0c0,0,0,0,0,0c0,0,0,0,0,0c0,0,0,0-0.1,0c0,0,0,0,0,0
			c0,0,0,0-0.1,0c-0.5-0.1-1-0.2-1.5-0.3c0.2-0.4,0.4-0.8,0.6-1.1c-0.1,0-0.1-0.1-0.2-0.1c-0.4-0.1-0.4-0.2-0.2-0.6
			c0.1-0.3-0.1-0.7-0.1-1.1c-0.2,0.1-0.4,0.1-0.5,0.2c0-0.1-0.1-0.2-0.1-0.3c-0.2,0.2-0.3,0.3-0.5,0.5c-0.3-0.4-0.6-0.8-0.9-1.2
			c0,0.1-0.1,0.2-0.1,0.2c0,0,0,0,0,0.1c0,0-0.1,0.1-0.1,0.1c0,0,0,0,0,0c0,0-0.1,0.1-0.1,0.1c0,0,0,0,0,0c0,0-0.1,0-0.1,0
			c0,0,0,0,0,0c0,0-0.1,0-0.1,0c0,0,0,0,0,0c-0.1,0-0.1-0.1-0.2-0.1c-0.4,0.1-0.6,0.1-1,0.2c0.6-0.7-0.2-0.8-0.4-1.2
			c0.5-0.2,0.9-0.4,1.3-0.7c-0.3-0.6-0.2-0.6,0.8-0.7c0.1,0.5,0.2,1,0.3,1.5c0.5-0.5,0.6-1,0.1-1.6c0.2-0.1,0.4-0.1,0.6-0.2
			c-0.3-0.2-0.6-0.4-0.8-0.6c-0.1-0.1-0.2-0.2-0.2-0.3c0.1-0.1,0.2-0.2,0.3-0.2c0.1,0,0.2,0,0.2,0c0,0,0.1,0,0.1,0c0,0,0.1,0,0.1,0
			c0,0,0.1,0,0.1,0c0,0,0.1,0,0.1,0.1c0,0,0.1,0,0.1,0.1c0,0,0.1,0.1,0.1,0.1c0,0,0,0.1,0.1,0.1c0,0,0,0.1,0.1,0.1c0,0,0,0.1,0,0.1
			c0,0.1,0,0.1,0,0.2c0,0,0,0.1,0,0.1c0,0.1,0,0.1,0,0.2c0,0,0,0.1,0,0.1c0,0.1,0,0.2-0.1,0.3c0.1,0,0.3,0,0.4,0c0-0.2,0-0.4,0-0.5
			c0-0.2,0.1-0.3,0.1-0.6c0.1,0.2,0.2,0.3,0.3,0.5c0,0,0,0.1,0.1,0.1c0,0,0,0.1,0.1,0.1c0,0,0,0,0,0.1c0,0,0,0.1,0.1,0.1
			c0,0,0,0,0,0.1c0,0,0,0.1,0,0.1c0,0,0,0,0,0.1c0,0,0,0,0,0.1c0,0,0,0,0,0c0,0,0,0,0,0.1c0,0,0,0,0,0c0,0,0,0,0,0c0,0,0,0,0,0
			c0,0,0,0,0,0c0,0,0,0,0,0c0,0,0,0,0,0c0,0,0,0,0,0c0,0,0,0,0,0c0,0,0,0,0,0c0,0,0,0,0,0c0,0,0,0,0,0c0,0,0,0,0,0c0,0,0,0,0,0
			c0,0,0,0,0,0c0,0,0,0,0,0c0,0,0,0,0,0c0,0,0,0,0,0c0,0,0,0,0,0c0,0,0,0,0,0c0,0,0-0.5-0.1-0.8c-0.1-0.2-0.2-0.4-0.4-0.7
			c0,0-0.1-0.1-0.1-0.1c-0.1-0.1-0.2-0.2-0.2-0.2c0,0,0-0.1,0-0.1c0-0.2,0.1-0.3,0.2-0.5c0-0.1,0.1-0.1,0.1-0.2
			c0.2,0.2,0.2,0.3,0.3,0.4c0,0,0.1,0,0.1-0.1c-0.1-0.3-0.1-0.6-0.2-0.8c-0.4-0.2-0.7-0.3-1.1-0.5c0-0.1,0.1-0.3,0.1-0.3
			c0.6-0.2,1.1-0.4,1.8-0.5c-0.4-0.1-0.7-0.2-1-0.2c0.3-0.2,0.6-0.3,0.8-0.5c0,0.1,0,0.1,0.1,0.2c0,0,0,0,0,0c0,0,0.1,0.1,0.1,0.1
			c0,0,0,0,0,0c0,0,0.1,0,0.1,0.1c0,0,0-0.1,0-0.1c0,0,0.1-0.1,0.1-0.1c0,0,0,0,0,0c0,0,0,0.1,0,0.1c0.1,0,0.2-0.1,0.3-0.1
			c0.1,0,0.2-0.1,0.3-0.1c0,0,0,0,0,0c0,0,0,0.1,0.1,0.1c0,0,0,0.1,0,0.1c0,0,0,0,0.1,0c0,0,0,0,0,0c0,0,0,0,0.1,0c0,0,0,0,0,0
			c0,0,0.1,0.1,0.1,0.1c0,0,0.1-0.1,0.1-0.1c-0.1-0.1-0.2-0.3-0.2-0.4c0.1,0,0.1,0.1,0.2,0.1c0.2-0.3,0.4-0.6,0.6-0.9
			c0.3,0,0.7,0,0.7-0.4c-0.4-0.3-0.8-0.4-0.9-0.7c-0.1-0.1-0.1-0.3-0.2-0.4c-0.1-0.4,0-0.9,0.5-1.3c-0.3-0.1-0.5-0.1-0.6-0.1
			c-0.3,0.3-0.5,0.5-0.7,0.7c0,0-0.1-0.1-0.1-0.1c0.2-0.3,0.4-0.7,0.6-1.1c-0.4-0.3-0.8-0.7-1.3-1c0.1,0,0.3-0.1,0.3-0.1
			c-0.1-0.6,0.1-1,0.7-1.3c-0.3-0.2-0.4-0.3-0.6-0.4c0,0,0.1-0.1,0.1-0.1c0,0,0.1,0,0.2,0c0,0,0.1,0,0.1,0c0,0,0,0,0.1,0
			c0,0,0.1,0,0.1,0c0,0,0,0,0,0c0,0,0,0,0,0c0,0,0.1,0,0.1,0c0.1-0.1,0.2-0.1,0.3-0.1c0,0,0.1,0,0.1,0c0.1,0,0.1,0,0.2,0
			c0,0,0,0,0.1,0c0.1,0,0.1,0,0.2,0c0,0,0,0,0.1,0c0.1,0,0.1,0,0.2,0.1c0,0,0,0,0,0c0.1,0,0.1,0.1,0.2,0.1c0,0,0,0,0,0
			c0,0,0.1,0.1,0.1,0.1c0,0,0.1,0,0.1,0.1c0,0,0.1,0.1,0.1,0.1c0.1,0.1,0.1,0.1,0.2,0.2c0.2,0.2,0.4,0.5,0,0.8
			c-0.4,0.3-0.3,0.8,0.2,1.2c0.1,0.1,0.1,0.1,0.2,0.1c0,0,0,0,0,0c0.1,0,0.1,0,0.2,0c0,0,0,0,0,0c0,0,0,0,0,0c0,0,0.1,0,0.1,0
			c0,0,0,0,0.1,0c0,0,0.1,0,0.1,0c0,0,0,0,0.1,0c0,0,0.1,0,0.1-0.1c0,0,0,0,0,0c0,0,0.1-0.1,0.1-0.2c-0.2-0.1-0.3-0.2-0.5-0.3
			c0,0,0,0,0,0c0,0,0,0,0,0c0,0,0,0,0.1,0c0,0,0,0,0,0c0,0,0,0,0-0.1c0,0,0,0,0,0c0,0,0,0,0-0.1c0,0,0,0,0,0c0,0,0-0.1,0-0.1
			c0,0,0-0.1,0.1-0.1c0,0,0,0,0,0c0,0,0-0.1,0-0.1c0,0,0,0,0,0c0,0,0,0,0-0.1c0,0,0,0,0,0c0,0,0,0,0.1,0c0,0,0,0,0,0c0,0,0,0,0,0
			c0,0,0,0,0,0c0,0,0,0,0,0.1c0,0,0,0,0,0c0,0,0,0.1,0,0.1c0,0,0,0,0,0.1c0,0.1,0,0.2,0.1,0.3c0-0.3,0.1-0.7,0.1-1
			c0.5-0.2,1-0.3,1.4-0.5c0,0,0,0.1,0,0.1c0.1-0.2,0.2-0.3,0.3-0.5c-0.3-0.2-0.5-0.5-0.8-0.7c0-0.1,0-0.2,0-0.2
			c-0.3,0.2-0.7,0.5-1,0.7c0,0-0.1,0-0.1,0.1c0,0,0-0.4,0-0.4c0,0-0.1-0.4-0.1-0.4c0,0,0,0,0,0c-0.1,0-0.1,0.4-0.2,0.4
			c-0.1-0.1-0.3,0-0.3-0.2c0-0.3,0.1-0.4,0.2-0.6c-0.1-0.1-0.3-0.2-0.4-0.4c0-0.1-0.1-0.1-0.1-0.1v0c0-0.1,0.1-0.2,0-0.3
			c0,0,0,0,0,0c0-0.1-0.1-0.1-0.1-0.2c0,0,0,0,0,0c-0.1,0-0.1-0.1-0.2-0.1c0,0,0,0,0,0c-0.1,0-0.1,0-0.2,0c0,0,0,0,0,0
			c0,0-0.1,0-0.1,0c-0.2,0-0.3,0.4-0.5,0.7c-0.6,0.1-0.4,0.6-0.3,1.1c-0.1-0.1-0.1-0.1-0.2-0.1c0,0,0,0-0.1,0c0,0-0.1,0-0.1-0.1
			c0,0,0,0-0.1,0c0,0-0.1,0-0.1,0c0,0,0,0-0.1,0c0,0-0.1,0-0.1,0c0,0,0,0,0,0c0,0,0,0,0,0c0,0,0,0-0.1,0c0,0-0.1,0-0.1,0
			c0,0,0,0-0.1,0c0,0-0.1,0-0.1,0c0,0,0,0,0,0c0,0-0.1,0.1-0.1,0.1c0,0,0,0-0.1,0c0,0,0,0,0,0c0,0-0.1,0-0.1,0c0,0,0,0-0.1,0
			c0,0-0.1,0-0.1-0.1c-0.1,0-0.1,0-0.2-0.1c0.5-0.7,1-1.3,1.4-2c0.2,0.3,0.3,0.5,0.4,0.6c0.4-0.2,0.7-0.3,1-0.5
			c0.1-0.1,0-0.3,0.1-0.4c-0.1,0-0.1,0-0.2-0.1c0,0,0,0-0.1,0c0,0-0.1,0-0.1-0.1c-0.1,0-0.1-0.1-0.2-0.1c0,0,0,0,0,0
			c-0.1,0-0.1,0-0.2,0c0,0,0,0,0,0c0,0-0.1,0-0.1,0c0,0,0,0,0,0c0,0-0.1,0-0.1,0.1c0,0,0,0,0,0c0,0-0.1,0.1-0.1,0.2
			c0.4-0.7-0.1-1-0.5-1.6c-0.1,0.4-0.3,0.7-0.4,1.2c-0.1-0.8-0.5-1.5,0.1-2.1c-0.4-0.1-0.7-0.3-0.8-0.3c-0.1-0.6-0.1-1.1-0.2-1.6
			c-0.1,0-0.2-0.1-0.2-0.1c-0.1,0-0.2-0.1-0.3-0.2v0l0,0c0,0.1,0.1,0.3,0.1,0.4c0,0.1,0,0.2,0.1,0.3c-0.2-0.1-0.4-0.1-0.7-0.2l0,0h0
			c0.1,0.4,0.2,0.7,0.4,1c0,0-0.1,0-0.2,0.1c0,0,0,0,0,0c0,0,0,0-0.1,0c0,0,0,0-0.1,0c0,0,0,0,0,0c-0.1,0-0.1,0-0.2,0.1c0,0,0,0,0,0
			c0,0-0.1,0-0.1,0c0,0,0,0,0,0c0,0-0.1,0-0.1,0c-0.1-0.1-0.2-0.1-0.2-0.1c0,0,0,0-0.1,0c0,0-0.1,0-0.1,0c0,0,0,0,0,0c0,0,0,0,0,0
			c-0.1,0-0.1,0-0.2,0c0,0,0,0-0.1,0c-0.1,0-0.1,0.1-0.2,0.1c0,0,0,0-0.1,0c-0.1,0-0.1,0.1-0.2,0.1c-0.1,0-0.2,0.1-0.2,0.1
			c-0.1-0.8,0.9-1.7-0.4-2.2c-0.2,0.1-0.4,0.2-0.7,0.4c-0.1-0.4-0.1-0.7-0.2-1c0-0.3-0.1-0.5-0.1-0.8c0,0-0.1,0-0.1,0
			c0,0,0.5,0,0.5,0c-0.1,0,0.1,0,0.1,0c0,0.1,0,0.3,0,0.5c-2,0-0.6-0.1-0.8-0.1c0.2-0.5,0.3-1,0.5-1.5c0.1-0.1-0.1-0.3-0.2-0.5
			c-0.1-0.2-0.2-0.4-0.4-0.6c-0.1-0.1-0.2-0.2-0.3-0.3c-0.3-0.2-0.5-0.3-0.8-0.4c0,0,0,0,0,0c-0.1,0-0.2,0-0.3,0c0,0,0,0,0,0
			c0,0,0,0-0.1,0c-0.1,0-0.2,0.2-0.2,0.2c-0.1,0-0.2,0.2-0.4,0.2c0,0,0,0,0,0c-0.1,0-0.3-0.3-0.6-0.5c0.4-0.1,0.7-0.2,1-0.3
			c0-0.1,0-0.2,0-0.3c0,0,0-0.1,0-0.1c0-0.1,0-0.1-0.1-0.2c0,0,0-0.1-0.1-0.1c0-0.1-0.1-0.1-0.1-0.2c0,0,0-0.1-0.1-0.1
			c-0.1-0.1-0.1-0.1-0.2-0.1c0,0,0,0-0.1-0.1c-0.1-0.1-0.2-0.1-0.3-0.2c0,0,0,0,0,0c-0.1,0-0.2-0.1-0.3-0.1c0,0-0.1,0-0.1,0
			c-0.1,0-0.1,0-0.2,0c0,0-0.1,0-0.1,0c0,0-0.1-0.4-0.1-0.4c-0.1,0-0.2-0.3-0.3-0.3h0c0.1,0,0.1,0.1,0.2-0.1c0.3-0.4,0.7-0.6,1-1
			c0.1-0.1,0-0.3-0.1-0.4c-0.1-0.2-0.3-0.2-0.3-0.4v0V40h0.1c-0.1,0-0.1,0.2-0.2,0.3c0,0,0,0.1-0.1,0.1c0,0-0.1,0.1-0.1,0.1
			c0,0,0,0-0.1,0.1c0,0-0.1,0.1-0.1,0.1c0,0-0.1,0-0.1,0c0,0-0.1,0-0.2,0c0,0-0.1,0-0.1,0c0,0,0,0-0.1,0c0,0-0.1,0-0.1,0
			c0,0-0.1,0-0.1,0c-0.1,0-0.1,0-0.2-0.1c0,0,0,0-0.1,0c-0.1,0-0.2-0.1-0.3-0.1c0,0.2,0,0.3,0,0.4c0,0.1-0.2,0.2-0.3,0.2
			c0.2,0.1,0.3,0.2,0.5,0.3c0,0,0,0,0.1,0c0,0,0,0,0,0c0,0,0.1,0,0.1,0c0.1,0,0.1,0,0.2,0c0,0.2,0.1,0.3,0.1,0.4
			c-0.2,0.1-0.5,0.2-0.6,0.3c0,0.1-0.1,0.2-0.1,0.2c0,0,0,0,0,0.1c0,0.1-0.1,0.1-0.1,0.2c0,0,0,0,0,0c0,0.1-0.1,0.1-0.1,0.1
			c0,0,0,0,0,0c0,0-0.1,0-0.1,0c0,0,0,0-0.1,0c0,0-0.1,0-0.1,0c0,0,0,0-0.1,0c-0.1,0-0.2-0.1-0.2-0.1c0.1,0.2,0.2,0.4,0.4,0.5
			c0.1,0.2,0.2,0.3,0.4,0.5c0,0-0.2,0-0.3,0.1c-0.3-0.1-0.9-0.2-0.9-0.3c0,0,0,0.1,0,0.1c0,0,0-0.1,0-0.1c0,0.3,0,0.6,0,0.8
			c0,0.2,0.8,0.2,1.1,0.4c0.1,0.1,0.1,0.3,0.1,0.5c0,0,0,0,0,0c-0.1-0.1-0.1-0.2-0.1-0.2c0,0,0,0,0,0c0,0,0,0,0,0
			c-0.2,0.2-0.3,0.4-0.5,0.6c-0.5-0.3-0.8-0.6-1.2-0.9c0.4-0.3,0.8-0.5,0.4-1.1c0,0,0,0-0.1,0c0,0,0,0,0,0c0,0,0,0-0.1,0
			c0,0,0,0,0,0c0,0,0,0,0,0c0,0-0.2,0-0.2,0c0,0-0.2,0-0.2,0c0,0,0,0,0,0c0,0.1,0.3,0.2,0.3,0.3c-0.1,0.1-0.1,0.3-0.3,0.4
			c-0.1-0.1-0.1-0.3-0.1-0.4c0,0,0,0,0-0.1c0,0,0,0,0,0c0,0,0,0,0,0c0,0,0,0,0,0c0,0,0,0.5,0-0.5h0c0,0,0,0.2,0,0.2
			c0,0-0.1,0.1-0.1,0c0,0,0,0,0,0c0,0,0,0-0.1,0c0,0,0,0,0,0c0,0,0,0-0.1,0c0,0,0-0.1-0.1-0.1c0,0,0-0.1-0.1-0.1c0,0,0,0,0,0
			c0,0,0,0.1,0,0.1c-0.1,0-0.1,0.1-0.2,0.1c0,0,0,0,0,0c-0.1,0-0.1,0-0.2,0c-0.1,0-0.1,0-0.2,0c0,0,0,0.3,0,0.3c0,0-0.1,0.3-0.1,0.3
			c0,0,0,0,0,0c0,0-0.1-0.3-0.1-0.3c0,0,0-0.2,0-0.2c0,0-0.1-0.1-0.1-0.1c0,0,0-0.1,0-0.1c0,0-0.1-0.1-0.1-0.1c0,0,0,0,0,0
			c0,0-0.1-0.1-0.1-0.1c0.2-0.1,0.4-0.2,0.6-0.3c0-0.1,0-0.2,0-0.3c0-0.1,0-0.2,0-0.3c0,0,0.1,0,0.1-0.1c0-0.1,0.1-0.1,0.1-0.2v0
			c0,0,0-0.1,0-0.1c0,0,0,0.1,0,0.1c0,0,0.1,0,0.1,0c0,0,0,0,0,0c0,0,0.1-0.1,0.1-0.1c0,0,0,0,0.1,0c0.1,0,0.1,0,0.2,0
			c0,0,0.1,0,0.1,0c0,0,0,0,0,0c0,0,0.1,0,0.2,0c0,0,0,0,0,0c0,0,0,0,0,0c0,0,0.1,0,0.1,0c0,0,0,0,0,0c0,0,0.1,0,0.1,0c0,0,0,0,0,0
			c0,0,0.1,0,0.1-0.1c0,0,0,0,0,0c0,0,0.1-0.1,0.1-0.1c0.2-0.3,0.6-0.5,1-0.7c0.5-0.3,0.7-0.6,0.3-1.1c-0.1,0.1-0.2,0.3-0.4,0.5
			c-0.1-0.4-0.2-0.6-0.2-0.8c0.4-0.2,0.8-0.2,1.1-0.5c0.3-0.2,0.6-0.6,0.4-1.1c0,0,0,0,0,0c0,0,0.1-0.3,0.2-0.4
			c0.1-0.2,0.2-0.6,0.4-0.6c-0.1,0-0.2,0-0.3,0c0.1,0,0.2,0,0.3,0c-0.5,0-0.8,0-1.1,0c0,0,0,0.2,0,0.1c0.3-0.2,0.5-0.1,0.8-0.3
			c0-0.1,0,0-0.1-0.1c0,0,0,0,0.1,0c-0.1-0.4-0.7-0.7-0.8-1.1c0-0.1,0.1-0.6,0.3-0.6c-0.1,0-0.1,0-0.2,0c0,0,0.1,0,0.2,0
			c-0.4,0-1.3,0-1.3,0l0,0l0,0c0,0,0,0.3,0,0.3c0,0-0.1,0-0.2-0.1c0,0,0,0,0,0.1c-0.1,0-0.1,0-0.1,0c0.1,0.2,0.2,0.4,0.3,0.5
			c-0.2,0.2-0.3,0.4-0.5,0.6c0,0,0.1,0.1,0.1,0.1c0,0,0,0,0,0c0,0,0,0,0,0c0.2-0.1,0.3-0.2,0.5-0.2c0,0,0.1,0.1,0.2,0.1
			c-0.3,0.6-0.6,1.1-1,1.7c-0.7-0.3-0.3-1.3-1.1-1.4c0,0,0,0,0,0c0,0,0,0,0-0.1c0,0,0-0.1,0-0.1c0,0,0,0,0,0c0-0.1,0-0.2,0-0.3
			c0,0,0,0,0,0c0,0,0,0,0-0.1c0,0,0,0,0,0c0,0,0,0-0.1-0.1c0,0,0-0.1,0-0.1c0,0-0.1-0.1-0.1-0.1c0,0,0,0,0,0c-0.1,0-0.1,0.1-0.2,0.1
			c-0.1,0-0.2,0.1-0.2,0.1c0,0,0,0-0.1,0c0,0-0.1,0-0.1,0c-0.1,0-0.2,0-0.3,0c0,0,0,0,0,0c-0.1,0-0.1-0.1-0.2-0.1c0,0,0,0,0,0
			c-0.1-0.1-0.1-0.1-0.1-0.2c0,0,0,0,0-0.1c0-0.1-0.1-0.2-0.1-0.3c0.3,0,0.6-0.1,0.8-0.1c0.7-0.2,1.4-0.4,2.2-0.7
			c0.3-0.1,0.6-0.4,0.5-0.8c0-0.3-0.2-0.6,0.2-0.9c0,0-0.2-0.4-0.2-0.6c-0.1,0-0.1,0-0.2,0.1c-0.1,0.2-0.1,0.4-0.2,0.6
			c-0.3-0.3-0.5-0.6-0.7-0.8c-0.6-0.3-0.7-0.6-0.1-1.2c-0.1,0-0.2,0-0.2,0c0,0,0,0,0,0c-0.1,0-0.2,0-0.3,0c0,0,0,0,0,0
			c-0.1,0-0.2-0.1-0.3-0.1c0,0,0,0,0,0c-0.1,0-0.1-0.1-0.2-0.2c0,0,0,0,0,0c-0.1-0.1-0.1-0.1-0.2-0.2c0,0,0,0,0,0
			c-0.1-0.1-0.1-0.1-0.2-0.2c-0.1-0.1-0.1-0.1-0.2-0.2c0,0,0,0,0,0c-0.1-0.1-0.1-0.1-0.2-0.2c0,0,0,0,0,0c-0.1-0.1-0.1-0.1-0.2-0.2
			c0.1,0.3,0.2,0.5,0.4,0.6c0.4,0.3,0.5,1.1,0.3,1.4c0.1,0.1,0.2,0.3,0.3,0.4c0,0.1-0.1,0.1-0.1,0.2c-0.4-0.2-0.8-0.5-1.1-0.7
			c0.2-0.3,0.3-0.6,0.5-0.9c-1,0.2-1,0.2-0.8,0.9c-0.1-0.2-0.3-0.3-0.4-0.5c-0.3-0.7-0.5-1.5-0.8-2.2c-0.1-0.2,0-0.5,0.1-0.7
			c0.6,0,1.1,0.3,1.1,0.9c0.6-0.5,0.6-0.6,0.2-1.6c0.3-0.2,0.7-0.3,1.1-0.6c-0.3-0.2-0.4-0.3-0.7-0.4c0.3,0,0.4,0,0.6-0.1
			c0-0.1,0-0.1,0-0.2c-0.3-0.1-0.6-0.2-1-0.3c0.2-0.2,0.3-0.3,0.5-0.5c0.1,0,0.3,0.1,0.4,0.1c0,0,0-0.1,0.1-0.1c0,0,0-0.1,0-0.1
			c0,0,0,0,0-0.1c0,0,0-0.1,0.1-0.1c0,0,0,0,0,0c0,0,0-0.1,0.1-0.1c0,0,0,0,0,0c0,0,0,0,0.1-0.1c0,0,0,0,0,0c0,0,0.1,0,0.1,0
			c0,0,0,0,0,0c0,0,0.1,0,0.1,0c0,0,0,0,0.1,0c0.1,0,0.1,0.1,0.2,0.1c-0.1,0.3-0.2,0.5-0.3,0.8c0.5,0,0.9,0.2,0.9,0.7
			c0.1,0,0.3,0.1,0.4,0.1c0.1,0,0.2,0.2,0.4,0.2c0,0,0,0.2,0,0.2c0,0,0,0,0,0c0,0,0-0.1,0-0.1c0,0,0.1-0.1,0.1-0.1c0,0,0,0,0,0
			c0.1,0,0.1,0,0.1,0c0,0,0,0.1,0,0.1c0,0,0.1,0.1,0.1,0.1c0,0,0,0,0,0c0,0,0.1,0,0.1,0c0,0.3,0,0.5,0,0.9c0,0,0.1,0.1,0.1,0.1
			c0,0,0,0,0,0c0,0,0.1,0,0.1,0c0,0,0,0,0,0c0,0,0,0,0.1,0c0,0,0,0,0,0c0,0,0,0,0,0c0,0,0,0,0,0c0,0,0,0,0.1,0c0,0,0,0,0,0
			c0,0,0,0,0.1-0.1c0,0,0,0,0-0.1c0,0,0-0.1,0.1-0.1c0,0,0,0,0-0.1c0-0.1,0.1-0.2,0.1-0.3c0-0.1,0.1-0.1,0.1-0.2
			c0.3-0.4,0-1.3-0.5-1.4c0.2-0.1,0.3-0.2,0.5-0.2c-0.1-0.1-0.1-0.2-0.2-0.3c-0.4-0.8,0.1-1.7-0.1-2.5c0,0-0.1,0.1-0.1,0.1
			c0,0,0-0.1,0-0.1c-0.8,0.6-0.9,1.5-1.2,2.2c-0.1,0-0.4,0-0.4,0.1c0,0,0,0,0-0.1c0,0,0,0,0,0c0-0.1,0-0.1,0-0.2c0,0,0,0,0,0.1
			c0,0,0,0,0-0.1c-0.1,0.2-0.1,0.3-0.2,0.5c0,0-0.1,0-0.1-0.1c0.2-0.4,0.5-0.8,0.5-1.2c-0.1-0.3-0.6-0.6-0.9-0.9
			c0.2-0.1,0.4-0.2,0.7-0.3c-0.3-0.1-0.5-0.2-0.7-0.2c0.1-0.6,0.2-0.7,0.3-1.7H168c0,0,0,0.1,0,0.1c0,0.2-0.5,0.3-0.8,0.5
			c0,0,0.1,0,0.1,0c0,0,0.1,0,0,0c-0.1-0.1,0-0.1,0-0.2c0.2-0.1,0.6-0.3,0.6-0.4c0-0.6,0-1.1,0-1.6c0,0.1-0.3,0.2-0.4,0.3
			c0,0-0.2,0-0.2,0c0.1-0.2,0.3-0.3,0.4-0.4c0,0,0.1,0,0.1,0c0,0.1,0,0.3,0,0.4c0,0-0.6-0.1-0.7-0.1c0,0-0.2,0-0.2,0
			c0,0-0.1,0-0.1,0c-0.1,0.1-0.1,0.2-0.2,0.2c-0.2,0-0.4-0.1-0.7-0.1c0-0.1,0.1-0.3,0.1-0.5c0-0.1,0-0.2,0-0.2H166c0,0,0-0.3,0-0.3
			c0,0.1-0.2,0.2-0.2,0.3c0,0,0,0.1,0,0.1c0,0,0,0.1,0,0.1c0,0,0,0.1,0,0.1c0,0,0,0.1,0,0.1c0,0,0,0,0,0c0,0,0,0,0,0
			c0,0,0,0.3,0,0.3c0,0,0,0.3-0.1,0.3c0,0,0,0,0,0c0,0-0.1-0.3-0.2-0.3c0,0-0.2-0.1-0.2-0.1c-0.1,0-0.3-0.1-0.3-0.2v0v0
			c0,0.2-0.1,0.4-0.2,0.7c-0.1,0,0,0.1-0.1,0.1c0.1-0.4,0.3-1.1,0.4-1.1h0l0,0c-0.2,0-0.4-0.1-0.5-0.1c-0.1-0.4-0.2-0.8-0.3-1.2
			c-0.1,0.1-0.3,0.1-0.4,0.1s-0.2,0.1-0.3,0.2c-0.1,0.3-0.3,0.6-0.4,0.9c-0.2,0.3-0.4,0.6-0.6,0.8c-0.2,0.2-0.3,0.6-0.3,0.8
			c0,0.3,0,0.6,0,1c0,0.3,0,0.6,0,1c0,0-0.5,0-0.5,0c0,0,1.3,0-0.7,0.1c0,0.2,0,0.3,0,0.4c0-0.1,0.1-0.2-0.2-0.3
			c0.4-0.5,0.4-0.8,0-1.1c0.2-0.2,0.6-0.4,0.9-0.6c-0.3,0-0.4-0.1-0.6-0.1c0.1-0.2,0.2-0.4,0.3-0.6c0,0,0,0,0,0c0,0,0,0,0,0
			c-0.2,0.1-0.3,0.1-0.5,0.2c0.2-0.5,0.3-1,0.4-1.6c0.1,0.1,0.1,0.2,0.2,0.3c0,0,0,0,0,0c0,0,0,0,0.1,0c0,0,0,0,0,0c0,0,0,0,0.1,0
			c0,0,0,0,0,0c0,0,0,0,0,0c0,0,0,0,0,0c0,0,0,0,0.1,0c0,0,0,0,0,0c0,0,0.1,0,0.1-0.1c0,0,0,0,0,0c0,0-0.6-0.1-0.5-0.1
			c0.1,0.2-0.4,0.4-0.4,0.6c0,0,0,0.3,0,0.3h1.2c0-1,0-1.7,0.1-2.4c0.1-0.7-0.5-1.2-0.8-1.7c0.5-0.5,0.3-1.4-0.4-1.8
			c0.1-0.1,0.1-0.5,0.2-0.7c-0.2,0-0.4-0.3-0.6-0.3l0,0h0c0.2,0,0.4,1.5,0.4,2.1c0,0.3,0,0.8-0.2,1c-0.1,0.1-0.2,0.2-0.3,0.3
			c-0.1,0-0.1,0.1-0.2,0.1c0,0,0,0-0.1,0c0,0-0.1,0-0.1,0c0,0,0,0-0.1,0c-0.1,0-0.1,0-0.2,0c0,0,0,0-0.1,0c-0.1,0-0.1,0-0.2-0.1
			c-0.1,0-0.1,0-0.2-0.1c0,0,0,0-0.1,0c-0.1,0-0.1,0-0.2-0.1c-0.1,0-0.2,0-0.3,0c0,0-0.1,0-0.1,0c-0.1,0-0.1,0-0.2,0
			c-0.1,0-0.1-0.1-0.2-0.1c-0.1,0-0.1-0.1-0.1-0.1c0,0,0,0,0,0c0,0-0.1,0.1-0.1,0.1c0,0,0,0.1,0,0.1c0,0-0.1,0-0.1,0c0,0,0,0,0,0
			c0,0,0-0.1-0.1-0.1c0,0,0,0,0,0c0,0,0-0.1,0-0.2c-0.1-0.7,0.2-1.4-0.4-2c-0.1-0.1,0-0.3,0.1-0.5c0-0.2,0.1-0.4,0.2-0.6
			c-0.6,0.1-0.5,0.5-0.6,0.9c0,0.2-0.1,0.4-0.2,0.6c0,0,0,0.1,0,0.2c0.1,0,0.3,0,0.4,0c-0.1,0.3-0.3,0.6-0.4,1
			c-0.5,0.2-0.5,0.2-0.3,0.9c0,0.1-0.2,0.3-0.4,0.4c0,0-0.1,0-0.1,0c0,0,0,0,0,0c0,0-0.1,0-0.1,0c-0.1,0-0.1,0-0.2,0
			c-0.1,0-0.2,0-0.2,0c0.5,0.4,0.9,0.7,1.5,1.1c-0.3,0.1-0.5,0.1-0.6,0.1c0.2,0.3,0.4,0.5,0.6,0.8c-0.2,0.3-0.4,0.5-0.4,0.7
			c0.2,0.4-0.2,0.6-0.4,0.9c-0.1,0.2-0.3,0.4-0.3,0.5c0.2,0.4,0.5,0.7,0.8,1.1c0.2-0.3,0.3-0.4,0.4-0.6c0.1,0,0.1,0,0.2,0
			c0,0.6-0.1,1.2-0.1,1.8c0.1,0,0.2-0.1,0.5-0.1c-0.2,0.2-0.3,0.4-0.3,0.4c-0.4-0.2-0.7-0.4-1-0.5c0,0.1-0.1,0.1-0.1,0.2
			c0.4,0.3,0.8,0.5,1.3,0.9c-0.4,0.2-0.7,0.3-0.9,0.4c0,0.2,0.1,0.5,0,0.6c-0.3,0.4-0.3,0.7,0.1,0.9c0,0-0.1,0.2-0.1,0.3
			c-0.7-0.5-0.5-1-0.1-1.6c-0.3,0.1-0.5,0.1-0.6,0.2c-0.1,0.3-0.3,0.6-0.4,0.8c0,0.1,0.1,0.2,0.2,0.3c-0.3,0.1-0.7,0.2-0.9,0.4
			c-0.2,0.2-0.3,0.6-0.4,1c-0.7-0.7,0.4-0.7,0.2-1.2c0,0-0.1,0-0.1,0c0,0-0.1,0-0.1,0c0,0,0,0,0,0c0,0,0,0,0,0c0,0-0.1,0-0.1,0
			c-0.3,0.3-0.6,0.6-0.8,1c0,0.1-0.1,0.1-0.1,0.1c0,0,0,0,0,0c0,0,0,0-0.1,0.1c0,0,0,0,0,0c0,0,0,0-0.1,0c0,0,0,0,0,0c0,0,0,0-0.1,0
			c0,0,0,0-0.1,0c0,0,0,0,0,0c0,0-0.1,0-0.1,0c0,0,0,0,0,0c0,0-0.1,0-0.1-0.1c0,0,0,0,0,0c-0.1,0-0.1-0.1-0.2-0.1
			c-0.1,1.1-0.1,2-0.2,3c0.1,0,0.2,0.1,0.2,0.1c0.4-0.3,0.8-0.3,1.2-0.5c0,0,0.1,0.2,0.1,0.2c0,0,0,0,0,0c0,0,0-0.2,0.1-0.2
			c0,0,0-0.1,0-0.1c0,0,0,0,0,0c0.1,0.1,0.1,0.2,0,0.3c0,0.2-0.2,0.3-0.1,0.5c0,0.4,0.2,0.8,0.1,1.1c-0.1,0.5,0,1,0.3,1.3
			c-0.2,0.1-0.5,0.2-0.7,0.3c0.1,0.3,0.3,0.5,0.4,0.8c0.1,0.1,0.2,0.3,0.3,0.3c-0.2,0.3-0.4,0.6-0.5,0.8c0,0.1,0,0.3,0.1,0.4
			c-0.1-0.1-0.3-0.2-0.5-0.2c0,0.1-0.1,0.1-0.1,0.2c0,0,0,0,0,0c0,0-0.1,0.1-0.1,0.1c0,0,0,0,0,0c0,0-0.1,0-0.1,0.1c0,0,0-0.3,0-0.3
			c0,0-0.1-0.2-0.1-0.2c0,0,0,0,0,0c-0.1,0-0.1,0.2-0.2,0.2c0,0,0-0.1,0-0.1c-0.1,0-0.1-0.2-0.2-0.2h0c-0.1,0-0.1,0.1-0.2,0
			c-0.1,0-0.1,0-0.2,0c-0.6,0.8,0.4,0.6,0.6,1c-0.2,0.1-0.5,0.1-0.6,0.2c-0.2,0.1-0.4,0.5-0.3,0.5c0.5,0.5-0.1,1.2,0.2,1.8
			c0.1,0.1,0,0.3,0,0.4c-0.2-0.1-0.4-0.2-0.6-0.2c0-0.2,0.1-0.4,0.1-0.6c-0.3,0-0.5,0.1-0.7,0.1c0.1,0.1,0.1,0.2,0.2,0.4
			c0,0-0.1,0.1-0.1,0.1c-0.2-0.3-0.4-0.6-0.6-1c-0.1,0-0.1,0-0.2,0.1c0.1,0.3,0.1,0.5,0.2,0.8c0,0.2,0.1,0.4,0,0.4
			c0,0-0.1,0.1-0.1,0.1c0,0,0,0,0,0c0,0-0.1,0-0.1,0.1c0,0,0,0-0.1,0c0,0-0.1,0-0.1,0c0,0,0,0,0,0c0,0-0.1,0-0.1,0
			c-0.2-0.1-0.3-0.1-0.4-0.1c0,0,0,0,0,0c-0.3,0-0.5,0.2-0.6,0.4c0,0,0.1-0.1,0.1-0.1c-0.1-0.1,0-0.3,0-0.5v0h-0.4
			c0,0,0.4,0.1,0.4,0.1c0,0.2,0,0.4,0,0.7c0,0,0,0,0,0c0,0.1,0,0.1,0,0.2c0,0,0,0,0-0.1c0,0,0,0,0,0.1c0-0.1,0.3-0.2,0.4-0.3
			c0-0.1,0.1-0.2,0.1-0.4c0.2,0.7,0,0.9-0.5,1c-0.1,0-0.2-0.1-0.4-0.1c-0.1,0-0.2-0.2-0.3-0.2c0,0,0,0,0,0c-0.1,0-0.1,0.2-0.2,0.2
			c0,0,0,0.1,0,0.1c-0.2,0-0.4,0.1-0.6,0.3c-0.1,0-0.1,0-0.2,0c0,0-0.1,0-0.1,0c0,0,0,0,0,0c-0.2-0.1,0.1-0.6-0.2-0.7c0,0,0,0,0,0
			c0,0,0,0,0,0c-0.2,0.1-0.5,0.3-0.8,0.5c0.3,0.1,0.5,0.2,0.8,0.3c-0.8,0.1-0.5,0.7-0.6,1.2c-0.2-0.2-0.3-0.3-0.3-0.4
			c-0.1-0.1-0.1-0.2-0.1-0.3v0v0c0,0.1,0,0.2-0.1,0.3c0,0,0,0,0,0.1c0,0.1,0,0.1-0.1,0.2c0,0,0,0,0,0.1c0,0,0,0.1,0,0.1
			c0,0,0,0,0,0.1c0,0,0,0.1-0.1,0.1c0,0,0,0,0,0c0,0,0,0-0.1,0.1c0,0,0,0,0,0c0,0-0.1,0-0.1,0c0,0,0,0-0.1,0c0,0-0.1,0-0.1,0
			c0,0,0-0.2-0.1-0.2c-0.1,0-0.2-0.2-0.2-0.2h0l0,0v0.5c-1,0.7-0.7,1.5-1.1,2.5c0,0,0,0,0,0c0,0,0.1-0.3,0.1-0.2c0,0,0-0.2,0-0.1
			c0,0,0-0.1,0-0.1c0,0,0,0,0.1-0.1c0,0,0,0,0,0c0,0,0.1-0.1,0.1-0.1c0,0,0,0,0,0c0,0,0-0.1,0.1-0.1c0,0,0-0.1,0.1-0.1
			c0,0,0,0,0-0.1c0,0,0.1-0.1,0.1-0.1c0,0,0,0,0,0c0,0,0.1,0,0.1-0.1c0,0,0,0,0,0c0,0,0.1,0,0.1,0c-0.1,0.2-0.1,0.6-0.2,0.6
			c-0.1,0-0.2,0.1-0.3,0.1c-0.3,0.1-0.6,0.2-0.9,0.3c-0.1-0.1-0.2-0.3-0.3-0.5c-0.2,0.2-0.5,0.3-0.5,0.5c0,0.1,0,0.2-0.1,0.3
			c0,0,0,0,0,0.1c0,0.1,0,0.1-0.1,0.1c0,0,0,0,0,0.1c0,0-0.1,0.1-0.1,0.1c0,0,0,0,0,0c-0.1,0-0.1,0-0.2,0c0,0,0,0,0,0
			c-0.1,0-0.1,0-0.2,0c0,0,0-0.2-0.1-0.2c-0.1,0-0.2-0.4-0.3-0.4c0,0,0,0,0,0c0,0,0,0.2,0,0.2c0,0-0.1,0.1-0.1,0.2
			c0.4,0.3,0.7,0.7,1.1,1.1c0.1-0.2,0.1-0.3,0.2-0.4c0,0,0.1,0,0.1,0c0,0,0.1,0,0.1,0c0,0,0,0,0,0c0,0,0.1,0,0.1,0c0,0,0,0,0,0
			c0,0,0,0,0.1,0c0.1,0.3,0.2,0.6,0.3,1c0,0.1-0.1,0.1-0.1,0.1c0,0,0,0,0,0c0,0,0,0-0.1,0.1c0,0,0,0,0,0c0,0,0,0,0,0c0,0,0,0,0,0
			c0,0,0,0,0,0c0,0,0,0,0,0c0,0,0,0-0.1,0c0,0,0,0,0,0c0,0,0,0-0.1,0c0,0,0,0,0,0c0,0-0.1,0-0.1-0.1c0,0,0,0,0,0c0,0-0.1,0-0.1-0.1
			c0,0-0.1,0-0.1-0.1c0,0,0,0,0,0c0,0,0,0-0.1,0c0,0,0,0,0,0c0,0-0.1,0-0.1,0c0,0,0,0,0,0c0,0,0,0-0.1,0c0,0,0,0,0,0c0,0,0,0,0,0
			c0,0-0.1,0-0.1,0c-0.2-0.2-0.3-0.5-0.5-0.6c-0.7-0.4-1.4-0.7-2.1-1.1c-0.3-0.1-0.6-0.1-0.8-0.1c0.4-0.5,0.5-0.6,0.1-1.1
			c-0.2-0.2-0.5-0.3-0.8-0.3c0,0,0,0,0,0c0,0,0-0.1,0-0.1c0,0,0,0,0,0c0,0,0,0-0.1,0c0,0,0,0,0,0c0,0,0,0.1-0.1,0.1c0,0,0,0,0,0
			c0,0-0.1,0.1-0.1,0.1c-0.2,0.3-0.3,0.6-0.4,0.9c0-0.1-0.1-0.2-0.1-0.3c0,0,0-0.1,0-0.1c0-0.1-0.1-0.1-0.1-0.2c0,0,0,0,0-0.1
			c0-0.1,0-0.1-0.1-0.1c0,0,0,0,0,0c0-0.1-0.1-0.1-0.1-0.1c0,0,0,0,0,0c0,0,0-0.1-0.1-0.1c0,0,0,0,0,0c0,0,0,0,0-0.1c0,0,0,0,0,0
			c0,0,0,0-0.1,0c0,0,0,0,0,0c0,0,0,0-0.1,0c0,0,0,0,0,0c0,0,0,0,0,0c0,0,0,0-0.1,0c0,0,0,0,0,0c0,0-0.1,0-0.1,0c0,0,0,0,0,0
			c0,0-0.1,0-0.1,0.1c0,0,0,0,0,0c0,0-0.1,0.1-0.1,0.1c0.2,0.1,0.3,0.2,0.6,0.4c-0.3,0.1-0.6,0.2-0.8,0.3c0.1,0.1,0.1,0.2,0.2,0.2
			c0.2,0,0.3,0.1,0.6,0.1c-0.1,0.2-0.1,0.4-0.2,0.5c-0.3,0-0.6-0.1-0.9-0.1c0.1-0.5-0.2-0.5-0.6-0.5c0,0-0.1,0-0.1,0c0,0,0,0,0,0
			c0,0-0.1,0-0.1,0c0,0-0.1,0-0.1,0c0,0,0,0-0.1,0c0,0-0.1,0-0.1,0c0,0,0,0-0.1,0c0,0,0,0-0.1,0c0,0,0,0,0,0c0,0,0,0-0.1,0
			c0,0,0,0-0.1,0.1c0,0,0,0,0,0c0,0,0,0-0.1,0c0,0,0,0,0,0c0,0-0.1,0-0.1,0c0,0.5-0.1,0.8-0.1,1.2c-0.1,0.1-0.3,0.1-0.4,0.2
			c0,0.3,0,0.6,0.1,0.9c0.3,0.8-0.7,0.5-0.9,1c0,0.1-0.4,0.2-0.6,0.3c0,0,0,0,0,0c0,0,0,0,0,0c0,0,0,0,0,0c0,0,0,0,0,0
			c0,0,0,0,0-0.1c0,0,0,0,0,0c0,0,0-0.1-0.1-0.1c-0.1-0.1-0.1-0.2-0.2-0.3c0,0-0.1,0-0.1,0.1c0.1,0.2,0.1,0.4,0.2,0.7
			c-0.2-0.1-0.4-0.1-0.4-0.2c-0.2-0.4-0.4-0.7-0.6-1.1c0,0-0.1-0.1-0.1-0.1c0,0,0,0,0,0c0,0-0.1,0-0.1-0.1c0,0,0,0-0.1,0
			c0,0-0.1,0-0.1,0c0,0,0,0,0,0c0,0,0,0,0,0c0,0,0,0-0.1,0c-0.1,0-0.2,0.1-0.2,0.1c0,0,0,0-0.1,0c-0.1,0-0.1,0-0.1,0c0,0,0,0-0.1,0
			c0,0-0.1,0-0.1,0c0,0,0,0,0,0c-0.1,0-0.1-0.1-0.1-0.1c0,0,0,0,0,0c0,0-0.1-0.1-0.1-0.1c0,0,0,0,0-0.1c0,0-0.1-0.1-0.1-0.1
			c0,0,0,0,0-0.1c0,0-0.1-0.1-0.1-0.1c0-0.1-0.1-0.1-0.1-0.2c-0.4-0.6-0.5-1.2,0.1-1.8c-0.1,0-0.1,0-0.2,0c0,0-0.1,0-0.1,0
			c0,0,0,0,0,0c0,0,0,0,0,0c-0.1,0-0.1,0.1-0.2,0.1c0,0-0.1,0-0.1,0.1c0,0,0,0-0.1,0c-0.1,0-0.1,0-0.2,0.1c0,0,0,0,0,0
			c-0.1,0-0.1,0-0.2,0c0,0-0.1,0-0.1,0c0,0,0,0,0,0c0,0-0.1,0-0.1,0c0,0,0,0,0,0c0,0-0.1-0.1-0.2-0.1c0,0,0,0,0,0c0,0,0,0,0,0
			c0,0,0,0,0,0c0,0,0,0-0.1,0c0,0,0,0,0,0c0,0-0.1,0-0.1,0c0,0,0,0,0,0c0,0-0.1,0-0.1,0.1c-0.2,0.4-0.3,0.7-0.4,1.1
			c-0.3,0.2-0.7,0.4-1.1,0.5c-0.1-0.1-0.3-0.3-0.5-0.4c-0.2,0.2-0.3,0.4-0.5,0.5c0.1,0.3,0.2,0.5,0.3,0.7c-0.1,0-0.1,0.1-0.2,0.1
			c-0.2-0.2-0.5-0.3-0.5-0.4c0.1-0.6-0.2-0.7-0.7-0.8c-0.1,0-0.3,0-0.4-0.1c0,0,0,0,0,0.1c-0.1,0.1-0.6,0.3-0.6,0.4
			c0.1,0.1-0.3,0.2-0.3,0.3c0,0.3,0,0.6,0,0.9c0,0,0,0,0-0.1c0,0,0,0,0,0.1c0,0,0.6,0,0.7-0.1c0.2,0.1,0.7,0.2,0.7,0.3
			c-0.1,0.4,0.5,0.9-0.1,1.2c-0.1,0,0.1,0.4,0.1,0.5c0.1,0,0.2-0.2,0.2-0.2c0,0,0-0.2,0-0.2s0,0,0,0c0.1,0,0.3-0.3,0.4-0.5
			c0.4,0.3,0.3,0.7,0,0.9c-0.4,0.3-0.8,0.5-0.8,1.1c0,0.1-0.1,0.2-0.2,0.3c-0.5,0.4-1,0.7-1.6,1.2c0.3,0.1,0.5,0.1,0.8,0.2
			c-0.7,0.6-0.9,1.3-0.4,2.2c-0.3-0.1-0.5-0.2-0.7-0.3c0,0.3,0,0.5,0,0.6c-0.1,0.1-0.2,0.1-0.3,0.2c-0.1,0.1-0.2,0.1-0.2,0.2
			c-0.1,0.4-0.3,0.5-0.5,0.6c-0.1,0-0.3,0.1-0.5,0.1c0-0.1,0-0.2-0.1-0.3c0,0,0,0,0,0c0-0.1-0.1-0.2-0.1-0.3c0,0,0,0,0,0
			c-0.1-0.1-0.1-0.2-0.2-0.2c0,0,0,0,0,0c-0.1-0.1-0.2-0.1-0.2-0.2c0,0,0,0,0,0c-0.1-0.1-0.2-0.1-0.3-0.2c0,0,0,0,0,0
			c-0.1-0.1-0.2-0.1-0.3-0.1c0,0,0,0,0,0c-0.1,0-0.2-0.1-0.3-0.1c0,0,0,0,0,0c-0.1,0-0.2,0-0.3,0c0,0,0,0,0,0c0,0,0,0,0,0
			c-0.1,0-0.2,0-0.2,0c-0.1,0.4-0.1,0.8-0.2,1.1c-0.3,0.7-0.7,1.4-1,2.1c-0.1,0.3-0.1,0.6-0.2,1c-0.3,0-0.7,0-1.2-0.1
			c0-0.2,0-0.6-0.1-0.9c-0.1,0-0.1,0-0.2,0c0,0.1,0,0.3-0.1,0.6c-0.3-0.4-0.6,0.1-0.9-0.9c0.2,0,0.4,0,0.6,0c0.1,0,0.1,0,0.2,0.2
			c0.1,0,0.1-0.1,0.2-0.1c0,0,0,0,0-0.1c0,0,0,0,0,0c0-0.5-0.1-0.9-0.1-1.4c-0.2-0.1-0.5-0.2-0.7-0.4c-0.1,0.1,0,0.2-0.1,0.4
			c0-0.3,0.1-0.7,0.1-1l0,0c0,0,0,0,0,0c0,0-0.3,0-0.3,0c-0.1,0.1-0.3,0.2-0.5,0.4c-0.2-0.3-0.3-0.6-0.4-0.9c-0.6,0-1.1,0.4-1.2,0.9
			c0,0.1,0-0.2,0-0.2c0,0.4,0.6,0.2,0.8,0.2c0,0,0,0,0,0c-0.1,0-0.2,0-0.2,0c-0.1,0-0.1,0-0.2,0c0,0,0,0-0.1,0
			c-0.1,0-0.2,0.4-0.2,0.4c-0.1,0-0.2,0.2-0.2,0.2c0,0,0,0.1-0.1,0.1c0,0-0.1,0-0.1,0c0,0,0,0-0.1,0c0,0,0,0-0.1,0c0,0-0.1,0-0.1,0
			c0,0,0,0,0,0c0,0-0.1,0-0.1,0.1c0,0,0,0,0,0c0,0,0,0,0,0.1c0,0,0,0,0,0c0,0,0,0.1,0,0.1c0,0,0,0,0,0.1c0,0,0,0.1,0,0.1
			c0,0,0,0,0,0.1c0,0.1,0.1,0.1,0.1,0.2c0,0,0,0,0,0c0,0.1,0,0.2,0,0.2c0,0.1,0,0.2,0,0.2c-0.7-0.1-1.2-0.1-1.9-0.2
			c0.1,0.3,0.1,0.5,0.1,0.7c0,0-0.1,0.1-0.1,0.1c-0.2-0.4-0.5-0.7-0.8-1.2c0,0.7,0,1.1-0.1,1.6c0,0-0.1,0-0.1,0c0,0,0,0,0,0
			c-0.1,0-0.1,0-0.1,0c0,0,0,0,0,0c0,0-0.1,0-0.1,0.1c0,0,0,0,0,0c0,0-0.1,0.1-0.1,0.1c0,0,0,0,0,0c0,0-0.1,0.1-0.1,0.1
			c0,0-0.1,0.1-0.1,0.1c0,0,0,0,0,0c0,0-0.1,0.1-0.1,0.1c0,0,0,0,0,0c0,0-0.1,0-0.1,0.1c0,0,0,0,0,0c0,0-0.1,0-0.1,0c0,0,0,0,0,0
			c0,0-0.1,0-0.1,0c0,0,0,0,0,0c-0.1,0-0.1,0-0.2-0.1c-0.1,0.2-0.3,0.5-0.4,0.8c0.5,0.4,1,0.8,0.8,1.5c-0.1,0.3-0.4,0.6-0.6,0.9
			c-0.5,0.7-0.4,1,0.4,1.2c0,0,0.1,0.1,0.1,0.1c-0.3,0.1-0.7,0.2-1,0.2c0.2,0.3,0.3,0.5,0.6,0.9c-0.1,0-0.2,0-0.2-0.1c0,0,0,0-0.1,0
			c-0.1,0-0.1,0-0.1,0c0,0,0,0,0,0c0,0,0,0,0,0c-0.1,0-0.1,0-0.2,0c0,0,0,0,0,0c-0.1,0-0.1,0-0.2,0.1c0,0,0,0,0,0
			c0,0-0.1,0.1-0.1,0.1c0,0,0,0,0,0c0,0-0.1,0.1-0.1,0.1c0,0,0,0,0,0c0,0.1-0.1,0.1-0.1,0.2c0,0,0,0,0,0c0,0,0,0,0,0
			c0,0,0,0.1-0.1,0.1c0,0,0,0,0,0.1c0,0.1-0.1,0.1-0.1,0.2c0,0,0,0,0,0c0,0.1-0.1,0.1-0.1,0.2c0.5,0.1,0.9,0.2,1.2,0.4
			c0.2,0.2,0.1,0.7,0.1,1.1c0,0-0.1,0-0.1,0c-0.1-0.2-0.4-0.5-0.6-0.7c0,0-0.1,0-0.1,0c0,0,0,0,0,0c0,0-0.1,0-0.1,0
			c0-0.1-0.1-0.2-0.2-0.3c0,0,0,0,0,0c0,0,0,0,0,0c-0.1,0.1-0.1-0.4-0.2-0.3c-0.2,0.1-0.4-0.3-0.6-0.3c0,0,0,0,0,0
			c0,0-0.1,0.5-0.1,0.5c0,0-0.1,0.3-0.1,0.3c0,0,0,0.1,0,0.1c-0.5,0.1-0.6,0.4-0.4,0.9c0,0.1,0,0.3,0.1,0.4
			c-0.3,0.1-0.7,0.8-0.4,0.8H103v-0.1c0,0,0.2-0.1,0.5-0.1c-0.1,0.3-0.5,0.5-0.5,0.8v0l0,0c0,0,1.2,0,1.5-0.1
			c-0.1,0.2,0.5,0.4,0.5,0.6c0,0,0,0,0,0c0,0.1-0.4,0.2-0.4,0.3c0,0-0.2,0-0.2,0.1c0,0.1-0.1,0.1-0.2,0.1c0,0-0.1,0-0.1,0
			c0,0-0.1,0.1-0.1,0.1c0,0,0-0.4,0-0.4c0,0-0.1-0.4-0.2-0.4c0,0,0,0-0.1,0c0,0-0.1,0.4-0.1,0.4c0,0,0,0.2-0.1,0.2
			c-0.1,0-0.2,0.1-0.2,0c0,0,0,0,0,0c0,0-0.1,0-0.2-0.1c0,0-0.1,0-0.1,0c0,0,0,0-0.1,0c0,0-0.1,0-0.1,0c0,0,0,0,0,0c0,0,0,0,0,0
			c0,0,0,0-0.1,0l0,0c-0.1,0-0.2,0.1-0.2,0.1c0,0,0,0-0.1,0c0,0-0.1,0-0.1,0c0,0,0,0,0,0c0,0-0.1,0-0.1,0c0,0,0,0,0,0
			c0,0-0.1,0-0.1-0.1c0,0,0,0,0,0c0,0-0.1-0.1-0.1-0.1c0,0,0,0,0,0c0,0,0-0.1-0.1-0.1c0,0,0,0,0-0.1c0,0,0-0.1-0.1-0.1
			c0-0.1-0.1-0.1-0.1-0.2l0,0v0c-0.1,0.1-0.1,0.2-0.2,0.3c-0.1,0.1-0.1,0.2-0.1,0.2c0.2,0.3,0.3,0.5,0.4,0.8
			c-0.3,0.1-0.4,0.2-0.7,0.2c0.2,0.3,0.3,0.5,0.5,0.6c0.5,0.4,0.5,0.5,0,0.9c-0.1,0.1-0.3,0.2-0.3,0.2c0,0.4,0.1,1,0,1.1
			c-0.6,0.3-0.3,0.7-0.2,1.1c-0.5-0.2-0.9-0.3-1.3-0.5c-0.1,0.8-0.1,1.5-0.2,2.3c0.4,0.2,0.8,0.4,1.3,0.6c-0.2,0.2-0.3,0.3-0.5,0.5
			c0.2,0.3,0.5,0.7,0,1c-0.1-0.2-0.2-0.3-0.3-0.5c-0.1,0-0.1,0-0.2,0c-0.1,0.4-0.1,0.7-0.2,1.1c-0.1,0.1-0.3,0.3-0.5,0.6
			c-0.3,0-0.7-0.1-1.1-0.1c0,0.1,0,0.1,0,0.2c0.3,0.1,0.6,0.1,0.9,0.2c-0.3,0.1-0.5,0.3-0.8,0.4c0.3,0.3,1,0.3,0.7,1
			c-0.4-0.1-0.9-0.1-1.1-0.2c-0.1-0.4-0.2-0.7-0.4-1c0,0,0.1-0.1,0.1-0.1c-0.1-0.5-0.3-0.8-0.4-1.2c0,0,0,0-0.1,0.1
			c-0.1-0.3-0.3-0.5-0.5-0.8c-0.3,0.2-0.5,0.3-0.3,0.7c0.1,0.2-0.1,0.5-0.2,0.8c-0.2-0.1-0.4-0.1-0.5-0.2c-0.1,0.2-0.3,0.4-0.5,0.7
			c0,0.3-0.1,0.6-0.1,1c0,0.3-0.1,0.6-0.1,0.8c0.1,0.5,0.2,0.9,0.3,1.4c0,0.1-0.1,0.2-0.1,0.3c-0.1,0.4-0.4,0.9-0.3,1.2
			c0.3,0.9-0.7,1.1-0.9,1.8c0-0.2-0.1-0.5-0.1-0.7c-0.3,0.4-0.6,0.8-0.7,1.2c-0.2,0.9-1,1.3-1.9,1.4c0,0-0.1-0.3-0.1-0.3
			c0,0,0,0-0.1,0c0,0,0,0.3,0,0.3c0,0-0.1,0.2-0.1,0.2c0,0,0,0.1,0,0.1c0,0-0.1,0-0.1,0c0,0,0,0,0,0c0,0,0,0,0,0c0,0,0,0,0,0
			c0,0,0,0,0-0.1c0,0,0,0,0,0c0,0,0,0,0-0.1c0,0,0,0,0,0c0,0,0-0.1,0-0.2c-0.1,0-0.2,0-0.2,0c0,0-0.1,0-0.1,0c0,0-0.1,0-0.1,0
			c0,0-0.1,0-0.1,0c0,0-0.1,0-0.1,0c0,0,0,0-0.1,0c0,0,0,0-0.1,0c0,0,0,0,0,0c0,0,0,0,0-0.1c0,0,0,0,0-0.1c0,0,0-0.1,0-0.1
			c0,0,0,0,0-0.1c0,0,0-0.1,0-0.1c0,0,0,0,0-0.1c0-0.1,0-0.2,0-0.3c0-0.2,0-0.4-0.1-0.6c0,0-0.1,0-0.1,0c0,0.2-0.1,0.4-0.1,0.6
			c-0.3,0-0.5-0.1-0.8-0.1c0,0.7-0.1,1.3-0.1,2c0.1,0,0.2,0,0.2,0c0.9,0-0.1,0.9,0.3,1.2c-0.3,0.1-1,0.1-1,0.1c0,0.4,0,0.8,0,1.2
			c0-0.1-0.4-0.2-0.6-0.2c0,0,0,0,0,0c-0.2,0-0.4,0-0.6,0.2c0,0,0,0,0,0c-0.2,0-0.4-0.1-0.4-0.2c-0.3-0.3-0.4-0.7-0.6-1.1
			c0,0,0,0,0,0c0,0,0,0,0,0c-0.2,0.3-0.4,0.5-0.5,0.7c0.2,0.3,0.3,0.5,0.5,0.8c-0.3,0-0.5,0.1-0.5,0.1c-0.5,0.9,1.1,0.9,0.9,1.5
			c-0.8,0.5-1.3,0.8-1.7,1.1c-0.3,0-0.6-0.1-0.9-0.1c0,0,0,0-0.1-0.1c0,0,0,0,0,0c0,0-0.1-0.1-0.1-0.1c0,0,0,0,0,0c0,0-0.1,0-0.1,0
			c0,0,0,0,0,0c0,0,0,0-0.1,0c0,0,0,0,0,0h0h0c-0.1,0-0.1,0-0.2,0c-0.1,0-0.1,0-0.2,0c0,0,0,0,0,0c0,0-0.1-0.1-0.1-0.1c0,0,0,0,0,0
			c0,0,0-0.1-0.1-0.2c0,0,0,0,0,0c0-0.1,0-0.1,0-0.2c0-0.2,0-0.3,0-0.6h0l0,0c-0.3,0.1-0.4,0.2-0.6,0.2c-0.2,0.1-0.3,0.3-0.4,0.3
			c-0.4,0-0.7,0.2-0.8,0.4c-0.1,0.1,0,0.3,0.1,0.6c0.3,0.6,0.1,1.2,0.3,1.8c-0.4-0.2-0.7-0.3-1.1-0.5c0,0-0.1,0.1-0.1,0.1
			c0.4,0.6,1.5,0.8,1.4,1.9c-0.3,0.1-0.7,0.1-1.1,0.2c0.2,0.2,0.4,0.3,0.4,0.5c0,0.8,0.4,1.7-0.3,2.4c-0.1,0.1,0.1,0.4,0.1,0.6
			c0.1,0.2,0.2,0.4,0.3,0.6c0,0,0.2,0.1,0.4,0.1c0,0.1,0,0.1,0,0.2c-0.3,0.1-0.6,0.2-0.9,0.3c0.2,0.7-0.2,1.2-0.6,1.5
			c0.2,0.5,0.3,0.9,0.5,1.4c-0.3,0.1-0.7,0.2-1.1,0.4c-0.3,0.1-0.5,0.2-0.3,0.6c0.1,0.3-0.2,0.8,0.3,1c0,0,0,0.2-0.1,0.2
			c-0.4,0.4-0.2,0.6,0.2,0.8c0,0,0,0.1,0,0.1c-0.1,0.1-0.3,0.2-0.4,0.3c0.1,0.1,0.3,0.1,0.3,0.2c0,0.7,0.5,1.2,0.8,1.7
			c0.1,0.1,0,0.4-0.1,0.5c0,0,0,0,0,0c0,0,0,0,0,0c0,0,0,0-0.1,0c0,0-0.1,0-0.1,0c0,0-0.1,0.2-0.1,0.2c0,0,0,0.2-0.1,0.2
			c0,0,0,0,0,0c0,0-0.1,0-0.1,0c0,0,0,0,0,0c0,0,0,0,0,0c0,0,0-0.2,0-0.2c0,0-0.1-0.1-0.1-0.1c-0.3,0.4-0.6,0.7-0.9,1.1
			c0,0.1,0.3,0.3,0.5,0.6c0.1,0.1,0.2,0.3,0.4,0.5c-0.1-0.1-0.2-0.1-0.3-0.1c0,0-0.1,0-0.1,0c-0.1,0-0.1,0-0.2,0c0,0,0,0,0,0
			c0,0,0,0,0,0c-0.1,0-0.1,0-0.2,0c0,0,0,0,0,0c-0.1,0-0.1,0.1-0.2,0.1c0,0,0,0,0,0c0,0-0.1,0.1-0.1,0.2c0,0,0,0,0,0.1
			c0,0.1-0.1,0.2-0.1,0.3c1,0.2,1,0.9,0.8,1.8c0-0.1,0.1-0.1,0.1-0.2c0,0,0,0,0,0c0,0,0.1-0.1,0.1-0.1c0,0,0,0,0,0
			c0,0,0.1,0,0.1-0.1c0,0,0,0.1,0,0.1c0,0,0.1,0.1,0.1,0.1c0,0,0,0,0,0c0.1,0,0.1-0.1,0.2-0.1c0,0,0,0,0,0c0.1,0,0.1,0,0.2,0
			c0.1,0,0.1,0,0.2,0c0,0,0,0,0,0c0.1,0,0.1,0,0.2,0c0,0,0,0,0,0c0,0,0,0,0,0c0,0,0.1,0,0.1,0c0,0,0,0,0,0c0,0,0.1,0,0.1-0.1
			c0.5,1,1,1.9,1.5,2.8c-0.3,0.2-0.4,0.4-0.4,0.7c0,0.1,0.1,0.3,0.3,0.4c0,0,0.1,0.1,0.1,0.2c0,0.1,0,0.2,0,0.2
			c-0.3,0.4-0.1,0.7,0.2,1c0.4,0.5,0.6,1.1,0.5,1.8c-0.1,0.2,0.1,0.5,0.2,0.7c0.1,0.2,0.3,0.4,0.4,0.6c0,0.2,0,0.3,0,0.5
			c0,0.3,0,0.6,0,0.9c0,0.2,0,0.3,0,0.5c0,0.1,0,0.2,0,0.2c-0.1,0.1-0.2,0.2-0.3,0.4c-0.3,0.4-0.7,0.7-1.1,1
			c-0.4,0.3-0.8,0.3-1.3,0.5c-0.1,0-0.1,0-0.2,0.1c0,0,0,0,0,0c-0.1,0-0.1,0-0.1,0c0,0,0,0,0,0c0,0-0.1,0-0.1,0c0,0,0,0,0,0
			c0,0,0,0-0.1,0c0,0,0,0,0,0c0,0,0,0-0.1-0.1c0,0,0,0,0,0c0,0-0.1-0.1-0.1-0.1c0,0,0,0-0.1-0.1c-0.1,0-0.2-0.1-0.2-0.1
			c0,0-0.1,0-0.1,0c0,0-0.1,0.1-0.1,0.1c0.7,0.6-0.2,0.6-0.4,0.9c0.5,0.6,1,1.1,1.5,1.6c-0.1,0.2-0.3,0.5-0.5,0.8c0,0,0,0.1,0.1,0.1
			c0,0,0,0,0,0c0,0,0.1,0,0.1,0c0,0,0,0,0,0c0,0,0,0,0,0c0.1,0,0.2-0.2,0.3-0.2c0.1,0,0.2-0.2,0.3-0.2c0,0,0,0,0,0c0,0,0,0.2,0,0.2
			c0,0,0,0.1,0,0.1c0,0,0,0,0,0.1c0,0,0,0,0,0c0,0,0,0,0,0c0,0,0,0,0,0c0,0,0,0,0,0c0,0,0,0,0,0c0,0,0,0,0,0c0,0,0,0,0,0.1
			c0,0,0,0,0,0c0,0,0,0.1,0,0.1c0,0,0,0,0,0.1c0,0.1-0.1,0.1-0.1,0.2c0,0.1,0.1,0.1,0.2,0.2c0,0,0,0,0.1,0c0,0,0.1,0.1,0.1,0.1
			c0,0,0,0,0.1,0c0,0,0.1,0,0.1,0.1c0,0,0,0,0.1,0c0,0,0.1,0,0.1,0c0,0,0,0,0.1,0c0,0,0.1,0,0.1,0c0,0,0.1,0,0.1,0c0,0,0.1,0,0.1,0
			c0,0,0.1,0,0.1,0c0,0,0.1,0,0.1,0c0,0,0.1-0.3,0.1-0.3c0,0,0.1-0.3,0.1-0.3c0,0,0,0,0,0c0,0,0,0,0,0c0.1,0,0.2,0.3,0.3,0.3
			c0,0,0,0.1,0,0.1c0.1,0,0.2-0.2,0.3-0.2c0.1,0,0.2-0.2,0.3-0.2c0,0,0,0,0,0c0.1,0,0.2,0.2,0.3,0.2c0,0.2,0,0.5,0,0.7
			c0,0.2,0,0.4,0.1,0.6c0.2,0.5,0.1,0.8-0.3,0.9c0.1,0.3,0,0.6,0.2,0.8c0.2,0.2,0.4,0.4,0.7,0.5c0,0,0.1-0.1,0.1-0.1
			c0-0.2-0.1-0.5-0.1-0.6c0.5-0.3,0.9-0.5,1.2-0.7c0.5,0.4,0.9,0.7,1.3,1c-0.4,0.3-0.6,0.5-0.6,0.7c0,0.2,0.1,0.4,0.2,0.7
			c0.1,0.1,0.1,0.3,0.1,0.4c0,0.2-0.1,0.4-0.3,0.6c-0.2-0.1-0.3-0.3-0.6-0.5c0,0.3-0.1,0.5-0.1,0.6c0,0.1,0,0.1,0,0.2l0,0v0
			c0,0,0,0,0,0.1c0,0,0,0,0,0.1c0,0.3,0.1,0.7,0.1,1c0,0,0,0.1,0,0.1c0,0,0,0,0,0c0,0,0,0,0.1,0.1c0,0,0,0,0,0c0,0,0.1,0,0.1,0.1
			c0,0,0,0,0.1,0c0,0,0.1,0,0.1,0.1c0,0,0,0,0.1,0c0,0,0.1,0,0.1,0c0,0,0,0,0.1,0c0,0,0.1,0,0.1,0c0,0,0,0.1,0,0.1
			c0,0,0.1,0.2,0.1,0.2c0,0,0,0,0,0c0.1,0,0.1-0.1,0.1-0.2c0.1,0,0.1-0.1,0.2-0.2c0,0,0.1-0.1,0.1-0.1c0,0,0,0,0.1,0
			c0,0,0.1,0,0.1,0c0,0,0,0,0.1,0c0,0,0.1,0,0.1,0c0.5,0.1,0.9,0.3,1.4,0.4c0-0.8,0-0.8,0.8-0.9c-0.1-0.2-0.2-0.3-0.3-0.5
			c0.4,0.3,0.9,0.6,1,1c0.2,0.6,0.6,0.8,1.1,0.8c-0.1-0.4-0.2-0.7-0.4-1.2c0.7,0.2,1.3,0.3,2,0.4c0.1,0.7,0.1,1.4,0.2,2.2
			c0,0.1,0.1,0.2,0.2,0.2c0.1,0.1,0.2,0.1,0.3,0.2h0c0,0,0,0,0,0c0,0,0,0,0,0c0,0,0,0,0,0c0,0,0,0,0.1,0c0,0,0,0,0,0
			c0,0,0.1,0,0.1-0.1c0,0,0,0,0,0c0,0-0.1-0.1-0.1-0.1c0.2-0.2,0.4-0.4,0.4-0.5c0,0,0,0,0,0c0,0,0.2-0.5,0.2-0.5h0.1h0
			c0,0,0,0.2,0,0.2c0.1-0.1,0.2-0.2,0.3-0.4c0.2,0,0.4,0.1,0.6,0.1c0.3,0.1,0.5,0.5,0.2,0.6c-0.5,0.4-0.2,0.7-0.2,1.1
			c0.1,0,0.2-0.1,0.3-0.1c0.1,0,0.2-0.1,0.3-0.1c0,0.3,0,0.6,0.1,0.9c0,0,0.1,0,0.1,0c0.2-0.1,0.3,0.4,0.5,0.3
			c0.2,0.3,0.3,1.3,0.4,1.3c0.3,0,0.6,0,0.9,0c-0.3,0-0.5,0.2-0.8,0.5c-0.2-0.4-0.4-1.1-0.6-1.6c-0.1,0.1-0.1,0.2-0.1,0.4
			c0,0.6,0.2,1.5,0.3,1.6c0.1-0.2,0.2-0.4,0.3-0.5c0,0.1,0.1,0.2,0.1,0.3c0.2,0.1,0.4,0.3,0.6,0.4c0.4,0.1,0.8,0.1,1.2,0.3
			c0.2,0.1,0.4,0.1,0.5,0.1c0,0,0.1,0,0.1,0c0,0,0.1,0,0.1,0c0,0,0.1,0,0.1,0c0,0,0.1,0,0.1,0c0,0,0.1,0,0.1-0.1c0,0,0,0,0,0
			c0,0,0.1-0.1,0.1-0.1c0,0,0,0,0,0c0,0,0-0.1,0-0.1c0,0,0,0,0-0.1c0-0.1,0-0.1,0-0.2c0,0,0-0.1,0-0.1c0-0.6,0.7-0.8,0.7-1.3
			c0-0.1,0-0.2,0-0.2c0,0,0,0,0.1-0.1c0,0,0,0,0,0c0,0,0,0,0.1,0c0,0,0,0,0,0c0,0,0,0,0,0c0.4,0.1,0.7,0.2,1.3,0.3
			c-0.6,0.3-0.8,0.4-0.8,0.6c0,0.1,0.1,0.2,0.3,0.3c0.1,0,0.1-0.1,0.2-0.1c0,0,0,0,0,0c0,0,0,0,0,0c0,0,0.1,0,0.1-0.1c0,0,0,0,0.1,0
			c0.1,0,0.1-0.1,0.2-0.1c0,0,0,0,0,0c0,0,0.1,0,0.1,0c0,0,0,0,0,0c0.3,0.3,0.6,0.7,0.9,1.1c0,0-0.1,0.1-0.1,0.1
			c0,0-0.1,0.1-0.1,0.1c-0.2,0-0.4,0.1-0.5,0c-0.2,0-0.5,0-0.6,0h0.1l0,0c0,0,0-0.3,0-0.3c0,0.1,0,0.2,0,0.2c0,0,0,0.1,0,0.1
			c0,0.1,0,0.1,0,0.1c0,0,0,0.1,0,0.1c0,0,0,0.1,0.1,0.1c0,0,0,0.1,0.1,0.1c0,0,0,0.1,0.1,0.1c0,0,0,0.1,0.1,0.1c0,0,0,0.1,0.1,0.1
			c0,0,0,0,0.1,0.1c0,0,0,0.1,0.1,0.1c0,0,0,0,0.1,0c0,0,0,0,0.1,0c0,0,0,0,0,0c0,0,0,0,0.1,0c0,0,0,0,0,0c0.2,0,0.4-0.5,0.5-0.7
			c0.2-0.2,0.4-0.5,0.5-0.7c0-0.1,0-0.2,0.1-0.2c0,0,0,0,0-0.1c0,0,0-0.1,0-0.1c0,0,0,0,0,0c0,0,0,0,0-0.1c0,0,0,0,0,0
			c0,0,0,0,0.1,0c0,0,0,0,0,0c0,0,0,0,0,0c0,0,0,0,0.1,0c0,0,0,0,0,0c0,0,0.1,0,0.1,0.1c0,0,0,0,0,0c0.1,0,0.1,0.1,0.2,0.1
			c0,0.1-0.1,0.2-0.1,0.2c0,0.1-0.1,0.2-0.1,0.3c0.2,0.1,0.4,0.2,0.5,0.2c0,0.1,0,0.2-0.1,0.3c0,0.1-0.1,0.2-0.1,0.4l0,0v0
			c0.1,0,0.2-0.1,0.3-0.1c0.1,0,0.2-0.1,0.3-0.1c0.2-0.1,0.4-0.1,0.6-0.2c0,0.1,0.1,0.2,0.1,0.4c0.1,0,0.3-0.1,0.4-0.1
			c0.1,0,0.2-0.1,0.3-0.1c0.1,0.2,0.3,0.5,0.4,0.7c0.1,0.2,0.2,0.5,0.1,0.5c-0.5,0.5,0,0.8,0,1.2c0.2-0.2,0.3-0.4,0.5-0.5
			c0,0,0.1,0.1,0.1,0.1c-0.2,0.4-0.4,0.8-0.6,1.3c-0.1-0.3-0.2-0.5-0.4-0.8c-0.1,0.1-0.1,0.2-0.1,0.2c0.2,0.6-0.6,1.2,0.2,1.7
			c0.1,0.1,0,0.4,0,0.6c-0.1,0.2-0.2,0.5-0.2,0.7c0,0.1,0,0.2,0,0.2c0,0,0,0,0,0.1c0,0,0,0.1,0,0.1c0,0,0,0,0,0c0,0,0.1,0,0.1,0.1
			c0,0,0.1,0,0.1,0c0,0,0,0,0.1,0c0,0,0.1,0,0.1,0c-0.3-0.8,0.2-1.4,1-1.5c-1-1-0.3-1.9,0.1-2.8c0.8,0.8,2,1.4,1.1,2.8
			c0.1,0.1,0.2,0.2,0.3,0.2c-0.1,0.4-0.3,0.7-0.4,1c0,0.1,0.1,0.1,0.1,0.2c0.2-0.1,0.6-0.1,0.7-0.3c0.5-0.5,0.6-1.2,0.3-1.9
			c0.1,0,0.2,0.1,0.2,0.1c0,0,0.1,0,0.1,0c0.1,0,0.2,0,0.2,0V151c0,0-0.1,0-0.1,0c0.1,0,0.1,0.3,0.2,0.3c0,0,0,0.1,0,0.1
			c0,0,0.1,0,0.1,0c0,0,0,0,0,0c0,0,0.1,0,0.1-0.1c0,0,0,0,0,0c0,0,0.1-0.1,0.1-0.1c0,0,0.1-0.1,0.1-0.1c0,0,0,0,0,0
			c0,0,0.1-0.1,0.1-0.1c0,0,0,0,0,0c0,0,0.1-0.1,0.1-0.1c0,0,0,0,0,0c0,0,0.1,0,0.1-0.1c0-0.1,0-0.1-0.1-0.2
			c-0.2,0.1-0.4,0.1-0.7,0.2c0.2-0.8,0.8-1,1.3-1.2c-0.2-0.3-0.4-0.6-0.7-0.9c-0.6-0.6-0.5-0.9,0.1-1.2c-0.2-0.1-0.4-0.2-0.6-0.3
			c0.1-0.1,0.2-0.2,0.2-0.2c0.7-0.1,1-0.4,1.1-1c-0.4,0.2-0.7,0.4-1.1,0.7c-0.1-0.1-0.1-0.1-0.2-0.2c0.1-0.5,0.1-1.1,0.2-1.7
			c0.6,0.1,1.1,0.1,1.6,0.2c0.1-0.1,0.2-0.2,0.2-0.3c0.4,0.1,0.7,0.1,1.1,0.2c0.2,0,0.3,0,0.5,0.1c0.1,0.1,0.2,0.1,0.3,0.3
			c0,0.1,0.1,0.2,0.1,0.3c0,0.1,0.2,0.2,0.3,0.2c0.1,0,0.1-0.1,0.2-0.1c-0.2-0.3-0.3-0.6-0.5-0.9c0.1,0,0.1,0,0.2,0c0,0,0,0,0.1,0
			c0.1,0,0.1,0,0.2,0c0.1,0,0.1,0,0.2,0c0,0,0,0.2,0,0.2c0.1,0,0.1,0.2,0.2,0.2c0,0,0,0,0.1,0c0,0,0.1-0.2,0.1-0.2c0,0,0-0.1,0-0.1
			c0,0,0.1,0,0.1,0c0.1,0,0.1,0,0.2,0.1c0,0,0,0.1,0.1,0.1c0,0,0.1,0.1,0.1,0.1c0,0,0,0,0,0c0,0,0-0.1,0-0.1c0,0,0.1-0.1,0.1-0.1
			c0,0,0,0,0,0c0,0,0.1-0.1,0.1-0.1c0,0,0,0,0,0c0,0,0-0.1,0.1-0.1c0,0,0,0,0,0c0-0.1,0-0.1,0.1-0.2c0.1-0.3,0.2-0.6,0.7-0.7
			c0.1,0,0.3-0.1,0.5-0.1c0.1,0,0.2-0.1,0.3-0.2c0.1-0.1,0.2-0.3,0.1-0.6c0-0.1,0.1-0.1,0.3-0.3c0.1,0.4,0.2,0.7,0.2,1
			c0.1,0.3,0.1,0.6,0.3,0.8c0,0,0.1,0.1,0.1,0.1c0,0,0,0,0.1,0c0,0,0.1,0,0.1,0c0,0,0,0,0,0c0,0,0.1,0,0.1,0c0,0,0,0,0.1,0
			c0.1,0,0.1,0,0.2-0.1c0.1,0,0.1-0.1,0.2-0.1c0.2-0.2,0.3-0.4,0.4-0.5c0,0-0.1-0.1-0.1-0.1c-0.2,0.1-0.5,0.1-0.7,0.2
			c0,0-0.1-0.1-0.1-0.1c0.2-0.2,0.3-0.6,0.5-0.7c0.4-0.2,0.8-0.4,1-0.7c0.2-0.2,0.3-0.5,0.3-0.7c0-0.1,0-0.2,0-0.3
			c0.1-0.1,0.2-0.2,0.3-0.3c0.2-0.2,0.3-0.3,0.2-0.4c-0.3-0.5-0.7-1-1-1.5c-0.1,0.2-0.2,0.3-0.3,0.4c-0.1-0.4-0.2-0.7-0.3-1
			c0.1,0,0.1,0.1,0.2,0.1c0,0,0,0,0,0c0,0,0,0,0.1,0c0,0,0,0,0,0c0,0,0,0,0,0c0,0,0,0,0.1,0c0,0,0,0,0,0c0,0,0-0.1,0-0.1v0
			c0,0,0-0.1,0.1-0.1c0,0,0-0.1,0-0.1c0,0,0,0,0,0c0,0,0-0.1,0-0.1c0,0,0,0,0,0c0,0,0-0.1,0.1-0.1c0.1,0.3,0.2,0.5,0.3,0.6
			c0.2,0.2,0.5,0.5,0.7,0.7c0.1-0.1,0.2-0.4,0.4-0.7c-0.1,0-0.1-0.1-0.2-0.1c0,0,0,0,0,0c-0.1,0-0.1,0.2-0.2,0.1
			c0,0-0.1,0.1-0.1,0.1c0,0-0.2,0-0.2,0v0c0,0,0,0,0-0.1c0,0,0,0,0,0c0,0,0-0.1,0-0.1c0,0,0,0,0,0c0,0,0-0.1,0-0.1c0,0,0,0,0,0
			c0,0,0-0.1,0-0.1c0,0,0-0.1,0-0.1c0,0,0,0,0,0c0,0,0.1-0.1,0.1-0.1c0.2,0,0.3,0,0.5-0.1s0.3,0,0.4-0.1c0.1,0.1-0.1,0.3,0,0.5
			c0,0,0.1,0,0.1-0.1c0,0,0.2,0,0.2,0.1c0.2-0.1,0.7-0.2,0.7-0.2c0,0.5,0,0.9,0,1.4c0-0.1,0-0.1,0-0.2c0,0.1,0,0.1,0,0.2
			c0-0.3,0.8-0.5,1-0.8c0.2-0.1,0.4-0.3,0.7-0.4c0.3-0.1,0.7,0.1,0.8-0.4c0,0,0.2-0.1,0.3-0.1c0,0,0.1,0.1,0.1,0.1
			c0.3,0.1,0.5-0.6,0.6,0.4c0,0-0.4,0-0.4,0v0c0,0,0.3-0.1,0.4-0.1c0.2,0,0.6-0.1,0.8-0.1c0,0,0.1,0,0.1,0c0.2,0,0.4,0,0.6,0
			c0.1,0,0.1,0,0.2,0c0.2,0,0.3,0,0.5,0.1c0,0,0.1,0,0.1,0c0.2,0,0.4,0.1,0.6,0.1c0,0,0,0,0,0c0,0,0,0,0,0c0.3,0,0.5-0.1,0.7-0.1
			c0,0,0.1,0,0.1,0c0,0,0.1,0,0.1,0c0.1,0,0.1,0,0.2,0c0.4,0.2,0.9,0.4,1,0.8c0,0,0,0,0,0.1c0,0,0,0.1,0.1,0.1c0,0,0,0.1,0,0.1
			c0,0,0.1,0.1,0.1,0.1c0,0,0,0,0,0.1c0,0.1,0.1,0.1,0.1,0.1c0,0,0,0,0,0c0,0,0.1,0.1,0.1,0.1c0,0,0,0,0,0c0,0,0.1,0,0.2,0.1
			c0,0,0,0,0,0c0,0,0,0,0.1,0c0,0,0,0,0,0c0.1,0,0.1,0,0.2,0c0,0,0.1,0,0.1,0c0.1,0,0.2-0.1,0.3-0.1c0,0,0,0,0,0l0,0c0,0,0,0,0.1,0
			c0,0,0,0,0,0c0,0,0,0,0,0c0.2-0.2,0.5-0.4,0.5-0.6c0-0.1,0-0.2,0-0.2c0,0,0,0,0,0c0-0.1,0-0.1,0.1-0.1c0,0,0,0,0,0
			c0,0,0.1-0.1,0.1-0.1c0,0,0-0.1,0-0.1c0,0,0.1-0.1,0.1-0.1c0,0,0,0,0,0c0,0,0.1,0.2,0.1,0.2v0c0,0.1,0,0.3,1,0.4l0,0v0
			c0,0,0.2,0,0.2-0.1c0,0,0.1,0,0.2-0.1c0.1,0,0.2-0.1,0.3-0.1c0,0,0,0,0,0c0.1,0,0.1-0.1,0.2-0.1c0,0,0,0,0.1,0c0,0,0.1,0,0.1-0.1
			c0,0,0,0,0.1,0c0,0,0.1,0,0.1,0c0,0,0,0,0.1,0c0,0,0.1,0,0.1,0c0,0,0.1,0,0.1,0c0,0,0.1,0,0.1,0c0,0,0.1,0,0.1,0c0,0,0,0,0.1,0
			c0,0,0.1,0,0.1,0.1c0,0,0,0,0.1,0c0.1,0,0.1,0.1,0.2,0.1c0,0,0,0,0,0c0,0,0.1,0,0.1,0c0,0,0,0,0,0c0,0,0,0,0.1,0
			c0.4-0.2,0.9-0.4,1.3-0.6c0.4-0.3,0.8-0.5,1.3-0.6c0.2-0.1,0.5-0.1,0.7-0.1c0.1,0,0.2,0,0.3-0.1c0.1,0,0.2,0,0.3-0.1
			c0,0,0,0,0.1,0c0,0,0,0,0,0c0,0,0,0,0.1,0c0,0,0,0,0,0c0,0,0,0,0.1,0.1c0,0,0,0,0,0c0,0,0,0.1,0,0.1c0,0.1,0,0.1,0.1,0.2
			c0,0,0,0,0,0.1c0,0,0,0.1,0.1,0.1c0,0,0,0,0,0c0,0,0.1,0.1,0.1,0.1c0,0,0,0,0,0c0,0,0.1,0.1,0.1,0.1c0,0,0,0,0,0c0,0,0.1,0,0.1,0
			c0,0,0,0.1,0,0.1c0.1,0,0.1,0.1,0.2,0.1c0,0,0,0,0,0c0.1,0,0.3-0.1,0.4-0.1c-0.1,0.5,0.1,0.7,0.6,0.8c0.5,0.1,0.3,0.5,0.1,0.8
			c0,0.1-0.1,0.1-0.2,0.2c-0.1,0.1-0.2,0.1-0.2,0.2v0l0,0c0,0,0.1,0.1,0.1,0.1c0.1,0,0.2-0.1,0.3-0.1c0.1,0,0.2-0.1,0.3-0.1
			c0.4-0.3,0.7-0.6,1-0.9c0.1-0.1,0.1-0.1,0.2-0.1c0,0,0,0,0.1,0c0,0,0.1,0,0.1-0.1c0,0,0,0,0.1,0c0,0,0.1,0,0.1,0c0,0,0,0,0.1,0
			c0,0,0.1,0,0.1,0c0,0,0.1,0,0.1,0c0,0,0,0,0.1,0c0,0,0,0,0.1,0.1c0,0,0,0,0,0c0,0,0,0.1,0.1,0.1c0,0,0.6,0,0.7,0
			c0,0.1-1.3,0.1,0.7,0.2v1h-1.1c0,0,0-0.3,0-0.3c0,0,0-0.2,0-0.2c0,0,0,0,0,0c0,0,0,0,0,0c0,0,0.1,0,0.1,0c0,0,0,0,0,0
			c0,0,0.1,0,0.1,0c0,0,0,0,0,0c0,0,0.1,0,0.1,0c0,0,0,0,0,0c0,0,0.1,0.2,0.1,0.2c0,0,0,0.2,0,0.2c0,0,0,0,0,0c0,0,0.1-0.2,0.1-0.2
			c0,0,0.1-0.1,0.1-0.1c0.6-0.7,1-1.5,1.6-2.1c0.2-0.2,0.4-0.4,0.5-0.5c0.1-0.1,0.1-0.2,0.1-0.3c0-0.1,0-0.3-0.1-0.4
			c0.1,0,0.1-0.1,0.2-0.1c0.2,0.2,0.5,0.4,0.8,0.6c0.1-0.1,0.1-0.1,0.2-0.2c0.1-0.1,0.2-0.2,0.3-0.3c0.1,0.2,0.2,0.4,0.2,0.6
			c0,0.2,0,0.4,0,0.6c0.1-0.1,0.1-0.2,0.1-0.2c0-0.1,0-0.2,0.1-0.2c0-0.1,0-0.1,0.1-0.2c0,0,0,0,0,0c0,0,0.1-0.1,0.1-0.1
			c0,0,0,0,0,0c0,0,0.1-0.1,0.1-0.1c0,0,0,0,0,0c0.1,0,0.1-0.1,0.2-0.1c0,0,0,0,0.1,0c0,0,0.1,0,0.1,0c0,0,0-0.2,0.1-0.2
			c0.1,0,0.1-0.2,0.2-0.2c0,0,0,0,0,0c0,0,0.1,0.2,0.1,0.2c0,0,0,0.1,0.1,0.1c0.1,0,0.1,0.1,0.2,0.1c0.1,0,0.1,0.1,0.2,0.1
			c0,0,0,0,0.1,0c0,0,0.1,0.3,0.1,0.3c0,0,0,0.2,0,0.2c0,0,0,0,0,0c0.1,0,0.1-0.2,0.2-0.3c0,0,0-0.1,0-0.1c0,0,0.1-0.1,0.1-0.1
			c0,0,0,0,0-0.1c0,0,0.1-0.1,0.1-0.1c0,0,0,0,0,0c0,0,0.1-0.1,0.1-0.1c0.1-0.2,0.4-0.4,0.6-0.5c0.7-0.4,1.8-0.2,2.2-1.2
			c0,0,0.1-0.1,0.2-0.1c0.2-0.1,0.3-0.1,0.4-0.2c0,0,0-0.1,0-0.1c0-0.1-0.1-0.3-0.3-0.5c0-0.1-0.1-0.1,0-0.3c0-0.1,0-0.3,0-0.4
			c0.2,0.2,0.3,0.4,0.5,0.6c0.1-0.5,0.1-0.9,0.1-1.3c0.4-0.1,0.9-0.2,1.3-0.2c0.1,0,0.1,0.1,0.2,0.1c0,0,0,0,0.1,0c0,0,0.1,0,0.1,0
			c0,0,0,0,0.1,0c0,0,0.1,0,0.1,0c0,0,0,0,0.1,0c0,0,0,0,0,0c0.1,0,0.1,0,0.2,0c0.3-0.1,0.5-0.4,0.7-0.4c0.1,0,0.2,0,0.3,0
			c0.1,0,0.3,0,0.4,0c0.2,0,0.3,0,0.5,0c-0.1-0.1-0.2-0.3-0.3-0.4c0.1,0,0.2-0.1,0.2-0.1c0,0,0,0,0.1,0c0.1,0,0.1,0,0.2,0
			c0,0,0,0,0,0c0.1,0,0.1,0,0.2,0c0,0,0,0,0,0c0,0,0.1,0,0.1,0.1c0,0,0,0,0,0c0,0,0,0.1,0.1,0.1c0,0,0,0,0,0.1c0,0.1,0,0.1,0.1,0.2
			c0.1,0.6,0.3,0.8,0.9,0.8c0.1-0.3,0.1-0.6,0.1-0.7c-0.2-0.7-0.4-1.3-0.6-1.9c0.2,0,0.3-0.1,0.5-0.1c0.1,0,0.3-0.1,0.4-0.1
			c0.1,0.2,0.2,0.5,0.3,0.9c0-1.1,0.1-0.9,1.6-1c0-0.1,0,0-0.1-0.1c0,0,0,0.4,0.1,0.4c0-0.1,0,0.1-0.1,0.1c0.2,0,0.4,0,0.5,0
			c0-2,0.6-1,0.9-1c0.4-0.5,0.3-1.5,1.1-1.7c0.1,0,0.1-0.3,0.1-0.4c0.1-0.3,0.2-0.7,0.3-1.1c0.1-0.2,0.1-0.3,0.1-0.5
			c0-0.2-0.1-0.5-0.4-0.6c-0.4-0.2-0.6-0.4-0.6-0.7c0-0.2,0.1-0.4,0.2-0.7c0.3,0.4,0.5,0.8,0.8,1.2c0.2,0,0.4,0.1,0.6,0.1
			c0-0.1,0-0.1,0-0.2c0-0.2-0.1-0.4-0.1-0.6c0-0.2,0.1-0.4,0.5-0.4l0,0l0,0c-0.6-0.5-0.9-0.7-0.8-1c0-0.2,0-0.4,0.2-0.8
			c0.1-0.1,0-0.2,0-0.4c0,0,0,0,0,0c0-0.1,0.2-0.2,0.3-0.3c0,0,0.1,0,0.1-0.1c0-0.1,0.1-0.1,0.1-0.2c0,0,0,0,0.1-0.1
			c0-0.1,0.1-0.1,0.1-0.1c0,0,0,0,0,0c0.1,0,0.1,0.1,0.2,0.1c0,0,0.1,0.2,0.1,0.2c0,0,0,0,0,0c0.1,0,0.1-0.1,0.2-0.1
			c0,0,0-0.1,0.1,0c0.1,0,0.1,0,0.2,0.1c0,0,0.1,0,0.1,0c0,0,0,0,0,0c0,0,0.1,0,0.1,0c0,0,0,0,0,0c0,0,0,0,0,0c0.1,0,0.1,0,0.2,0
			c0,0,0,0,0,0c0.1,0,0.1,0,0.1-0.1c0,0,0,0,0,0c0,0,0.1-0.1,0.1-0.1c0,0,0,0,0,0c0,0,0.1-0.1,0.1-0.2c0,0,0,0,0-0.1
			c0-0.1,0-0.1-0.1-0.2c0,0,0-0.1-0.1-0.1c0-0.1-0.1-0.1-0.1-0.2c0-0.1-0.1-0.1-0.1-0.2c0,0,0-0.1-0.1-0.1c-0.1-0.1-0.1-0.2-0.1-0.3
			c0.1-0.2,0.1-0.4,0.2-0.6c0.1-0.2,0.2-0.4,0.3-0.7c-0.3-0.5-0.2-1,0.5-1.4c0-0.1-0.1-0.2-0.1-0.4c0-0.3,0.1-0.6,0.2-0.8
			c0,0,0,0,0.1,0c0,0,0,0,0,0c0,0,0.1,0,0.2,0c0,0,0,0,0,0c0.1,0,0.1,0,0.2,0c0.1,0,0.1,0,0.2,0c0.1,0,0.1,0,0.2,0c0,0,0.1,0,0.1,0
			c0,0,0.1,0,0.1,0c0,0,0.1,0,0.1,0c0,0,0,0.1,0.1,0.1c0,0,0.1,0.1,0.1,0.1c0,0,0,0,0,0c0,0,0.1-0.1,0.1-0.1c0,0,0.1-0.1,0.1-0.1
			c0,0,0.1-0.1,0.1-0.1c0,0,0,0,0.1,0c0,0,0.1-0.1,0.1-0.1c0,0,0,0,0-0.1c0-0.1,0.1-0.1,0.1-0.2c0,0,0.1,0,0.1-0.1
			c0.1,0.1,0.2,0.3,0.3,0.4c0.1-0.1,0.2-0.2,0.3-0.2c0.4-0.3,0.7-0.7,0.9-1.1c0.2-0.3,0.3-0.6,0.5-1c0.4-1.1-0.5-1.8-0.4-2.6
			c-0.4-0.3-0.7-0.4-1.1-0.7c0.6-0.7,1.1-1.3,1.6-1.9c0,0,0.1,0.1,0.1,0.1c0-0.1-0.1-0.3-0.1-0.5c0.6-0.2,1.1-0.3,1.7-0.4
			c0.1,0.1,0.1,0.4,0.2,0.5c0.1,0,0.2,0.1,0.3,0.1c0,0,0,0,0,0c0.1,0,0.1-0.1,0.2-0.1c0,0,0-0.1,0-0.1c0.1,0,0.1,0,0.2-0.1
			c0,0,0,0,0.1,0c0,0,0.1,0,0.1-0.1c0,0,0,0,0.1,0c0,0,0.1,0,0.1-0.1c0,0,0,0,0.1-0.1c0,0,0.1-0.1,0.1-0.1c0,0,0,0,0.1-0.1
			c0,0,0.1-0.1,0.1-0.1c0,0,0,0,0-0.1c0-0.1,0.1-0.1,0.1-0.2c0.1-0.3,0.1-0.6,0.1-0.9c0-0.1,0.1-0.2,0.1-0.4
			c0.1,0.1,0.2,0.1,0.3,0.2c0.1,0.1,0.2,0.2,0.4,0.5c0-0.2,0.1-0.3,0.1-0.4c0.2-0.6,0.1-1.3,0-1.9c0-0.9,0.5-1.8-0.1-2.6
			c-0.1-0.2-0.3-0.3-0.5-0.6c0-0.1,0.1-0.4,0.1-0.6c-0.2,0-0.3-0.1-0.5-0.1s-0.2,0-0.3-0.1c-0.1-0.7-0.2-1.2-0.3-1.8
			c0.4-0.5,0.4-0.5,0.1-1c0.6-0.4,0.6-0.4,0.4-1.4c0.4-0.1,0.8-0.2,1.1-0.4c0.5-0.4,1.3-0.6,1.2-1.5c0.3,0.2,0.4,0.4,0.6,0.5
			c0,0,0.1,0,0.1,0c0,0,0,0,0,0c0,0,0,0,0,0c0,0,0.1,0,0.1,0c0,0,0,0,0,0c0,0,0.1,0,0.1,0c0,0,0,0,0,0c0,0,0.1,0,0.1-0.1
			c0.2-0.3,0.5-0.6,0.7-0.9c0.2-0.3,0.5-0.6,0.7-1c0.1,0.2,0.2,0.3,0.2,0.4c0.6,0.5,1.2,0.9,1.7,1.4c0.1,0.1,0.3,0.3,0.3,0.3
			c-0.2,0.4,0,0.7,0.2,1c0.1,0.1,0.1,0.2,0.2,0.3c0,0,0,0.1,0.1,0.1c0,0.1,0.1,0.1,0.1,0.2c0,0,0,0,0.1,0.1c0,0,0.1,0.1,0.1,0.1
			c0,0,0,0,0.1,0c0,0,0.1,0,0.1,0c0,0,0,0,0,0c0,0,0,0,0.1,0c0,0,0,0,0.1,0c0,0,0.1,0,0.1,0c0,0,0.1,0,0.1,0c0,0,0.1-0.1,0.2-0.1
			c0,0,0,0,0.1,0c0.1-0.1,0.2-0.1,0.3-0.2c0,0,0.1-0.1,0.1-0.1c0,0,0,0,0,0c0,0,0.1,0,0.1,0c0,0,0,0,0,0c0,0,0.1,0,0.1,0
			c0,0,0,0,0,0c0,0,0.1,0,0.1,0c0.4,0.1,0.7,0.3,1,0.4c0,0,0.1,0,0.1,0c0,0,0,0,0,0c0,0,0.1,0,0.1,0c0,0,0,0,0,0c0,0,0,0,0,0
			c0,0,0.1,0,0.1,0c0,0,0,0,0,0c0,0,0.1,0,0.1-0.1c0,0,0,0,0,0c0,0,0.1,0,0.1-0.1c0,0,0,0,0,0c0,0,0.1-0.1,0.1-0.1
			c0.1-0.3,0.3-0.5,0.5-0.7c0.5-0.5,1.1-0.9,1.6-1.3c0.1,0,0.1,0,0.2,0.1c0,0,0.1,0,0.1,0.1c0,0,0,0,0,0c0,0,0.1,0,0.1,0
			c0,0,0,0,0,0c0,0,0,0,0,0c0,0,0,0.1,0,0.1c0.1,0,0.2,0.1,0.2,0.1c0,0,0,0,0,0c0.1,0,0.1-0.1,0.2-0.1c0,0,0,0,0,0
			c0.1,0,0.1,0,0.1,0.1c0,0,0,0,0,0c0,0,0.1,0.1,0.1,0.1c0,0,0,0,0,0c0,0.1,0.1,0.1,0.1,0.2c0,0.1,0.1,0.1,0.1,0.2c0,0,0,0,0.1,0.1
			c0,0,0.1,0.1,0.1,0.1c0,0,0.1,0.1,0.1,0.1c0,0,0.1,0.1,0.1,0.1c0,0,0.1,0.1,0.1,0.1c0.1,0,0.1,0.1,0.2,0.1c0,0,0.1,0,0.1,0.1
			c0.1,0,0.1,0.1,0.2,0.1c0,0,0.1,0,0.1,0.1c0.1,0,0.1,0,0.2,0.1c0,0,0.1,0,0.1,0c0.1,0,0.1,0,0.1,0c0,0,0.1,0,0.1,0c0,0,0,0,0.1,0
			c0,0,0.1,0,0.1,0c0.5-0.1,0.9-0.3,1.6-0.5c0.5,0.4,1.1,0.9,1.7,1.4c0.1,0,0.1,0,0.2-0.1c0-0.4,0-0.8,0.1-1.2
			c0-0.1,0.1-0.3,0.2-0.4c0.1-0.1,0.3-0.2,0.4-0.3C200.4,94.1,200.2,93.9,200.1,93.6z M93.6,141.2c0.1,0.2,0.2,0.4,0.4,0.5
			C93.8,141.6,93.7,141.4,93.6,141.2z M94.4,142.4C94.3,142.4,94.3,142.4,94.4,142.4c-0.1-0.1-0.1-0.2-0.1-0.2
			C94.3,142.3,94.3,142.4,94.4,142.4L94.4,142.4z M167.1,25.1C167.1,25.1,167.1,25.1,167.1,25.1c0,0.1-0.1,0.2-0.2,0.3l0,0
			c0,0,0,0,0-0.1c0,0,0,0,0-0.1C167,25.2,167,25.2,167.1,25.1C167.1,25.1,167.1,25.1,167.1,25.1z M159.2,121.5
			c-1,0.2-1.7,0.8-2.5,1.4c-0.2,0.2-0.5,0.4-0.8,0.6c-1.1,0.9-2.2,1.8-3.4,2.5c-0.8,0.5-1.8,0.7-2.7,1c-2.4,0.9-4.8,1.6-7.3,2.1
			c-0.6,0.1-1.1,0.2-1.7,0.3c-0.1,0-0.2,0-0.3,0c0,0,0,0-0.1,0c-0.1,0-0.2,0-0.3,0c-0.1,0-0.1,0-0.2,0c0,0-0.1,0-0.1,0
			c0,0-0.1,0-0.1,0c-0.5,0-0.9,0.1-1.3,0.1c-0.1,0-0.2,0-0.3,0c-0.1,0-0.2,0-0.4,0c0,0.1,0,0.1-0.1,0.2c0,0,0,0,0,0
			c0,0-0.1,0.1-0.1,0.1c0,0,0,0,0,0c0,0-0.1,0-0.1,0.1c0,0,0,0,0,0c-0.1,0-0.1,0-0.2,0c0,0,0,0,0,0c-0.1,0-0.2,0-0.3,0
			c-1.7-0.2-3.5-0.4-5.2-0.6c-0.9-0.1-1.9-0.1-2.8-0.3c-0.6-0.1-1.2-0.3-1.8-0.5c-0.8-0.3-1.7-0.6-2.5-0.9c-0.2-0.1-0.3-0.2-0.5-0.2
			c-0.2-0.1-0.4-0.2-0.6-0.3c-0.4-0.2-0.8-0.4-1.1-0.6c-1-0.5-1.9-0.9-3-1.1c-0.3-0.1-0.7-0.2-1-0.3c-0.5-0.2-0.9-0.4-1.4-0.6
			c-0.4-0.2-0.9-0.4-1.4-0.6c-0.7-0.2-1.2-0.9-1.8-1.4c-0.5-0.4-1.1-0.8-1.6-1.2c-0.7-0.6-1.4-1.2-2.1-1.8c-0.1-0.1-0.2-0.2-0.3-0.3
			c-0.3-0.3-0.6-0.6-0.9-0.9c-0.4-0.3-0.9-0.4-1.4-0.7c-0.6-0.4-1.2-0.9-1.7-1.4c-0.1-0.1-0.2-0.2-0.3-0.2c-1-0.6-1.6-1.8-1.4-3
			c0.1-0.5,0.3-1.1,0.3-1.6c0-0.6-0.2-1.2-0.4-1.8c-0.5-1.4-1.3-2.7-1.6-4.2c-0.4-1.9-1.1-3.9-0.6-5.9c0.2-0.9,0.1-1.8,0.3-2.7
			c0.1-0.7,0.4-1.4,0.5-2.1c0.4-1.7,0.6-3.3,1.1-5c0.5-1.8,1.2-3.7,2-5.4c1-2.3,2.2-4.6,3.5-6.8c0.7-1.3,1.6-2.6,2.6-3.7
			c0.6-0.7,1.5-1.2,2.2-1.8c0.1-0.1,0.3-0.1,0.4-0.2c1.5-1.2,3.1-2.5,4.6-3.7c1.7-1.3,3.4-2.5,5.4-3.2c1.5-0.5,2.8-1.3,4.3-1.7
			c0.1,0,0.3-0.1,0.4-0.1c0.1,0,0.2,0,0.2-0.1c0.1,0,0.2,0,0.3-0.1c0.1,0,0.2,0,0.3-0.1c0.1,0,0.1,0,0.2,0c0.1,0,0.2-0.1,0.3-0.1
			c0,0,0.1,0,0.1,0c0.1,0,0.3-0.1,0.4-0.1c0,0,0.1,0,0.1,0c0.1,0,0.2,0,0.3,0c0.1,0,0.1,0,0.2,0c0.1,0,0.2,0,0.3,0c0,0,0.1,0,0.1,0
			c0.1,0,0.3,0,0.4,0c0.1,0,0.2,0,0.3,0c0,0,0.1,0.1,0.1,0.1c0.1,0,0.1,0.1,0.2,0.1c0,0,0,0,0,0c0.1,0,0.3-0.1,0.4-0.1
			c0,0,0.1-0.1,0.1-0.1c0.1,0,0.3-0.1,0.4-0.1c0.2,0,0.3,0,0.5-0.1c0,0,0.1,0,0.1,0c0.1,0,0.2,0,0.4,0c0,0,0.1,0,0.1,0
			c0.9,0,1.9,0.1,2.8,0.2c1.4,0.2,2.8,0.4,4.2,0.6c1.1,0.2,2.2,0.2,3.1,0.6c1.6,0.7,3.3,0.6,4.9,1.3c0.8,0.3,1.6,0.6,2.4,1
			c0.8,0.3,1.7,0.6,2.4,1c1.2,0.7,2.3,1.5,3.5,2.2c0.5,0.3,1.1,0.5,1.7,0.7c0.6,0.2,0.8,0.7,1.2,1.1c0.6,0.8,1.1,1.5,1.7,2.3
			c0.7,1,1.4,2,2.1,3c1.1,1.4,1,3.2,1.5,4.9c0.2,0.6,0.4,1.3,0.5,1.9c0.2,1.1,0.5,2.1,0.6,3.2c0.2,1.5,0.6,2.8,1.5,4.1
			c0.6,0.9,1.1,1.9,0.8,3.1c-0.2,0.9-0.1,1.8-0.3,2.7c-0.1,0.4-0.3,0.8-0.4,1.2c-0.1,1-0.1,2-0.1,3c-0.1,0.7-0.1,1.5-0.3,2.2
			c-0.1,0.7-0.3,1.4-0.5,2.2c-0.2,1-0.3,1.9-0.6,2.9c-0.4,1.6-0.9,3.2-1.3,4.8c0,0.1-0.1,0.3-0.2,0.4c-0.5,0.9-1,1.9-1.5,2.8
			c-0.3,0.4-0.7,0.8-1.1,1.2c-0.6,0.6-1.1,1.2-1.7,1.8c-0.9,0.9-1.8,1.8-2.7,2.6C159.5,121.4,159.4,121.5,159.2,121.5z M113.7,56.6
			c-0.1,0.1-0.2,0.2-0.3,0.3C113.5,56.8,113.6,56.7,113.7,56.6L113.7,56.6z M157.3,27.2C157.2,27.2,157.2,27.2,157.3,27.2
			C157.2,27.2,157.2,27.2,157.3,27.2C157.3,27.2,157.3,27.2,157.3,27.2C157.3,27.2,157.3,27.2,157.3,27.2
			C157.3,27.2,157.3,27.2,157.3,27.2C157.3,27.2,157.3,27.2,157.3,27.2z M157.6,27.2C157.6,27.2,157.6,27.2,157.6,27.2
			C157.6,27.2,157.6,27.2,157.6,27.2C157.6,27.2,157.6,27.2,157.6,27.2C157.6,27.2,157.6,27.2,157.6,27.2z M157.8,27.2
			C157.8,27.2,157.8,27.2,157.8,27.2C157.8,27.2,157.8,27.2,157.8,27.2C157.8,27.2,157.8,27.2,157.8,27.2L157.8,27.2z M157.6,27
			c-0.1,0-0.1,0.1-0.1,0.1c-0.3-0.1-0.3-0.3-0.5-0.4c0-0.1,0.2-0.2,0.2-0.2c0,0.1-0.1,0.2-0.1,0.2C157.2,26.8,157.4,26.9,157.6,27z
			 M157,27.1C157,27.1,157,27.1,157,27.1C157,27.1,157,27.1,157,27.1C157,27.1,157,27.1,157,27.1C157,27.1,157,27.1,157,27.1z
			 M157.5,27.2C157.5,27.2,157.5,27.2,157.5,27.2C157.5,27.2,157.6,27.2,157.5,27.2C157.6,27.2,157.5,27.2,157.5,27.2
			C157.5,27.2,157.5,27.2,157.5,27.2z M157,27C157,27,157,27,157,27C157,27,157,27,157,27C157,27,157,27,157,27
			C157,27,157,27,157,27z M156.8,26.9C156.8,26.9,156.8,26.9,156.8,26.9C156.8,26.8,156.8,26.8,156.8,26.9
			C156.8,26.8,156.8,26.8,156.8,26.9C156.8,26.9,156.8,26.9,156.8,26.9z M156.8,26.8C156.8,26.8,156.8,26.8,156.8,26.8
			C156.7,26.8,156.7,26.8,156.8,26.8C156.7,26.8,156.8,26.8,156.8,26.8C156.8,26.8,156.8,26.8,156.8,26.8z M147.6,40.7
			c0.1,0,0.1,0,0.1,0C147.7,40.7,147.7,40.7,147.6,40.7z M147.6,40.7L147.6,40.7c0,0.1-0.1,0.2-0.1,0.4c0,0.1,0,0.1-0.1,0.2
			C147.5,41,147.5,40.8,147.6,40.7z M113.7,56.6C113.7,56.6,113.7,56.6,113.7,56.6c-0.1,0-0.3-0.1-0.4-0.1
			C113.4,56.6,113.6,56.6,113.7,56.6L113.7,56.6z M113.1,56.5c-0.2,0-0.3-0.1-0.5-0.1C112.8,56.4,112.9,56.4,113.1,56.5
			C113.1,56.5,113.1,56.5,113.1,56.5z M166.2,31.5L166.2,31.5C166.2,31.5,166.2,31.5,166.2,31.5L166.2,31.5L166.2,31.5
			c0.3,0.6,0.9,0.7,1.6,0.8c0,0,0,0,0,0c-0.2,0-0.4-0.1-0.5-0.1c0,0-0.1,0-0.1,0c0,0-0.1,0-0.1,0c0,0-0.1,0-0.1,0c0,0-0.1,0-0.1,0
			c0,0-0.1,0-0.1-0.1c0,0-0.1,0-0.1-0.1c0,0-0.1-0.1-0.1-0.1c0,0-0.1-0.1-0.1-0.1c0,0-0.1-0.1-0.1-0.1
			C166.3,31.6,166.3,31.5,166.2,31.5C166.2,31.5,166.2,31.5,166.2,31.5L166.2,31.5C166.2,31.5,166.2,31.5,166.2,31.5
			C166.2,31.5,166.2,31.5,166.2,31.5C166.2,31.5,166.2,31.5,166.2,31.5z M167.1,25L167.1,25c0,0,0-0.1,0-0.1
			C167.1,25,167.1,25,167.1,25z M156.6,26.5L156.6,26.5C156.6,26.6,156.6,26.6,156.6,26.5c0,0.1,0,0.1,0,0.2c0,0.1,0,0.2-0.1,0.4
			c0,0,0,0,0,0c0,0.1,0,0.1,0,0.2C156.5,27,156.6,26.8,156.6,26.5z"/>
		<path fill="#545454" d="M198.1,85L198.1,85L198.1,85C198.1,85,198.1,85,198.1,85C198.1,85,198.1,85,198.1,85
			C198.1,85,198.1,85,198.1,85C198.1,85,198.1,85,198.1,85C198.1,85,198.1,85,198.1,85L198.1,85C198.1,85,198.1,85,198.1,85
			C198.1,85,198.1,85,198.1,85C198.1,85,198.1,85,198.1,85C198.1,85,198.1,85,198.1,85L198.1,85z"/>
		<path fill="#545454" d="M179.9,73c0,0-0.1,0-0.1-0.1c0,0,0,0,0,0.1C179.8,73,179.9,73,179.9,73C179.9,73,179.9,73,179.9,73z"/>
		<path fill="#545454" d="M156.1,18.1c0.1,0,0.2,0,0.3-0.1c0,0,0,0,0,0C156.3,18.1,156.2,18.1,156.1,18.1z"/>
		<path fill="#545454" d="M187,47.1c0.2,0.1,0.4,0.3,0.5,0.5c0.1,0.2,0.2,0.4,0.2,0.6c0,0.1,0.1,0.3,0.1,0.4
			c0.2,0.7,0.1,1.6,0.6,2.3c0.2,0.3,0.2,0.8,0.1,1.1c0,0.1,0,0.2-0.1,0.3c0,0-0.3,0-0.3,0.1c0,0.1-0.3,0.1-0.3,0.2c0,0,0,0,0,0.1
			c0,0,0.3,0.1,0.3,0.1c0,0,0.1,0,0.1,0.1c0,0,0.1,0.1,0.1,0.1c0,0,0,0,0,0c0,0,0.1,0.1,0.1,0.1c0,0,0,0,0.1,0c0,0,0.1,0,0.1,0
			c0,0,0,0,0.1,0c0,0,0,0,0.1,0c0,0,0.1,0,0.1,0c0,0,0,0,0.1,0c0.1,0,0.2,0,0.3,0c0,0,0.1,0,0.1,0c0,0,0,0,0,0c0,0,0.1,0,0.1,0
			c0,0,0,0,0,0c0,0,0,0,0.1,0c0,0,0,0,0,0c0,0,0,0,0.1,0c0.1,0.1,0.1,0.3,0.1,0.4c0,0,0,0.1,0,0.1c-0.2,0.2-0.3,0.4-0.2,0.7
			c0,0.1,0,0.2,0,0.3c0,0.1,0,0.2,0,0.3c0.1,0,0.2,0,0.2,0c0,0,0.1,0,0.1,0c0,0,0.1,0,0.1,0c0,0,0,0,0.1,0c0,0,0,0,0.1,0.1
			c0,0,0,0,0,0c0,0,0,0,0,0.1c0,0,0,0,0,0.1c0,0,0,0.1,0,0.1c0,0,0,0,0,0.1c0,0,0,0.1,0,0.1c0,0,0,0.1,0,0.1c0,0,0,0,0,0
			c0,0,0,0.1,0,0.1c0.1,0,0.1,0,0.2-0.1c0.1,0,0.1,0,0.2,0c0,0,0,0,0.1,0c0,0,0.1,0,0.1,0c0,0,0,0,0.1,0c0.1,0,0.1,0,0.1,0
			c0.1,0,0.1,0,0.2,0.1c0,0,0.1,0,0.1,0.1c0.2,0.1,0.4,0.3,0.4,0.5c0,0.1,0,0.1,0,0.2c0,0.4,0.2,0.8,0.3,1.1
			c0.1,0.2,0.2,0.3,0.3,0.5c0,0-0.1,0.1-0.1,0.1c0,0-0.1,0-0.1,0c-0.1,0-0.1-0.1-0.2-0.1c0,0-0.1-0.1-0.1-0.1c0.2,0.7-0.3,0.7-0.7,1
			c0.1,0,0.2,0,0.4,0.1c0.1,0,0.3,0,0.5,0.1c-0.1,0.4-0.2,0.7-0.2,1.1c0.5-0.2,0.4-0.7,0.5-1.2c0-0.1,0-0.2,0.1-0.3
			c0,0,0.1-0.1,0.2-0.1c0.1-0.1,0.4-0.2,0.4-0.3c0,0.6,0,1,0,2h-0.2l0,0c0.1,0,0.3-0.3,0.4-0.3c0.1,0,0.2-0.1,0.2-0.1
			c0.2-0.2,0.4-0.5,0.6-0.6c-0.4-0.5-0.8-1-1.2-1.6c0-0.1-0.1-0.2-0.1-0.2c0-0.1-0.1-0.2-0.1-0.2c-0.1-0.8-0.1-1.5-1-1.9
			c0,0-0.1-0.1-0.1-0.1c0-0.7-0.5-0.8-1.1-0.8c0-0.2,0-0.3,0.1-0.5c0-0.1,0-0.3,0.1-0.4c0-0.1,0-0.1,0-0.2c0,0,0,0,0-0.1
			c0,0,0-0.1,0-0.1c0,0,0,0,0-0.1c0,0,0-0.1,0-0.1c0,0,0,0,0-0.1c0,0,0-0.1,0-0.1c0,0,0,0,0-0.1c0,0,0,0,0-0.1c0,0,0,0,0,0
			c0,0,0,0-0.1,0c0,0,0,0-0.1,0c0,0,0,0-0.1,0c0,0,0,0.4-0.1,0.4c0,0,0,0.4-0.1,0.4c0,0,0,0,0,0v-0.7l0,0c0,0-0.1,0-0.2,0
			c0,0-0.1,0-0.1,0c0,0-0.1,0-0.1,0c0,0-0.1,0-0.1,0c0,0-0.1,0-0.1-0.1c0,0,0,0-0.1,0c0,0,0,0-0.1-0.1c0,0,0,0-0.1-0.1
			c0,0,0-0.1,0-0.1c0,0,0,0,0-0.1c0,0,0-0.1,0-0.1c0,0,0,0,0-0.1c0,0,0-0.1,0-0.1c0,0,0,0,0,0c0-0.1,0-0.1,0-0.2
			c0-0.2,0-0.4-0.1-0.5c-0.1-0.3-0.2-0.6-0.3-0.8c-0.1-0.1-0.1-0.2-0.2-0.3c-0.1-0.8,0-1.5-0.3-2c-0.1-0.4-0.2-0.7-0.1-1
			c0-0.2,0.1-0.4,0.2-0.6c0.2-0.5,0.1-1.1,0.1-1.6c0,0,0-0.1,0.1-0.1c0.2-0.4,0.1-0.6-0.4-0.9c0,0.7-0.1,1.3-0.1,1.8
			c0,0.2-0.1,0.4-0.2,0.6c-0.1,0.2-0.3,0.3-0.6,0.3c0,0-0.1,0-0.1,0c-0.1,0-0.2,0.1-0.2,0.1c0,0,0,0.1,0,0.1
			C186.9,46.9,186.9,47,187,47.1z"/>
		<path fill="#545454" d="M154,17.8c0.1-0.1,0.2-0.3,0.3-0.5c0-0.1,0.1-0.1,0.1-0.2c-0.1-0.1-0.2-0.1-0.3-0.2
			c-0.1-0.1-0.2-0.1-0.2-0.2c0.1-0.2,0.1-0.2,0.2-0.3c-0.1,0-0.1,0-0.2-0.1c-0.1,0-0.1,0-0.1,0c0,0,0,0,0,0c0,0,0,0,0,0
			c-0.1,0.1-0.1,0.1-0.2,0.1c0,0,0,0-0.1,0c0,0-0.1,0-0.1,0c0,0,0,0,0,0c0,0-0.1,0-0.1,0c0,0,0,0,0,0c0,0-0.1-0.1-0.1-0.1
			c0,0,0,0,0,0c0,0,0-0.1-0.1-0.1c0,0,0,0,0,0c0-0.1-0.1-0.1-0.1-0.2c-0.2-0.5-0.4-1-0.6-1.5c0,0,0.1-0.1,0.4-0.2
			c-0.9,0.1-1.6,0.1-2.4,0.1c0,0,0,0.1,0.1,0.2c0,0.1,0.1,0.2,0.1,0.3c0,0-0.1,0.1-0.1,0.1c-0.3-0.2-0.6-0.5-0.8-0.7
			c0,0-0.1,0-0.1,0c0.1,0.2,0.2,0.4,0.3,0.7c0.1,0.2,0.2,0.4,0.3,0.6h0l0,0c0.1,0,0.3-0.1,0.4-0.1s0.4-0.1,0.6-0.1
			c0-0.1,0-0.2,0-0.2c0,0,0,0,0,0c0-0.1,0-0.1,0-0.2c0,0,0,0,0,0c0,0,0.1-0.1,0.1-0.1c0,0,0,0,0,0c0.1,0,0.1,0,0.2,0c0,0,0,0,0,0
			c0.1,0,0.1,0,0.2,0h0c0.1,0,0.2,0.2,0.4,0.3c0,0-0.1,0-0.1,0.1c-0.1,0.1-0.2,0.1-0.3,0.2c-0.1,0-0.1,0.1-0.2,0.1
			c0,0.1,0,0.1,0,0.2c0,0,0,0,0,0c0,0,0,0.1,0,0.1c0,0,0,0,0,0c0,0,0,0,0,0c0,0,0,0,0,0c0,0,0,0-0.1,0c0,0,0,0,0,0c0,0,0,0,0,0
			c0,0-0.1,0-0.1,0c0,0,0,0-0.1,0c0,0-0.1,0-0.1,0c0,0,0,0-0.1,0c-0.1,0,0.1,0,0,0c0,0,0.3,0,0.3,0v0h-1c0,0,0-0.1,0-0.1
			c0,0.1,0.2,0.1,0.2,0.2c0,0,0.1,0,0.1,0.1c0,0,0.1,0.1,0.1,0.1c0,0,0,0,0.1,0.1c0,0,0,0.1,0.1,0.1c0,0,0,0,0.1,0
			c0,0,0.1,0,0.1,0.1c0,0,0.1,0,0.1,0c0,0,0.1,0,0.1,0c0,0,0.1,0,0.1,0c0,0,0.1,0,0.1,0c0,0,0.1,0,0.1,0c0.1,0,0.1,0,0.2,0
			c0,0,0.1,0,0.1,0c0,0,0.1,0,0.1,0c0.1,0,0.1,0,0.2,0c0.1-0.2,0.1-0.5,0.2-0.7c0,0,0.1,0,0.1,0c0.1,0.5,0.3,1,0.4,1.4
			c0-0.1,0.1-0.2,0.1-0.3c0.1-0.1,0.1-0.3,0.2-0.4c0.2,0.1,0.3,0.1,0.3,0.2c0.2,0.2-0.1,0.5-0.1,0.7C153.4,17.7,153.7,17.8,154,17.8
			z"/>
		<path fill="#545454" d="M187.5,57.5c0-0.4,0-0.7,0-1c0-0.1,0-0.2,0-0.3c0-0.2-0.1-0.4-0.2-0.6c-0.1-0.2-0.1-0.4-0.2-0.7
			c0,0-0.2-0.1-0.3-0.1c0-0.1,0-0.1,0-0.2c0.3-0.1,0.6-0.2,0.9-0.2c-0.3-0.2-0.7-0.3-1-0.5c0.3-0.3,0.5-0.6,0.7-0.8
			c0.1-0.1,0.1-0.2,0.2-0.3c0.1-0.1,0.1-0.4,0-0.5c-0.1-0.1-0.3-0.3-0.4-0.4c-0.1-0.1-0.3-0.3-0.4-0.4c-0.1,0.3-0.2,0.7-0.2,1
			c-0.1,0.3-0.2,0.6-0.3,1c-0.1,0-0.1,0-0.2,0c0,0,0,0,0,0c0-0.3-0.1-0.6-0.1-0.8c-0.1,0-0.1,0-0.2,0c-0.1,0.5-0.1,1.1-0.2,1.6
			c0.1,0,0.2,0,0.3,0c0.1,0,0.1,0,0.2,0c0,0,0,0,0,0c0,0,0.1,0,0.1,0c0,0,0,0,0.1,0c0,0,0.1,0,0.1,0.1c0,0,0,0,0.1,0
			c0,0,0.1,0.1,0.1,0.1c0,0,0,0,0,0.1c0,0,0,0.1,0.1,0.1c0,0,0,0,0,0.1c0,0,0,0.1,0.1,0.1c0,0,0,0,0,0.1c0,0.1,0.1,0.1,0.1,0.2
			c0.2,0.5,0.7,1,0.1,1.5c0,0,0.1,0,0.1,0.1c0,0,0,0,0,0c0,0,0.1,0,0.1,0.1c0,0,0,0,0,0c0,0,0,0,0.1,0c0,0,0,0,0,0c0,0,0,0,0,0
			c0,0,0,0,0,0c0,0,0,0,0,0c0,0,0,0,0,0c0,0,0,0,0,0.1c0,0,0,0,0,0c0,0,0,0,0,0.1c0,0,0,0-0.1,0.1c0,0,0,0-0.1,0.1c0,0,0,0,0,0
			c0,0,0,0,0,0c0,0,0,0,0,0C187.2,57.3,187.3,57.4,187.5,57.5z"/>
		<path fill="#545454" d="M201.9,55.8C201.9,55.8,201.9,55.8,201.9,55.8c-0.1-0.1-0.1-0.1-0.1-0.1c0,0,0,0-0.1,0c0,0,0,0,0,0
			c0,0,0,0-0.1,0c0,0,0,0,0,0c0,0,0,0,0,0c0,0-0.1,0-0.1,0c0,0,0,0,0,0c0,0-0.1,0.1-0.2,0.1c0,0-0.1,0.1-0.1,0.1c0,0,0,0,0,0
			c0,0-0.1,0-0.1,0.1c0,0,0,0-0.1,0c0,0-0.1,0-0.1,0c0,0,0,0-0.1,0c0,0-0.1,0-0.1,0c-0.1,0-0.2-0.2-0.3-0.4c0-0.1-0.1-0.1-0.1-0.2
			c-0.1-0.1-0.2-0.2-0.3-0.4c0,0-0.1-0.1-0.1-0.1c-0.2-0.1-0.4-0.2-0.6-0.2c0.1,0,0.1-0.1,0.2-0.1c-0.1-0.3-0.3-0.6-0.4-0.8
			c-0.2-0.4-0.5-0.8-0.8-1.3c-0.1-0.2-0.3-0.5-0.4-0.7c-0.2,0.5-0.4,0.8-0.5,1.2c-0.3-0.2-0.5-0.4-0.7-0.6c-0.2-0.1-0.4-0.2-0.6-0.3
			c0,0.1,0,0.2-0.1,0.2c-0.1,0.2-0.2,0.5-0.1,0.7l0,0v0c0,0.1,0,0.1,0.1,0.2c0,0.1,0.1,0.1,0.1,0.2c0.1,0.1,0.2,0.2,0.3,0.3h0l0,0
			c0,0,0.1,0,0.1-0.1c0,0,0-0.1,0-0.1c0-0.1-0.1-0.2-0.1-0.4c0.1,0,0.2,0,0.2,0c0.1,0,0.3,0,0.4,0c0.1,0,0.1,0,0.2,0
			c0.4,0.1,0.7,0.3,1,0.5c0.1,0,0.1,0.1,0.2,0.1c0.3,0.1,0.7,0.2,0.8,0.5c0.1,0.1,0.1,0.3,0.1,0.5c0,0,0,0,0,0.1
			c0,0,0.1,0.1,0.2,0.1c0,0,0.1,0,0.1,0.1c0.1,0.1,0.2,0.2,0.3,0.4c0.1,0.1,0.2,0.2,0.3,0.3c0.1,0.1,0.3,0.2,0.4,0.3
			c0.1,0,0.1-0.1,0.1-0.1c0,0,0,0,0,0c0.1,0,0.1,0.1,0.2,0.1c0,0,0.1,0.1,0.1,0.1c0.1,0,0.1,0,0.2,0c0,0,0.1,0,0.1,0
			c0.1,0,0.2,0,0.2-0.1c0.1,0,0.3-0.1,0.4-0.1C202,56,202,55.9,201.9,55.8C202,55.8,202,55.8,201.9,55.8z"/>
		<path fill="#545454" d="M201.8,78.4c-0.1,0-0.1,0-0.2,0c0-0.4,0.1-0.8,0.1-1.3c-0.3,0.1-0.4,0.2-0.5,0.4c0,0.1-0.1,0.3-0.1,0.4
			c0,0.2-0.1,0.3-0.1,0.5c0,0.2-0.1,0.3-0.1,0.5c0,0.2-0.1,0.4-0.1,0.6c0,0.1,0,0.1,0,0.2c0,0.1,0.1,0.2,0.1,0.3c0,0,0,0.1,0,0.1
			c0,0.2-0.2,0.3-0.4,0.4c-0.3-0.3-0.6-0.6-0.8-0.9c-0.1,0.1-0.2,0.2-0.3,0.3c-0.1,0.1-0.2,0.2-0.3,0.3h0l0,0
			c0.3,0.1,0.6,0.1,0.8,0.2c0.1,0,0.1,0.1,0.2,0.1c0.1,0.1,0.2,0.1,0.2,0.2c0,0,0,0,0.1,0c0,0,0.1,0.1,0.1,0.1c0,0,0.1,0,0.1,0
			c0,0,0.1,0,0.1,0c0,0,0,0,0.1,0c0,0,0,0,0.1,0c0,0,0,0,0,0c0,0,0.1,0,0.1,0c0,0,0.1,0,0.1,0c0,0,0.1,0,0.1-0.1c0,0,0,0,0.1-0.1
			c0,0,0.1-0.1,0.1-0.1c0,0,0,0,0.1-0.1c0.1-0.1,0.1-0.2,0.1-0.3c0.1-0.3,0.2-0.6,0.3-0.9c-0.1,0-0.2-0.1-0.3-0.1
			c-0.1,0-0.2-0.1-0.3-0.1c0.1-0.1,0.2-0.3,0.4-0.4C201.6,78.6,201.7,78.5,201.8,78.4z"/>
		<path fill="#545454" d="M191.8,79.4c0,0.2,0,0.4,0.1,0.5c0.1,0.1,0.1,0.1,0.2,0.1c0.1,0,0.2,0.1,0.3,0.1c0.1-0.1,0.1-0.2,0.2-0.3
			c-0.2-0.1-0.3-0.1-0.5-0.2c0.1-0.2,0.2-0.3,0.3-0.4c0,0,0-0.1,0.1-0.1c-0.4-0.1-0.8-0.1-1.1-0.1v0l0,0c0,0.1,0.1,0.3,0.1,0.4
			c0,0.3,0,0.5-0.1,0.8c-0.2,0.6-0.6,1.2-0.7,1.9c-0.1,0.5,0,0.8,0.3,1c0.1,0.1,0.2,0.1,0.4,0.1v0l0,0c0-0.2-0.1-0.4-0.2-0.6
			c-0.1-0.3-0.2-0.7,0-1.1c0,0.2,0.1,0.3,0.1,0.4c0,0.1,0,0.2,0,0.3c0.1-0.2,0.3-0.4,0.4-0.6c0.1-0.2,0.3-0.4,0.4-0.6h0l0,0
			c-0.2-0.1-0.3-0.1-0.5-0.2c0-0.5,0.1-1,0.1-1.4C191.7,79.4,191.8,79.4,191.8,79.4z"/>
		<path fill="#545454" d="M190.7,55.9c-0.1,0.1-0.3,0.1-0.4,0.2c-0.4,0.1-0.9,0.1-1.3,0.1c0,0-0.1,0.1-0.1,0.2c0,0,0,0.1,0,0.1
			c0,0,0,0.1,0,0.1c0.1,0.2,0.2,0.4,0.4,0.6c0.1,0.2,0.2,0.4,0.3,0.5l0,0v0c0.2-0.2,0.4-0.4,0.6-0.6c0.1-0.1,0.3-0.2,0.4-0.2
			c0.1,0,0.1,0,0.2,0c0,0,0,0,0.1,0c0,0,0.1,0,0.1,0c0,0,0,0,0.1,0c0,0,0,0,0.1,0.1c0,0,0,0,0,0.1c0,0,0,0.1,0,0.1c0,0,0,0,0,0.1
			c0,0,0,0.1,0,0.1c0,0,0,0,0,0.1c0,0,0,0.1,0,0.1c0,0,0,0.1,0,0.1c0,0,0,0.1,0,0.1c0,0.1,0,0.1,0.1,0.2c0.1-0.5,0.1-0.9,0.2-1.1
			c-0.3-0.1-0.6-0.2-0.9-0.3c0.1-0.3,0.3-0.6,0.4-1C191,55.7,190.9,55.8,190.7,55.9z"/>
		<path fill="#545454" d="M150,10C150,10,150,10,150,10C150,10,150.1,10,150,10c0.1,0,0.1,0,0.1,0c0,0,0.1,0,0.1-0.1c0,0,0,0,0.1,0
			c0,0,0,0,0.1-0.1c0,0,0,0,0,0c0,0,0-0.1,0-0.1c0-0.6-0.1-1.2-0.2-2c-0.5,0.3-0.9,0.5-1.3,0.8c0.1,0.2,0.2,0.4,0.2,0.5
			c-0.2,0.3-0.3,0.5-0.4,0.7C149.2,9.8,149.6,9.9,150,10z"/>
		<path fill="#545454" d="M153.4,30.8c-0.1,0-0.1,0-0.2-0.1c-0.3,0.3-0.8,0.6-0.9,1c-0.1,0.3,0.3,0.7,0.5,1.1
			c-0.1,0-0.2,0.1-0.4,0.2c0,0.1,0,0.2,0,0.3c0.2,0,0.5,0,0.6-0.1c0.3-0.2,0.5-0.5,0.7-0.8c0,0-0.1-0.2-0.1-0.2
			c-0.5,0-0.3-0.3-0.3-0.6c0-0.1,0-0.3,0-0.4C153.4,31.1,153.4,31,153.4,30.8z"/>
		<path fill="#545454" d="M176.9,40.6C176.9,40.6,176.9,40.6,176.9,40.6c0,0-0.1,0.1-0.1,0.2c0,0,0,0,0,0.1c0,0,0,0.1-0.1,0.2
			c0,0,0,0,0,0.1c0,0.1,0,0.2-0.1,0.3c0.2-0.2,0.4-0.4,0.8-0.7c0,0.5,0.1,0.8,0.1,1.2c0,0.1,0,0.2,0,0.3c-0.2,0.1-0.4,0.1-0.6,0.2
			c0,0,0,0.1,0,0.1c0.7,0,1.3-0.1,2-0.1c0-0.1,0-0.2,0-0.4c-0.3,0-0.6,0-0.9,0c0-0.1,0-0.1,0-0.2c0.2-0.2,0.4-0.3,0.6-0.5
			c-0.5-0.3-0.9-0.5-1.3-0.7c-0.1,0-0.1,0-0.2-0.1c0,0,0,0,0,0c0,0-0.1,0-0.1,0c0,0,0,0,0,0c0,0-0.1,0-0.1,0c0,0,0,0,0,0
			c0,0,0,0-0.1,0c0,0,0,0,0,0C177,40.5,176.9,40.5,176.9,40.6z"/>
		<path fill="#545454" d="M204.2,56.2c0,0,0-0.1,0-0.1c0,0,0-0.1,0-0.1c0.1-0.3,0.1-0.5,0.1-0.7c0-0.1-0.1-0.3-0.2-0.4
			c0-0.1-0.1-0.3-0.2-0.3c-0.1-0.1-0.3-0.5-0.5-0.5h0.1H203v1h0.5h-0.1c0.2,0,0.2,0.1,0.4,0c0,0,0.1,0.1,0.1,0
			c0.1,0.8,0,1.6-0.4,2.3c-0.1,0.2-0.2,0.5-0.4,0.7c0.1,0,0.1,0.1,0.2,0.1c0.1-0.2,0.2-0.4,0.3-0.6c0.1-0.2,0.2-0.4,0.4-0.6
			c0.4,0.1,0.1,0.3,0.1,0.5c0,0,0,0,0,0.1c0,0.1,0,0.2,0.1,0.2c0.1-0.2,0.2-0.3,0.3-0.5c0.1-0.2,0.2-0.3,0.3-0.5
			c-0.2-0.1-0.4-0.2-0.5-0.3C204.3,56.3,204.2,56.2,204.2,56.2z"/>
		<path fill="#545454" d="M165.6,15.8C165.6,15.8,165.5,15.8,165.6,15.8c-0.1,0-0.2,0-0.3,0l0,0c-0.1,0-0.1-0.1-0.2-0.1c0,0,0,0,0,0
			c-0.1,0-0.1-0.1-0.1-0.2c0,0,0,0,0,0c0-0.1-0.1-0.1-0.1-0.2c0,0,0,0,0,0c0-0.1,0-0.1,0-0.2c0,0,0,0,0,0c0-0.1,0-0.2,0-0.2
			c0-0.1,0-0.2,0-0.2c0,0,0,0,0,0c0-0.1,0-0.1,0-0.2c-0.1,0-0.1,0-0.1,0c0,0,0,0,0,0c-0.1,0.1-0.1,0.3-0.1,0.5c0,0.1,0,0.2,0,0.4
			c0,0.1,0,0.1,0,0.2c0,0.1,0,0.3,0,0.4c0,0.1,0,0.1,0,0.2c0.1,0.4,0.2,0.7,0.3,0.8c0,0,0,0,0,0c0,0,0.1,0,0.1,0.1c0,0,0,0.1,0,0.1
			c0,0,0.1,0.1,0.1,0.1c0,0,0,0,0,0c0.2,0,0.3-0.2,0.4-0.3c0.2-0.2,0.4-0.6,0.4-0.9C165.7,15.8,165.6,15.8,165.6,15.8z"/>
		<path fill="#545454" d="M185.3,55.7c0,0,0.1,0,0.1,0c0,0,0,0,0,0c0,0,0,0,0,0c0,0,0.1,0,0.1,0c0,0,0.1-0.1,0.1-0.1
			c0-0.1,0-0.1,0-0.1c-0.2-0.3-0.3-0.6-0.5-0.9h0l0,0c-0.1,0-0.2,0-0.2,0.1c0-0.1,0-0.3,0.1-0.4c0-0.3,0.1-0.6,0.1-0.9
			c0-0.2,0-0.3,0.1-0.5c-0.2,0.3-0.4,0.6-0.6,0.8c0,0-0.1-0.1-0.1-0.1c-0.1-0.1-0.2-0.3-0.3-0.5c-0.3,1,0.4,1.5,0.6,2.2
			C184.8,55.5,185.1,55.6,185.3,55.7z"/>
		<path fill="#545454" d="M148.2,11C148.2,11,148.2,11,148.2,11c-0.1,0-0.2,0-0.3,0.1c0.2,0.2,0.3,0.4,0.4,0.6
			c0.4-0.1,0.7-0.1,1.1-0.2c0,0.1,0.2,0.2,0.3,0.3c0,0.1,0.3,0.2,0.3,0.3V12h-0.4c0.3,0,0.5-0.7,0.7-0.9c0.3-0.5,0.3-0.5,0.2-0.6
			c0,0.1-0.1,0.1-0.1,0.2c0,0,0,0,0,0c0,0-0.1,0.1-0.1,0.1c0,0,0,0-0.1,0c0,0-0.1,0-0.1,0.1c0,0,0,0-0.1,0c0,0-0.1,0-0.1,0
			c0,0-0.1,0-0.1,0c0,0-0.1,0-0.1,0c0,0-0.1,0-0.1,0c0,0-0.1,0-0.1,0c0,0-0.1,0-0.1,0c0,0-0.1,0-0.1,0c0,0-0.1,0-0.1,0
			c0,0-0.1,0-0.1,0c0,0,0,0,0,0c-0.1,0-0.2,0-0.3,0c-0.1,0-0.2,0-0.3,0c0,0,0,0,0,0c0,0,0,0,0,0C148.4,11,148.3,11,148.2,11z"/>
		<path fill="#545454" d="M173.6,33.5c0.1-0.4,0.1-0.9,0.2-1.4c0,0-0.1,0-0.1,0c0,0-0.1,0.1-0.1,0.1c-0.1,0.1-0.2,0.3-0.3,0.5
			c0-0.1,0-0.1-0.1-0.2c0-0.2-0.1-0.3-0.1-0.4c0,0,0,0,0,0c0,0-0.1,0-0.1,0c-0.1,0.3-0.2,0.6-0.3,0.9c0,0,0.1,0.1,0.1,0.1
			c0.1,0,0.2,0.1,0.2,0.1c0,0,0,0.1,0,0.1c0,0.2,0,0.5,0,0.7c0,0.2,0,0.5,0,0.8c0.2-0.3,0.4-0.6,0.7-0.9c0.1,0.3,0.1,0.4,0.1,0.6
			c0.1,0,0.1,0,0.2,0c0,0,0-0.1,0.1-0.1c0-0.1,0.1-0.2,0.1-0.3c0,0,0-0.1,0-0.1C174.2,33.7,174,33.6,173.6,33.5z"/>
		<path fill="#545454" d="M148.2,30.4c0,0,0.1,0,0.1,0c0,0,0.1,0,0.1,0c0,0,0.1,0,0.1,0c0,0,0,0,0.1,0.1c0,0,0,0,0,0c0,0,0,0,0,0.1
			c0,0,0,0,0,0.1c0,0,0,0.1,0,0.1c0,0,0,0,0,0.1c0,0,0,0.1,0,0.1c0,0,0,0.1,0,0.1c0,0,0,0.1,0,0.1c0,0.1,0,0.1,0,0.2
			c0,0.1,0.1,0.2,0.2,0.3c0,0,0.1-0.1,0.1-0.1c0,0,0,0,0,0c0,0,0,0,0.1,0c0,0,0,0,0,0c0,0,0,0,0.1,0c0,0,0,0,0,0c0,0,0,0,0,0
			c0,0,0,0.1,0.1,0.1c0,0,0,0,0,0c0,0,0,0,0.1,0c0,0,0,0,0,0c0,0,0,0,0,0c0.3-0.1,0.6-0.2,0.9-0.3c0-0.1-0.1-0.1-0.1-0.2
			c-0.1-0.2-0.3-0.5-0.5-0.8c-0.1,0.3-0.2,0.5-0.4,0.6c-0.1,0.1-0.2,0.1-0.3,0.1c0-0.1,0-0.3,0-0.4c0-0.2,0-0.3,0-0.5
			c0-0.2,0-0.3,0-0.5c0,0.3-0.7,0.4-1.1,0.7C148,30.4,148.1,30.4,148.2,30.4z"/>
		<path fill="#545454" d="M163.9,11.8c0,0.1,0.1,0.2,0.1,0.2c0,0,0,0.1,0.1,0.1c0,0.1,0.1,0.1,0.2,0.2c0,0,0.1,0.1,0.1,0.1
			c0.1,0.1,0.1,0.1,0.2,0.1c0,0,0.1,0.1,0.1,0.1c0.1,0,0.1,0.1,0.2,0.1c0,0,0.1,0.1,0.1,0.1c0.1,0,0.1,0.1,0.2,0.1
			c0.1,0,0.1,0,0.2,0.1c0.1,0,0.1,0.1,0.2,0.1c0.1,0,0.1,0,0.2,0c0.1,0,0.1,0,0.2,0c0,0,0.1,0,0.1,0c0,0,0.1,0,0.1,0
			c0.1,0,0.1,0,0.2,0c-0.3-0.2-0.5-0.4-0.9-0.6c-0.6-0.3-1-0.6-1.1-1.3c0-0.1,0-0.1,0-0.2c0,0,0,0,0,0c0,0,0-0.1,0-0.1c0,0,0,0,0,0
			c0,0,0,0-0.1,0c0,0,0,0,0,0c0,0,0,0-0.1,0c0,0,0,0,0,0c0,0,0,0,0,0c0,0-0.1,0-0.1,0c0,0,0,0,0,0c-0.1,0-0.1,0.1-0.2,0.1
			c0.2,0.1,0.3,0.1,0.5,0.2c-0.8,0.3-0.9,0.4-0.5,1C163.7,12.2,163.8,12,163.9,11.8z"/>
		<path fill="#545454" d="M155.3,19.3C155.3,19.3,155.3,19.3,155.3,19.3C155.4,19.3,155.4,19.3,155.3,19.3
			C155.4,19.3,155.4,19.3,155.3,19.3c0.1,0,0.1,0,0.1,0c0,0,0,0,0,0c0,0,0,0,0,0c0,0,0,0,0,0c0,0,0,0,0,0c-0.1-0.3-0.3-0.6-0.4-0.8
			h0v0h0c0,0,0,0,0,0c0,0,0,0,0,0c0,0-0.1,0-0.1,0c0,0.1,0.1,0.3,0.1,0.4c0,0-0.1,0.1-0.1,0.1c-0.2-0.2-0.5-0.4-0.7-0.5
			c-0.1,0.5-0.1,0.9-0.2,1.3c0,0.1,0,0.2,0,0.3c0,0,0,0,0,0.1c0,0,0,0.1,0.1,0.1c0,0,0,0,0.1,0.1c0,0,0.1,0.1,0.1,0.1
			c0,0,0.1,0,0.1,0c0,0,0.1,0,0.1,0c0,0,0.1,0,0.1,0c0-0.1,0-0.3,0-0.4c0-0.1,0-0.3,0-0.4c0.1,0.1,0.1,0.1,0.2,0.2
			c0.2,0.2,0.3,0.3,0.4,0.4c0.1-0.1,0.1-0.1,0.2-0.2c-0.2-0.3-0.4-0.5-0.6-0.8c0,0,0.1-0.1,0.1-0.1C155,19.2,155.2,19.3,155.3,19.3z
			"/>
		<path fill="#545454" d="M93.6,149.4c-0.2,0.3-0.4,0.4-0.4,0.6c0,0.3,0.1,0.6,0.2,0.9c0,0.1,0.1,0.1,0.1,0.2c0,0,0,0,0,0
			c0,0,0.1,0.1,0.1,0.1c0,0,0,0,0,0c0.1,0,0.1,0.1,0.2,0.1c0,0,0,0,0,0c0,0,0.1,0,0.1,0c0,0,0,0,0,0c0,0,0,0,0,0c0,0,0,0,0.1,0
			c0,0,0,0,0,0c0,0,0.1,0,0.1-0.1c0.1-0.2,0.2-0.5,0.2-0.7c0-0.1,0-0.2,0-0.2C94.4,150,94,149.8,93.6,149.4z"/>
		<path fill="#545454" d="M170.6,28.5c0,0-0.1,0.1-0.1,0.1c0,0,0,0,0,0c0,0,0,0-0.1,0c0,0,0,0,0,0c0,0,0,0,0,0
			c-0.1-0.1-0.1-0.1-0.2-0.1c0,0,0,0-0.1,0c0,0-0.1,0-0.1,0c0,0,0,0,0,0c0,0,0,0,0,0c-0.1,0-0.1,0-0.1,0c0,0,0,0,0,0
			c-0.1,0-0.1,0.1-0.2,0.1c0,0,0,0,0,0c0,0-0.1,0.1-0.1,0.1c0,0,0,0,0,0c0,0.1-0.1-0.2-0.1-0.2c-0.1-0.1-0.1,0.3-0.2-0.7h0l0,0
			c-0.1,0,0,0.7,0,0.7c0,0.2,0,0.4,0,0.7c0-0.1,0.4-0.1,0.6-0.2c0,0,0-0.1,0-0.1c0.1,0.1,0.2,0.1,0.3,0.2c0.3,0.2,0.7,0.4,1.1,0.7
			c-0.1-0.6-0.3-1-0.4-1.5C170.7,28.4,170.6,28.5,170.6,28.5z"/>
		<path fill="#545454" d="M197.3,82.7C197.4,82.7,197.4,82.7,197.3,82.7c0.1,0,0.2-0.1,0.2-0.1c0,0,0.1,0,0.1,0c0,0,0,0,0.1,0
			c0,0,0.1,0.2,0.1,0.2c0.1,0,0.1,0.2,0.2,0.2c0,0,0,0,0,0c0,0,0-0.2,0-0.2c0.1,0,0.1-0.1,0.2-0.1c0,0,0-0.1,0-0.1
			c0.1,0,0.1-0.1,0.2-0.1c0,0,0,0,0,0c0,0,0.1-0.1,0.1-0.2c0,0,0-0.1,0.1-0.1c0,0,0.1-0.1,0.1-0.1c0-0.1,0.1-0.1,0.1-0.2
			c0.1-0.2,0.3-0.4,0.3-0.6c0.1-0.2-0.1-0.5-0.1-0.8c-0.1,0-0.1,0-0.2,0c-0.1,0.1-0.2,0.2-0.2,0.3c-0.1,0.5-0.2,0.9-0.8,1.1
			c-0.1,0-0.2,0.1-0.3,0.2c-0.1,0.1-0.2,0.2-0.3,0.4c-0.1,0.1-0.1,0.2-0.2,0.2h0l0,0C197.2,82.7,197.3,82.7,197.3,82.7z"/>
		<path fill="#545454" d="M176.7,45C176.7,45,176.7,45,176.7,45C176.7,45,176.7,45,176.7,45c0.1,0,0.2,0,0.2,0c0,0,0,0,0,0
			c0.1,0,0.1,0,0.1-0.1c0,0,0,0,0,0c0,0,0.1-0.1,0.1-0.1c0,0,0,0,0,0c0-0.1,0.1-0.1,0.1-0.2c0-0.1-0.1-0.2-0.1-0.3
			c-0.1,0.1-0.1,0.2-0.2,0.3c-0.1,0.1-0.1,0.2-0.2,0.3c0-0.1,0-0.3,0-0.4c0-0.2,0-0.5,0-0.6c0-0.1,0-0.2,0-0.2
			c-0.1-0.1-0.3-0.1-0.4-0.2c-0.1,0-0.1,0-0.2-0.1c-0.1,0-0.1,0-0.2-0.1l0,0h0c0,0.2,0,0.5,0,0.7c0,0.2,0,0.5,0,0.7
			c0.2,0.2,0.4,0.4,0.7,0.4C176.6,45,176.6,45,176.7,45z"/>
		<path fill="#545454" d="M166.6,10.6c0.2,0.6,0.5,1.1,0.7,1.6c0.2-0.1,0.4-0.1,0.5-0.1c0-0.2,0-0.3-0.1-0.5c0,0,0-0.1,0-0.1
			c0-0.1,0-0.2-0.1-0.3c0,0,0-0.1,0-0.1c0-0.1-0.1-0.2-0.1-0.3c0,0,0,0,0,0c0-0.1-0.1-0.1-0.1-0.2c0,0,0,0,0,0c0,0-0.1-0.1-0.1-0.1
			c0,0,0,0,0,0c0,0-0.1,0-0.2,0c0,0,0,0,0,0c0,0-0.1,0-0.1,0c0,0,0,0-0.1,0C166.7,10.5,166.7,10.6,166.6,10.6z"/>
		<path fill="#545454" d="M168.5,19.4c0,0,0.1-0.1,0.1-0.2c0,0,0-0.1,0.1-0.1c0,0,0-0.1,0.1-0.1c0,0,0-0.1,0.1-0.1c0,0,0,0,0-0.1
			c0,0,0.1-0.1,0.1-0.1c0,0,0,0,0,0c0,0,0.1-0.1,0.1-0.1c0,0,0,0,0,0c0,0,0.1,0,0.2-0.1c0,0,0,0,0.1,0c0,0,0.1,0,0.2,0
			c0,0,0,0,0.1,0c0.1,0,0.2,0,0.3,0.1c-0.2-0.3-0.3-0.5-0.4-0.7c-0.1,0.2-0.2,0.3-0.3,0.4c-0.1-0.2-0.2-0.3-0.3-0.5
			c-0.4,0.4-0.7,0.7-1,0.9C168.1,19,168.3,19.2,168.5,19.4z"/>
		<path fill="#545454" d="M180.8,49.4C180.8,49.4,180.8,49.4,180.8,49.4C180.8,49.3,180.8,49.3,180.8,49.4c0.1-0.1,0.1-0.1,0.1-0.1
			c0,0,0,0,0.1,0c0,0,0,0,0.1,0c0,0,0,0,0,0c0,0,0.1,0,0.1-0.1c0.1-0.1,0.1-0.3,0.1-0.4c0-0.1,0.1-0.3,0.1-0.4
			c0.1-0.2,0.2-0.5,0.2-0.8l0,0v0c-0.1,0-0.3,0-0.4,0c-0.1,0-0.2,0-0.3-0.1c-0.1-0.1-0.1-0.2-0.1-0.4c0-0.1,0-0.1,0-0.2
			c-0.1,0.1-0.2,0.1-0.2,0.2s-0.1,0.1-0.2,0.2c0.2,0.5,1,0.8,0.1,1.2C180.6,48.7,180.7,49,180.8,49.4
			C180.7,49.3,180.7,49.4,180.8,49.4L180.8,49.4L180.8,49.4L180.8,49.4z"/>
		<path fill="#545454" d="M174.7,42.4c-0.1,0.3-0.1,0.5-0.3,0.7c0.2,0.3,0.4,0.5,0.5,0.7c0.3-0.1,0.5-0.1,0.7-0.2c0-0.1,0-0.1,0-0.2
			c0,0,0.2,0,0.2,0c0-0.1,0.2-0.1,0.2-0.2c0,0,0,0,0,0c0,0-0.2-0.1-0.3-0.1c0,0-0.1,0-0.1,0c0,0-0.2-0.1-0.2-0.1h0.6v0
			c0,0-0.3,0-0.4,0c0,0-0.2,0-0.2,0c0,0-0.2,0-0.2,0.1c-0.1-0.2-0.3-0.4-0.4-0.7c0.2-0.3,0.4-0.6,0.7-1.1c-0.1,0-0.3,0.1-0.4,0.1
			c-0.1,0.1-0.3,0.2-0.3,0.3c0,0-0.1,0.1-0.1,0.1C174.8,42.1,174.7,42.2,174.7,42.4z"/>
		<path fill="#545454" d="M188.9,80.3c0-0.1,0-0.2,0.2-0.3h0l0,0c-0.1,0-0.1,0-0.2,0c0,0-0.1,0-0.1,0c0,0,0,0-0.1,0
			c-0.1,0-0.3,0.1-0.5,0.1c-0.2,0-0.3,0.1-0.6,0.2l0,0h0c0.2,0.1,0.3,0.1,0.4,0.2c0.1,0,0.2,0.1,0.3,0.1c0,0.1,0.1,0.2,0.1,0.2
			c0.1,0.2,0.2,0.4,0.3,0.6c0.1,0.1,0.2,0.1,0.3,0.1c0.1,0,0.2,0,0.3,0.1c0-0.2,0-0.4,0-0.5c0,0,0,0,0-0.1
			C189.3,80.7,188.9,80.6,188.9,80.3z"/>
		<path fill="#545454" d="M181,67.7c0-0.7,0-1.4,0-2.2c0,0.1-0.1,0.2-0.1,0.3c-0.3,0.5-0.5,0.9-0.6,1.4c0,0.2,0,0.4,0,0.6
			C180.6,67.8,181,67.7,181,67.7z"/>
		<path fill="#545454" d="M187.8,59.9c-0.2,0-0.2,0-0.3-0.1c-0.2-0.1,0-0.4,0-0.6c0-0.1,0.1-0.2,0.1-0.2c0.1-0.3,0.1-0.6,0.2-0.9
			c-0.2,0.2-0.2,0.3-0.3,0.3c-0.1,0.1-0.2,0.3-0.2,0.5c-0.2,0.5,0,1-0.6,1.3c0,0,0.3,0,0.3,0c0,0,0,0,0,0c0,0,0,0,0,0l0,0
			c0,0,0,0,0,0c0,0.1,0.6,0.2,1.1,0.4C188.1,60.3,187.8,59.9,187.8,59.9z"/>
		<path fill="#545454" d="M152,10.6c0,0.5,0.1,0.8,0.1,1.2c0.7-0.8,0.8-1,0.3-1.3c-0.1-0.4-0.2-0.7-0.3-1c-0.1,0-0.2,0-0.2,0
			c0,0.2,0,0.4,0,0.4s-0.4,0-0.6,0c0.1,0,0.2,0.6,0.2,0.8C151.7,10.7,151.8,10.8,152,10.6z"/>
		<path fill="#545454" d="M188.9,78.4c-0.1,0.1-0.2,0.2-0.3,0.2c0,0,0-0.1,0-0.1h0l0,0c-0.2,0.1-0.4,0.1-0.6,0.2
			c-0.2,0.1-0.4,0.1-0.6,0.2c0.1,0.2,0.2,0.4,0.2,0.5c0,0,0,0.1,0.1,0.1c0,0,0,0,0,0c0,0,0,0,0,0c0,0,0,0,0,0c0,0,0,0,0,0
			c0,0,0,0,0,0c0.4-0.2,0.7-0.5,1-0.5c0.5-0.1,0.6-0.3,0.7-0.9C189.2,78.2,189.1,78.3,188.9,78.4z"/>
		<path fill="#545454" d="M186.5,58.7C186.5,58.7,186.5,58.7,186.5,58.7c-0.2,0-0.3-0.1-0.4-0.1c0,0,0,0,0,0c0,0,0,0,0,0
			c-0.1,0-0.1,0-0.2,0c0,0,0,0-0.1,0c0,0-0.1,0-0.1,0.1c0,0,0,0-0.1,0c0,0-0.1,0.1-0.1,0.1c0,0,0,0-0.1,0.1
			c-0.1,0.1-0.1,0.1-0.2,0.2c0,0,0.1,0,0.1,0.1c0,0,0,0,0,0c0,0,0,0.1,0.1,0.1c0,0,0,0,0,0c0,0,0,0.1,0.1,0.1c0,0,0,0,0,0
			c0,0,0,0,0,0c0,0,0,0,0,0c0,0,0,0,0,0c0,0,0,0.1,0.1,0.1c0,0,0,0,0,0c0,0,0,0.1,0.1,0.1c0,0,0,0,0,0c0,0,0.1,0,0.1,0.1
			c0,0,0,0,0,0c0,0,0.1,0,0.1,0c0,0,0,0,0,0c0,0,0,0,0,0c0,0,0.1,0,0.1,0c0,0,0,0,0,0c0.1,0,0.1-0.1,0.2-0.1
			c-0.1-0.1-0.2-0.2-0.3-0.4c0.2-0.2,0.5-0.3,0.7-0.5C186.7,58.8,186.6,58.8,186.5,58.7z"/>
		<path fill="#545454" d="M172,35.2c0.4-0.2,0.8-0.3,0.9-0.4c0.1-0.4,0.1-0.9,0.1-1.3c-0.1,0-0.1,0-0.2-0.1
			c-0.1,0.1-0.2,0.3-0.3,0.4c-0.2,0.3-0.3,0.7-0.6,0.9c-0.4,0.3-0.3,0.5,0,0.9C171.9,35.4,171.9,35.2,172,35.2z"/>
		<path fill="#545454" d="M183.3,72c0,0.1,0,0.3,0.3,0.3c0.1-0.3,0.3-0.6,0.4-0.9c-0.1-0.3-0.3-0.6-0.4-0.9
			c-0.4,0.5-0.7,0.9-1.1,1.3c0,0,0,0.1,0.1,0.1c0.3-0.2,0.5-0.4,0.8-0.6c0,0,0.1,0,0.1,0C183.5,71.5,183.3,71.8,183.3,72z"/>
		<path fill="#545454" d="M190.3,69.4C190.3,69.4,190.3,69.4,190.3,69.4C190.4,69.4,190.4,69.4,190.3,69.4c0.1,0,0.2,0,0.2,0
			c0-0.3-0.1-0.6-0.3-0.8c-0.3-0.3-0.6-0.6-0.9-0.9c0,0,0,0-0.1,0c0,0,0,0,0,0c0,0,0,0,0,0c0,0,0,0,0,0c0,0-0.1,0-0.1,0
			c0,0-0.1,0-0.1,0c0,0,0,0-0.1,0c0,0.2,0,0.4,0.1,0.5C189.5,68.5,190.1,68.7,190.3,69.4C190.3,69.4,190.3,69.4,190.3,69.4z"/>
		<path fill="#545454" d="M187.4,64.5C187.4,64.5,187.4,64.5,187.4,64.5C187.4,64.6,187.4,64.6,187.4,64.5c0,0.1,0,0.1,0,0.1
			c0,0,0,0,0,0c0,0,0,0,0,0c0,0,0,0.1,0,0.1c0,0,0,0,0,0c0,0,0,0,0,0.1c0,0,0,0,0,0.1c0,0,0.1,0,0.1,0.1c0,0,0.1,0,0.1,0
			c0,0,0,0,0,0c0,0,0,0,0.1,0c0,0,0,0,0,0c0,0,0,0,0,0c0,0,0,0,0.1,0c0.1,0,0.1-0.1,0.2-0.1c0,0,0,0,0.1,0c0,0,0.1,0,0.1,0
			c0,0,0,0,0,0c0,0,0.1,0,0.1,0.1c0,0,0,0,0,0c0,0,0.1,0.1,0.1,0.2c0,0,0.1,0,0.1,0.1c0.1,0,0.1,0,0.2,0l0,0h0
			c0-0.1,0.1-0.1,0.1-0.2c-0.3-0.2-0.6-0.3-0.9-0.5c0.1-0.1,0.2-0.1,0.3-0.2c0-0.1,0-0.1,0.1-0.2c0-0.1,0.1-0.2,0.1-0.4
			c0-0.1,0.1-0.1,0.1-0.2c-0.1,0-0.2,0-0.2,0c-0.1,0-0.3,0.1-0.3,0.1v0c0,0.1,0,0.2,0,0.2c0,0,0,0,0,0c0,0.1,0,0.1-0.1,0.2
			c0,0,0,0,0,0c0,0-0.1,0.1-0.1,0.1c0,0,0,0,0,0c-0.1,0-0.1,0-0.2,0c0,0-0.1-0.1-0.1-0.1c0,0,0,0,0,0c0,0,0,0.1,0,0.1
			C187.5,64.4,187.5,64.4,187.4,64.5C187.5,64.4,187.5,64.5,187.4,64.5C187.5,64.5,187.5,64.5,187.4,64.5
			C187.4,64.5,187.4,64.5,187.4,64.5z"/>
		<path fill="#545454" d="M188.1,70.2c0.1,0.1,0.1,0.2,0.2,0.3c0,0,0.1,0,0.1,0.1c0.4,0.1,0.9,0.2,1.3,0.3c0,0,0,0,0,0c0,0,0,0,0,0
			c0,0,0.1,0,0.1,0c0.1,0,0.1,0,0.1-0.1c-0.3-0.3-0.5-0.5-0.8-0.8c0,0-0.1,0.1-0.1,0.1c0,0,0,0,0,0c0,0-0.1,0-0.1,0.1c0,0,0,0,0,0
			c0,0-0.1,0-0.1,0.1c0,0,0,0,0,0c0,0-0.1,0-0.1,0c0,0-0.1,0-0.1,0c0,0,0,0,0,0c0,0-0.1,0-0.1,0c0,0,0,0,0,0c0,0-0.1-0.1-0.1-0.1h0
			c0,0,0,0,0,0c0,0,0,0,0,0c0,0,0,0,0,0c0,0,0,0-0.1,0c0,0,0,0,0,0C188.3,70.1,188.2,70.1,188.1,70.2
			C188.2,70.1,188.1,70.1,188.1,70.2L188.1,70.2L188.1,70.2C188.1,70.1,188.1,70.2,188.1,70.2z"/>
		<path fill="#545454" d="M193.6,85.6c0.2-0.1,0.3-0.1,0.3-0.2c0-0.2,0.1-0.3,0.1-0.3c0.1-0.1,0.2-0.1,0.4-0.2
			c0.2,0,0.3-0.1,0.5-0.2c-0.1,0-0.1-0.1-0.2-0.1c0,0-0.1-0.1-0.1-0.1c0,0,0,0,0,0c0,0-0.1-0.1-0.1-0.1c0,0,0,0.1-0.1,0.1
			c0,0-0.1,0.1-0.1,0.1c0,0,0,0,0,0c-0.7,0-0.7,0.6-0.9,1.2C193.5,85.7,193.6,85.6,193.6,85.6z"/>
		<path fill="#545454" d="M189.2,74.5L189.2,74.5c0.1-0.2,0.1-0.4,0.2-0.5c0.1-0.1,0.1-0.3,0.1-0.4c0.1,0.1,0.1,0.1,0.2,0.2
			c0.1,0.1,0.1,0.2,0.2,0.3c0.1-0.2,0.1-0.4,0.1-0.6c0,0,0-0.1,0-0.1c-0.1,0-0.2-0.1-0.3-0.1c-0.1,0-0.2-0.1-0.3-0.1
			c-0.2-0.1-0.4-0.1-0.7-0.2C188.9,73.4,189,73.8,189.2,74.5L189.2,74.5z"/>
		<path fill="#545454" d="M207.4,64.5C207.4,64.5,207.4,64.5,207.4,64.5c-0.1-0.1-0.1-0.2-0.2-0.3c0,0,0,0,0,0
			c-0.1-0.1-0.2-0.1-0.3-0.1c0,0,0,0-0.1,0c-0.1,0-0.3,0-0.4,0c0,0,0,0,0,0c-0.1,0-0.1,0-0.2,0c0.1,0.3,0.2,0.5,0.3,0.8
			c0.4,0,0.7,0,1.1,0.1C207.5,64.8,207.5,64.6,207.4,64.5z"/>
		<path fill="#545454" d="M186.8,66c-0.1-0.3-0.4-0.6-0.5-0.9c-0.2,0.2-0.2,0.5-0.2,0.7c0,0.2,0.1,0.5,0.3,0.6
			c0.1,0.1,0.2,0.2,0.4,0.3C186.9,66.4,186.9,66.2,186.8,66z"/>
		<path fill="#545454" d="M172.7,16.2c0,0-0.1,0.1-0.1,0.1c0.3,0.2,0.6,0.4,0.9,0.6c0.1,0.1,0.1,0.1,0.2,0.1
			c0.1,0.1,0.2,0.1,0.2,0.1c0,0,0,0,0,0c0,0,0.1,0.1,0.1,0.1c0,0,0,0,0,0c0,0,0,0,0,0c0,0,0.1,0,0.1,0c0,0,0.1,0,0.1,0
			c0-0.1,0-0.3-0.1-0.4c0,0-0.1-0.1-0.1-0.1c-0.1-0.1-0.3-0.2-0.4-0.3c0-0.1-0.1-0.1-0.1-0.2c0,0,0,0,0,0c0,0-0.1-0.1-0.1-0.1
			c0,0,0,0-0.1,0c0,0-0.1,0-0.1,0c0,0,0,0-0.1,0c0,0-0.1,0-0.1,0c0,0,0,0,0,0c0,0,0,0,0,0c0,0,0,0,0,0c0,0-0.1,0-0.1,0c0,0,0,0,0,0
			C172.8,16.1,172.7,16.1,172.7,16.2C172.7,16.1,172.7,16.2,172.7,16.2z"/>
		<path fill="#545454" d="M191.6,64.8c0,0-0.1-0.1-0.1-0.1c0,0-0.1-0.1-0.1-0.1c0,0,0,0,0,0c0,0,0,0-0.1,0c0,0,0,0,0,0c0,0,0,0,0,0
			c0,0,0,0,0,0c-0.3,0.2-0.6,0.4-0.9,0.6c0,0.1,0.1,0.1,0.1,0.2c0.5-0.1,0.9-0.2,1.4-0.3c0.1-0.2,0.2-0.4,0.3-0.7l0,0l0,0
			C191.9,64.6,191.7,64.7,191.6,64.8z"/>
		<path fill="#545454" d="M149.7,28.5c-0.2,0.2-0.5,0.3-0.7,0.5c-0.1,0.1-0.2,0.1-0.3,0.2c0.6,0.1,1.1,0.1,1.7,0.2
			C150.1,29.1,149.9,28.8,149.7,28.5z"/>
		<path fill="#545454" d="M165.8,15.2C165.8,15.2,165.8,15.2,165.8,15.2C165.8,15.2,165.8,15.3,165.8,15.2
			C165.8,15.3,165.9,15.3,165.8,15.2c0.1,0.1,0.1,0.1,0.2,0.1c0.1-0.1,0.3-0.2,0.4-0.3c0.1-0.1,0.1-0.2,0.2-0.3
			c0.1-0.1,0.1-0.2,0.2-0.3c-0.2,0-0.4,0-0.6,0c-0.1,0-0.1,0-0.2-0.1c0,0-0.1,0-0.1,0c0,0,0,0,0,0c0,0,0,0,0,0
			c-0.1,0-0.2,0.1-0.3,0.2c0.1,0,0.1,0,0.2,0c0,0,0,0,0,0c0,0,0.1,0,0.1,0c0,0,0,0,0,0c0,0,0,0,0.1,0c0,0,0,0,0,0c0,0,0,0,0,0
			c0,0,0,0,0,0c0,0,0,0,0,0c0,0,0,0,0,0c0,0,0,0,0,0c0,0,0,0,0,0c0,0,0,0,0,0c0,0,0,0,0,0c0,0,0,0,0,0c0,0,0,0,0,0c0,0,0,0,0,0.1
			c0,0,0,0,0,0.1c0,0,0,0,0,0c0,0,0,0,0,0c0,0,0,0,0,0c0,0,0,0,0,0C165.8,15.1,165.8,15.1,165.8,15.2
			C165.8,15.1,165.8,15.1,165.8,15.2C165.8,15.2,165.8,15.2,165.8,15.2C165.8,15.2,165.8,15.2,165.8,15.2z"/>
		<path fill="#545454" d="M173.1,24.5c-0.2-0.2-0.3-0.4-0.5-0.6c0,0-0.1,0-0.1,0c0,0,0,0,0,0c0,0-0.1,0-0.1,0c0,0,0,0,0,0
			c0,0,0,0,0,0c0,0-0.1,0-0.1,0c-0.1,0-0.1,0.1-0.2,0.2c0,0,0,0,0,0.1c0.2,0.3,0.4,0.7,0.7,1.1C172.9,24.9,173,24.7,173.1,24.5z"/>
		<path fill="#545454" d="M173.5,41.8c0.3,0.1,0.5,0.1,0.6,0.2c0.1-0.5,0.2-0.9,0.3-1.4c-0.4,0.4-0.8,0.7-1.3,1.1
			C173.3,41.8,173.4,41.8,173.5,41.8z"/>
		<path fill="#545454" d="M173.1,18.4c0.2,0.1,0.3,0.1,0.5,0.2c0,0,0.1,0,0.1,0c0.3-0.2,0.5-0.4,0.7-0.5c-0.1-0.2-0.3-0.4-0.4-0.7
			C173.7,17.8,173.4,18.1,173.1,18.4z"/>
		<path fill="#545454" d="M188.5,55.4c-0.3,0-0.5-0.1-0.8-0.1c0,0-0.1,0.1-0.1,0.1c0,0,0.1,0.1,0.1,0.1c0.1,0.1,0.2,0.1,0.2,0.2
			c0,0,0.1,0,0.1,0.1c0.1,0,0.2,0.1,0.3,0.1c0,0,0,0,0.1,0c0.1,0,0.2,0,0.2,0c0,0,0,0,0,0c0,0,0,0,0,0c0,0,0.1,0,0.1,0
			c0,0,0,0,0.1,0c0,0,0.1,0,0.1,0c0,0,0,0,0.1,0c0,0,0.1-0.1,0.1-0.1c0,0-0.1,0-0.1,0c0-0.1,0-0.1,0-0.2v0.1h0.1h0.1
			C189,55.5,188.8,55.4,188.5,55.4z"/>
		<path fill="#545454" d="M178.4,39.7c0.2,0.1,0.5,0.2,0.7,0.4c0.1-0.1,0.1-0.1,0.2-0.2c-0.3-0.3-0.6-0.6-1-0.9
			c-0.2,0.4-0.3,0.7-0.4,1c0,0,0.1,0.1,0.1,0.1C178.1,39.9,178.2,39.8,178.4,39.7z"/>
		<path fill="#545454" d="M181.2,70.2c0.1-0.4,0.2-0.7,0.3-1c0,0,0-0.1,0-0.1c0-0.1-0.1-0.1-0.1-0.2c0,0,0-0.1-0.1-0.1
			c-0.1,0.1-0.3,0.1-0.3,0.3c-0.1,0.3-0.2,0.5-0.3,0.9c0.1,0,0.2,0.1,0.3,0.1C181,70.2,181.1,70.2,181.2,70.2z"/>
		<path fill="#545454" d="M185.4,72.7L185.4,72.7c0.1,0,0.3-0.1,0.5-0.1c0.2,0,0.3-0.1,0.5-0.1c-0.2-0.3-0.3-0.5-0.5-0.7
			c-0.1,0.1-0.1,0.1-0.2,0.2c-0.1,0.1-0.1,0.1-0.2,0.1c-0.1-0.1-0.1-0.1-0.2-0.2c0-0.1-0.1-0.1-0.2-0.2
			C185.3,72,185.3,72.3,185.4,72.7L185.4,72.7z"/>
		<path fill="#545454" d="M172.1,17.2c0.1,0.2,0.5,0.4,0.6,0.4c0,0,0,0,0,0c0,0,0,0,0,0c0,0,0.1,0,0.1,0c0,0,0,0,0,0
			c0,0,0.1-0.1,0.1-0.1c0,0,0,0,0,0c0,0,0.1-0.1,0.1-0.1c0-0.1,0.1-0.1,0.1-0.1c0-0.1-0.1-0.1-0.1-0.2c0,0-0.1,0-0.1,0
			c0,0-0.1,0-0.1,0c0,0,0,0-0.1,0c0,0-0.1,0-0.1,0c0,0-0.1,0-0.1,0c0,0,0,0-0.1,0c0,0-0.1,0-0.1,0c0,0,0,0,0,0c0,0,0,0,0,0
			c0,0,0,0,0,0c0,0-0.1,0-0.1,0c0,0,0,0,0,0c0,0,0,0-0.1,0.1c0,0,0,0,0,0c0,0-0.2,0.2-0.2,0.2h-0.1v0v0
			C171.9,17.1,172.1,17.2,172.1,17.2z"/>
		<path fill="#545454" d="M82.7,93.9C82.7,93.9,82.7,94,82.7,93.9c0.1,0.1,0.1,0.1,0.2,0.1c0,0,0,0,0,0c0,0,0,0,0.1,0
			c0,0,0.1,0,0.1,0c0,0,0,0,0.1,0c0,0,0.1,0,0.1-0.1c0,0,0,0,0,0c0.1,0,0.1-0.1,0.1-0.1c0,0,0,0,0-0.1c0-0.1,0-0.3,0-0.4
			c-0.2,0.1-0.4,0.2-0.6,0.3c0,0-0.1,0-0.1,0c-0.1-0.1-0.2-0.2-0.3-0.3c-0.1,0-0.1,0.1-0.2,0.1c0.1,0.1,0.2,0.2,0.2,0.3
			C82.6,93.8,82.6,93.9,82.7,93.9z"/>
		<path fill="#545454" d="M151.2,13.8c0-0.1,0-0.1-0.1-0.2c0,0-0.1-0.1-0.1-0.1c0.1-0.3,0.2-0.5,0.2-0.7c0-0.1-0.1-0.2-0.1-0.2
			c0,0,0,0-0.1,0c0,0,0,0,0,0c0,0,0,0,0,0c0,0-0.1,0-0.1,0c-0.2,0.2-0.1,1.3,0.1,1.6C151.1,14.1,151.3,13.9,151.2,13.8z"/>
		<path fill="#545454" d="M196.2,83.7c0.2-0.2,0.3-0.4,0.4-0.7c0-0.1,0-0.2,0-0.2c0-0.1,0-0.2,0-0.3c-0.2,0-0.4,0-0.5,0.1
			c0,0-0.1,0-0.1,0.1c0,0.1-0.1,0.1-0.1,0.2c0,0.1,0,0.1-0.1,0.2c0,0.1,0,0.3-0.1,0.4C196,83.6,196.1,83.6,196.2,83.7L196.2,83.7
			L196.2,83.7z"/>
		<path fill="#545454" d="M183.7,60c0.5,0.3,0.8,0.6,1.2,0.8c0-0.2,0-0.4,0-0.6c0.3,0,0.5,0.1,0.7,0.1c0-0.1,0-0.2,0-0.3
			c-0.2,0-0.3,0-0.5,0C184.8,60.1,184.3,60.1,183.7,60z"/>
		<path fill="#545454" d="M151.6,35.5c0.1,0,0.2,0,0.3,0c-0.1-0.1-0.1-0.2-0.1-0.3c0,0,0-0.1,0-0.1c0-0.1-0.1-0.1-0.1-0.2l0,0
			c0,0,0,0,0,0c0,0,0,0,0,0c0,0,0,0,0,0c0,0,0,0,0-0.1c0-0.1,0-0.1-0.1-0.2c0,0,0,0,0-0.1c0,0,0,0,0,0c0,0,0,0,0,0l0,0c0,0,0,0,0,0
			c0,0.1,0.1,0.2,0.1,0.3c0,0.1,0,0.1,0,0.2c0,0,0,0,0,0.1C151.6,35.3,151.6,35.4,151.6,35.5C151.6,35.5,151.6,35.5,151.6,35.5
			L151.6,35.5C151.6,35.5,151.6,35.5,151.6,35.5z"/>
		<path fill="#545454" d="M151.5,34.6C151.4,34.6,151.4,34.6,151.5,34.6c-0.1-0.1-0.1-0.2-0.1-0.2c0,0,0,0,0-0.1
			c0-0.1-0.1-0.1-0.1-0.1c0,0,0,0,0,0c0-0.1-0.1-0.1-0.1-0.1c0,0,0,0,0,0c0,0,0-0.1-0.1-0.1c0,0,0,0,0,0c0,0,0,0-0.1-0.1
			c0,0,0,0,0,0c0,0-0.1,0-0.1,0c0,0,0,0,0,0c0,0,0,0-0.1,0c0,0,0,0,0,0c0,0,0,0-0.1,0c0,0,0,0,0,0c0,0,0,0,0,0c-0.1,0-0.1,0-0.2,0
			c0.1,0.1,0.2,0.1,0.2,0.2c0,0,0.1,0.1,0.1,0.1c0.1,0,0.1,0.1,0.2,0.1c0.1,0,0.1,0.1,0.2,0.1c0,0,0.1,0.1,0.1,0.1
			C151.3,34.5,151.4,34.5,151.5,34.6C151.4,34.6,151.4,34.6,151.5,34.6C151.5,34.6,151.5,34.6,151.5,34.6
			C151.5,34.6,151.5,34.6,151.5,34.6z"/>
		<path fill="#545454" d="M107.8,152.8c-0.1,0.2-0.2,0.3-0.2,0.4c0,0.1-0.1,0.1-0.1,0.2c0.3,0.1,0.5,0.2,0.8,0.2
			c0,0,0.1-0.1,0.1-0.1c-0.1-0.3-0.3-0.6-0.4-1C107.9,152.6,107.8,152.7,107.8,152.8z"/>
		<path fill="#545454" d="M182.7,57.6L182.7,57.6c-0.4,0.1-0.5,0.2-0.6,0.3c0,0.1,0,0.3,0.1,0.4c0,0.1,0.1,0.1,0.1,0.2
			s0,0.1,0.1,0.2c0,0,0,0.1,0,0.1h0l0,0C183,58.6,182.8,58.1,182.7,57.6L182.7,57.6z"/>
		<path fill="#545454" d="M159.2,15.7c0,0,0.1-0.1,0.1-0.1c0.1-0.1,0.1-0.1,0.2-0.2c0,0,0-0.1,0-0.1c0-0.1,0-0.2-0.1-0.2
			c0,0,0,0,0,0c0-0.1-0.1-0.1-0.1-0.2c0,0,0,0,0,0c-0.1-0.1-0.2-0.1-0.4-0.1c0,0,0,0,0,0c0,0,0,0,0,0c-0.1,0-0.1,0-0.2,0
			c0.1,0.2,0.2,0.5,0.3,0.6C158.9,15.5,159,15.6,159.2,15.7z"/>
		<path fill="#545454" d="M152.7,14.1c0,0,0.1,0.1,0.1,0.1c0,0,0,0,0.1,0c0,0,0.1,0,0.1,0c0,0,0.1,0,0.1,0c0,0,0.1,0,0.1,0
			c0,0,0,0,0,0c0,0,0,0,0,0c0,0,0,0,0.1,0c0,0,0.1,0,0.1,0c0,0,0,0,0.1,0c0,0,0.1,0,0.1,0c0,0,0,0,0.1,0c0.1,0,0.1-0.1,0.2-0.1
			c-0.1-0.1-0.1-0.1-0.2-0.2c0,0,0,0,0,0c0,0-0.1,0-0.1-0.1c0,0,0,0,0,0c-0.1,0-0.1,0-0.2,0c0,0,0,0,0,0c-0.1,0-0.1-0.1-0.2,0
			c0,0-0.1,0-0.1,0c-0.1,0-0.1,0-0.2,0c0,0-0.1,0-0.1,0c0,0-0.1,0-0.1,0c0,0-0.1,0-0.1,0c-0.1,0-0.1,0-0.2,0
			C152.6,14,152.6,14.1,152.7,14.1C152.7,14.1,152.7,14.1,152.7,14.1z"/>
		<path fill="#545454" d="M152,32.2c0,0-0.1,0-0.1-0.1c0,0-0.1,0-0.1,0c0,0,0,0,0,0c0,0,0,0,0,0c-0.4,0.1-0.8,0.3-1.3,0.5
			c0.1,0.1,0.2,0.1,0.3,0.1c0,0,0.1,0,0.1,0c0.1,0,0.2,0,0.3,0c0,0,0,0,0,0c0,0,0,0,0,0c0.1,0,0.2,0,0.2,0c0,0,0,0,0.1,0
			c0.1,0,0.1,0,0.1-0.1c0,0,0,0,0.1,0c0,0,0.1-0.1,0.1-0.1c0,0,0,0,0-0.1C151.9,32.4,152,32.3,152,32.2z"/>
		<path fill="#545454" d="M173.8,14L173.8,14L173.8,14c-0.2-0.6-0.5-1.2-0.7-1.9c-0.1,0.1-0.2,0.2-0.3,0.2c0.3,0.6,0.6,1.2,0.9,1.7
			C173.8,14,173.8,14,173.8,14z"/>
		<path fill="#545454" d="M170.5,12.9c-0.1-0.2-0.2-0.3-0.3-0.4c-0.1-0.1-0.2-0.1-0.4-0.1c-0.3-0.1-0.6-0.1-0.9-0.2
			c0.5,0.4,1.1,0.7,1.7,1.1C170.5,13.1,170.5,13,170.5,12.9z"/>
		<path fill="#545454" d="M154.9,16.6C154.9,16.6,154.9,16.6,154.9,16.6c0,0,0.1,0,0.1,0c0,0,0,0,0,0c0,0,0.1,0,0.1,0c0,0,0,0,0,0
			c0,0,0,0,0,0c0,0,0-0.1,0-0.1c0-0.1,0-0.3-0.1-0.4c0,0-0.1,0-0.1-0.1c0,0,0,0,0,0c0,0-0.1,0-0.1,0c0,0,0,0,0,0c0,0-0.1,0-0.1,0
			c0,0,0,0.1,0,0.1c0,0,0,0,0,0c0,0-0.1-0.1-0.1,0c-0.1,0-0.1,0-0.2,0.1c-0.1,0.1-0.1,0.1-0.3,0.2c0.2,0.1,0.4,0.3,0.6,0.3
			C154.8,16.6,154.9,16.6,154.9,16.6z"/>
		<path fill="#545454" d="M198.1,85c0-0.1,0-0.2-0.1-0.3c0-0.1-0.1-0.2-0.1-0.3c-0.2-0.4-0.4-0.9-0.5-1.3c-0.1,0-0.1,0-0.2,0.1
			c0.1,0.2,0.1,0.3,0.2,0.5c0.1,0.2,0.1,0.3,0.1,0.5c0,0.1,0,0.2,0,0.3c0,0,0,0,0,0.1c0,0,0,0.1,0.1,0.1c0,0,0.1,0,0.1,0.1
			c0,0,0.1,0.1,0.1,0.1c0,0,0.1,0,0.1,0C198,85,198,85,198.1,85C198.1,85,198.1,85,198.1,85L198.1,85z"/>
		<path fill="#545454" d="M154.1,12.8c-0.3-0.1-0.6-0.3-0.9-0.4c0,0.1-0.1,0.1-0.1,0.2c0.4,0.3,0.8,0.6,1.1,0.8
			c0-0.1,0.1-0.1,0.1-0.2C154.2,13.1,154.2,13.1,154.1,12.8c0,0.1,0.1,0.2,0.1,0.2H154L154.1,12.8C154,12.9,154.1,12.8,154.1,12.8
			c0.1,0,0.2,0,0.2,0c0.1,0,0.1,0,0.2,0c0,0,0.1,0,0.1,0c0,0,0.1,0,0.2,0c0,0,0.1,0,0.1,0c0,0,0,0,0,0c0,0,0.1,0,0.1,0
			c0.2,0,0.4-0.3,0.6-0.5c0,0,0.1,0.1,0.1,0.1c0-0.1,0.1-0.3,0.1-0.5c0.1,0.2,0.2,0.3,0.4,0.5c0.2-0.5,0.1-1-0.3-1.4
			c-0.1-0.1-0.1-0.1-0.2-0.2c0.1-0.1,0.2-0.1,0.3-0.2c0.1-0.1,0.2-0.4,0.3-0.4c0-0.1,0-0.4,0-0.4c-0.3,0-0.6,0-0.8,0
			c-0.1,1-0.1,0.9-0.2,1.2c-0.2-0.1-0.2,0.1-0.2,0.1v0v0c-1,0.5-0.6,1-0.8,1.4C154.2,12.8,154,12.8,154.1,12.8L154.1,12.8
			L154.1,12.8C154,12.8,154.1,12.8,154.1,12.8z"/>
		<path fill="#545454" d="M162.7,12.4C162.6,12.4,162.6,12.4,162.7,12.4c-0.1-0.1-0.1-0.1-0.1-0.1c0,0,0,0-0.1,0c0,0-0.1,0-0.1-0.1
			c0,0,0,0-0.1,0c-0.1,0-0.1,0.1-0.2,0.1c0,0,0,0.1,0,0.1c0,0,0,0,0,0c-0.1,0-0.2-0.1-0.3-0.1c0,0,0,0-0.1,0c-0.1,0-0.2,0-0.3,0.1
			c0,0.1,0,0.1,0,0.2c0.4,0,0.8,0.1,1.3,0.1C162.7,12.6,162.7,12.5,162.7,12.4z"/>
		<path fill="#545454" d="M154.6,14.4c0,0,0.1,0,0.1,0c0,0,0,0,0.1,0c0,0,0,0,0.1-0.1c0,0,0,0,0,0c0,0,0,0,0-0.1c0,0,0,0,0-0.1
			c0,0,0-0.1,0-0.1c0,0,0,0,0-0.1c0,0,0-0.1,0-0.1c0,0,0-0.1,0-0.1c0,0,0,0,0-0.1c0,0,0-0.1,0.1-0.1c0,0-0.1-0.1-0.2-0.2
			c0,0-0.1-0.1-0.1-0.1v0l0,0c-0.2,0.3-0.3,0.6-0.5,0.9c-0.1,0.1-0.1,0.2-0.2,0.3c0.1,0,0.1,0,0.1,0
			C154.4,14.5,154.4,14.4,154.6,14.4C154.5,14.4,154.5,14.4,154.6,14.4z"/>
		<path fill="#545454" d="M178.4,68.7C178.3,68.7,178.3,68.7,178.4,68.7c-0.1,0.1-0.1,0.1-0.1,0.1c0,0,0,0.1,0,0.1c0,0,0,0.1,0,0.1
			c0,0,0,0.1,0,0.1c0,0,0,0.1,0,0.1c0,0,0,0.1,0,0.1c0,0,0,0.1,0,0.1c0,0,0,0.1,0,0.1c0,0,0,0.1,0,0.1c0,0,0,0.1,0.1,0.1
			c0,0,0,0.1,0,0.1c0,0,0.1,0.1,0.1,0.1c0,0,0,0,0,0.1c0.1,0.1,0.1,0.1,0.2,0.1l0,0l0,0c0-0.1-0.1-0.2-0.1-0.3
			c0-0.1-0.1-0.2-0.1-0.3c0.1-0.1,0.2-0.3,0.3-0.4C178.6,69,178.5,68.8,178.4,68.7C178.4,68.7,178.4,68.7,178.4,68.7L178.4,68.7
			C178.4,68.7,178.4,68.7,178.4,68.7C178.4,68.7,178.4,68.7,178.4,68.7C178.4,68.7,178.4,68.7,178.4,68.7z"/>
		<path fill="#545454" d="M154.6,15.1c0,0-0.1,0-0.1,0c0,0,0,0-0.1,0c0,0-0.1,0-0.1,0c0,0,0,0-0.1,0c-0.1,0-0.1-0.1-0.2-0.1
			c-0.1,0-0.1-0.1-0.2-0.1c0,0.1,0.1,0.2,0.1,0.3c0,0,0,0,0,0.1c0,0.1,0.1,0.1,0.1,0.2c0,0,0,0,0,0c0.1,0,0.1,0.1,0.2,0.1
			c0,0,0,0,0,0c0.1,0,0.1,0,0.2,0c0,0,0,0,0,0c0,0,0,0,0,0c0,0,0.1,0,0.1,0c0,0,0,0,0.1,0c0.1,0,0.1,0,0.2-0.1c0,0,0,0,0,0
			c0-0.1,0.1-0.1,0.1-0.2c0.1-0.2,0.2-0.3,0.3-0.5c-0.1,0-0.3,0.1-0.4,0.2C154.8,15,154.7,15.1,154.6,15.1z"/>
		<path fill="#545454" d="M120.9,54.9c0.1,0,0.2,0,0.3-0.1c-0.1-0.5-0.2-1-0.3-1.5c-0.1,0.2-0.1,0.4-0.2,0.7c0,0.1,0,0.1,0,0.2
			c0,0.1,0,0.2,0,0.4C120.8,54.7,120.9,54.8,120.9,54.9z"/>
		<path fill="#545454" d="M180.3,71.6C180.3,71.6,180.2,71.6,180.3,71.6C180.2,71.6,180.2,71.6,180.3,71.6c-0.1,0.1-0.1,0.1-0.1,0.1
			c0,0-0.1,0.1-0.1,0.1c0.2,0.2,0.4,0.4,0.6,0.6c0.1-0.2,0.1-0.5,0.1-0.6C180.7,71.6,180.6,71.5,180.3,71.6
			C180.4,71.5,180.4,71.5,180.3,71.6C180.3,71.5,180.3,71.5,180.3,71.6C180.3,71.5,180.3,71.5,180.3,71.6z"/>
		<path fill="#545454" d="M169.9,42.9C169.9,42.9,169.9,42.9,169.9,42.9c0-0.1,0-0.1,0-0.1c0,0,0,0,0-0.1c0,0,0,0,0-0.1
			c0-0.1,0-0.1-0.1-0.2c0,0,0,0,0,0c0-0.1,0-0.1,0-0.2c-0.2,0.4-0.8,0-0.8,0.7h0l0,0c0.2-0.1,0.4-0.1,0.6-0.2c0,0.2,0.1,0.3,0.1,0.5
			c0,0,0,0,0,0c0,0,0,0,0,0l0,0c0,0,0,0,0,0c0,0,0,0,0,0c0,0,0,0,0,0c0,0,0,0,0,0l0,0v0l0,0l0,0l0,0l0,0c0,0,0,0,0,0
			c0,0,0.1,0,0.1,0c0,0,0.1,0,0.1,0c0,0,0,0,0.1,0c0,0,0,0,0,0c0,0,0,0,0-0.1C169.9,43,169.9,43,169.9,42.9
			C170,43,169.9,42.9,169.9,42.9z"/>
		<path fill="#545454" d="M109.9,154.6c0,0,0.1,0,0.1-0.1c0.1,0,0.1,0,0.1-0.1c0-0.1,0-0.2,0-0.2c-0.3-0.1-0.5-0.2-0.8-0.3
			c0,0.1-0.1,0.1-0.1,0.2c0.1,0.2,0.2,0.5,0.4,0.6h0c0,0,0,0,0.1,0c0,0,0,0,0,0c0,0,0,0,0,0C109.8,154.7,109.9,154.7,109.9,154.6
			C109.9,154.6,109.9,154.6,109.9,154.6z"/>
		<path fill="#545454" d="M166.9,13.4L166.9,13.4c0-0.5,0.1-1,0.1-1.6c-0.1,0-0.2,0-0.2,0h0c0,0.5,0,1,0,1.5
			C166.7,13.4,166.8,13.4,166.9,13.4L166.9,13.4z"/>
		<path fill="#545454" d="M189.8,67.8c0.3,0,0.5,0.1,0.8,0.1c0-0.1,0.1-0.2,0.1-0.3c0-0.1,0.1-0.2,0.1-0.4h0l0,0
			c-0.4,0.1-0.8,0.3-1.1,0.4C189.8,67.7,189.8,67.7,189.8,67.8z"/>
		<path fill="#545454" d="M168.7,15.6c-0.1-0.1-0.1-0.1-0.2-0.2h0l0,0c-0.1,0-0.2,0-0.3,0.1c-0.5,0.1-0.5,0.2-0.4,0.8
			C168.2,16.1,168.4,15.8,168.7,15.6z"/>
		<path fill="#545454" d="M191.2,76.6c0,0.1,0,0.2,0,0.3c0.3-0.3,0.4-0.5,0.7-0.8c-0.3-0.1-0.5-0.2-0.9-0.3l0,0h0
			C191.1,76.1,191.1,76.4,191.2,76.6z"/>
		<path fill="#545454" d="M164,17.3c0,0-0.2,0.7-0.2,0.7c0.6,0,1.3,0,1.9,0c0,0,0-1,0-1c-0.6,0-0.7,0-1.7,0V17.3z"/>
		<path fill="#545454" d="M192.3,68.2C192.3,68.2,192.3,68.2,192.3,68.2C192.2,68.1,192.2,68.1,192.3,68.2c-0.1,0-0.1,0-0.1-0.1
			c0,0,0,0,0,0c0,0,0,0,0,0c0,0,0,0,0,0c0,0,0,0-0.1-0.1c0,0,0,0-0.1-0.1c0,0,0,0,0,0c0,0,0,0,0,0c0,0,0,0,0,0c0,0,0,0,0,0
			c0,0,0,0,0,0c0,0,0,0-0.1,0c0,0,0,0,0,0c0,0,0,0,0,0c0,0,0,0-0.1,0c0,0,0,0,0,0c0,0,0,0-0.1,0c0,0,0,0,0,0c0,0,0,0-0.1,0.1
			c0,0,0,0,0,0c0,0-0.1,0.1-0.1,0.1c0.3,0.1,0.6,0.2,1,0.3l0,0h0C192.3,68.3,192.3,68.2,192.3,68.2L192.3,68.2L192.3,68.2
			C192.3,68.2,192.3,68.2,192.3,68.2z"/>
		<path fill="#545454" d="M114.6,54.9C114.6,54.8,114.5,54.8,114.6,54.9c-0.2-0.1-0.2-0.2-0.3-0.2l0,0h0c-0.1,0.3-0.2,0.6-0.3,0.8
			c0.1,0,0.2,0.1,0.4,0.1C114.4,55.4,114.5,55.1,114.6,54.9z"/>
		<path fill="#545454" d="M94.9,144.5c-0.2,0.3-0.3,0.5-0.5,0.7c0.2,0.1,0.4,0.2,0.7,0.3C95,145.1,95,144.9,94.9,144.5z"/>
		<path fill="#545454" d="M167.2,19.3c0,0,0-0.1,0.1-0.1c0,0,0-0.1,0.1-0.1c0,0,0-0.1,0-0.1c0,0,0-0.1,0-0.1c0,0,0-0.1,0-0.1
			c0,0,0,0,0-0.1c0,0,0,0,0-0.1c0,0,0,0,0,0c0,0,0,0-0.1-0.1c0,0,0,0,0,0c0,0-0.1,0-0.1-0.1c0,0,0,0-0.1,0c-0.1,0-0.1,0-0.2-0.1
			c0.1,0.4,0.1,0.7,0.2,1.1c0,0,0,0,0,0c0,0,0,0,0,0l0,0c0,0,0,0,0,0c0,0,0,0,0,0c0,0,0,0,0,0c0,0,0.1-0.1,0.1-0.1
			C167.1,19.4,167.2,19.4,167.2,19.3z"/>
		<path fill="#545454" d="M194.8,70C194.8,70,194.8,70,194.8,70c-0.1,0-0.2,0-0.2,0.1c-0.1,0-0.1,0-0.2,0.1c0,0.1,0,0.2,0.1,0.3
			c0.3,0,0.6-0.1,0.9-0.1c-0.1-0.1-0.1-0.3-0.2-0.3c0,0,0,0-0.1,0l0,0c0,0,0,0,0,0c0,0-0.1,0-0.1,0c0,0,0,0-0.1,0
			C194.9,70,194.8,70,194.8,70z"/>
		<path fill="#545454" d="M190.1,58.8c0.2-0.2,0.4-0.4,0.6-0.6c-0.2-0.1-0.3-0.1-0.5-0.2c-0.1,0-0.1-0.1-0.2-0.1
			c0,0.2,0,0.3-0.1,0.4c0,0.1,0,0.3-0.1,0.4C190,58.8,190,58.8,190.1,58.8L190.1,58.8L190.1,58.8z"/>
		<path fill="#545454" d="M185.5,61.7c-0.2-0.1-0.5-0.2-0.7-0.2c0,0.1,0,0.2,0,0.3c0,0,0,0.1,0,0.1c0,0,0,0,0,0.1c0,0,0.1,0,0.1,0
			c0.2,0.1,0.4,0.1,0.6,0.1C185.4,61.9,185.4,61.8,185.5,61.7z"/>
		<path fill="#545454" d="M151.4,35.6c0,0-0.1,0-0.1,0c0,0-0.1,0-0.1,0c0,0-0.1,0-0.1,0c0,0-0.1,0-0.1,0c0,0,0,0-0.1,0
			c0,0,0,0,0,0.1c0,0,0,0,0,0c0,0,0,0,0,0.1c0,0,0,0,0,0c0,0,0,0.1,0,0.1c0,0,0,0,0,0.1c0,0,0,0.1,0.1,0.1c0,0,0,0,0,0.1
			c0,0.1,0.1,0.1,0.2,0.2c0.1-0.3,0.2-0.6,0.4-0.9c0,0,0,0,0,0l0,0h0l0,0c0,0,0,0,0,0C151.5,35.5,151.5,35.6,151.4,35.6z"/>
		<path fill="#545454" d="M132.3,47.7L132.3,47.7c0-0.1,0.1-0.2,0.1-0.3c0-0.1,0.1-0.2,0.1-0.3c0,0-0.2-0.1-0.3-0.2
			c-0.1,0.2-0.1,0.5-0.2,0.7C132.1,47.6,132.2,47.7,132.3,47.7L132.3,47.7z"/>
		<path fill="#545454" d="M148.1,6.8c-0.1-0.1-0.1-0.2-0.2-0.2c0,0,0-0.1-0.1-0.1c0,0,0-0.1,0-0.1l0,0v0c-0.1,0.1-0.3,0.2-0.4,0.3
			c-0.1,0.1-0.2,0.2-0.3,0.3c0.3,0,0.6,0,0.9,0C148.1,6.9,148.1,6.8,148.1,6.8z"/>
		<path fill="#545454" d="M184.2,69.5c-0.4,0-0.9,0-0.9,0v0c0,0.1-0.1,0.2-0.1,0.3c0.4,0,0.7-0.1,1-0.1
			C184.3,69.7,184.2,69.5,184.2,69.5z"/>
		<path fill="#545454" d="M185,62.4c-0.6,0.1-0.8,0.1-0.9,0.3c0,0.1,0,0.2,0,0.4l0,0v0c0.2-0.1,0.3-0.3,0.4-0.4
			C184.7,62.6,184.9,62.5,185,62.4z"/>
		<path fill="#545454" d="M78.1,109.7c-0.3,0.1-0.5,0.2-0.6,0.3c-0.1,0-0.1,0.1-0.2,0.1c0.1,0.1,0.1,0.2,0.2,0.3
			c0.1,0.1,0.1,0.2,0.2,0.3C77.8,110.4,77.9,110.1,78.1,109.7z"/>
		<path fill="#545454" d="M88.2,88.8c0.1,0,0.1,0,0.1,0c0-0.2-0.1-0.5-0.2-0.7c-0.1,0-0.2,0-0.3,0.1c0.1,0.2,0.1,0.5,0.2,0.7
			C88,88.8,88.1,88.8,88.2,88.8z"/>
		<path fill="#545454" d="M94.9,146C94.9,146,94.9,146,94.9,146c0,0.1,0.1,0.1,0.1,0.1c0,0,0,0,0,0c0,0,0,0,0.1,0.1c0,0,0,0,0,0
			c0,0,0,0,0.1,0c0,0,0,0,0,0c0,0,0,0,0.1,0c0,0,0,0,0,0c0,0,0,0,0.1,0c0,0,0,0,0,0c0,0,0.1-0.1,0.1-0.1c0,0,0,0,0.1-0.1
			c0.1-0.1,0.1-0.1,0.2-0.2c-0.4,0-0.6,0-1,0C94.8,145.9,94.9,145.9,94.9,146z"/>
		<path fill="#545454" d="M154.1,22.2c0,0.1-0.1,0.2-0.1,0.3c0.6-0.3,0.7-0.7,0.4-1.2C154.3,21.6,154.2,21.9,154.1,22.2z"/>
		<path fill="#545454" d="M177,48.4C177,48.4,177,48.4,177,48.4c0.1,0.1,0.1,0.1,0.1,0.1c0,0,0,0,0,0c0,0,0,0,0,0c0,0,0,0,0,0
			c0,0,0,0,0,0c0,0,0,0,0,0c0.2-0.1,0.4-0.3,0.6-0.4c-0.1-0.1-0.1-0.2-0.2-0.3c-0.1,0.1-0.2,0.2-0.3,0.3
			C177.1,48.2,177,48.3,177,48.4L177,48.4L177,48.4C176.9,48.4,176.9,48.4,177,48.4z"/>
		<path fill="#545454" d="M153.5,10.5c0.2-0.1,0.3-0.1,0.5-0.2c-0.1,0-0.2,0-0.3,0c0,0-0.1,0-0.1,0c-0.1,0-0.1,0-0.1,0c0,0,0,0,0,0
			c0,0,0,0,0,0c-0.1,0-0.1,0-0.1,0c0,0,0,0,0,0c0,0-0.1,0-0.1,0.1c0,0,0,0,0,0c0,0,0,0.1,0,0.1c0,0,0,0,0,0c0,0.1,0,0.1,0,0.2l0,0v0
			C153.2,10.7,153.3,10.6,153.5,10.5z"/>
		<path fill="#545454" d="M176.9,27c-0.1-0.3-0.1-0.6-0.2-1C176.4,26.8,176.4,26.8,176.9,27z"/>
		<path fill="#545454" d="M174.2,36.5c0.1,0.1,0.2,0.1,0.3,0.1c0.1,0,0.2,0.1,0.3,0.1l0,0h0c0-0.1,0.1-0.2,0.1-0.3
			c-0.2-0.1-0.4-0.2-0.6-0.3C174.2,36.3,174.2,36.4,174.2,36.5z"/>
		<path fill="#545454" d="M186.5,51.4L186.5,51.4L186.5,51.4c-0.2-0.2-0.3-0.4-0.5-0.6c-0.1,0.1-0.2,0.1-0.2,0.2
			c0.2,0.2,0.3,0.4,0.5,0.6C186.3,51.5,186.4,51.5,186.5,51.4z"/>
		<path fill="#545454" d="M133.8,42.6c0-0.2,0-0.4,0-0.5c0-0.2,0-0.3,0-0.5C133.4,41.9,133.4,42.3,133.8,42.6z"/>
		<path fill="#545454" d="M191.2,66.3C191.2,66.3,191.1,66.3,191.2,66.3c-0.1,0-0.2,0-0.2,0c0,0,0,0,0,0c0,0-0.1,0-0.1,0
			c0,0,0,0,0,0c0,0-0.1,0-0.1,0c0,0,0,0,0,0c0,0,0,0,0,0.1c0,0,0,0,0,0c0,0,0,0.1,0,0.1c0,0,0,0,0,0c0,0,0,0.1,0,0.1c0,0,0,0,0,0.1
			c0,0.1,0,0.1,0,0.2c0.3-0.2,0.5-0.4,0.8-0.6C191.3,66.3,191.3,66.3,191.2,66.3z"/>
		<path fill="#545454" d="M183.5,51.5L183.5,51.5L183.5,51.5C183.5,51.5,183.5,51.5,183.5,51.5C183.5,51.5,183.5,51.5,183.5,51.5
			C183.5,51.5,183.6,51.5,183.5,51.5c0.1,0,0.1,0,0.2,0c0,0,0,0,0,0c0,0,0.1,0,0.1,0c0,0,0.1,0,0.1,0c-0.2-0.3-0.4-0.5-0.6-0.8
			c0,0-0.1,0-0.1,0c0,0.1,0.1,0.3,0.1,0.4C183.4,51.2,183.4,51.4,183.5,51.5z"/>
	</g>
</g>
<g id="Layer_4">
	<g>
		<polygon fill="#545454" points="0,107.6 11.1,107.6 11.1,83.4 33.2,83.4 33.2,107.6 44.3,107.6 44.3,52.4 33.2,52.4 33.2,74.7 
			11.1,74.7 11.1,52.4 0,52.4 0,107.6 		"/>
		<polygon fill="#545454" points="54.8,107.6 87.5,107.6 87.5,98.9 65.9,98.9 65.9,83.4 85.6,83.4 85.6,74.7 65.9,74.7 65.9,61.1 
			87.4,61.1 87.4,52.4 54.8,52.4 54.8,107.6 		"/>
		<polygon fill="#545454" points="113.4,107.6 124.5,107.6 124.5,85.8 144.3,52.4 132.6,52.4 119.3,75.6 106.2,52.4 93.2,52.4 
			113.4,85.8 113.4,107.6 		"/>
		<polygon fill="#545454" points="150.3,107.6 160.9,107.6 160.9,66.3 161.1,66.3 182.2,107.6 195.7,107.6 195.7,52.4 185.1,52.4 
			185.1,93.7 185,93.7 163.9,52.4 150.3,52.4 150.3,107.6 		"/>
		<polygon fill="#545454" points="206.2,107.6 238.9,107.6 238.9,98.9 217.2,98.9 217.2,83.4 237,83.4 237,74.7 217.2,74.7 
			217.2,61.1 238.8,61.1 238.8,52.4 206.2,52.4 206.2,107.6 		"/>
		<polygon fill="#545454" points="276.7,107.5 257.1,79.7 276.4,52.4 289.6,52.4 270.4,79.7 290,107.5 276.7,107.5 		"/>
	</g>
</g>
</svg>
