<?xml version="1.0" encoding="utf-8"?>
<!-- Generator: Adobe Illustrator 17.1.0, SVG Export Plug-In . SVG Version: 6.00 Build 0)  -->
<!DOCTYPE svg PUBLIC "-//W3C//DTD SVG 1.1//EN" "http://www.w3.org/Graphics/SVG/1.1/DTD/svg11.dtd">
<svg version="1.1" id="Layer_1" xmlns="http://www.w3.org/2000/svg" xmlns:xlink="http://www.w3.org/1999/xlink" x="0px" y="0px"
	 width="290px" height="160px" viewBox="0 0 290 160" enable-background="new 0 0 290 160" xml:space="preserve">
<g opacity="0.2">
	<path fill="#545454" d="M101,37v62h87V37H101z M145,70h-19v-5h19V70z M151,75v5h-10v-5H151z M126,60v-5h26v5H126z M111,46h19v4h-19
		V46z M121,90h-10v-5h10V90z M121,80h-10v-5h10V80z M121,70h-10v-5h10V70z M121,60h-10v-5h10V60z M136,90h-10v-5h10V90z M136,80h-10
		v-5h10V80z M164,90h-24v-5h24V90z M169,70h-19v-5h19V70z M169,50h-34v-4h34V50z M174,60h-17v-5h17V60z"/>
	<path fill="#545454" d="M203,22v-5H87.1v5H82v116h5v5h116v-5h5V22H203z M193,128.1h-58V118h58V128.1z M193,104H97V32h96V104z"/>
</g>
<g>
	<path fill="#545454" d="M0,95.9v-5l4.3-1.4V62.3L0,60.6v-4.8l13.2-0.3h5.4c5.8,0,10.3,1.7,13.5,5c3.2,3.4,4.8,8.2,4.8,14.6
		c0,6.4-1.7,11.5-5.2,15.2c-3.4,3.7-8.1,5.6-13.9,5.6H0z M13.2,62.3v26.9h4.8c3,0,5.3-1.1,6.9-3.2c1.6-2.1,2.4-5.6,2.4-10.6
		c0-4.7-0.8-8-2.3-10.1c-1.5-2.1-3.7-3.1-6.6-3.1H13.2z"/>
	<path fill="#545454" d="M68.9,82.2l-19,0.2c0.2,2.4,0.8,4.2,2.1,5.5c1.2,1.3,2.8,1.9,4.8,1.9c1.4,0,2.9-0.2,4.5-0.7
		s2.8-0.9,3.7-1.3l1.4-0.7l2.5,4.6c-0.4,0.3-1,0.8-1.8,1.3c-0.8,0.5-2.3,1.3-4.6,2.1c-2.3,0.9-4.5,1.3-6.7,1.3
		c-4.9,0-8.6-1.3-11.1-4c-2.5-2.7-3.8-6.5-3.8-11.4c0-5.1,1.4-9.1,4.1-12.1c2.7-3,6.5-4.5,11.2-4.5c4.2,0,7.4,1.2,9.7,3.6
		c2.3,2.4,3.4,5.7,3.4,9.9L68.9,82.2z M55.6,71.1c-1.6,0-2.8,0.5-3.8,1.6c-1,1.1-1.6,2.5-1.8,4.3h10.3
		C60.3,73.1,58.7,71.1,55.6,71.1z"/>
	<path fill="#545454" d="M88.1,87.3l5-16.7l-3.3-0.7v-4.6l15-0.3v4.9l-3.3,0.7l-9.2,25.3h-9.5l-9.1-25.2l-2.8-0.9v-4.6l15-0.3v4.9
		l-3.2,0.6L88.1,87.3z"/>
	<path fill="#545454" d="M131.2,86.8l2.9,4.9c-3.7,3.2-7.8,4.9-12.3,4.9c-4.7,0-8.4-1.4-11-4.1c-2.6-2.8-3.9-6.6-3.9-11.5
		c0-5.1,1.4-9.2,4.2-12.1c2.8-2.9,6.6-4.4,11.6-4.4c1.5,0,3,0.2,4.7,0.5c1.7,0.3,3,0.7,4,1l1.4,0.5l-0.3,9.3h-5.2l-0.8-4.1
		c-1.1-0.3-2.4-0.5-4-0.5c-2.1,0-3.8,0.7-5,2.2c-1.2,1.4-1.7,3.6-1.7,6.5c0,3.2,0.6,5.7,1.8,7.5c1.2,1.7,3,2.6,5.4,2.6
		c0.8,0,1.5-0.1,2.2-0.2c0.7-0.1,1.4-0.3,2-0.6c0.6-0.3,1.2-0.5,1.5-0.7c0.4-0.2,0.9-0.5,1.5-0.9S131.1,86.8,131.2,86.8z"/>
	<path fill="#545454" d="M136.1,52l13-0.5v16.8c3.1-2.6,6.3-3.9,9.6-3.9c2.9,0,5.1,0.9,6.6,2.7c1.5,1.8,2.3,4.3,2.3,7.6v15.2l4,1.4
		v4.6h-15.5v-4.6l3-1.4V76c0-3.1-1.3-4.6-3.8-4.6c-1,0-2,0.3-3,0.8s-1.8,1-2.4,1.5l-0.9,0.7v15.4l3,1.4v4.6h-16.1v-4.6l4.6-1.4V57.7
		l-4.6-1.1V52z"/>
	<path fill="#545454" d="M205.6,95.5l-11.4,0.4l-1-3.7c-0.3,0.3-0.8,0.7-1.4,1.2c-0.6,0.5-1.7,1.1-3.3,1.9c-1.6,0.8-3.2,1.2-4.6,1.2
		c-2.8,0-5-0.8-6.5-2.4c-1.6-1.6-2.4-3.8-2.4-6.7c0-6.3,4.6-9.5,13.8-9.5h4v-3.2c0-2.9-1.5-4.3-4.4-4.3c-0.9,0-1.7,0.1-2.6,0.2
		c-0.8,0.2-1.5,0.3-1.9,0.5l-0.6,0.2l-0.9,3.7h-5.2l-0.4-8.5c4.6-1.5,8.8-2.3,12.4-2.3c4.4,0,7.4,0.9,9.2,2.6s2.7,4.6,2.7,8.8v14.2
		l4.3,1V95.5z M183.3,86.6c0,2.3,1.1,3.4,3.4,3.4c0.9,0,1.9-0.3,2.9-0.8c1-0.6,1.8-1.1,2.4-1.7l0.9-0.8v-3.8h-3.3
		c-2.2,0-3.8,0.3-4.8,0.9C183.8,84.4,183.3,85.3,183.3,86.6z"/>
	<path fill="#545454" d="M208.9,65.4l11.9-0.5l0.5,4c0.3-0.3,0.7-0.8,1.3-1.3c0.5-0.5,1.5-1.2,2.9-2c1.4-0.8,2.7-1.3,3.8-1.3
		c0.9,0,1.8,0.1,2.7,0.3c0.9,0.2,1.5,0.4,1.9,0.5l0.6,0.2l-0.5,10.9h-5l-0.9-4.9c-1,0-2,0.3-3,0.8c-1,0.5-1.8,1.1-2.4,1.6l-0.8,0.8
		v15.3l5.4,1.4v4.6h-18.5v-4.6l4.6-1.4V71.2l-4.6-1.1V65.4z"/>
	<path fill="#545454" d="M286.1,74.7v15.2l3.9,1.4v4.6h-15.4v-4.6l3-1.4V76.4c0-1.6-0.3-2.8-0.8-3.6c-0.5-0.8-1.4-1.1-2.5-1.1
		c-1.1,0-2.2,0.2-3.2,0.7c-1.1,0.5-1.8,1-2.3,1.5l-0.8,0.7v15.2l3,1.4v4.6h-14.4v-4.6l3-1.4V76.4c0-1.6-0.2-2.8-0.7-3.6
		c-0.5-0.7-1.3-1.1-2.5-1.1c-1.1,0-2.2,0.2-3.3,0.7c-1.1,0.5-1.9,1-2.4,1.5l-0.7,0.7v15.2l3,1.4v4.6H237v-4.6l4.4-1.4V71.1L237,70
		v-4.6l11.8-0.5l0.4,4.1c0.4-0.3,0.9-0.8,1.5-1.3c0.6-0.5,1.9-1.2,3.6-2.1c1.8-0.9,3.4-1.3,4.9-1.3c3.8,0,6.4,1.6,7.8,4.9
		c0.6-0.6,1.2-1.2,2-1.8c0.8-0.6,2-1.3,3.6-2c1.6-0.7,3.2-1.1,4.8-1.1c2.9,0,5,0.9,6.5,2.7C285.4,68.9,286.1,71.4,286.1,74.7z"/>
</g>
</svg>
