<?xml version="1.0" encoding="utf-8"?>
<!-- Generator: Adobe Illustrator 17.1.0, SVG Export Plug-In . SVG Version: 6.00 Build 0)  -->
<!DOCTYPE svg PUBLIC "-//W3C//DTD SVG 1.1//EN" "http://www.w3.org/Graphics/SVG/1.1/DTD/svg11.dtd">
<svg version="1.1" xmlns="http://www.w3.org/2000/svg" xmlns:xlink="http://www.w3.org/1999/xlink" x="0px" y="0px" width="290px"
	 height="160px" viewBox="0 0 290 160" enable-background="new 0 0 290 160" xml:space="preserve">
<g id="Layer_1">
	<path opacity="0.2" fill="#CECECE" d="M172.5,49.3c-0.2-0.3-0.8-0.3-1,0L166,59v50c0,3.6,1.2,6,6,6s6-2.5,6-6V59L172.5,49.3z"/>
	<path opacity="0.2" fill="#B7B7B7" d="M172.8,57h-7.5c-0.7,0-1.2,0.6-1.2,1.2v45.8c0,0.7,0.6,1.2,1.2,1.2h7.5
		c0.7,0,1.2-0.6,1.2-1.2V58.2C174,57.6,173.4,57,172.8,57z"/>
	<path opacity="0.2" fill="#A0A0A0" d="M172.8,57H169v48.3h3.8c0.7,0,1.2-0.6,1.2-1.2V58.2C174,57.6,173.4,57,172.8,57z"/>
	<path opacity="0.2" fill="#545454" d="M169.5,46.3c-0.2-0.3-0.8-0.3-1,0L163,56v2.2V59v44v1.1v1.9c0,3.6,1.2,6,6,6s6-2.5,6-6v-1.9
		V103V59v-0.8V56L169.5,46.3z M173,103h-8V59h8V103z"/>
	<path opacity="0.2" fill="#CECECE" d="M248.7,60.3l-19-19c-0.2-0.2-0.4-0.3-0.7-0.3h-39c-0.6,0-1,0.4-1,1v80c0,0.6,0.4,1,1,1h58
		c0.6,0,1-0.4,1-1V61C249,60.7,248.9,60.5,248.7,60.3z"/>
	<polygon opacity="0.2" fill="#B7B7B7" points="186,37 225,37 244,56 244,117 186,117 	"/>
	<rect x="233" y="55" opacity="0.2" fill="#A0A0A0" width="11" height="62"/>
	<polygon opacity="0.2" fill="#A0A0A0" points="225,37 225,56 243,56 	"/>
	<path opacity="0.2" fill="#545454" d="M244,118h-58c-0.6,0-1-0.4-1-1V37c0-0.6,0.4-1,1-1h39c0.3,0,0.5,0.1,0.7,0.3l19,19
		c0.2,0.2,0.3,0.4,0.3,0.7v61C245,117.6,244.6,118,244,118z M187,116h56V56.4L224.6,38H187V116z"/>
	<path opacity="0.2" fill="#545454" d="M218,55h-24c-0.6,0-1-0.4-1-1s0.4-1,1-1h24c0.6,0,1,0.4,1,1S218.6,55,218,55z"/>
	<path opacity="0.2" fill="#545454" d="M218,50h-24c-0.6,0-1-0.4-1-1s0.4-1,1-1h24c0.6,0,1,0.4,1,1S218.6,50,218,50z"/>
	<path opacity="0.2" fill="#545454" d="M236,65h-42c-0.6,0-1-0.4-1-1s0.4-1,1-1h42c0.6,0,1,0.4,1,1S236.6,65,236,65z"/>
	<path opacity="0.2" fill="#545454" d="M236,70h-42c-0.6,0-1-0.4-1-1s0.4-1,1-1h42c0.6,0,1,0.4,1,1S236.6,70,236,70z"/>
	<path opacity="0.2" fill="#545454" d="M236,75h-42c-0.6,0-1-0.4-1-1s0.4-1,1-1h42c0.6,0,1,0.4,1,1S236.6,75,236,75z"/>
	<path opacity="0.2" fill="#545454" d="M236,80h-42c-0.6,0-1-0.4-1-1s0.4-1,1-1h42c0.6,0,1,0.4,1,1S236.6,80,236,80z"/>
	<path opacity="0.2" fill="#545454" d="M236,85h-42c-0.6,0-1-0.4-1-1s0.4-1,1-1h42c0.6,0,1,0.4,1,1S236.6,85,236,85z"/>
	<path opacity="0.2" fill="#545454" d="M236,90h-42c-0.6,0-1-0.4-1-1s0.4-1,1-1h42c0.6,0,1,0.4,1,1S236.6,90,236,90z"/>
	<path opacity="0.2" fill="#545454" d="M236,95h-42c-0.6,0-1-0.4-1-1s0.4-1,1-1h42c0.6,0,1,0.4,1,1S236.6,95,236,95z"/>
	<path opacity="0.2" fill="#545454" d="M218,60h-24c-0.6,0-1-0.4-1-1s0.4-1,1-1h24c0.6,0,1,0.4,1,1S218.6,60,218,60z"/>
	<path opacity="0.2" fill="#545454" d="M244,57h-19c-0.6,0-1-0.4-1-1V37c0-0.4,0.2-0.8,0.6-0.9c0.4-0.2,0.8-0.1,1.1,0.2l19,19
		c0.3,0.3,0.4,0.7,0.2,1.1C244.8,56.8,244.4,57,244,57z M226,55h15.6L226,39.4V55z"/>
	<circle opacity="0.2" fill="#FFFFFF" cx="197.5" cy="106.5" r="4.5"/>
	<path opacity="0.2" fill="#FFFFFF" d="M222,106h-15c-0.6,0-1-0.4-1-1s0.4-1,1-1h15c0.6,0,1,0.4,1,1S222.6,106,222,106z"/>
	<path opacity="0.2" fill="#FFFFFF" d="M222,110h-15c-0.6,0-1-0.4-1-1s0.4-1,1-1h15c0.6,0,1,0.4,1,1S222.6,110,222,110z"/>
	<polygon opacity="0.2" fill="#FFFFFF" points="166.4,54 169,49.5 171.6,54 	"/>
	<rect x="165" y="105" opacity="0.2" fill="#FFFFFF" width="8" height="2"/>
	<g opacity="0.2">
		<path fill="#CECECE" d="M83.5,103c-0.2,0-0.4,0-0.5-0.1c-0.3-0.2-0.5-0.5-0.5-0.9l0.7-11.7C72.4,83.6,66,72.8,66,61.3
			C66,41.8,83.9,26,106,26c22.1,0,40,15.8,40,35.3s-17.9,35.3-40,35.3c-3.2,0-6.3-0.3-9.4-1L84,102.9C83.9,103,83.7,103,83.5,103z"
			/>
		<path fill="#B7B7B7" d="M100,24c-21.5,0-39,15.3-39,34.3c0,11.8,6.8,22.3,17.2,28.4L77.5,99l12.9-7.5c3.1,0.7,6.3,1,9.6,1
			c21.5,0,39-15.3,39-34.3S121.5,24,100,24z"/>
		<path fill="#CECECE" d="M73.2,132L73.2,132c-1.5,0-3.1-0.2-4.7-0.5c-9.5-2-21.1-10.7-27.6-18.3C34.3,105.7,27.5,93,27,83.1
			c-0.5-9.4,4.5-13.6,6.3-15.1l0.3-0.2c1.8-1.5,3.3-1.8,5.1-1.8c0.4,0,0.8,0,1.3,0c2.2,0.1,2.9,0.2,3.5,0.3l0.3,0
			c2,0.4,2.3,1.5,2.8,3.5c0.2,0.9,0.7,3.1,1.2,5.3c0.7,3.3,1.6,7,1.8,8.3c0.3,1.8-0.1,2.5-1.4,3.8c-1.2,1.2-3,2.8-4,3.7L44,91.2
			c-0.5,0.6-0.6,1.1-0.4,1.9c0.6,2,2.7,6.8,7.2,11.9c4.3,5.1,8.5,8,10.8,8.9c0.7,0.3,1.2,0.3,1.9-0.2c1-0.9,3.1-2.7,4.4-3.6
			c1.2-0.9,2.2-1.5,4-0.8c1.9,0.7,10.8,4.2,13,5.1c2,0.8,3,1.3,3,3.2c0,1,0,1.4-0.4,3.9c-0.3,2.4-0.6,4.2-2.7,6l-0.4,0.3
			C82.7,129.2,79.3,132,73.2,132z"/>
		<path fill="#B7B7B7" d="M84,121c1.8-1.5,2-3,2.4-5.3c0.3-2.4,0.3-2.8,0.3-3.8c0-1.3-0.3-1.5-2.4-2.3c-2.2-0.9-11-4.4-13-5.1
			c-1.3-0.5-1.8-0.2-3.1,0.7c-1.4,1-3.4,2.7-4.4,3.6c-0.9,0.7-1.8,0.8-2.8,0.3c-2.2-0.9-6.5-3.8-11.1-9.2
			c-4.7-5.3-6.8-10.4-7.4-12.4c-0.2-1.1,0-2,0.7-2.8c1-0.9,3-2.6,4.2-3.9c1.1-1.1,1.4-1.6,1.1-3c-0.3-2-2.5-11.3-3-13.5
			c-0.5-2-0.7-2.5-1.9-2.7c-0.8-0.1-1.3-0.2-3.8-0.3c-2.5-0.1-3.9,0-5.7,1.5c-1.6,1.4-6.7,5.1-6.3,14.6c0.5,9.4,6.9,21.8,13.5,29.5
			c6.5,7.5,17.9,16,27.1,18C77.9,126.7,82.3,122.4,84,121z"/>
		<path fill="#A0A0A0" d="M84.3,109.6c-0.5-0.2-1.2-0.5-2.1-0.9c-1.8,3.6-6.9,11.3-16.2,8.2c-12-4-21-15-28-27s-4-20,0-22
			c2.8-1.4,4.6-0.8,8.3-0.4c-0.3-1.4-0.6-2.6-0.7-3.3c-0.5-2-0.7-2.5-1.9-2.7c-0.8-0.1-1.3-0.2-3.8-0.3c-2.5-0.1-3.9,0-5.7,1.5
			c-1.6,1.4-6.7,5.1-6.3,14.6c0.5,9.4,6.9,21.8,13.5,29.5c6.5,7.5,17.9,16,27.1,18c9.3,1.9,13.8-2.4,15.5-3.8c1.8-1.5,2-3,2.4-5.3
			c0.3-2.4,0.3-2.8,0.3-3.8C86.7,110.6,86.4,110.4,84.3,109.6z"/>
		<path fill="#545454" d="M73.1,126.2L73.1,126.2c-1.5,0-3.1-0.2-4.7-0.5c-9.5-2-21.1-10.7-27.6-18.3c-6.5-7.5-13.3-20.2-13.8-30.1
			c-0.5-9.4,4.5-13.6,6.3-15.1l0.3-0.2c1.8-1.5,3.3-1.8,5.1-1.8c0.4,0,0.8,0,1.3,0c2.2,0.1,2.9,0.2,3.5,0.3l0.3,0
			c2,0.4,2.3,1.5,2.8,3.5c0.2,0.9,0.7,3.1,1.2,5.3c0.7,3.3,1.6,7,1.8,8.3c0.3,1.8-0.1,2.5-1.4,3.8c-1.2,1.2-3,2.8-4,3.7l-0.2,0.2
			c-0.5,0.6-0.6,1.1-0.4,1.9c0.6,2,2.7,6.8,7.2,11.9c4.3,5.1,8.5,8,10.8,8.9c0.7,0.3,1.2,0.3,1.9-0.2c1-0.9,3.1-2.7,4.4-3.6
			c1.2-0.9,2.2-1.5,4-0.8c1.9,0.7,10.8,4.2,13,5.1c2,0.8,3,1.3,3,3.2c0,1,0,1.4-0.4,3.9c-0.3,2.4-0.6,4.2-2.7,6l-0.4,0.3
			C82.6,123.4,79.2,126.2,73.1,126.2z M38.7,62.2c-1.5,0-2.5,0.2-3.8,1.3l-0.3,0.2c-1.8,1.5-6,5.1-5.6,13.5
			c0.5,9.4,7,21.6,13.3,28.9c6.3,7.3,17.5,15.8,26.5,17.6c1.5,0.3,3,0.5,4.3,0.5c5.4,0,8.5-2.5,9.9-3.7l0.4-0.3
			c1.5-1.2,1.7-2.3,2-4.7c0.3-2.3,0.3-2.7,0.3-3.6c0-0.7,0-0.7-1.8-1.3c-2.2-0.9-11-4.4-12.9-5.1c-0.9-0.3-1-0.3-2.1,0.5
			c-1.3,1-3.3,2.6-4.4,3.6c-1.3,1-2.6,1.1-3.9,0.5c-2.6-1.1-6.9-4.1-11.5-9.5c-5.8-6.6-7.4-12.2-7.6-12.8c-0.3-1.5,0-2.7,0.9-3.8
			c0,0,0.1-0.1,0.1-0.1l0.2-0.2c1-0.9,2.8-2.5,3.9-3.6c1-1,1-1.2,0.9-2.1c-0.2-1.2-1-4.9-1.8-8.1c-0.5-2.3-1-4.4-1.2-5.4
			c-0.4-1.8-0.5-1.8-1.1-1.9l-0.3,0c-0.6-0.1-1.2-0.2-3.3-0.3C39.4,62.3,39,62.2,38.7,62.2z"/>
		<path fill="#545454" d="M84.3,159C84.3,159,84.3,159,84.3,159c-0.6,0-1-0.5-1-1.1c0.7-8.9,4.7-17,11-22.4
			c-3.9-3.9-7.5-9-10.3-15.1c-0.2-0.5,0-1.1,0.5-1.3c0.5-0.2,1.1,0,1.3,0.5c2.3,5.1,5.9,10.3,10.1,14.6c5.6-4.2,12.2-6.1,18.2-5.2
			c7.2,1.1,10,5.5,9.5,9.1c-0.5,3.9-4.7,7.7-12.7,6.9c-4.3-0.4-9.9-3.3-15.1-8.1c-6.1,5.2-9.8,12.7-10.5,21.2
			C85.3,158.6,84.8,159,84.3,159z M97.4,135.6c4.3,4.1,9.2,7,13.7,7.4c6.7,0.7,10.2-2.2,10.6-5.2c0.3-2.7-2-6-7.8-6.9
			C108.5,130.2,102.5,131.8,97.4,135.6z"/>
		<path fill="#545454" d="M45,83c-0.4,0-0.9-0.3-1-0.8l-5-20c-0.1-0.5,0.2-1.1,0.7-1.2c0.5-0.1,1.1,0.2,1.2,0.7l5,20
			c0.1,0.5-0.2,1.1-0.7,1.2C45.2,83,45.1,83,45,83z"/>
		<path fill="#545454" d="M86,116c-0.1,0-0.3,0-0.4-0.1c-1.9-1-18.8-7.9-18.9-8c-0.5-0.2-0.8-0.8-0.5-1.3c0.2-0.5,0.8-0.8,1.3-0.5
			c0.7,0.3,17.1,7,19.1,8c0.5,0.2,0.7,0.8,0.4,1.3C86.7,115.8,86.4,116,86,116z"/>
		<path fill="#545454" d="M77.5,100c-0.2,0-0.4,0-0.5-0.1c-0.3-0.2-0.5-0.5-0.5-0.9l0.7-11.7C66.4,80.6,60,69.8,60,58.3
			C60,38.8,77.9,23,100,23c22.1,0,40,15.8,40,35.3s-17.9,35.3-40,35.3c-3.2,0-6.3-0.3-9.4-1L78,99.9C77.9,100,77.7,100,77.5,100z
			 M100,25c-21,0-38,14.9-38,33.3c0,11.1,6.3,21.4,16.7,27.6c0.3,0.2,0.5,0.5,0.5,0.9l-0.6,10.4l11.3-6.6c0.2-0.1,0.5-0.2,0.7-0.1
			c3.1,0.7,6.2,1,9.4,1c21,0,38-14.9,38-33.3S121,25,100,25z"/>
		<path fill="#545454" d="M107.1,34.5c-0.8-1-2-1.5-3.3-1.5c-2,0-3.3,1-4.3,2.1C98.6,34,97.3,33,95.2,33c-1.3,0-2.5,0.5-3.3,1.5
			c-0.9,1.1-1.2,2.6-0.9,4.3c0.8,3.7,4.1,7,8.1,8.1c0.1,0,0.2,0,0.3,0c0.1,0,0.2,0,0.3,0c4.1-1.2,7.3-4.4,8.1-8.1
			C108.2,37.2,108,35.6,107.1,34.5z"/>
		
			<ellipse transform="matrix(0.9296 0.3685 -0.3685 0.9296 21.4755 -35.2411)" fill="#FFFFFF" cx="103" cy="38.6" rx="1.3" ry="2.5"/>
		<path fill="#545454" d="M81.8,27.9c-1-1.2-2.5-1.9-4.1-1.9c-2.7,0-4.5,1.4-5.7,3c-1.3-1.6-3-3-5.7-3c-1.6,0-3.1,0.7-4.1,1.9
			c-1.1,1.4-1.5,3.3-1.1,5.5c1.1,4.8,5.3,9.1,10.5,10.6c0.1,0,0.2,0,0.3,0c0.1,0,0.2,0,0.3,0c5.3-1.5,9.5-5.8,10.5-10.6
			C83.3,31.3,82.9,29.3,81.8,27.9z"/>
		
			<ellipse transform="matrix(0.9296 0.3685 -0.3685 0.9296 17.6079 -25.9213)" fill="#FFFFFF" cx="76.7" cy="33.1" rx="1.7" ry="3.4"/>
		<path fill="#545454" d="M129.8,50.9c-1-1.2-2.5-1.9-4.1-1.9c-2.7,0-4.5,1.4-5.7,3c-1.3-1.6-3-3-5.7-3c-1.6,0-3.1,0.7-4.1,1.9
			c-1.1,1.4-1.5,3.3-1.1,5.5c1.1,4.8,5.3,9.1,10.5,10.6c0.1,0,0.2,0,0.3,0c0.1,0,0.2,0,0.3,0c5.3-1.5,9.5-5.8,10.5-10.6
			C131.3,54.3,130.9,52.3,129.8,50.9z"/>
		
			<ellipse transform="matrix(0.9296 0.3685 -0.3685 0.9296 29.4623 -41.9916)" fill="#FFFFFF" cx="124.7" cy="56.1" rx="1.7" ry="3.4"/>
		<path fill="#545454" d="M102.6,61.3c-1.2-1.5-2.9-2.3-4.9-2.3c-3.5,0-5.6,1.8-7.1,3.9C89,60.8,86.9,59,83.4,59
			c-2,0-3.7,0.8-4.9,2.3c-1.4,1.7-1.8,4-1.3,6.7c1.3,6,6.5,11.2,13,13c0.1,0,0.2,0,0.3,0c0.1,0,0.2,0,0.3,0c6.5-1.9,11.7-7.1,13-13
			C104.3,65.3,103.9,63,102.6,61.3z"/>
		
			<ellipse transform="matrix(0.9296 0.3685 -0.3685 0.9296 31.7188 -30.7383)" fill="#FFFFFF" cx="96.3" cy="67.7" rx="2.1" ry="4.2"/>
	</g>
</g>
<g id="Layer_2">
	<g>
		<path fill="#545454" d="M0.5,56.5h23.4v4.4h-9.2v38.2h9.7v4.3H0V99h9.2V60.8H0.5V56.5z"/>
		<path fill="#545454" d="M64.2,62l-3.3,4.5c-0.3-0.1-0.4-0.3-0.4-0.6c0-0.3-0.1-0.6-0.2-0.7c-1-1.4-2.2-2.5-3.9-3.4
			c-1.6-0.8-3.6-1.3-6-1.3c-2.3,0-4.2,0.7-5.7,2c-1.5,1.4-2.3,3-2.3,4.8c0,1.1,0.2,2.1,0.6,2.9c0.4,0.8,1,1.6,1.7,2.3
			c0.8,0.8,1.9,1.5,3.4,2.3c1.5,0.8,3.5,1.6,5.9,2.6c2.3,0.9,4.2,1.9,5.7,2.8c1.5,0.9,2.7,1.9,3.6,3c0.9,1.1,1.5,2.2,1.9,3.3
			c0.4,1.2,0.6,2.5,0.6,3.9c0,1.6-0.3,3.2-0.9,4.8c-0.6,1.6-1.5,3.1-2.8,4.4c-1.3,1.3-2.9,2.3-4.8,3.1c-2,0.8-4.3,1.2-7.1,1.2
			c-6.1,0-10.9-2-14.6-6l3.1-5.4c0.2,0.1,0.4,0.4,0.4,0.8s0.1,0.6,0.2,0.8c1.2,1.5,2.7,2.7,4.7,3.6c2,1,4.3,1.5,7.1,1.5
			c1.4,0,2.7-0.2,3.9-0.7c1.2-0.5,2.2-1.1,3-1.9c0.8-0.8,1.5-1.7,2-2.8c0.5-1.1,0.7-2.2,0.7-3.4c0-1-0.2-1.8-0.5-2.6
			c-0.3-0.8-0.9-1.5-1.6-2.2c-0.8-0.7-1.8-1.4-3.2-2c-1.4-0.7-3.2-1.5-5.4-2.4c-2.5-1-4.5-1.9-6.1-2.9c-1.6-1-2.9-2-3.9-3
			c-1-1-1.7-2.1-2.1-3.2c-0.4-1.2-0.6-2.4-0.6-3.8c0-1.7,0.4-3.3,1.1-4.8c0.7-1.5,1.7-2.8,3-3.9c1.3-1.1,2.8-2,4.5-2.6
			c1.8-0.6,3.6-0.9,5.6-0.9c2.6,0,5,0.5,7.2,1.5C60.6,58.8,62.6,60.2,64.2,62z"/>
		<path fill="#545454" d="M88.1,104c-2.6,0-4.9-0.6-6.9-1.8c-2.1-1.2-3.9-2.8-5.3-5s-2.6-4.7-3.4-7.7c-0.8-3-1.2-6.3-1.2-9.9
			c0-3.6,0.4-6.9,1.2-9.8c0.8-3,2-5.5,3.5-7.5c1.5-2.1,3.3-3.6,5.4-4.8c2.1-1.1,4.4-1.7,6.9-1.7c2.2,0,4.3,0.5,6.2,1.4
			c1.9,0.9,3.6,2.4,5.2,4.3c1.6,1.9,2.8,4.4,3.6,7.4c0.8,3,1.2,6.6,1.2,10.7c0,4.5-0.5,8.3-1.4,11.4c-1,3.1-2.2,5.6-3.8,7.5
			c-1.6,1.9-3.3,3.3-5.2,4.1C92.1,103.6,90.1,104,88.1,104z M80.3,94.7c2.3,2.8,4.9,4.2,7.8,4.2c1.3,0,2.7-0.3,4-0.9
			c1.3-0.6,2.5-1.6,3.5-3c1.1-1.5,1.9-3.4,2.5-5.9c0.6-2.5,0.9-5.6,0.9-9.4c0-3.7-0.3-6.7-1-9.1c-0.7-2.4-1.6-4.3-2.7-5.7
			c-1.1-1.4-2.2-2.4-3.4-3c-1.2-0.6-2.4-0.9-3.8-0.9c-1.5,0-3,0.2-4.3,0.8c-1.3,0.6-2.5,1.6-3.7,2.9s-2.1,3.2-2.8,5.6
			c-0.7,2.4-1.1,5.4-1.1,9.1c0,3.5,0.4,6.5,1.1,9.2C78.2,91.1,79.1,93.2,80.3,94.7z"/>
		<path fill="#545454" d="M108.5,56.4h5.4l12.1,36l11.3-35.9h5.2l-15.7,47.1h-2.4L108.5,56.4z"/>
		<path fill="#545454" d="M148.6,56.4h28.7v4.7h-23.7v15.4h19.6v5h-19.6v17.2h23.5v4.7h-28.5V56.4z"/>
		<path fill="#545454" d="M185.9,56.5h13.8c5.5,0,9.5,1.2,11.9,3.7c2.4,2.5,3.6,5.7,3.6,9.7c0,1.4-0.2,2.7-0.7,4
			c-0.4,1.3-1.1,2.6-1.9,3.7c-0.8,1.2-1.8,2.2-3,3c-1.2,0.8-2.5,1.4-3.9,1.8l10.8,20.9h-5.9l-10.4-20.7h-9v20.7h-5.4V56.5z
			 M191.4,61.4V78h9.1c3.3,0,5.8-0.7,7.3-2.2c1.5-1.5,2.2-3.4,2.2-5.9c0-1.2-0.2-2.3-0.6-3.3c-0.4-1-1-1.9-1.7-2.6
			c-0.7-0.8-1.7-1.4-2.9-1.8s-2.6-0.7-4.3-0.7H191.4z"/>
		<path fill="#545454" d="M252,62l-3.3,4.5c-0.3-0.1-0.4-0.3-0.4-0.6c0-0.3-0.1-0.6-0.2-0.7c-1-1.4-2.2-2.5-3.9-3.4
			c-1.6-0.8-3.6-1.3-6-1.3c-2.3,0-4.2,0.7-5.7,2c-1.5,1.4-2.3,3-2.3,4.8c0,1.1,0.2,2.1,0.6,2.9c0.4,0.8,1,1.6,1.7,2.3
			c0.8,0.8,1.9,1.5,3.4,2.3c1.5,0.8,3.5,1.6,5.9,2.6c2.3,0.9,4.2,1.9,5.7,2.8c1.5,0.9,2.7,1.9,3.6,3c0.9,1.1,1.5,2.2,1.9,3.3
			c0.4,1.2,0.6,2.5,0.6,3.9c0,1.6-0.3,3.2-0.9,4.8c-0.6,1.6-1.5,3.1-2.8,4.4c-1.3,1.3-2.9,2.3-4.8,3.1c-2,0.8-4.3,1.2-7.1,1.2
			c-6.1,0-10.9-2-14.6-6l3.1-5.4c0.2,0.1,0.4,0.4,0.4,0.8s0.1,0.6,0.2,0.8c1.2,1.5,2.7,2.7,4.7,3.6c2,1,4.3,1.5,7.1,1.5
			c1.4,0,2.7-0.2,3.9-0.7c1.2-0.5,2.2-1.1,3-1.9c0.8-0.8,1.5-1.7,2-2.8c0.5-1.1,0.7-2.2,0.7-3.4c0-1-0.2-1.8-0.5-2.6
			c-0.3-0.8-0.9-1.5-1.6-2.2c-0.8-0.7-1.8-1.4-3.2-2c-1.4-0.7-3.2-1.5-5.4-2.4c-2.5-1-4.5-1.9-6.1-2.9c-1.6-1-2.9-2-3.9-3
			c-1-1-1.7-2.1-2.1-3.2c-0.4-1.2-0.6-2.4-0.6-3.8c0-1.7,0.4-3.3,1.1-4.8c0.7-1.5,1.7-2.8,3-3.9c1.3-1.1,2.8-2,4.5-2.6
			c1.8-0.6,3.6-0.9,5.6-0.9c2.6,0,5,0.5,7.2,1.5C248.5,58.8,250.4,60.2,252,62z"/>
		<path fill="#545454" d="M261.3,56.4H290v4.7h-23.7v15.4h19.6v5h-19.6v17.2h23.5v4.7h-28.5V56.4z"/>
	</g>
</g>
</svg>
