<?xml version="1.0" encoding="utf-8"?>
<!-- Generator: Adobe Illustrator 17.1.0, SVG Export Plug-In . SVG Version: 6.00 Build 0)  -->
<!DOCTYPE svg PUBLIC "-//W3C//DTD SVG 1.1//EN" "http://www.w3.org/Graphics/SVG/1.1/DTD/svg11.dtd">
<svg version="1.1" id="Layer_1" xmlns="http://www.w3.org/2000/svg" xmlns:xlink="http://www.w3.org/1999/xlink" x="0px" y="0px"
	 width="290px" height="160px" viewBox="0 0 290 160" enable-background="new 0 0 290 160" xml:space="preserve">
<g id="Layer_2">
	<path opacity="0.3" fill="#545454" enable-background="new    " d="M157.3,66.8c-0.7-1.3-1.5-2.5-1.9-3.7c-0.2-0.5-0.1-1.5,0.3-1.8
		c4.5-4.2,8.9-8.4,13.6-12.5c2.3-2,5-3.7,7.4-5.6c3.6-2.7,7.2-5.4,10.9-8c2-1.5,2-1.4,3.7,0.6c2.9,3.5,5.8,6.9,8.6,10.4
		c1.4,1.7,2.7,3.4,4,5.2c0.3,0.4,0.3,1.3,0,1.6c-2.5,2.7-5,5.5-7.8,8.1c-2.5,2.4-5.3,4.6-8.1,6.9c0.3,0.7,0.6,1.3,1,1.9
		c1.3,2.3,1.4,3.1-0.5,4.9c-3.4,3.1-6.8,6.1-10.5,8.8c-5,3.6-10.2,6.9-15.3,10.3c-1.8,1.2-3.6,2.2-5.4,3.3c-0.8,0.5-1.3,0.5-2-0.5
		c-3.9-5.5-7.9-10.9-11.8-16.4c-0.6-0.9-1.2-1.8-1.9-3C146.7,73.8,151.9,70.3,157.3,66.8z M190.9,63.4c1.7-1.3,3.4-2.6,5.1-4
		c0.2-0.2,0.2-0.7,0.2-1.1c-0.2-1.1-0.6-2.3-0.8-3.4c-0.3-1.4-0.9-1.7-2.1-1.2c0.2,2.2,0.5,4.3,0.7,6.4c-0.2,0-0.5,0-0.7,0.1
		c-0.2-1.5-0.4-3.1-0.6-4.6c-0.2-2.1-0.3-2.2-2.7-1.7c0.1,0.7,0.3,1.3,0.3,2C190.6,58.5,190.8,61,190.9,63.4
		c-0.3-0.7-0.8-1.5-0.9-2.3c-0.3-2.4-0.6-4.7-0.8-7.2c-0.7,0-1.3,0-1.9,0c0.2,2,0.5,3.8,0.7,5.7c0.2,1.8,0.5,3.6,0.7,5.5
		c0.2,0.1,0.4,0.3,0.7,0.4C189.9,64.8,190.4,64.1,190.9,63.4z M145.4,77c0.3,0.2,0.3,0.4,0.4,0.4c7.4,1.2,14.8,0.6,22.2-0.7
		c0.6-0.1,1.3-0.8,1.5-1.3c1.6-3.8,3.2-7.7,4.7-11.5c0.8-2.2,1.5-4.4,2.3-6.5c-0.1-0.1-0.3-0.2-0.4-0.3
		C165.9,63.6,155.2,69.6,145.4,77z M187.8,73.5c-0.9-0.3-1.3-0.6-1.8-0.6c-3-0.3-6-0.3-8.9-0.8s-4.6,0.4-5.3,3.3
		c-0.1,0.6-0.5,1.2-0.9,1.7c-0.5,0.5-1.1,1.1-1.8,1.2c-1.5,0.3-3,0.5-4.5,0.6c-1.2,0.1-2,0.5-2.2,1.8c-0.1,0.4-0.4,0.9-0.5,1.3
		c-1.5,4-3,8.1-4.5,12.1c0.2,0.1,0.3,0.2,0.5,0.3C168.3,88.3,178.2,81.4,187.8,73.5z M144.7,78.8c3.7,5.4,7.2,10.5,10.7,15.7
		c1.9-5.2,3.7-10.1,5.5-15C155.7,79.3,150.5,79,144.7,78.8z M174.4,70c4.1,0.5,8.1,1,12.1,1.5c0.1-0.2,0.3-0.3,0.4-0.5
		c-2.7-4.4-5.4-8.8-8.3-13.5C177.1,62,175.8,65.9,174.4,70z M181.8,57.7c0.2,0,0.3,0,0.5,0.1c0.5-1.7,1.6-3.4,1.5-5.1
		c-0.1-3.7-0.7-7.4-1.2-11.2c-1.3,0.2-1.7,0.8-1.6,2c0.2,2.6,0.2,5.1,0.4,7.7C181.6,53.3,181.7,55.5,181.8,57.7z M186.2,63.6
		c-2.1-1.8-1-4.1-1.9-6c-0.4,1-1.1,2.2-0.8,3c0.9,2.1,2.3,4,3.5,5.9c0.2-0.1,0.5-0.1,0.7-0.2c-0.4-4.1-0.9-8.2-1.3-12.3
		c-0.3,0-0.6,0-0.9,0.1C184.8,57.2,185.6,60.2,186.2,63.6z M194.8,51.3c-1-4.2-0.1-8.9-4.1-12.7c0.7,4.2,1.4,7.8,1.9,11.5
		C192.7,51.5,193.2,51.8,194.8,51.3z M189.9,39.8c-1.5,3.7-1,7-0.5,10.2c0.3,1.8,0.5,2,2.5,1.3C191.3,47.6,190.6,44,189.9,39.8z
		 M180.1,43.4c-1.9,1.8-1,11,0.7,12.5C180.6,51.7,180.4,47.6,180.1,43.4z M197.7,51.6c-0.3-2.8-0.3-5.7-2.9-7.7
		c0.2,2.2,0.5,4.2,0.7,6.2C195.6,51.5,196.1,52,197.7,51.6z M184.8,50.3c1.3-3.6,0.1-7.1-0.2-10.7C183.2,43.2,184.6,46.8,184.8,50.3
		z M171.4,49.8c-1.5,1.3-1.7,5.9-0.5,8.5c0.4-0.5,1.2-1,1.1-1.4C172,54.6,171.7,52.3,171.4,49.8z M169,52c-1.5,1.1-1.7,5.5-0.5,7.8
		c0.4-0.5,1.1-1,1.1-1.5C169.5,56.3,169.2,54.3,169,52z M172.9,56.2c0.2,0.1,0.5,0.2,0.7,0.3c0.2-0.6,0.7-1.1,0.7-1.7
		c0-1.5-0.1-3-0.3-4.5c-0.1-0.7-0.2-1.4-0.3-2.1c-0.3,0-0.5,0-0.8,0C172,50.9,173.2,53.6,172.9,56.2z M177.3,53.8
		c1.2-0.6,1.3-6.1,0.3-8.8C176.7,45.9,176.6,49.7,177.3,53.8z M175.7,46.5c-1.1,0.9-1,6.6,0.3,8.3C176.4,52.1,175.9,49.4,175.7,46.5
		z M196.5,53.4c-0.1,0.1-0.3,0.3-0.4,0.4c0.3,1.5,0.6,3,0.9,4.6c1.8-1.5,2-2.1,1.2-3.8C197.9,54,197.1,53.8,196.5,53.4z M166.7,53.7
		c-1.1,1.2-1.4,4.9-0.7,6.1c0.1,0.2,0.7,0.3,1.1,0.4C166.9,57.9,166.8,56,166.7,53.7z M186.4,45.7c1.4-2.8,1.2-5.9-0.2-7.2
		c-0.1,0.2-0.2,0.3-0.2,0.5C186.1,41,186.2,43.1,186.4,45.7z M188.2,47.2c-0.1-0.1-0.2-0.1-0.3-0.2c-0.3,1.1-0.7,2.1-0.9,3.2
		c-0.3,1.4,0.1,1.7,1.7,1.2C188.5,50.1,188.4,48.7,188.2,47.2z M164.4,55.9c-0.9,0.7-1.1,2.3-0.6,4.5
		C165.2,60.2,165.3,59.6,164.4,55.9z M159.3,65c0.3,0,0.6,0.1,0.9,0.1c0.1-0.9,0.1-1.8,0.2-2.8c-0.3,0-0.6-0.1-0.8-0.1
		C159.5,63.2,159.4,64.1,159.3,65z M161.9,60.9c0.2,0,0.4,0,0.6,0c0-1.2,0-2.3,0-3.5C161.3,58.5,161.6,59.7,161.9,60.9z M199,48.7
		c-0.6,2.4-0.5,2.7,1.2,3.2C199.8,50.7,199.4,49.7,199,48.7z"/>
	<path opacity="0.3" fill="#545454" enable-background="new    " d="M84,87.3c0.4,1.5,1.2,2.2,2.7,2.1c3.4-0.2,6.8-0.1,10,1.3
		c1.4,0.6,2.8,1.4,4.1,2.4c1.3,1,2.3,2.3,3.5,3.4c0.9,0.8,0.7,1.3-0.2,1.9c-2.5,1.7-5.1,3.4-7.6,5.1c-0.4,0.3-0.9,1.1-0.8,1.5
		c0.8,4-2.4,6.5-5.3,7.5c-2.6,0.9-5.2,1.4-7.8-0.3c-0.4-0.3-1.4,0.1-1.9,0.4c-1.7,1-3.4,2.1-5.1,3.1s-2,0.9-2.6-0.9
		c-1.3-3.9-1.9-7.9-1.2-12.1c0.5-2.7,2-4.8,3.5-7c0.3-0.5,0.4-1.2,0.2-1.7c-0.7-2.1-1.7-4.1-2.1-6.2c-0.4-2.3,1.9-4.6,4.2-4.5
		c1,0,2.2,0.2,3,0.8c1.3,0.9,2.3,0.6,3.7,0.3c8.5-2.1,16.8-2,25.1,1.3c7.5,3,13.8,7.5,19.4,13c1.4,1.3,2.8,2.7,4,4.2
		c0.7,0.9,1.4,0.9,2.3,0.6c4.4-1.6,8.9-1.5,13.3,0.2c0.9,0.3,1.7,0.7,2.5,1.2c2.6,1.6,2.7,3,0.1,4.5c-7.8,4.5-15.6,8.9-23.4,13.2
		c-3,1.7-3.8,1-4.2-2.7c-0.5-4,1.7-7,3.9-9.9c1.1-1.5,2.5-2.8,3.9-4.3c-2.1-2.2-4.1-4.5-6.3-6.6c-4.9-4.5-10.1-8.6-16.3-11.1
		C100.4,84.7,92.3,84.2,84,87.3z M73.1,111.3c9.4-5.5,18.6-10.9,27.8-16.2c-2.5-3.6-12.3-5.9-17-3.9C75.4,95,71.1,101.6,73.1,111.3z
		 M83.6,111c2.5,1.3,6.4,0.7,8.6-1c2-1.7,2.4-2.7,1.8-4.6C90.6,107.2,87.3,109,83.6,111z M98.2,98.6c-0.2-0.1-0.5-0.3-0.7-0.4
		c-0.5,1.3-1.1,2.5-1.6,3.8c0.3,0.1,0.5,0.2,0.8,0.3C97.2,101.1,97.7,99.8,98.2,98.6z M90.9,102.8c-0.2-0.1-0.4-0.2-0.7-0.2
		c-0.5,1.3-0.9,2.5-1.4,3.8C91,105.8,90.2,104,90.9,102.8z M91.2,105c0.2,0.1,0.3,0.2,0.5,0.3c1.4-0.9,0.9-2.6,1.5-3.8
		c-0.2-0.1-0.4-0.2-0.6-0.2C92.1,102.4,91.6,103.7,91.2,105z M82.2,109.8c0.2,0.1,0.5,0.2,0.7,0.4c1.3-0.8,0.9-2.3,1.3-3.5
		c-0.2-0.1-0.4-0.2-0.6-0.3C83.1,107.5,82.7,108.7,82.2,109.8z M100.4,97.3c-0.2-0.1-0.4-0.1-0.6-0.2c-0.5,1.1-1,2.3-1.6,3.8
		C100.4,100,100.2,98.5,100.4,97.3z M95.5,100c-0.2-0.1-0.4-0.2-0.6-0.2c-0.5,1.3-0.9,2.6-1.4,3.9c0.3,0.1,0.5,0.2,0.8,0.3
		C94.7,102.6,95.1,101.3,95.5,100z M86.7,107.6c1.8-0.7,1.1-2.4,1.9-3.6c-0.2-0.1-0.4-0.2-0.6-0.2C87.6,105.1,87.2,106.3,86.7,107.6
		z M86.5,105.2c-0.2-0.1-0.4-0.1-0.6-0.2c-0.4,1.2-0.7,2.4-1.1,3.7c0.2,0.1,0.4,0.1,0.7,0.2C85.8,107.7,86.1,106.5,86.5,105.2z
		 M78.4,110.1c-0.2-0.1-0.5-0.2-0.7-0.3c-0.4,1.1-0.7,2.3-1.1,3.4c0.2,0.1,0.4,0.2,0.7,0.2C77.6,112.3,78,111.2,78.4,110.1z"/>
	<path opacity="0.3" fill="#545454" enable-background="new    " d="M227.3,28.6c-0.3-1.8-0.3-3.3-0.7-4.6c-0.5-1.8,0-2.7,1.7-3.3
		c5.9-2.2,11.6-4.6,17.5-6.7c7-2.5,14.1-4.7,21.1-7.1c1.4-0.5,2.1-0.2,2.5,1.3c1.7,6.3,3.5,12.7,5.3,19c0.4,1.2-0.2,1.7-1.2,2.2
		c-3.3,1.5-6.7,3.1-10.2,4.7c0.7,3.5,1.4,7.1,2.3,10.6c0.4,1.7,0.1,2.5-1.7,3c-8.4,2.2-16.7,4.7-25.1,6.8
		c-5.6,1.4-11.3,2.1-16.9,3.1c-1.5,0.3-2.3-0.1-2.5-2c-0.3-2.5-1.2-5-1.8-7.5c-1.1-4.7-2-9.5-3.1-14.3c-0.7-3.4-0.8-3.4,2.7-3.9
		C220.5,29.5,223.8,29,227.3,28.6z M263.8,45.8c0-0.2,0-0.4,0-0.6c-4.5-2.2-8.9-4.5-13.4-6.6c-3-1.4-3.4-1.3-5.5,1.2
		c-1.4,1.7-2.9,2.2-4.9,1.4c-1.5-0.6-3-1.1-4.5-1.4c-0.5-0.1-1.4,0-1.8,0.4c-3.2,3.5-6.3,6.9-9.3,10.5c-1.1,1.3-2,2.9-2.9,4.4
		c0.1,0.2,0.3,0.4,0.4,0.6C236.2,53.6,250.4,51.6,263.8,45.8z M218.6,31.9c0.2,0.2,0.2,0.4,0.3,0.4c7.3,2.5,14.6,5.1,21.9,7.5
		c0.6,0.2,1.7,0,2.2-0.5c2.8-2.7,5.5-5.4,8.2-8.2c2.1-2.2,4.1-4.6,6.1-6.9c-0.1-0.1-0.2-0.2-0.3-0.3
		C244.3,26.5,231.5,29.2,218.6,31.9z M221.2,52.7c3.7-4.7,7.3-9.2,11-13.9c-5.3-1.9-10.6-3.7-16.1-5.6
		C217.8,39.9,219.5,46.2,221.2,52.7z M248.4,35.6c5.3,2.7,10.2,5.2,15.5,7.9c-1.7-6.3-3.2-12.2-4.7-17.9
		C255.5,29,252.1,32.2,248.4,35.6z M268.5,10.5c-0.2-0.1-0.5-0.2-0.7-0.3c-0.6,0.8-1.3,1.6-1.7,2.5c-0.8,1.9-1.4,3.9-2.1,5.8
		c-0.5,1.2-0.1,1.7,1.2,2.1C266.3,17.2,267.4,13.8,268.5,10.5z M252.1,22.5c0.2,0.2,0.4,0.4,0.6,0.5c0.5-0.6,1.2-1,1.5-1.7
		c0.8-1.7,1.5-3.4,2.1-5.2c0.5-1.4,1-2.8,1.5-4.2c-0.3-0.1-0.5-0.2-0.8-0.4C254.9,15,253.7,18.8,252.1,22.5z M253,13.7
		c-0.2-0.1-0.4-0.3-0.6-0.4c-2.6,2.9-3.1,6.9-4.5,10.5c0.7-0.1,1.5-0.3,1.7-0.7C250.7,20,251.8,16.8,253,13.7z M255.4,20.4
		c3.2-2.4,3.7-5.9,4.8-9.3C258.6,11.6,257.1,14.6,255.4,20.4z M245.9,24.3c2.5-2.8,3.1-6.5,4.2-9.9
		C247.7,17.2,246.9,20.8,245.9,24.3z M266.3,21.6c0.2-0.1,0.4-0.1,0.6-0.2c2.8-5.7,2.9-6.4,1.8-8.9c-0.9,2.6-1.8,5.1-2.7,7.7
		C265.9,20.6,266.2,21.1,266.3,21.6z M241.4,24.5c0.5,0,1.1,0.2,1.1,0.1c1.2-2.8,2.4-5.6,3.7-8.7C244.2,16.4,243.8,17.2,241.4,24.5z
		 M250.2,23.2c1.1-0.2,4.4-7.3,4.8-10.5C253.9,13.1,251.8,17.6,250.2,23.2z M262.4,31.2c0.2,0.1,0.5,0.1,0.7,0.2
		c0.2-0.2,0.4-0.3,0.5-0.5c0.9-2.5,1.8-4.9,2.6-7.4c0.1-0.2-0.5-0.7-0.9-1.3C264.2,25.5,263.3,28.3,262.4,31.2z M267,23.3
		c-0.9,2.7-1.7,5-2.6,7.4c1.7-0.5,3.8-4,3.8-6.1C268.2,24.3,267.6,23.9,267,23.3z M262.3,28.7c0.8-2.3,1.6-4.4,2.4-6.6
		c-0.6-0.3-1.1-0.5-1.6-0.8C262.4,23.7,260.6,25.9,262.3,28.7z M247.8,15.2c-1.9,3-3.1,6.4-4.7,10C244.8,24.5,247.2,19.2,247.8,15.2
		z M243.5,16.8c-0.4,0.1-0.5,0.1-0.7,0.1c-0.7,0.3-3.2,6-3,6.7c0.1,0.2,0.3,0.4,0.4,0.4c0.2-0.1,0.5-0.2,0.6-0.4
		C241.7,21.4,242.6,19.2,243.5,16.8z M261,17.9c0.9,0.6,1.4,1,2,1.5c0.6-1.9,1.2-3.7,1.8-5.5c-0.1-0.1-0.3-0.2-0.4-0.2
		C263.3,15,262.2,16.4,261,17.9z M269,22.8c0.2-2.1,2.1-3.8,1-6.5c-0.8,1.8-1.3,3.3-2,4.6C267.5,22.1,267.8,22.5,269,22.8z
		 M267.2,29.7c2.2-0.2,2.8-1.8,3.2-3.4c0.1-0.4-0.6-1-1-1.7c-0.3,0.4-0.5,0.5-0.5,0.7C268.3,26.7,267.8,28.1,267.2,29.7z
		 M263.6,10.5c-2.3-0.2-3.6,1.9-3.3,5.1C261.3,14,262.4,12.4,263.6,10.5z M231.1,23.8c-0.1-0.2-0.1-0.3-0.2-0.5
		c-0.4,0.1-1,0.2-1.2,0.4c-0.7,1.3-1.6,2.6-0.7,4.2c0.2-0.1,0.3-0.2,0.4-0.4C230,26.4,230.6,25.1,231.1,23.8z M260.3,20
		c0.2,1.4,0.4,2.7,0.6,4.1C262.7,20.9,262.7,20.9,260.3,20z M239,18.6c-0.2-0.1-0.5-0.2-0.7-0.3c-0.6,1.5-1.3,3-1.9,4.5
		c0,0.1,0.3,0.4,0.5,0.4s0.6-0.2,0.7-0.4C238.1,21.4,238.6,20,239,18.6z M271.1,24.3C272,23,272,23,271,20.4
		C269.3,23.3,269.3,23.5,271.1,24.3z M230.3,28c2.2-0.2,1.9-2,2.6-3.2c0.1-0.2-0.2-0.6-0.3-1c-0.3,0.2-0.7,0.3-0.8,0.6
		C231.2,25.5,230.8,26.7,230.3,28z M238,23.6c1.2-0.3,2.5-3.2,2.4-6C239.6,19.6,238.8,21.5,238,23.6z M237,19.3
		c-2,0.7-2.7,2.5-1.6,3.6C236,21.8,236.4,20.8,237,19.3z"/>
	<path opacity="0.3" fill="#545454" enable-background="new    " d="M48.9,92.2c4.3-1.8,8.4-3.4,13-5.3c0.8,1.2,1.9,2.7,2.8,4.3
		c1.2,1.9,2.4,3.8,3.4,5.7c0.3,0.5,0.3,1.3,0.1,1.9c-1,3.5-2,7-3.1,10.4c-0.1,0.4-0.3,1-0.6,1.1c-6.8,3.1-13.6,6.1-20.5,9.1
		c-1.8,0.8-3.6,1.4-5.4,2.1c-2.1,0.9-2.4,0.8-3.4-1.2c-3.6-7.7-7.3-15.5-10.9-23.2c-1.2-2.6-2.3-5.4-3.6-8c-0.6-1.1-0.4-1.9,0.1-2.7
		c1.9-2.8,3.8-5.6,5.8-8.4c0.3-0.4,0.8-0.8,1.3-1c3.2-0.9,6.5-1.8,9.8-2.7c0.6-0.2,1.2-0.5,1.9-0.5c0.4,0,1.1,0.3,1.3,0.6
		c1.5,3.6,2.8,7.4,4.4,11C46.3,87.8,47.7,89.8,48.9,92.2z M33.1,84.3c-3.3,1.2-6.6,2.4-9.8,3.5c-1.2,0.4-1.4,0.8-0.9,1.9
		c0.8,1.7,1.6,3.5,2.4,5.3c2.9,6.2,5.8,12.4,8.7,18.5c1.1,2.4,2.3,4.7,3.5,7.2c8.7-3.8,17.5-6.7,25.7-11.2c-1.5-3.1-2.8-5.9-4.2-8.6
		c-0.2-0.4-1.2-0.9-1.6-0.8c-3.8,1.3-7.6,2.7-11.3,4.1c-1.8,0.7-3,0.6-3.6-0.7c-1.6-3.2-3.2-6.4-4.7-9.6
		C35.8,90.9,34.6,87.7,33.1,84.3z M64.3,107.7c0.9-2.8,1.7-5.4,2.5-8c0.4-1.2,0.1-2.1-1-3c-0.9,2.8-1.7,5.5-2.6,8.1
		C62.8,106,63,106.8,64.3,107.7z M59.6,99.7c1.4-3.2,2.9-6.3,2.6-9.8C61.2,93.1,58.7,96,59.6,99.7z M62,104.7c0.1,0,0.2-0.1,0.4-0.1
		c0.9-2.8,1.9-5.5,2.8-8.3c0.2-0.6,0.1-1.2,0.1-1.8c-0.2,0-0.3,0-0.5-0.1c-1,2.8-2,5.6-2.9,8.4C61.7,103.4,61.9,104.1,62,104.7z
		 M64.3,92.5c-0.2-0.1-0.4-0.1-0.7-0.2c-1.7,2.5-3.3,8.4-2.5,9.8C62.2,98.8,63.3,95.7,64.3,92.5z M39.8,94.3
		c1.8-2.8,3.3-5.3,4.9-7.8C42.4,87.4,39.6,92.2,39.8,94.3z M42.3,99.6c0.1,0.1,0.3,0.1,0.4,0.2c1.5-2.5,2.9-5.1,4.4-7.6
		C47,92.1,46.8,92,46.7,92C45.3,94.5,42.6,96.4,42.3,99.6z M40.4,77.9c-2,0.4-5.1,4.5-4.9,6.7C37.2,82.2,38.7,80.2,40.4,77.9z
		 M36.6,85.9c1.5-2.2,2.9-4.3,4.4-6.4C37.9,81.7,35.9,84.7,36.6,85.9z M38.6,91.4c0.1,0.1,0.3,0.2,0.4,0.2c1.5-2.3,3-4.6,4.5-7
		c-0.2-0.1-0.3-0.2-0.5-0.3C41.3,86.6,39.4,88.6,38.6,91.4z M41.1,97.1c0.2,0.1,0.4,0.3,0.7,0.4c1.5-2.4,3.1-4.8,4.6-7.1
		c-0.2-0.1-0.4-0.3-0.6-0.4C44.2,92.4,42.6,94.8,41.1,97.1z M41,95.6c1.5-2.4,3.1-4.8,4.6-7.2c-0.2-0.1-0.3-0.2-0.5-0.3
		C43.5,90.5,41.3,92.5,41,95.6z M41.9,81c-0.1-0.1-0.2-0.2-0.4-0.3c-2.4,2.4-4.7,6-4.4,7.4C38.8,85.6,40.4,83.3,41.9,81z M42.7,82.9
		c-2.6,1.7-5,5.6-4.8,7C39.6,87.5,41.1,85.2,42.7,82.9z M47.9,93.8c-2,1.6-4.7,7.1-4.1,8.1C45.2,99.1,46.5,96.5,47.9,93.8z"/>
	<path opacity="0.3" fill="#545454" enable-background="new    " d="M135.6,132.7c-0.1,0.9,0,1.8-0.2,2.6c-0.6,3-1.6,5.9-1.9,8.9
		c-0.3,2.7-1.1,3.6-4,4.1c-4,0.7-7.5,2.8-10.3,6c-0.4,0.4-1.1,0.9-1.6,0.8c-3.7-0.7-7.5-1.6-11.2-2.5c-0.4-0.1-1-0.7-0.9-1.1
		c0.1-3.4-2-5.5-4.3-7.4c-1.7-1.4-3.6-2.4-5.5-3.4c-0.9-0.5-1-1-0.7-1.8c1.5-4.5,3.1-9,4.6-13.6c1-3,0.9-3.1,3.9-2.1
		c4.5,1.4,8.9,2.9,13.4,4.3c3.1,0.9,6.2,1.6,9.3,2.5c2.8,0.8,5.6,1.6,8.4,2.4C134.9,132.4,135.2,132.5,135.6,132.7z M120.3,148.6
		c0.1,0.1,0.3,0.1,0.4,0.2c0.1-0.5,0.3-1,0.3-1.4c0-0.6-0.1-1.2-0.2-1.8c-0.6-3.8-1.2-7.5-1.8-11.3c-0.2-1.2-1.7-1.7-2.4-0.8
		c-3,3.6-6,7.3-8.9,11c-0.3,0.3-0.2,1.1,0,1.6c0.5,1.5,1.2,2.9,1.5,4.4c0.2,1.2,1,1.5,1.8,1.6c1.8,0.1,3.7,1.6,5.4,0.1
		C117.9,151.1,119.1,149.8,120.3,148.6z M104.4,141.3c2.6-3.2,5.4-6.6,8.1-10c-4.2-1.3-8.2-2.5-12.2-3.7c-1.2,3.4-2.3,6.6-3.4,9.5
		C99.6,138.6,101.9,139.9,104.4,141.3z M125.6,145.9c1.9-0.4,3.7-0.7,5.4-1.1c0.3-0.1,0.7-0.3,0.8-0.6c0.5-2,0.9-4.1,1.3-6.3
		c-2.9-0.9-5.8-1.8-9-2.8C124.6,138.9,125.1,142.4,125.6,145.9z M106.6,143.8c3-3.7,6-7.4,9-11c-1-1-1.7-1-2.5,0
		c-2.4,2.9-4.8,5.8-7.2,8.7C105.2,142.3,105.4,143,106.6,143.8z M120.6,134.1c0.6,4.4,1.2,8.8,1.8,13.3c1-0.6,2.3-0.6,2-2.3
		c-0.5-3-1-6.1-1.4-9.1C122.9,134.4,122,134,120.6,134.1z"/>
	<path opacity="0.3" fill="#545454" enable-background="new    " d="M261.6,81.4c2,2.2,4,4.3,5.8,6.3c-2.1,2.3-4,4.6-6,6.7
		c-0.4,0.4-1.3,0.5-1.9,0.5c-3.6-0.3-7.2-1-10.9-1.1c-1.9,0-2.9-0.8-4.1-2.1c-3.7-4.2-7.5-8.2-11.4-12.3c-1.1-1.2-1.2-2.1,0-3.3
		c4.2-4,8.5-7.9,12.7-11.9c2.8-2.7,5.6-5.5,8.5-8.2c0.5-0.5,1.4-0.8,2.1-0.7c3.9,0.5,7.8,1,11.7,1.6c0.6,0.1,1.1,0.6,1.5,1
		c3.2,3.3,6.4,6.7,9.6,10.1c0.4,0.5,1,0.9,1.4,1.3c1.5,1.3,1.5,1.5,0,2.9c-1.8,1.7-3.4,3.6-5.2,5.4c-0.2,0.2-0.7,0.4-1,0.4
		c-0.6,0-1.2-0.1-1.7-0.3c-2.7-1.1-5.1-0.5-6.7,1.9c-1.1,1.5-2.2,2.1-4.1,1.2C261.8,81,261.7,81.2,261.6,81.4z M255.7,56.4
		c-2.2,2.1-4.2,4.2-6.3,6.2c-4.9,4.7-9.8,9.5-14.7,14.2c-0.9,0.8-0.9,1.3-0.1,2.1c1.2,1.2,2.3,2.6,3.6,3.8c2.9,2.9,5.9,5.7,8.9,8.6
		c1.3-1.2,2.6-2.5,4-3.7c0.8-0.8,1-1.5,0-2.4c-1.5-1.4-2.9-3-4.1-4.6c-0.4-0.4-0.5-1.6-0.2-1.9c1.1-1.3,2.4-2.4,3.5-3.5
		c3.1,2.5,3.1,2.5,5.7-0.7c-0.9-1.1-1.9-2.3-2.9-3.5c1.4-1,2.7-2,3.8-2.8c2.1,2,4.1,3.9,5.8,5.4c2-1.8,3.7-3.3,5.2-4.7
		C263.8,64.8,259.9,60.8,255.7,56.4z M268.2,67.1c0.3,0,0.6,0,0.9,0c0.4-2.6,1.6-5.2,0.4-8C269.1,61.8,267.5,64.4,268.2,67.1z
		 M268.5,58.2c-0.1-0.1-0.2-0.3-0.4-0.4c-0.4,0.3-1.1,0.4-1.2,0.8c-0.4,1.7-0.7,3.4-0.9,5.2c-0.1,0.5,0.4,1.1,0.6,1.7
		c0.2-0.1,0.3-0.1,0.5-0.2C267.6,63,268.1,60.6,268.5,58.2z M271.1,60.8c-0.1,2.5-1.9,5-0.4,7.6C270.9,65.9,273,63.5,271.1,60.8z
		 M264.7,63.6c0.2,0,0.4,0,0.5,0c0.3-1.5,0.6-3.1,0.9-4.6c0.2-1.3-0.4-1.4-1.6-1.1C265.5,59.7,263,61.7,264.7,63.6z M269.6,70.1
		c-0.1,0.1-0.2,0.3-0.3,0.4c1.6,1.9,3.3,3.8,5.3,6.1c0-0.9,0.2-1.4,0-1.6C272.9,73.4,271.7,71.3,269.6,70.1z M273.6,62.9
		c-0.2,0-0.5,0-0.7,0c-0.3,1.6-0.7,3.3-0.9,4.9c0,0.3,0.3,0.6,0.4,1c0.3-0.2,0.7-0.5,0.7-0.8c0.2-0.9,0.4-1.8,0.5-2.8
		C273.6,64.5,273.6,63.7,273.6,62.9z M272.7,76.7c0.2-0.2,0.4-0.3,0.5-0.5c-1.4-1.6-2.8-3.3-4.3-4.9c-0.1-0.2-0.7,0-1.3,0.1
		C269.5,73.4,271.1,75,272.7,76.7z M257,93.4c0.1-0.1,0.2-0.3,0.3-0.4c-1-2.1-3.8-4.4-5.5-4.3C253.7,90.4,255.3,91.9,257,93.4z
		 M271.2,70.1c1.5,1.7,2.8,3.3,4.3,5C275.6,73.5,273,70.4,271.2,70.1z M259,93c0.1-0.1,0.2-0.2,0.3-0.3c-1.9-1.8-3.7-3.7-5.6-5.5
		l0.1-0.1C255.6,89.1,257.3,91,259,93z M260.4,92.3l0.1-0.1c-1.7-1.7-3.3-3.5-5-5.2c-0.1,0.1-0.1,0.1-0.2,0.2
		C257,88.9,258.7,90.6,260.4,92.3z M275.1,69.5c0.9-0.2,1.9-0.2,2.1-0.5c0.5-1.1,0-2.1-1.2-2.7C275.7,67.2,275.5,68,275.1,69.5z
		 M262.9,62c1.3-3.3,1.3-4.4-0.3-4.5C263.6,59,261.6,60.4,262.9,62z M259,75.2c-0.2,0.2-0.4,0.3-0.5,0.5c1.2,1.3,2.3,2.6,3.5,3.9
		c0.2-0.2,0.4-0.3,0.6-0.5C261.4,77.8,260.2,76.5,259,75.2z M260.7,57c-0.2,2.8-0.2,2.8,0.9,3.2C262.4,57.6,262.3,57.2,260.7,57z
		 M267.3,72.1c-0.2,0.2-0.3,0.3-0.5,0.5c1.1,1.2,2.2,2.4,3.3,3.6c0.2-0.2,0.3-0.3,0.5-0.5C269.6,74.5,268.4,73.3,267.3,72.1z
		 M261.2,91.5c0.1-0.1,0.3-0.3,0.4-0.4c-1.4-1.3-2.8-2.6-4.2-3.9c-0.1,0.1-0.2,0.2-0.3,0.3c1.2,1.2,2.3,2.3,3.5,3.5
		C260.7,91.2,260.9,91.4,261.2,91.5z M274.8,64.7c-0.2,0-0.3,0-0.5-0.1c-0.2,1.4-0.3,2.8-0.5,4.2c0.2,0,0.3,0,0.5,0.1
		C274.8,67.5,275.4,66.2,274.8,64.7z M276.5,73.8c0.2-0.1,0.3-0.3,0.5-0.4c-0.9-1.1-1.9-2.1-2.8-3.2c-0.2,0.1-0.3,0.3-0.5,0.4
		C274.7,71.6,275.6,72.7,276.5,73.8z"/>
	<path opacity="0.3" fill="#545454" enable-background="new    " d="M82.2,62.7c2.3-0.9,4.6-1.8,6.9-2.7c1.7-0.7,3.3-1.4,5.1-1.9
		c0.8-0.3,1.9-0.3,2.7,0c9.4,3.2,19.1,3.7,28.8,3.1c1.8-0.1,3.5-0.8,5.3-1.2c4.2-0.8,7.4,1.1,8.5,5.3c0.4,1.4,0.9,2.9,0.9,4.3
		c0,4.3-1.9,6-6.7,7.4c-5.4,1.6-10.8,1.5-16.1,1c-7.2-0.7-14.4-2-21.6-3c-2.3-0.3-4-1.2-5.6-3c-2.6-3-5.5-5.7-8.3-8.6
		C82.2,63.2,82.2,62.9,82.2,62.7z M126.7,66.1c-0.5-3.2-0.5-3.3-3.2-3c-0.8,0.1-1.7,0.3-2.5,0.2c-7.3-0.9-14.6-1.7-21.9-2.7
		c-2.6-0.4-3.4,0.3-3.2,3.2C106,65.7,116.2,66.6,126.7,66.1z M94.7,70.1c-1,2.2-1,2.4,1.2,3c2.3,0.7,4.7,1.1,7,1.6
		c7.2,1.4,14.5,2,21.8,1.2c1.7-0.2,2.2-1,2.4-2.7C116,73.8,105.3,72.7,94.7,70.1z M95.3,65.8c-0.4,1.9-0.2,2.2,2.5,2.8
		c8.1,1.8,16.4,2.6,24.7,2.6c1.5,0,3,0,4.7,0c-0.1-1.1-0.2-1.8-0.2-2.6C116.2,69,105.8,67.8,95.3,65.8z M92.9,71.3
		c0.8-3.7,1.5-7.2,2.3-11c-1.8,0.6-3.6,1.1-5.3,1.7c-0.2,0.1-0.5,0.5-0.5,0.8c-0.6,2.7-1,5.3,1.9,7.1C91.7,70.1,92.2,70.7,92.9,71.3
		z M119.6,67.9c0-0.1,0-0.3,0-0.4c-4.6-0.4-9.2-0.8-13.9-1.3c0,0.2,0,0.3,0,0.5C110.4,67.1,115,67.5,119.6,67.9z M130.1,68.6
		c-0.1,0-0.2,0-0.3,0c0,2,0,4.1,0,6.1c0.1,0,0.2,0,0.3,0C130.1,72.6,130.1,70.6,130.1,68.6z"/>
	<path opacity="0.3" fill="#545454" enable-background="new    " d="M28.2,147.2c1.7-2,3.2-3.7,4.7-5.4c1.4-1.5,2.7-3,4.2-4.5
		c0.6-0.5,1.4-0.8,2.2-1c3.8-1,7.7-1.6,11.3-2.9c7-2.5,13.9-5.3,19.5-10.4c4.2-3.7,7.7-2.6,11.2,1.3c0.7,0.8,1.6,1.7,2,2.6
		c1.9,4.6,1.4,6.2-2.9,9.8c-7.2,6.1-16,9.2-24.8,12.1c-3.9,1.3-7.8,2.3-11.7,3.5c-0.6,0.2-1.3,0.2-1.9,0c-4.2-1.4-8.4-2.9-12.6-4.3
		C29.3,147.8,29.1,147.6,28.2,147.2z M69.6,129.9c-1.9-2.7-1.9-2.7-4.3-1.2c-0.8,0.5-1.7,1-2.6,1.4c-6.5,3.3-13.5,5-20.4,7.3
		c-1.8,0.6-2.4,1.3-1.8,3.2c0.5,1.8,1.7,0.4,2.6,0.4c0.6,0,1.3-0.2,1.9-0.4c6-2.4,12.1-4.7,18.1-7.2
		C65.3,132.5,67.4,131.1,69.6,129.9z M43.4,150.7c5.4-1.5,10.7-2.7,15.7-4.6c4.4-1.7,8.5-4.3,12.8-6.4c1.7-0.8,1.9-1.9,1.2-3.6
		c-9.6,5.4-19.7,9.3-30.6,11.8C42.9,148.8,43.1,149.5,43.4,150.7z M71,132c-9.5,5.3-19.5,8.7-29.6,11.8c0.6,1.8,1.1,2.1,3.3,1.3
		c6.8-2.4,13.7-4.8,20.4-7.3c2.5-0.9,4.7-2.4,7.2-3.7C71.8,133.3,71.5,132.7,71,132z M38.8,138.9c-1,0.9-1.9,1.7-2.7,2.5
		c-0.6,0.6-1.5,1.4-1.4,2c0.3,1.6,0.6,3.5,1.7,4.5c1.3,1.1,3.4,1.3,5.4,2C40.7,146.1,39.8,142.7,38.8,138.9z M51,139.4
		c0.1,0.2,0.1,0.3,0.2,0.5c4.3-1.7,8.5-3.5,12.8-5.2c-0.1-0.1-0.1-0.2-0.2-0.4C59.6,136,55.3,137.7,51,139.4z M76.1,136.2
		c0.2,0,0.3-0.1,0.5-0.1c-0.9-1.9-1.8-3.8-2.7-5.7c-0.1,0.1-0.3,0.1-0.4,0.2C74.3,132.5,75.2,134.3,76.1,136.2z"/>
	<path opacity="0.3" fill="#545454" enable-background="new    " d="M39.3,65.8c2.1-1.8,4.1-3.4,6.2-5.1c3.7-3.1,7.5-6.1,11.2-9.3
		c3.8-3.2,7.6-6.6,11.3-9.9c0.8-0.8,1.5-0.8,2.2-0.1c2.5,2.5,5,4.9,7.5,7.4c0.4,0.4,0.7,1,1.2,1.3c2.4,1.5,1.9,2.1,0.9,4.6
		c-1.8,4.3-2.1,8.9-0.9,13.4c0.1,0.6,0.2,1.4-0.1,1.7c-2.9,3-6,5.9-9,8.8c-0.3,0.3-1.3,0.3-1.7,0c-1.8-1.2-3.8-1.6-5.7-1
		c-3.1,0.9-6.1,1.9-9,3.2c-1.3,0.6-1.9,0.8-3-0.6c-2.8-3.9-5.9-7.6-8.8-11.4C40.9,68,40.2,67,39.3,65.8z M60.7,56.2
		c-1.5,0-2.4,0.9-2,2.3c1.5,4.7,3,9.4,4.5,14c0.1,0.4,0.4,1,0.8,1.1c2.2,0.6,4.4,1.1,6.6,1.6c0.1,0,0.3,0,0.3-0.1
		c1.5-1.5,3.1-2.8,4.4-4.5c0.4-0.5-0.2-1.7-0.3-2.6c-0.1-0.5-0.2-0.9-0.1-1.4c0.2-2.6-0.7-4.4-3.3-5.5
		C67.9,59.7,64.3,57.9,60.7,56.2z M50.3,78.1c2.8-1.5,5.4-2.9,8.1-4.3c-1.4-4.4-2.7-8.7-4.1-13.2c-3.6,3-7,5.8-10.6,8.8
		C46,72.4,48.2,75.3,50.3,78.1z M75.2,57.5c0.8-2,1.5-3.7,2.1-5.5c0.1-0.3,0.1-0.9-0.1-1.1c-1.5-1.6-3.2-3.2-4.8-5
		c-2.6,2.1-5,4.1-7.8,6.4C68.3,54.2,71.7,55.9,75.2,57.5z M57.4,58.8c-0.2-0.1-0.5-0.2-0.7-0.2c-0.3,0.6-1,1.3-0.9,1.8
		c1.2,4.5,2.6,8.9,4,13.4c0.9-0.2,1.4-0.2,2.2-0.4C60.4,68.5,58.9,63.6,57.4,58.8z M61.6,55.1c4.4,2.1,8.7,4.1,13.1,6.3
		c0-1.3,0.8-2.4-0.9-3.1c-3-1.3-6-2.7-8.9-4.2C63.4,53.3,62.4,53.5,61.6,55.1z"/>
	<path opacity="0.3" fill="#545454" enable-background="new    " d="M239.2,106.1c1.3,2.4,1.2,2.3-0.9,4.2c-2.1,1.9-3.9,4.2-6,6.2
		c-2.2,2.2-4.4,4.3-6.6,6.5c-0.6,0.6-1,1.2-1.8,2.2c-1.6-1.7-3.2-3.3-4.8-5c-3.8-4.2-7.6-8.4-11.5-12.6c-1.9-2-3.9-3.9-5.8-5.9
		c-0.3-0.3-0.4-0.8-0.4-1.3c-0.6-3.8-1.3-7.6-1.8-11.5c-0.1-0.7,0.4-1.4,0.7-2.6c-0.9-1.8-2-4.1-3-6.3c-3,1.8-5.6,1.4-6.9-1.3
		c-0.4-0.8-0.4-2.1,0-2.9c0.5-1.3,1.9-1.4,3-0.9c1.3,0.5,2.4,1.4,3.6,2.1c0.2,0.1,0.4,0.3,0.7,0.4c0.1-1.7,0-3.3,0.3-4.9
		c0.1-0.7,1-1.5,1.7-1.7c0.5-0.1,1.5,0.5,1.9,1.1c0.6,1,1.2,2.1,1.4,3.2c0.3,1.6-0.4,2.9-2,3.7c1.3,1.1,2.4,2.3,3.7,3.2
		c0.3,0.2,1.2-0.2,1.6-0.5c0.9-0.7,1.7-1.4,3-0.9c0.4,0.1,1.2-0.4,1.5-0.8c0.7-1,1.5-1.4,2.7-1.2c0.5,0.1,1,0.1,1.4,0
		c5.4-1.2,8.8,1.9,12.1,5.4c4.1,4.2,8.3,8.3,12.6,12.3c4,3.8,4.1,4.1,0.8,8.4C239.8,105.3,239.5,105.7,239.2,106.1z M238.7,107.7
		c-2.1-2.2-4-4.3-5.9-6.4c-4.3-4.7-8.6-9.3-12.9-14c-0.9-0.9-1.7-2.1-2.8-2.6c-2.4-1-5-1.5-7.5-2.4c-1.8-0.6-2.7,0.1-3.6,1.4
		c1.4,2.4,1.5,2.2,3.8,2.7c1,0.2,2.1,1.1,2.5,2c1.1,2.3-1.6,5.9-4.2,5.8c-2.1-0.1-4.4-3-3.5-4.7s-0.1-2.5-0.9-3.7
		c-1.3,1-2.3,1.9-2,3.8c0.4,2.3,0.7,4.6,1,6.9c0.3,2.4,1.1,4.6,2.8,6.4c2.9,3,5.4,6.3,8.2,9.4c3.1,3.4,6.3,6.8,9.7,10.4
		C228.6,117.8,233.6,112.8,238.7,107.7z M205.9,89.7c-0.3,1.8,0.6,2.6,1.9,3.1c1,0.4,3-0.8,3.2-1.9c0.3-1.2-0.1-2.2-1.4-2.8
		C208.6,91.8,207.8,91.1,205.9,89.7z M196.9,78.2c-1.5-0.9-2.6-1.9-3.9-2.4c-0.9-0.4-1.6,0.2-1.3,1.3
		C192.1,78.9,194.3,79.5,196.9,78.2z M200.2,71.8c-1.8,1.3-2.1,3.2-0.9,5.7C201,75.8,201.4,73.5,200.2,71.8z M233.7,94.4
		c-0.9,2.9-0.4,5.4,1.1,6C235.1,95.5,235.1,95.5,233.7,94.4z M236.8,103.2c-0.5-2,1-4.3-0.6-6.3C235.8,99.1,235.2,101.3,236.8,103.2
		z M238.1,99.1c0,2,0,3.8,0,5.9C239.4,102.7,239.4,99.9,238.1,99.1z M224.8,89.5c0.3-3.3,0.1-4.1-1.4-4.8
		C223.5,86.3,223,88.1,224.8,89.5z M199.3,80.9c0.8,1.6,1.5,3.1,2.3,4.7C203.3,84.5,203,84.7,199.3,80.9z M231.9,92.7
		c-0.2,0-0.4,0-0.6,0.1c0.1,1.7,0.3,3.4,0.4,5.1c0.3,0,0.5-0.1,0.8-0.1C232,96.1,233.3,94.2,231.9,92.7z M230.1,90.7
		c-1.1,2.5-1,4,0,4.9C230.1,93.9,230.1,92.3,230.1,90.7z M227.8,93.2c0.1,0,0.2,0,0.4,0c0-1.5,0-3,0-4.5c-0.1,0-0.2,0-0.4,0
		C227.8,90.1,227.8,91.7,227.8,93.2z M221.8,86.9c0.2,0,0.5-0.1,0.7-0.1c-0.3-1.3,0.6-2.8-0.6-4c-0.2,0-0.4,0.1-0.5,0.1
		C221.4,84.2,221.6,85.5,221.8,86.9z"/>
	<path opacity="0.3" fill="#545454" enable-background="new    " d="M118.6,55.5c-2.4-0.6-4.8-1.3-7.2-1.6c-1.9-0.3-2.1-1.4-2.1-2.8
		c0-0.8,0.1-1.6,0.1-2.4c0-1.9-1.2-2.7-2.9-1.9c-1.6,0.7-3.1,1.9-4.8,2.6c-0.7,0.3-1.8,0.5-2.5,0.3c-3.3-1-6.5-2.2-9.8-3.4
		c-1.2-0.4-0.7-1.2-0.2-1.9c2.8-4.4,5.6-8.8,8.5-13.2c2.4-3.7,5-7.4,7.3-11.2c1.5-2.5,3.2-4.3,6.1-4.9c2.4-0.6,4.8-1.6,7.2-2.3
		c0.4-0.1,0.8-0.2,1.2-0.1c2.8,1.2,5.6,2.4,8.3,3.7c0.5,0.3,1.1,1.1,1.1,1.7c0.5,4.7,0.9,9.3,1.2,14c0.4,5.3,0.6,10.5,1,15.8
		c0.3,3.7,0.3,3.6-3.3,5.1c-2.3,0.9-4.5,2.1-6.8,3c-0.7,0.3-1.6,0-2.5,0C118.6,55.8,118.6,55.7,118.6,55.5z M119.7,53.9
		c0.1-2.7,0.4-5,0.4-7.3c0-7.8-0.2-15.7-0.2-23.5c0-1.1-0.4-1.7-1.5-2c-2.2-0.6-4.4-1.3-6.5-2.1c-3.1-1.1-3.3-1.1-5,1.6
		c-3.1,4.8-6.2,9.7-9.3,14.5c-2,3.2-3.9,6.4-6,9.8c1.2,0.5,2.1,0.8,3.1,1.2c4,1.5,4.3,1.5,6.1-2.3c0.5-1.1,1.1-1.2,2-0.8
		c1.8,0.7,3.6,1.4,5.4,2.1c2.9,1.1,2.8,1.1,2.8,4.2c0,1.2-0.3,2.5,1.5,2.9C114.7,52.8,117,53.3,119.7,53.9z M121.2,44.2
		c0.1,0.1,0.3,0.2,0.4,0.3c2.6-2.9,5.2-5.8,7.6-8.8c0.3-0.4,0.1-1.2,0.1-1.9C126.2,37.2,122.5,39.9,121.2,44.2z M121.1,37.6
		c0.1,0.1,0.3,0.1,0.4,0.2c2.3-2.9,4.7-5.8,7-8.7c0.4-0.5,0.3-1.3,0.5-2c-0.2-0.1-0.4-0.2-0.6-0.3c-2.3,3-4.7,6.1-7,9.1
		C121.1,36.3,121.2,37,121.1,37.6z M129.2,30.5c-0.2-0.1-0.4-0.1-0.6-0.2c-2.2,2.7-4.5,5.4-6.7,8.2c-0.5,0.6-0.5,1.6-0.8,2.4
		c2.8-2.7,5.2-5.5,7.5-8.4C129.1,32,129,31.2,129.2,30.5z M121.3,50.4c0.5-0.2,0.6-0.2,0.7-0.2c2.5-2.6,5.1-5.3,7.6-8
		c0.3-0.4,0.2-1.1,0.3-1.7c-0.2,0-0.3-0.1-0.5-0.1c-2.6,2.7-5.2,5.3-7.7,8.1C121.3,48.8,121.4,49.6,121.3,50.4z M128.8,24.1
		c-0.2-0.1-0.3-0.1-0.5-0.2c-2.3,2.7-4.6,5.3-6.8,8.1c-0.4,0.5-0.3,1.5-0.5,2.2c2.7-2.8,5-5.6,7.3-8.5
		C128.7,25.4,128.6,24.7,128.8,24.1z M121.5,47.5c2.8-3,5.5-5.8,8-8.6c0.3-0.3,0.2-1.1,0.3-1.9C126.6,39.3,121.5,45.6,121.5,47.5z
		 M129.9,43.6c-0.1-0.1-0.3-0.1-0.4-0.2c-2.6,2.7-5.1,5.4-7.6,8.1c-0.3,0.3-0.2,1-0.4,1.7c0.5-0.2,0.7-0.2,0.8-0.3
		c2.5-2.6,4.9-5.2,7.3-7.8C129.8,44.7,129.8,44.1,129.9,43.6z M127.9,18.5c-2.3,3.5-5.8,5.7-6.9,10.2
		C124.6,25.4,128.2,20.2,127.9,18.5z M128.4,21.3c-2.4,3.2-5.7,5.8-7.3,9.6C123.5,27.7,127,25.3,128.4,21.3z M123.3,52.7
		c2.9-0.9,6.6-4.7,6.4-6.4C127.6,48.4,125.6,50.4,123.3,52.7z M121.2,24.5c0.2,0.1,0.4,0.3,0.6,0.4c1.6-2,3.2-3.9,4.7-5.9
		c-0.1-0.1-0.3-0.2-0.4-0.3C124.2,20.4,122.5,22.3,121.2,24.5z"/>
	<path opacity="0.3" fill="#545454" enable-background="new    " d="M184.3,97.5c-0.5,3.6-0.4,7.4-1.6,10.7c-1.2,3.3-3.3,6.3-5.5,9
		c-3.9,4.6-8.1,9.2-12.6,13.2c-4.2,3.7-8.9,6.9-13.5,10c-1.2,0.8-2.8,0.8-4.3-0.1c-2.9-2-5.5-4.2-6.4-7.8c-0.5-2.1,0-3.8,1.8-5.3
		c5.2-4.1,10.3-8.4,15.3-12.6c4-3.3,6.9-7.5,9.6-11.8c1.1-1.8,2.2-3.1,4.5-3.6c3.4-0.8,6.6-2.3,9.9-3.6
		C183.9,94.7,184.2,94.9,184.3,97.5z M155.6,130.6c2.3,3.3,2.4,3.3,5,1.2c6.3-4.9,11-11.3,16.2-17.3c1.2-1.4,2.1-3.1,3.3-4.7
		c-0.9-0.7-1.8-1.3-2.6-1.9C171,116.5,164.2,124.4,155.6,130.6z M169.9,102.6c-5.5,8.2-12.3,15.1-20.4,20.8c0.2,0.4,0.4,0.7,0.5,0.9
		c0.2,0.2,0.3,0.5,0.5,0.8c0.4-0.2,0.8-0.3,1.1-0.5c7.9-4.9,13.9-11.7,19.3-19.2C171.9,103.9,171.5,103,169.9,102.6z M152.5,127.4
		c0.5,1,1.1,1.3,2,0.6c1-0.8,2.2-1.3,3.2-2.2c4.7-4.6,9.4-9.1,14-13.8c1.5-1.6,2.6-3.5,3.9-5.3c-0.4-0.4-0.6-0.7-0.8-0.8
		c-0.3-0.2-0.6-0.3-0.9-0.5C167.3,113.4,160.7,121.1,152.5,127.4z M153.3,136.7c-2.5-2.7-4.8-5.4-7.2-8c-0.3-0.3-0.6-0.7-0.8-1.1
		c-3.6,2.6-3.2,5.1-1.5,7.6C146.3,139.3,148.9,139.7,153.3,136.7z M181.2,108.6c0.2-1.3,0.3-2.2,0.5-3.1c0.6-2.9-0.2-4.6-2.9-5.9
		c-0.6-0.3-1.4-0.8-1.9-0.6c-1.8,0.5-3.5,1.3-5.3,2.1c1.5,1.3,2.7,2.5,4.1,3.6C177.3,105.9,179.1,107.1,181.2,108.6z M146.4,126.3
		c-0.1,0.3-0.2,0.5-0.2,0.6c2.7,3,5.4,6,8.1,8.9c0.1,0.1,0.6,0,0.9-0.1c-0.1-0.3-0.1-0.7-0.3-0.9c-1.9-2-3.8-3.9-5.7-5.9
		C148.3,128.1,147.4,127.3,146.4,126.3z M148,124.4c0.6,2.8,7.1,10,9,10C154,131.1,151,127.7,148,124.4z"/>
	<path opacity="0.3" fill="#545454" enable-background="new    " d="M9.4,32.8c0.1-0.5,0.2-1,0.5-1.4c1.7-2.7,3.5-5.3,5.1-8.1
		c1.7-2.8,4.7-3.1,7.3-4c5.5-1.9,11.1-3.4,16.6-5.1c1.4-0.4,1.9,0,2.4,1.3c2.4,6.3,4.9,12.4,7.3,18.7c0.2,0.5,0.2,1.2,0,1.8
		c-1.2,3.4-2.5,6.7-3.6,10.1c-0.5,1.6-1.2,2.7-3.1,3.3c-3.5,1-6.8,2.7-10.3,3.7c-4.2,1.3-8.5,2.3-12.8,3.3c-0.5,0.1-1.5-0.6-1.7-1.2
		c-2.5-7-4.9-14.1-7.3-21.2C9.7,33.6,9.6,33.2,9.4,32.8z M11.4,33.1c0.2,0.7,0.2,1,0.3,1.3c2,6,4,11.9,6,17.9
		c0.5,1.6,1.4,2.4,3.2,1.7c0.6-0.2,1.3-0.2,1.9-0.4c5.9-1.8,11.7-3.6,17.6-5.5c0.9-0.3,1.5-0.7,1-1.9c-2.3-6.3-4.5-12.6-6.7-18.9
		c-0.4-1.1-1-1.4-2-1C25.6,28.6,18.6,30.8,11.4,33.1z M42.8,24.3c-0.2,0-0.4-0.1-0.7-0.1c-1.4,3.5-3.8,6.6-3.2,10.7
		c1.4-2.6,2.6-5.2,3.7-7.9C43,26.2,42.8,25.2,42.8,24.3z M40.1,38.4c0.2,0.1,0.5,0.2,0.7,0.2c1.1-2.8,2.3-5.6,3.3-8.5
		c0.2-0.7,0.1-1.5,0.1-2.2c-0.2,0-0.4,0-0.6,0C42.1,31.3,39.8,34.5,40.1,38.4z M42.5,45.4c0.3,0.1,0.5,0.1,0.8,0.2
		c1.1-3.1,2.3-6.1,3.4-9.2c0.1-0.4-0.2-1-0.3-1.5c-0.2,0-0.4,0-0.5,0C44.7,38.3,42.8,41.6,42.5,45.4z M41.7,22
		c-0.2-0.1-0.4-0.1-0.5-0.2c-1.9,2.8-3.6,5.7-3.8,9.2c0.2,0.1,0.3,0.1,0.5,0.2C39.2,28.1,40.4,25.1,41.7,22z M41.3,41.5
		c0.2,0.1,0.5,0.2,0.7,0.3c1.2-3.3,2.4-6.5,3.5-9.8c-0.2-0.1-0.5-0.2-0.7-0.2C43.5,35,42,38.1,41.3,41.5z M35.1,25.5
		c0.2,0.1,0.5,0.3,0.7,0.4c1.3-2.8,2.6-5.6,3.9-8.4c-0.2-0.1-0.4-0.2-0.6-0.3C37.7,20,36.4,22.8,35.1,25.5z M36.6,27.2
		c0.2,0.1,0.4,0.1,0.5,0.2c1.1-2.6,2.3-5.3,3.4-7.9c-0.2-0.1-0.4-0.2-0.6-0.2C38.8,21.9,37.7,24.6,36.6,27.2z"/>
	<path opacity="0.3" fill="#545454" enable-background="new    " d="M210.2,127.8c-0.1,3.5-0.1,7.1-0.4,10.6c-0.1,1-0.8,2.1-1.6,2.8
		c-5.7,4.9-12.2,8.7-18.8,12.2c-0.5,0.3-1.9,0-2.3-0.5c-4-5.5-7.9-11.2-11.7-16.8c-0.5-0.8-0.6-2-0.5-3c0.2-1.5,0.8-2.9,1.2-4.4
		c0.8-3.6,2.5-6.5,5.9-8.5c4.9-2.9,9.7-6.2,14.4-9.4c1.1-0.8,1.7-0.4,2.5,0.6c3.6,4.9,7.4,9.7,11.1,14.6c0.4,0.5,0.6,1.1,0.9,1.6
		C210.6,127.7,210.4,127.7,210.2,127.8z M176.4,135c3.8,5.5,7.4,10.7,11,15.9c0.7,1,1.5,1,2.6,0.4c2.6-1.5,5.3-2.7,7.8-4.3
		c3.3-2.1,6.4-4.5,9.8-7c-4.3-6-8.3-11.6-12.6-17.5C188.8,126.7,182.7,130.8,176.4,135z M204.5,122.1c-0.9,3.3-2.2,6.6-0.5,10
		C204.2,128.8,205.6,125.5,204.5,122.1z M202.1,119.2c-0.6,3.3-2,6.6-0.4,9.9C201.7,125.8,203.8,122.6,202.1,119.2z M207.9,137.6
		c0.4-3.3,1.3-6.6,0.5-10C207.5,131,207,134.3,207.9,137.6z M198.8,126c0.3,0,0.6,0.1,1,0.1c0.4-2.9,0.7-5.8,1.1-8.7
		c-0.3,0-0.6-0.1-0.9-0.1C199.6,120.2,199.2,123.1,198.8,126z M205.2,134.4c0.3,0,0.6,0.1,0.9,0.1c0.3-3.1,0.5-6.2,0.8-9.3
		c-0.3,0-0.6-0.1-0.8-0.1C205.8,128.2,205.5,131.3,205.2,134.4z M197.9,114c-0.3,0-0.5-0.1-0.8-0.1c-0.4,2.7-0.8,5.3-1.2,8
		c0.2,0,0.5,0.1,0.7,0.1C197,119.3,197.4,116.7,197.9,114z M197.5,123.1c0.2,0,0.4,0.1,0.6,0.1c0.4-2.6,0.7-5.2,1.1-7.8
		c-0.2,0-0.4-0.1-0.6-0.1C198.2,117.9,197.9,120.5,197.5,123.1z"/>
	<path opacity="0.3" fill="#545454" enable-background="new    " d="M270.2,100.2c-0.1,0.4-0.1,0.6-0.1,0.7c-0.8,2.3-1,4.3,1.9,5.4
		c0.3,0.1,0.6,0.9,0.5,1.1c-0.2,0.4-0.8,0.8-1.2,0.7c-2.3-0.4-2.4,1-2.5,2.7c0,0.6-0.7,1.2-1,1.8c-0.5-0.4-1-0.9-1.4-1.4
		c-0.3-0.4-0.5-0.8-0.6-1.3c-0.4-1.4-1.2-1.9-2.6-1.6c-0.9,0.2-1.8,0.2-2.6,0.1c-0.4,0-1-0.3-1.1-0.6c-0.1-0.3,0.2-0.8,0.5-1.2
		c0.2-0.3,0.5-0.5,0.8-0.7c1.9-1,2.5-2.4,1.6-4.4c-0.1-0.3,0-0.9,0.3-1.2c0.1-0.2,0.9-0.1,1.1,0.2c1.9,2,3.3,0.8,4.8-0.6
		c0.3-0.3,0.9-0.5,1.4-0.5C269.9,99.4,270.1,100,270.2,100.2z"/>
	<path opacity="0.3" fill="#545454" enable-background="new    " d="M155.7,149.9c0.8-0.7,1.4-1.6,2.3-2c1.6-0.9,2.4-1.9,1.7-3.8
		c-0.2-0.6,0.1-1.3,0.2-2c0.6,0.2,1.5,0.3,1.9,0.7c1.3,1.4,2.4,1.1,3.6,0c0.4-0.4,0.9-0.8,1.4-1c0.4-0.2,1-0.3,1.3-0.2
		c0.2,0.1,0.3,0.8,0.3,1.2s-0.1,0.9-0.3,1.3c-1.1,2.2-0.7,3.9,1.6,5c0.4,0.2,0.6,1,0.8,1.6c-0.6,0.2-1.2,0.7-1.7,0.6
		c-2.1-0.4-2.4,0.8-2.6,2.4c-0.1,0.8-0.8,1.5-1.2,2.3c-0.6-0.7-1.5-1.2-1.7-2c-0.5-2.6-2-3.4-4.5-3c-0.9,0.1-1.9-0.2-2.9-0.3
		C155.9,150.3,155.8,150.1,155.7,149.9z"/>
	<path opacity="0.3" fill="#545454" enable-background="new    " d="M189.2,25.1c0.8-0.7,1.4-1.6,2.3-2c1.6-0.9,2.4-1.9,1.7-3.8
		c-0.2-0.6,0.1-1.3,0.2-2c0.6,0.2,1.5,0.3,1.9,0.7c1.3,1.4,2.4,1.1,3.6,0c0.4-0.4,0.9-0.8,1.4-1c0.4-0.2,1-0.3,1.3-0.2
		c0.2,0.1,0.3,0.8,0.3,1.2c0,0.4-0.1,0.9-0.3,1.3c-1.1,2.2-0.7,3.9,1.6,5c0.4,0.2,0.6,1,0.8,1.6c-0.6,0.2-1.2,0.7-1.7,0.6
		c-2.1-0.4-2.4,0.8-2.6,2.4c-0.1,0.8-0.8,1.5-1.2,2.3c-0.6-0.7-1.5-1.2-1.7-2c-0.5-2.6-2-3.4-4.5-3c-0.9,0.1-1.9-0.2-2.9-0.3
		C189.4,25.5,189.3,25.3,189.2,25.1z"/>
	<path opacity="0.3" fill="#545454" enable-background="new    " d="M192,94.1c0.4,0.8,0.9,1.5,1.2,2.4c0.4,1.4,1.2,2,2.7,1.9
		c0.6-0.1,1.2,0.3,1.9,0.5c-0.4,0.5-0.6,1.2-1.2,1.5c-0.9,0.6-0.9,1.2-0.4,2c0.3,0.4,0.6,0.8,0.7,1.2c0.1,0.4,0.1,1-0.1,1.2
		c-0.2,0.2-1,0.3-1.2,0.1c-2.3-2.2-4.2-1.5-6.1,0.5c-0.2,0.2-0.7,0.3-1.5,0.5c0.2-1,0.1-1.9,0.4-2.5c0.6-1.5,0.7-2.6-0.8-3.6
		c-0.4-0.2-0.5-0.8-0.7-1.3c0.5-0.2,1-0.5,1.4-0.4c1.7,0.3,2.2-0.6,2.5-1.9c0.2-0.7,0.5-1.4,0.8-2C191.6,94.2,191.8,94.2,192,94.1z"
		/>
	<path opacity="0.3" fill="#545454" enable-background="new    " d="M8.1,154.6c0.3-1.3,0.3-2.2,0.6-3c0.6-1.3,0.5-2.2-0.8-3
		c-0.4-0.3-0.6-1-0.9-1.5c0.5-0.1,1.1-0.5,1.6-0.4c1.4,0.2,1.9-0.5,2.2-1.7c0.2-0.8,0.5-1.5,0.7-2.3c0.2,0,0.4-0.1,0.6-0.1
		c0.4,0.8,1,1.6,1.3,2.4c0.4,1.3,1.1,1.9,2.5,1.8c0.7-0.1,1.3,0.4,2,0.6c-0.4,0.5-0.7,1.2-1.2,1.5c-0.8,0.6-0.9,1.1-0.4,1.9
		c0.3,0.4,0.6,0.8,0.7,1.2c0.1,0.5,0.1,1-0.1,1.4c-0.1,0.2-1,0.2-1.2,0c-2.2-2.1-4.1-1.5-6,0.4C9.6,154.3,9,154.3,8.1,154.6z"/>
	<path opacity="0.3" fill="#545454" enable-background="new    " d="M271,146.3c-0.2-1.3-0.4-2.2-0.4-3c0.1-1.5-0.2-2.5-1.8-2.8
		c-0.5-0.1-0.9-0.5-1.6-0.9c0.7-0.4,1-0.9,1.4-0.9c1.8-0.2,2.1-1.3,1.9-2.8c-0.1-0.6,0.2-1.3,0.3-2c0.6,0.4,1.4,0.7,1.9,1.3
		c0.9,1.2,1.8,2.1,3.5,1.2c0.5-0.3,1.2-0.1,1.8-0.1c-0.2,0.6-0.3,1.3-0.5,1.8c-0.1,0.4-0.4,0.7-0.7,1.1c0.7,0.6,1.4,1.2,1.9,1.9
		c0.3,0.3,0.4,0.9,0.3,1.3c-0.1,0.2-0.9,0.5-1.2,0.4c-2.8-1.4-4.3-0.1-5.5,2.3C272.2,145.4,271.8,145.6,271,146.3z"/>
	<path opacity="0.3" fill="#545454" enable-background="new    " d="M84.4,148.3c0.7,0.5,1.4,1,2,1.6c0.3,0.3,0.6,0.9,0.5,1.3
		c0,0.2-0.8,0.7-1.1,0.6c-3-1.1-4.4,0.5-5.3,3c-0.1,0.4-0.3,0.8-0.5,1.1c-0.3-0.1-0.5-0.2-0.8-0.3c-0.2-0.9-0.6-1.7-0.6-2.6
		c0-1.5-0.6-2.3-2.1-2.5c-0.5-0.1-0.9-0.6-1.4-0.9c0.4-0.3,0.7-0.9,1.1-1c1.7-0.4,1.7-1.4,1.4-2.8c-0.1-0.7-0.1-1.4-0.2-2.2
		c0.2-0.1,0.3-0.2,0.5-0.3c0.8,0.7,1.7,1.2,2.4,2c0.8,0.8,1.5,0.9,2.5,0.4c0.7-0.4,1.6-0.3,2.4-0.5c-0.2,0.7-0.4,1.5-0.6,2.2
		C84.6,147.7,84.5,147.9,84.4,148.3z"/>
	<path opacity="0.3" fill="#545454" enable-background="new    " d="M217.3,17.3c0.1,0.9,0.2,1.7,0.2,2.6c0,0.4-0.3,1-0.6,1.3
		c-0.2,0.1-1-0.1-1.1-0.4c-1.2-3-3.3-2.9-5.8-1.9c-0.4,0.2-0.8,0.3-1.2,0.4c-0.1-0.3-0.2-0.5-0.3-0.8c0.5-0.7,0.9-1.6,1.5-2.2
		c1.1-1,1.3-1.9,0.4-3.2c-0.3-0.4-0.2-1.1-0.2-1.6c0.5,0,1.1-0.1,1.5,0.1c1.4,1,2.2,0.3,3-0.8c0.4-0.6,1-1.1,1.5-1.6
		c0.2,0,0.4,0.1,0.6,0.1c0.1,1,0.2,2.1,0.1,3.1c-0.1,1.1,0.3,1.7,1.3,2.1c0.7,0.3,1.3,0.9,2,1.4c-0.7,0.3-1.4,0.7-2.1,1
		C217.9,17.1,217.7,17.2,217.3,17.3z"/>
	<path opacity="0.3" fill="#545454" enable-background="new    " d="M107.8,105.7c0.5,0,1-0.2,1.3-0.1c2,1.1,2.9,0,3.7-1.6
		c0.2-0.4,0.6-0.8,0.9-1.2c0.2,0,0.4,0,0.5,0c0.2,0.9,0.5,1.8,0.5,2.7c0,1.5,0.6,2.2,2.1,2.5c0.6,0.1,1.1,0.7,1.6,1
		c-0.5,0.4-1,1-1.5,1.2c-1.1,0.3-1.2,0.9-0.9,1.8c0.1,0.4,0.3,0.9,0.3,1.4c0,0.4-0.1,1-0.4,1.2s-1.1,0-1.2-0.2
		c-1.5-2.8-3.6-2.6-6-1.3c-0.3,0.2-1,0.1-1.1-0.1c-0.1-0.4-0.1-0.9,0-1.3C108,110.5,108.2,107.3,107.8,105.7z"/>
	<path opacity="0.3" fill="#545454" enable-background="new    " d="M55,30.1c-0.3-1.1-0.6-1.9-0.6-2.6c0-1.6-0.4-2.7-2.2-3
		c-0.4-0.1-0.8-0.6-1.1-0.9c0.4-0.3,0.7-0.9,1.1-0.9c1.7-0.3,1.8-1.3,1.6-2.7c-0.1-0.7-0.1-1.4-0.1-2.2c0.2-0.1,0.3-0.2,0.5-0.3
		c0.7,0.6,1.5,1,2,1.7c1,1.2,1.9,1.5,3.3,0.7c0.5-0.3,1.3-0.1,1.9-0.1c-0.1,0.6-0.1,1.3-0.5,1.7c-0.7,1-0.5,1.6,0.4,2.1
		c0.4,0.2,0.8,0.5,1.1,0.9c0.2,0.3,0.5,0.9,0.3,1.2c-0.2,0.3-0.8,0.6-1.1,0.5c-2.8-1.1-4.3,0.1-5.3,2.6C56.1,29.3,55.6,29.5,55,30.1
		z"/>
	<path opacity="0.3" fill="#545454" enable-background="new    " d="M138.8,54.1c0.7-1.2,1.1-2.1,1.7-2.8c0.8-0.9,1-1.7,0.2-2.8
		c-0.3-0.4-0.4-1.2-0.5-1.7c0.6,0,1.3-0.2,1.8,0.1c1.1,0.5,1.9,0.2,2.5-0.8c0.4-0.7,1-1.4,1.6-2c0.2,0,0.4,0,0.6,0
		c0.1,0.9,0.4,1.8,0.4,2.7c0,1.4,0.4,2.2,1.9,2.5c0.6,0.1,1.2,0.8,1.7,1.2c-0.6,0.4-1.1,0.9-1.7,1.1c-1,0.3-1.2,0.8-1,1.7
		c0.1,0.5,0.3,1,0.3,1.6c0,0.4-0.3,0.9-0.6,1.1c-0.2,0.1-0.9,0-1.1-0.3c-1.5-2.9-3.6-2.8-6.1-1.5C140.2,54.2,139.8,54.1,138.8,54.1z
		"/>
	<path opacity="0.3" fill="#545454" enable-background="new    " d="M139,94c-0.9-0.6-1.8-1.5-2.8-1.7c-0.9-0.2-2,0.5-3.4,1
		c1.4-2.6,0.2-4.1-2.2-5c0.1-0.2,0.3-0.3,0.4-0.5c0.7-0.1,1.5-0.4,2.2-0.4c1.2,0,1.9-0.4,2.1-1.6c0.1-0.5,0.6-0.9,0.9-1.4
		c0.3,0.4,0.9,0.8,1,1.3c0.3,1.1,1,0.9,1.7,0.9c0.6,0,1.3,0.1,1.9,0.2c-0.4,0.6-0.6,1.3-1.1,1.7c-1.2,0.8-1.5,1.7-0.8,2.9
		c0.3,0.6,0.4,1.4,0.6,2.1C139.3,93.7,139.1,93.9,139,94z"/>
	<path opacity="0.3" fill="#545454" enable-background="new    " d="M19.1,132.6c0.4-0.1,0.8-0.3,1.1-0.3c1.8,0.1,3.1-0.2,3.3-2.4
		c0-0.2,0.5-0.6,0.7-0.6s0.7,0.3,0.7,0.6c0.2,1.9,1.4,1.7,2.7,1.3c0.4-0.1,0.9,0.1,1.2,0.4c0.1,0.1-0.1,0.9-0.3,1
		c-2.4,1.2-2.1,3-1.2,4.9c0.1,0.2,0,0.6,0.1,1.2c-0.8-0.3-1.5-0.4-1.9-0.9c-1.1-1.1-2.2-1.2-3.3-0.2c-0.2,0.2-0.5,0.2-1.3,0.4
		c1.3-2.7,0-4.1-2.1-5.2C18.9,132.8,19,132.7,19.1,132.6z"/>
	<path opacity="0.3" fill="#545454" enable-background="new    " d="M14.8,98.1c-2.4-0.9-4.1-3.3-6.6-0.3c0.1-1.8,0.5-3,0.1-3.8
		c-0.4-0.8-1.5-1.3-2.7-2.3c1.2-0.2,1.8-0.5,2.4-0.5c1.4,0.1,2.2-0.3,2.5-1.8c0.1-0.4,0.6-0.8,0.9-1.1c0.3,0.3,0.8,0.6,0.8,1
		c0.2,1.4,1,1.3,2.1,1.1c0.5-0.1,1.1,0.2,1.7,0.3c-0.3,0.5-0.5,1.2-0.9,1.5c-1.4,0.9-1.8,1.9-1,3.3C14.4,96.1,14.5,96.8,14.8,98.1z"
		/>
	<path opacity="0.3" fill="#545454" enable-background="new    " d="M39.2,46.4c1.6-2.7-0.1-4-2-5.1c0.1-0.1,0.1-0.3,0.2-0.4
		c0.7-0.1,1.4-0.4,2.1-0.4c1.3,0,2.1-0.4,2.3-1.8c0.1-0.4,0.6-0.8,0.9-1.2c0.3,0.4,0.8,0.7,0.9,1.1c0.2,1.3,1.1,1.1,2,1
		c0.6-0.1,1.2,0.1,1.7,0.2c-0.3,0.5-0.4,1.2-0.9,1.5c-1.5,0.9-1.8,2-1,3.5c0.3,0.5,0.3,1.2,0.6,2.3c-1-0.4-1.7-0.5-2.1-0.9
		c-1.1-1.1-2.1-1.2-3.3-0.2C40.4,46.2,40,46.2,39.2,46.4z"/>
	<path opacity="0.3" fill="#545454" enable-background="new    " d="M95.2,112.7c0.6-0.2,1.3-0.6,1.9-0.5c1.4,0.2,3.4,3.2,3.1,4.6
		c-0.1,0.3-0.8,0.7-0.9,0.7c-1.4-1.3-2.8-2.8-4.2-4.1C95.1,113.1,95.2,112.9,95.2,112.7z"/>
	<path opacity="0.3" fill="#545454" enable-background="new    " d="M94.8,120.5c-0.3,0.4-0.4,1-0.7,1.1c-0.3,0.1-1-0.2-1.1-0.5
		c-0.7-1.4-1.3-2.9-1.7-4.4c-0.1-0.4,0.4-1,0.6-1.5c0.5,0.2,1.2,0.4,1.4,0.7C93.8,117.4,94.2,118.9,94.8,120.5z"/>
	<path opacity="0.3" fill="#545454" enable-background="new    " d="M85.7,123.5c0.2-2.3,0.3-4.3,0.6-6.2c0-0.3,0.6-0.7,1-0.8
		c0.2-0.1,0.7,0.2,0.8,0.5C88.9,118.2,87.6,122.6,85.7,123.5z"/>
	<g>
		<path opacity="0.3" fill="#545454" enable-background="new    " d="M242,142c-0.7,0.8-1.5,1.4-1.7,2.1c-2.3,6-7.9,8.6-13.6,5.9
			c-3.9-1.8-6.2-5.2-6.2-9.7c0-3.6,1.6-6.3,4.8-7.9c1.1-0.5,2.3-0.9,3.5-0.9c1.6-0.1,2.6-0.8,3.6-1.9c2.9-3.2,5.8-6.2,8.6-9.5
			c2-2.3,4.4-3.4,7.4-3.2c2.7,0.2,4.3,3.4,2.7,5.7c-0.3,0.4-1.2,0.7-1.8,0.6c-0.4-0.1-1-0.8-1.1-1.3c-0.6-1.8-1-2.1-2.4-0.8
			c-3.7,3.6-7.2,7.3-11,11.2c2.6,1.3,4.5,2.8,5.3,5.4c0.1,0.3,1,0.7,1.4,0.6c0.6-0.1,1.2-0.6,1.6-1.1c1.2-1.5,2-3.4,3.4-4.6
			c2.7-2.5,6-2.9,9.3-1.3c1.4,0.7,2.2,0.5,3.2-0.9c2.4-3.4,5-6.6,7.6-9.9c1.6-2,3.6-2.8,6.2-1.7c1.9,0.8,3.2,3.2,2.4,5.1
			c-0.2,0.5-1,1.1-1.6,1.1c-0.4,0-1-0.7-1.3-1.2c-0.4-0.5-0.6-1.1-0.9-1.6c-0.6,0.3-1.4,0.5-1.7,1c-2.8,3.6-5.6,7.2-8.4,10.9
			c-0.3,0.3-0.3,1.2,0,1.5c2,2.9,1.7,7.7-1.4,11.1c-2.9,3.2-7.3,4-11.3,2.2C245.1,147.3,244.8,147.1,242,142z M236.7,138.6
			c-1.2-3.6-5.3-4.7-8.2-3.7c-2.7,0.9-5.1,5.6-4.1,8c1.7,3.8,5.5,6.3,9.3,4.7C236.3,146.4,237.9,141.7,236.7,138.6z M246.9,141.7
			c1.3,3.3,5.3,5.3,8.4,4.1c2.8-1.1,4.2-4.8,3-7.9c-1-2.6-3.9-4.8-7.6-3.3C247.7,135.9,245.9,139.1,246.9,141.7z"/>
		<path opacity="0.3" fill="#545454" enable-background="new    " d="M232.3,137c-1.8,2.2-3.4,4.2-4.9,6.1
			C226.9,141.8,230.2,137.2,232.3,137z"/>
		<path opacity="0.3" fill="#545454" enable-background="new    " d="M230.1,144.2c-0.1-1.8,1.8-4.5,3.6-4.9
			C232.5,140.9,231.4,142.4,230.1,144.2z"/>
		<path opacity="0.3" fill="#545454" enable-background="new    " d="M249,141.4c1.3-1.6,2.6-3.2,3.9-4.9c0.2,0.2,0.4,0.3,0.7,0.5
			c-1.3,1.6-2.6,3.2-3.9,4.8C249.4,141.7,249.2,141.5,249,141.4z"/>
		<path opacity="0.3" fill="#545454" enable-background="new    " d="M254.6,139.4c-0.9,1.1-1.8,2.2-2.7,3.3
			c-0.2-0.2-0.4-0.3-0.6-0.5c0.9-1.1,1.9-2.2,2.8-3.3C254.2,139,254.4,139.2,254.6,139.4z"/>
	</g>
	<path opacity="0.3" fill="#545454" enable-background="new    " d="M216.1,96.5c1-0.7,1.7-1.1,2.4-1.6c0.2,0.1,0.4,0.2,0.5,0.4
		c3,3.3,6.2,6.6,9,10.1c1,1.2,1.4,2.9,1.8,4.5c0.4,1.5,0.3,3.1-1.4,4.1s-3.5,1-5.2,0.1c-1.5-0.9-2.8-2.1-4-3.4
		c-2.4-2.4-4.6-5.1-7.2-7.4c-1.4-1.3-0.4-1.9,0.2-2.7c0.8-1.1,1.4-0.1,1.9,0.4c3.2,3.5,6.4,7,9.7,10.4c0.8,0.9,1.8,1.9,3,1
		c1.3-0.9,1.1-2.4,0.3-3.5c-2-2.5-4.1-4.9-6.3-7.3C219.5,99.9,217.8,98.3,216.1,96.5z"/>
	<path opacity="0.3" fill="#545454" enable-background="new    " d="M212.8,97.6c-0.7,0.6-1.3,1.3-1.6,1.2c-0.5-0.2-0.9-0.9-1.3-1.3
		c0.5-0.4,0.9-1.1,1.5-1.2C211.7,96.1,212.2,96.9,212.8,97.6z"/>
	<path opacity="0.3" fill="#545454" enable-background="new    " d="M215.8,94.5c-0.5,0.3-1,0.9-1.6,0.9c-0.4,0-0.9-0.7-1.3-1
		c0.4-0.4,0.8-1.1,1.4-1.2c0.4-0.1,1,0.5,1.5,0.7C215.8,94.1,215.8,94.3,215.8,94.5z"/>
	<path opacity="0.3" fill="#545454" enable-background="new    " d="M104.3,37.5c1.3-2.7,2.6-5.4,3.9-8.1c0.3-0.5,0.6-1,0.8-1.6
		c0.4-1.4,1.3-1.6,2.6-1.3c3.1,0.7,3.1,0.6,3,3.8c-0.1,2.6-0.3,5.1-0.6,7.7c-0.1,1.5-1.1,2.2-2.6,1.8
		C109.1,39,106.8,38.2,104.3,37.5z M108.5,36.6c1.3,0.5,2.2,0.8,3.1,1.2c1,0.5,1.4,0.1,1.4-0.9c0-1.2,0-2.4,0-3.7
		C111.5,34.2,110.2,35.3,108.5,36.6z"/>
	<path opacity="0.3" fill="#545454" enable-background="new    " d="M25.7,46.6c-2.8,0-4.8-1.5-6-4.6c-1-2.4-0.4-4.3,1.6-6.3
		c4.6-4.8,8.7-1.8,9.9,2.8C32.4,43,29.2,46.8,25.7,46.6z M28.2,41.1c0.4-0.4,1.7-1.1,1.8-2c0.3-2.1-2.1-4.7-4-4.5
		c-1.5,0.1-2.3,1-2.4,2.6C23.8,38.9,25.9,41.1,28.2,41.1z"/>
	<path opacity="0.3" fill="#545454" enable-background="new    " d="M92.5,28.5c-1.6,1.6-3.2,3.1-4.7,4.7c-1,1-1.9,1.6-3.5,1.3
		c-5.7-1.2-11.5-2.3-17.2-3.5c-0.5-0.1-1.2-1-1.1-1.5c0.8-5.5,1.7-11,2.7-16.5c0.1-0.7,0.8-1.6,1.5-2c1.5-1.1,3.3-1.8,4.8-2.8
		c2.3-1.6,4.7-0.9,7.1-0.5c4.2,0.8,8.4,1.7,12.6,2.4c1.3,0.2,1.5,0.8,1.3,2.1c-0.7,4.8-1.1,9.5-1.8,14.3c-0.1,0.8-0.8,1.5-1.2,2.3
		C92.8,28.7,92.7,28.6,92.5,28.5z M69.4,12.9c-0.8,5.4-1.5,10.4-2.2,15.4c-0.1,1,0.2,1.6,1.3,1.8c2.3,0.5,4.6,1.4,7,1.9
		c3.1,0.6,6.2,0.9,9.1,1.4c1-5.5,1.9-10.7,2.8-15.9c0.2-1-0.3-1.2-1.1-1.4C80.9,15.1,75.5,14.1,69.4,12.9z M87.7,23.9
		c1.8-2,5-2.6,5.9-5.6C91.3,19.8,88.7,21,87.7,23.9z M87.3,27c3.7-2.3,5.9-4.5,5.8-5.8C90,22.8,87.6,25.1,87.3,27z M86.5,32.2
		c2.1-1.7,4.5-3.1,5.8-5.6C90.1,28.2,87.8,29.7,86.5,32.2z M93,24.5c-0.2-0.2-0.3-0.4-0.5-0.5c-1.9,1.7-3.8,3.3-5.7,5
		c0.2,0.2,0.3,0.4,0.5,0.5C89.2,27.8,91.1,26.1,93,24.5z M87.8,20.4c0.2,0.2,0.3,0.4,0.5,0.6c1.8-1.5,3.7-3,5.5-4.5
		c-0.1-0.2-0.3-0.4-0.4-0.5C91.5,17.5,89.6,19,87.8,20.4z M93.9,13c-0.1-0.1-0.2-0.3-0.3-0.4c-1.9,1-3.6,2.4-5.2,3.8
		c0.1,0.1,0.2,0.2,0.3,0.3C90.5,15.5,92.2,14.2,93.9,13z M93.9,14.5c-0.1-0.1-0.2-0.2-0.3-0.4c-1.7,1.3-3.3,2.7-5,4
		c0.1,0.1,0.2,0.2,0.3,0.4C90.6,17.1,92.2,15.8,93.9,14.5z"/>
	<path opacity="0.3" fill="#545454" enable-background="new    " d="M72.9,25.4c-1.3-1.9-0.7-5.4,1-6.5c2.1-1.4,5.6-1.3,6.6,0.3
		c1.6,2.5,0.9,6.1-1.5,7.7C76.9,28.2,74.3,27.6,72.9,25.4z M77.4,23.8c0.6,0.1,1.7,0.4,2.6,0.2c0.8-0.2,0.8-2.9,0-3.9
		c-0.7-0.9-1.6-1.4-2.7-0.6C76.2,20.1,76.2,22,77.4,23.8z"/>
	<path opacity="0.3" fill="#545454" enable-background="new    " d="M191.1,143.5c-3-0.1-6.2-3.3-6.1-6.3c0.1-2.4,3.4-6.2,5.4-6.2
		c3.3,0,6.3,3.6,6.2,7.4C196.5,141.3,194.1,143.6,191.1,143.5z M192.8,138c0.5-0.4,1.7-1.1,2.1-2c0.5-1.2-2.1-3.6-3.8-3.6
		c-1.4,0-2.4,0.5-2.6,2.1C188.4,136,190.3,137.8,192.8,138z"/>
	<g>
		<path opacity="0.3" fill="#545454" enable-background="new    " d="M178.7,20.2c-0.8,1.4-1.6,2.7-2.3,4.2
			c-0.4,0.8-0.8,1.8-0.6,2.6c1.1,4.3,0.7,8.2-2.8,11.1c-3.9,3.3-8.1,6.2-13.1,7.6c-3.2,0.9-5.9,0.3-7.9-2.3
			c-5-6.4-9.8-12.8-14.7-19.3c-1.1-1.5-0.1-2.4,1-3.1c4.2-3.1,8.5-6.2,12.7-9.4c2.3-1.7,4.5-3.4,6.8-5.2c2.1-1.6,2.6-1.7,4,0.5
			c1.1,1.8,2.1,2.3,4,1c1.7-1.1,3.7-0.7,5.2,0.6c3.2,2.6,5.6,5.8,7,9.7c0.2,0.5,0.2,1.1,0.3,1.7C178.4,20,178.5,20.1,178.7,20.2z
			 M139.2,23.7c1.2,1.7,2.2,3.1,3.1,4.3c3.4,4.4,6.9,8.8,10.4,13.2c1.9,2.3,4.1,3.1,7.2,2.2c4-1.2,7.3-3.3,10.5-5.9
			c4.4-3.6,5.2-6.9,2.2-11.7c-3.8-5.9-8.1-11.4-12.3-17.1c-0.1-0.1-0.4-0.2-0.7-0.3C152.9,13.3,146.2,18.4,139.2,23.7z M165.1,11.1
			c1.4,0.1,3.2-0.4,3.9,0.3c2,1.9,3.6,4.1,5.1,6.4c0.4,0.7-0.2,2.1-0.4,3.2c-0.1,0.7-0.2,1.3-0.4,1.9c1.9-1,3.4-2.1,2.9-4.1
			c-0.9-3.8-3.1-6.9-6.4-8.9C167.9,8.8,165.9,9.6,165.1,11.1z M166.3,13c2,2.7,3.8,5,5.6,7.4c1.7-2.6,0.1-4.1-1.2-5.5
			C169.7,13.9,168.8,12.1,166.3,13z"/>
		<path opacity="0.3" fill="#545454" enable-background="new    " d="M155.7,23.3c0.3-1.5,0.6-3,1-4.3c0.6-1.9,1.9-3,3.9-3.1
			c1.9-0.1,3.5,0.9,4.4,2.5c2.7,5.3,1.7,10.6-0.5,15.8c-0.3,0.6-1.1,1-1.8,1.3c-4.4,1.6-11.9-0.9-14.4-4.9c-1.1-1.9-2-3.9-0.7-6
			c1.4-2.3,3.6-2.5,6-1.8C154.2,22.9,155,23.1,155.7,23.3z"/>
	</g>
</g>
<g id="Layer_1_1_">
	<g>
		<path fill="#545454" d="M35,114.8V45.1h12.5L53.6,77l0.5,3.7h0.1l0.5-3.7l6.1-31.9h12.5v69.8h-9.6V71v-3h-0.6l-0.4,3l-6.4,43.9
			h-4.3L45.5,71L45,68.1h-0.5v3V115H35V114.8z"/>
		<path fill="#545454" d="M77.7,114.8L87.3,45h13.3l9.6,69.8h-9.1l-1.8-14.2h-9.8l-1.9,14.2H77.7z M91,89.8h6.9l-3-22L94.7,66h-0.5
			l-0.2,1.8L91,89.8z"/>
		<path fill="#545454" d="M115.8,114.8V45.1h9.3l9.9,36.3l0.9,3.2h0.5v-3.2V45.1h9.4v69.8h-9.3l-9.9-36.4l-0.8-3.2h-0.5v3.1v36.4
			H115.8z"/>
		<path fill="#545454" d="M150.1,114.8l9.6-69.8H173l9.6,69.8h-9.1l-1.9-14.2h-9.8l-1.9,14.2H150.1z M163.4,89.8h6.9l-3-22l-0.2-1.8
			h-0.5l-0.2,1.8L163.4,89.8z"/>
		<path fill="#545454" d="M188.2,114.8V45.1h9.3l9.9,36.3l0.9,3.2h0.5v-3.2V45.1h9.6v69.8H209l-9.9-36.4l-0.8-3.2h-0.5v3.1v36.4
			H188.2z"/>
		<path fill="#545454" d="M222.5,114.8l9.6-69.8h13.3l9.6,69.8h-9.1l-1.9-14.2h-9.8l-1.9,14.2H222.5z M235.7,89.8h6.9l-3-22
			l-0.2-1.8h-0.5l-0.2,1.8L235.7,89.8z"/>
	</g>
</g>
</svg>
