<?xml version="1.0" encoding="utf-8"?>
<!-- Generator: Adobe Illustrator 17.1.0, SVG Export Plug-In . SVG Version: 6.00 Build 0)  -->
<!DOCTYPE svg PUBLIC "-//W3C//DTD SVG 1.1//EN" "http://www.w3.org/Graphics/SVG/1.1/DTD/svg11.dtd">
<svg version="1.1" id="Layer_1" xmlns="http://www.w3.org/2000/svg" xmlns:xlink="http://www.w3.org/1999/xlink" x="0px" y="0px"
	 width="206px" height="168px" viewBox="0 0 206 168" enable-background="new 0 0 206 168" xml:space="preserve">
<g>
	<path fill="#424D71" d="M201.6,62.5c3,7.2,4.4,15.2,4.4,23.9c-0.5,32.6-10.3,54.5-29.2,65.8s-43.6,16.5-74,15.7
		c-30.4,0.8-55.1-4.4-73.8-15.7S0.5,118.9,0,86.4c0-8.7,1.5-16.7,4.4-23.9s7-13.6,12.3-19.3c-1.2-2.2-2.2-7-3-14.6s0.8-17,4.8-28.2
		c-0.1-0.7,3.4-0.5,10.6,0.4s18.4,6.4,33.7,16.3c6.4-1.7,13-2.9,19.8-3.4s13.6-0.8,20.4-0.8s13.6,0.3,20.4,0.8
		c6.8,0.5,13.4,1.7,19.8,3.4c15.3-10,26.5-15.4,33.7-16.3s10.7-1.1,10.6-0.4c4,11.2,5.6,20.6,4.8,28.2s-1.8,12.5-3,14.6
		C194.5,48.9,198.6,55.3,201.6,62.5z M157.5,149.1c14.5-4.9,22-17.3,22.5-37.2c0-5-1.1-9.7-3.4-14.2s-5.6-8.6-9.9-12.4
		c-7-5.8-16-8.4-27.1-7.8c-11.1,0.6-23.3,1.2-36.7,1.7c-13.4-0.5-25.6-1.1-36.7-1.7c-11.1-0.6-20.1,2-27.1,7.8
		c-4.3,3.8-7.6,7.9-9.9,12.4s-3.4,9.2-3.4,14.2c0.5,19.9,8,32.3,22.5,37.2s32.7,7,54.5,6.2C124.9,156,143,154,157.5,149.1z
		 M81.6,97.3c2.9,4.3,4.3,9.7,4.3,16.2s-1.4,12-4.3,16.3c-2.9,4.4-6.5,6.6-11,6.8c-4.4-0.1-8.1-2.4-11-6.8
		c-2.9-4.4-4.3-9.8-4.3-16.3s1.4-11.9,4.3-16.2s6.5-6.6,11-6.9C75,90.7,78.7,93,81.6,97.3z M146.4,97.3c2.9,4.3,4.3,9.7,4.3,16.2
		s-1.5,12-4.4,16.3c-3,4.4-6.6,6.6-10.9,6.8c-4.4-0.1-8.1-2.4-11-6.8c-2.9-4.4-4.3-9.8-4.3-16.3s1.4-11.9,4.3-16.2s6.5-6.6,11-6.9
		C139.8,90.7,143.5,93,146.4,97.3z"/>
</g>
</svg>
