<?xml version="1.0" encoding="utf-8"?>
<!-- Generator: Adobe Illustrator 17.1.0, SVG Export Plug-In . SVG Version: 6.00 Build 0)  -->
<!DOCTYPE svg PUBLIC "-//W3C//DTD SVG 1.1//EN" "http://www.w3.org/Graphics/SVG/1.1/DTD/svg11.dtd">
<svg version="1.1" xmlns="http://www.w3.org/2000/svg" xmlns:xlink="http://www.w3.org/1999/xlink" x="0px" y="0px" width="290px"
	 height="160px" viewBox="0 0 290 160" enable-background="new 0 0 290 160" xml:space="preserve">
<g id="Layer_3">
	<g opacity="0.3">
		<path fill="#545454" d="M200.5,76.8c0.6,0,1.1,0,1.6,0c0.3,0,0.7-0.2,1-0.4c0.5-0.2,0.8-0.1,1.2,0.6c0.1,0.1-0.1,0.5-0.2,0.7
			c-0.5,0.7-1.3,0.9-2.1,1.3c-0.4,0.2-0.8,0.4-1.2,0.6c0.2,0.4,0.5,0.7,0.9,0.8c0.5,0.2,0.9,0.5,1.3,0.8c0.6,0.4,1.2,0.8,1.7,1.2
			c0.1,0.1,0.3,0,0.3,0c0.5,0.6,1.2,1.1,1.4,1.7c0.3,0.8,1.1,0.9,1.5,1.6c0.6-1.1,0.7-2.2,0.9-3.2c0.1-0.5,0.3-1,0.5-1.5
			c0.3-0.6,0.7-0.3,1.2-0.2c0.4,0.1,0.3,0.5,0.4,0.8c0.1,0.2,0.1,0.4,0.1,0.7c0,0.1,0.1,0.2,0,0.3c-0.2,0.3-0.2,0.6,0.1,0.8
			c0,0,0,0,0,0c-0.3,0.5,0.1,1,0,1.6c0,0.3,0.1,0.6,0,1c0,0.2-0.1,0.4-0.1,0.7c0.5-0.2,1-0.4,1.5-0.6c0,0,0,0,0,0
			c0.3-0.6,1-0.5,1.5-0.9c0.2-0.2,0.4-0.4,0.6-0.5c0.2-0.1,0.4-0.2,0.6-0.3c0.3-0.1,0.5,0,0.8-0.1c0.1,0.3,0.3,0.6,0.4,0.9
			c0.2,0.5-0.1,0.8-0.6,1.1c-0.5,0.3-1,0.7-1.4,1.1c-0.4,0.4-0.7,0.8-1.1,1.2c-0.2,0.2-0.3,0.4-0.5,0.7c0.4,0.1,0.7,0.3,1,0.4
			c0.9,0.3,1.9,0.5,2.8,0.8c0.8,0.2,1.6,0.5,2.4,0.7c0.7,0.2,0.8,0.5,0.7,1.1c0,0.4-0.7,0.8-1.1,0.8c-1-0.2-1.9-0.3-2.9-0.5
			c-0.6-0.1-1.2-0.2-1.8-0.3c-0.4-0.1-0.6,0.2-0.5,0.6c0.1,0.5,0.3,1,0.4,1.4c0.1,0.7,0.2,0.9,0.8,1.4c-0.1,0.1-0.2,0.2-0.3,0.3
			c0.1,0.1,0.3,0.1,0.3,0.2c0.1,0.1,0.1,0.3,0.1,0.4c-0.1,0.3,0,1.6,0.1,1.9c0.1,0.3,0.1,0.6,0.2,0.9c0,0.2,0.1,0.4,0.2,0.6
			c-0.3,0.3-0.3,0.6-0.2,1.1c0.1,0.4-0.1,0.8-0.1,1.2c0,0.7,0.1,1.4,0.1,2.1c0,0.1,0,0.2-0.1,0.2c0,0.1-0.1,0.2-0.2,0.2
			c-0.2,0.5-0.3,1-0.5,1.5c-0.1,0.2-0.2,0.4-0.3,0.6c0,0-0.1,0.1-0.1,0.1c-0.1,0.4-0.2,0.8-0.3,1.3c0,0.1,0,0.2-0.1,0.3
			c-0.4,0.5-0.8,0.9-1.1,1.5c-0.4,0.9-1.2,1.6-1.8,2.4c-0.3,0.5-0.8,1-1.3,1.4c-0.4,0.4-1,0.6-1.5,0.9c-0.5,0.3-1,0.7-1.6,1.1
			c-0.4-0.3-0.9,0-1.2,0.3c-0.4,0.3-0.7,0.2-1.1,0.2c-0.3,0-0.7-0.1-1-0.1c-0.1,0-0.4,0.1-0.4,0.2c0,0.1,0.1,0.3,0.2,0.4
			c0.5,0.4,1,0.8,1.5,1.3c0.3,0.3,0.5,0.7,0.7,1.1c0.3,0.4,0.6,0.9,0.8,1.3c0.2,0.5-0.2,1-0.5,1.4c-0.3,0.4-0.7,0.8-0.7,1.3
			c0,0.1-0.1,0.2-0.2,0.2c-0.5,0.2-0.9,0.6-0.9,1.1c-0.6,0.5-1.2,1-1.8,1.5c-0.5,0.4-1,0.8-1.5,1.2c-1,0.7-2.1,1.5-3.2,2.1
			c-0.9,0.6-1.8,1-2.7,1.5c-0.8,0.4-1.5,0.9-2.3,1.3c-0.8,0.4-1.6,0.7-2.4,1.1c-0.9,0.3-1.8,0.6-2.6,1c-1.7,0.8-3.4,1.3-5.2,1.9
			c-1.2,0.4-2.4,0.8-3.6,1.1c-0.9,0.3-1.8,0.5-2.6,0.7c-0.8,0.2-1.7,0.4-2.5,0.8c-0.4,0.1-0.6,0.4-0.9,0.7c-0.1,0.1-0.2,0.3-0.4,0.4
			c-0.7,0.6-1.5,1.2-2.2,1.9c-0.9,0.8-1.7,1.6-2.7,2.3c-0.5,0.4-1.1,0.7-1.7,1c-0.1,0-0.1,0.1-0.2,0.2c-0.5,0.4-1,0.8-1.5,1.2
			c-0.5,0.4-1.1,0.8-1.7,1.1c-0.3,0.2-0.6,0.4-0.9,0.6c-0.9,0.5-1.9,1-2.8,1.6c-0.7,0.4-1.5,0.9-2.2,1.3c-0.6,0.3-1.2,0.5-1.9,0.8
			c-0.6,0.2-1.1,0.5-1.7,0.7c-0.4,0.2-0.8,0.2-1.2,0.4c-0.5,0.2-0.9,0.5-1.3,0.7c-0.4,0.2-0.9,0.4-1.4,0.5c-0.6,0.2-1.2,0.4-1.9,0.6
			c-0.5,0.1-1.1,0.3-1.6,0.4c-0.6,0.1-1.2,0.3-1.8,0.4c-0.8,0.2-1.7,0.3-2.4,0.6c-1.1,0.4-2.1-0.1-3.2,0c-1.1,0.1-2.1-0.4-3.1-0.5
			c-0.1,0-0.2-0.1-0.3-0.1c-0.4-0.5-0.9-0.9-1.2-1.5c-0.4-0.6-0.6-1.3-0.3-2c0-0.1,0.1-0.2,0.1-0.2c-0.3-0.3,0-0.6,0.1-0.8
			c0.1-0.8,0.8-1.2,1.3-1.7c0.3-0.3,0.5-0.5,0.8-0.8c0.3-0.2,0.6-0.4,0.8-0.7c0.4-0.3,0.8-0.7,1.3-1c0.2-0.2,0.5-0.3,0.7-0.5
			c0.4-0.4,0.7-0.8,0.7-1.4c0-0.4,0.3-0.7,0.5-1c0.2-0.6,0.3-1.2,0.5-1.9c0.1-0.4,0.2-0.8,0.3-1.2c0.1-0.4,0.2-0.9,0.3-1.3
			c0-0.1,0.1-0.2,0.2-0.4c0.2-0.6,0.4-1.1,0.7-1.7c0.1-0.3,0.4-0.6,0.6-0.8c0.5-0.4,0.9-1,1.6-1c0.1,0,0.3-0.1,0.5-0.2
			c-0.3-0.1-0.4-0.3-0.6-0.3c-0.7-0.2-1.5-0.3-2.2-0.5c-0.5-0.1-0.9-0.4-1.4-0.6c-0.3-0.1-0.6-0.2-0.9-0.2c-0.4-0.1-0.8,0-1-0.5
			c0-0.1-0.2-0.1-0.3-0.1c-1-0.3-1.9-0.5-2.9-0.8c-0.5-0.2-1-0.5-1.5-0.7c-0.5-0.2-1-0.4-1.4-0.5c-1-0.3-2-0.6-3-0.9
			c-1.6-0.5-3.2-1.1-4.8-1.7c-1.2-0.4-2.4-0.8-3.5-1.3c-0.9-0.4-1.8-0.6-2.8-0.9c-0.6-0.2-1.3-0.5-1.9-0.7c-0.3-0.1-0.6-0.2-0.9-0.3
			c-1-0.3-1.9-0.6-2.9-0.8c-0.7-0.2-1.5-0.3-2.2-0.5c0,0-0.1,0-0.1,0c-0.9-0.2-1.8-0.4-2.7-0.7c-0.2,0-0.4-0.1-0.6-0.1
			c-0.4,0-0.8,0.1-1.2,0.2c-0.2,0-0.3,0.2-0.5,0.4c-0.7-0.3-1.5-0.2-2.3-0.1c-0.6,0.1-1.2,0.2-1.8,0.4c-0.9,0.2-1.8,0.5-2.6,1
			c-0.4,0.3-1,0.3-1.4,0.6c-0.6,0.3-1.1,0.7-1.5,1.3c-0.3,0.4-0.7,0.6-1.1,0.9c-0.6,0.5-1.3,1-1.9,1.5c-0.3,0.2-0.6,0.3-0.9,0.5
			c-1.3,0.9-2.5,1.8-3.8,2.7c-0.9,0.6-1.9,0.9-2.9,1.2c-0.8,0.2-1.5,0.6-2.2,0.9c-0.8,0.3-1.6,0.6-2.5,0.8c-1.1,0.3-2.2,0.5-3.3,0.7
			c-0.3,0.1-0.6,0-0.9,0c-0.9,0-1.8,0.1-2.6,0.1c-0.1,0-0.3,0-0.3-0.1c-0.4-0.4-0.8-0.8-1.1-1.3c-0.3-0.5-0.4-1.8,0-2.4
			c0.4-0.5,0.6-1.1,1-1.7c0.2-0.4,0.5-0.8,0.7-1.3c0.2-0.7,0.6-1.3,0.6-2.1c0-0.6,0.4-1.3,0.6-1.9c-0.4-0.3-0.4-0.6,0-0.9
			c0.1-0.1,0.2-0.2,0.2-0.3c0.2-0.9,0.3-1.8,0.6-2.7c0.1-0.4,0.1-0.8,0.5-1.1c0,0,0-0.1,0.1-0.1c0.3-0.8,0.6-1.6,0.9-2.4
			c0.2-0.4,0.5-0.8,0.8-1.3c0.1-0.1,0.1-0.3,0.2-0.5c0.1-0.4,0.2-0.7,0.5-0.9c0.3-0.2,0.4-0.7,0.7-1c0.7-0.8,1.3-1.6,2-2.4
			c0.3-0.3,0.5-0.7,0.8-1.1c0-0.1,0-0.3-0.1-0.4c-0.4-0.8-0.9-1.7-1.4-2.5c-0.3-0.4-0.4-0.9-0.5-1.4c-0.1-0.5-0.3-0.9-0.5-1.4
			c-0.1-0.3-0.1-0.7-0.2-1c-0.1-0.2-0.1-0.5-0.3-0.7c-0.2-0.4-0.3-0.7-0.2-1.1c0.1-0.3,0-0.6,0-1c0-0.7-0.1-1.5-0.1-2.2
			c0-0.4,0.3-0.8,0.3-1.2c0.1-0.8,0.3-1.5,0.5-2.2c0.2-0.8,0.4-1.6,0.8-2.3c0.2-0.2,0.2-0.5,0.3-0.8c0.2-0.5,0.3-1,0.5-1.5
			c0.3-0.8,0.6-1.5,0.3-2.3c-0.1-0.3,0.1-0.6,0.1-1c0-0.2,0-0.3,0.1-0.5c0.6-0.1,1.2-0.3,1.8-0.3c0.6,0.1,1.3,0,1.8,0.5
			c0.4,0.3,1,0.4,1.4,0.6c0.5,0.2,0.9,0.4,1.4,0.7c0.3,0.2,0.6,0.5,0.9,0.7c0.4,0.4,0.8,0.9,1.2,1.3c0.2,0.2,0.5,0.3,0.5,0.5
			c0.2,0.6,0.8,0.7,1.1,1.3c0.2,0.5,0.8,0.8,1.2,1.2c0.3,0.4,0.6,0.9,0.9,1.3c0.4,0.5,0.7,1.1,1.1,1.6c0.7,1.1,1.3,2.2,1.9,3.3
			c0.6,1.1,1.2,2.2,1.9,3.2c0.3,0.5,0.7,0.9,1.1,1.3c0,0,0.1,0.1,0.2,0.1c1.4,0.4,2.8,0.9,4.2,1.3c0.6,0.2,1.3,0,2,0.1
			c0.7,0.1,1.3,0.2,2,0.4c0.1,0,0.3,0.1,0.4,0.1c0.7,0,1.5-0.1,2.2,0c0.5,0,1.1,0.1,1.6,0.1c1.2,0.1,2.4,0.1,3.6-0.3
			c0.5-0.1,1-0.2,1.5-0.2c1,0.2,1.9-0.3,2.8-0.4c0.7-0.1,1.4-0.2,2.1-0.3c0.2,0,0.5-0.1,0.7-0.2c0.1,0,0.3-0.1,0.4-0.1
			c1-0.2,2-0.3,2.9-0.5c0,0,0.1,0,0.1,0c1-0.5,2.2-0.6,3.3-0.9c1-0.3,1.9-0.7,2.9-1c0.4-0.1,0.8-0.2,1.2-0.3
			c0.9-0.2,1.7-0.4,2.6-0.7c1.4-0.4,2.7-0.9,4-1.4c1.2-0.4,2.4-0.7,3.5-1.3c0.7-0.3,1.4-0.3,2-0.4c1.1-0.3,2.2-0.5,3.3-0.8
			c0.3-0.1,0.5-0.2,0.8-0.4c0.1,0,0.1-0.3,0.1-0.4c-0.4-0.5-0.5-1.1-0.6-1.8c-0.1-0.6-0.5-1.2-0.6-1.9c-0.1-0.7-0.1-1.5-0.1-2.2
			c0-0.8,0-1.7,0.1-2.5c0.1-0.6,0.2-1.2,0.3-1.8c0.2-0.7,0.3-1.5,0.7-2.1c0.6-0.9,1.3-1.8,2.5-1.9c0.4,0,0.9,0.1,1.3,0.1
			c0.6,0,1.1,0.2,1.5,0.6c0.3,0.2,0.7,0.2,1.1,0.4c0.6,0.2,1.1,0.4,1.7,0.6c0.8,0.3,1.5,0.7,2.3,1.1c0.5,0.3,0.9,0.6,1.4,0.9
			c1.1,0.7,2.2,1.3,3.2,2c0.7,0.4,1.3,0.9,2,1.4c0.2,0.2,0.4,0.3,0.6,0.5c0.9,0.7,1.6,1.5,2.2,2.3c0.2,0.2,0.4,0.4,0.7,0.5
			c0.8,0.5,1.2,1.3,2,1.8c0.4,0.2,0.7,0.6,1,0.9c0.1,0.1,0.2,0.2,0.2,0.2c0.1,0.4,0.3,0.6,0.6,0.8c0.4,0.2,0.7,0.6,1,1
			c0.1,0.2,0.4,0.3,0.6,0.4c0.7,0.2,1.3,0.4,2,0.6c1.4,0.5,2.8,1,4.2,1.5c1,0.4,2,0.8,3,1.2c1.3,0.5,2.5,1.1,3.8,1.6
			c0.6,0.2,1.2,0.4,1.7,0.6c0.7,0.3,1.4,0.8,2.2,1.1c1.5,0.6,2.8,1.7,4.2,2.5c0.5,0.3,0.9,0.7,1.3,1.1c0.6,0.5,1.2,1,1.8,1.5
			c0.5,0.4,1,0.9,1.4,1.4c0.3,0.3,0.5,0.8,0.6,1.2c0.2,0.6,0.8,1,1.5,0.9c0.1,0,0.2,0,0.3,0c0.6,0.4,1.2,0.1,1.7,0
			c0.3-0.1,0.5-0.5,0.8-0.7c0.2-0.2,0.5-0.3,0.8-0.4c0.4-0.1,0.7-0.3,0.9-0.7c0.2-0.3,0.6-0.5,1-0.7c0.1-0.1,0.2-0.3,0.3-0.4
			c0.1-0.1,0.1-0.3,0.1-0.3c0.5-0.2,0.6-0.7,0.8-1.2c0.1-0.2,0.2-0.3,0.3-0.5c0.5-0.5,0.9-1,1-1.7c0,0,0-0.1,0-0.1
			c0.3-0.6,0.7-1.2,0.9-1.9c0.1-0.4,0.4-0.8,0.3-1.3c0-0.1,0.1-0.3,0.2-0.4c0-0.3,0.1-0.5,0.1-0.8c0-0.2-0.1-0.3-0.1-0.5
			c0-0.4,0-0.8,0-1.2c0-0.6,0-0.6-0.5-0.9c0.3-0.3,0.7-0.7,0.4-1.2c-0.4-0.6-0.3-1.2-0.2-1.8c0-0.2-0.1-0.3-0.1-0.5
			c-0.2-0.5-0.4-1.1-0.6-1.6c-0.1-0.1-0.2-0.3-0.3-0.4c-0.1,0-0.3,0-0.4,0.1c-0.2,0.2-0.3,0.5-0.5,0.8c-0.2,0.5-0.2,1.2-0.7,1.6
			c-0.1,0-0.1,0.2-0.1,0.3c-0.1,0.3-0.3,0.5-0.7,0.5c-0.4,0-0.8,0.1-1.2-0.4c-0.2-0.3-0.2-0.5-0.1-0.8c0.3-1,0.7-2,1-3.1
			c0,0,0-0.1-0.1-0.3c-0.6,0.2-1.2,0.5-1.8,0.7c-0.6,0.2-1.1,0.5-1.7,0.7c-0.6,0.2-0.9,0-1.2-0.5c-0.1-0.3,0.1-0.9,0.4-1.2
			c0.8-0.7,1.5-1.5,2.3-2.2c0.2-0.2,0.4-0.3,0.8-0.5c-0.5-0.2-1-0.2-1.3-0.4c-0.5-0.2-1-0.5-1.6-0.7c-0.8-0.2-1.5-0.3-2.3-0.6
			c-0.4-0.1-0.7-0.4-0.9-0.7c-0.3-0.4-0.2-0.8,0.1-1.1c0.4-0.4,0.8-0.1,1.3,0c0.3,0.1,0.6,0.2,0.9,0.2c0.8,0.2,1.7,0.3,2.6,0.4
			c-0.4-0.4-0.8-0.7-1.2-1c-0.2-0.1-0.3-0.3-0.4-0.5c-0.2-0.4-0.5-0.9-0.9-1.1c-0.2-0.1-0.4-0.3-0.6-0.5c-0.2-0.1-0.3-0.2-0.5-0.3
			c-0.1,0-0.1,0-0.2-0.1c-0.2-0.4-0.6-0.5-1-0.7c-0.5-0.2-0.9-0.5-1.4-0.8c0.1,0.2,0.2,0.5,0.3,0.7c0.4,0.7,0.8,1.3,1.1,2
			c0.3,0.6-0.2,1.6-0.8,1.7c-0.2,0-0.5-0.1-0.6-0.2c-0.4-0.4-0.7-1-1-1.4c-0.4-0.4-0.8-0.8-1.2-1.2c-0.1,0-0.1,0-0.2,0
			c0,0.6-0.1,1.2-0.1,1.8c0,0.6,0,1.2-0.4,1.7c-0.1,0.1-0.1,0.3-0.1,0.5c-0.8,0.6-1.4,0.1-1.9-0.5c-0.2-0.2-0.1-0.6-0.2-0.9
			c-0.1-0.5-0.3-1-0.4-1.6c-0.1-0.3-0.1-0.6-0.1-0.9c-0.1-0.7-0.1-1.4-0.2-2.1c0-0.6-0.2-0.8-0.8-0.5c-0.6,0.2-1.2,0.5-1.7,0.7
			c-0.7,0.3-1.5,0.2-2.2-0.1c-0.4-0.2-0.3-0.6-0.3-0.9c0-0.3,0.2-0.7,0.5-0.9c0.5-0.4,1.2-0.7,1.8-1.1c0.2-0.1,0.3-0.2,0.5-0.3
			c-1.2-0.2-2.2-0.5-3.2-0.7c-0.7-0.1-1.4-0.1-2-0.2c-0.6,0-1.2,0-1.7-0.1c-1.4-0.5-2.8-0.4-4.3-0.6c-0.2,0-0.4,0.1-0.6,0.1
			c-0.5,0-1,0.2-1.6-0.1c-0.3-0.1-0.6,0-1,0.1c-0.4,0.1-0.9-0.1-1.3-0.2c-0.1,0-0.2-0.1-0.2-0.1c-0.8,0.3-1.8-0.3-2.6,0.4
			c-0.1,0.1-0.3,0-0.4,0c-0.2,0-0.4-0.1-0.6-0.1c0,0,0,0.1,0,0.1c0.1,0.1,0.1,0.2,0.2,0.2c0.6,0.3,1.2,0.5,1.8,0.7
			c0.3,0.1,0.5,0.7,0.3,0.9c-0.5,0.7-1.2,0.9-2,0.7c-0.3-0.1-0.7,0-1-0.1c-0.7-0.1-1.3-0.2-1.9-0.4c-0.1,0-0.2,0-0.4,0
			c0.1,0.8,0.5,1.5,1,2.2c0.4,0.6,0.8,1.2,1.1,1.9c0.2,0.3-0.4,1.1-0.8,1.2c-0.3,0.1-1-0.2-1.2-0.5c-0.3-0.4-0.6-0.9-1-1.3
			c-0.5-0.6-1.1-1.2-1.7-1.7c-0.3-0.3-0.7-0.7-1-1.1c-0.3,0.4-0.8,0.4-0.7,1c0,0,0,0.1,0,0.1c-0.6,0.3-0.6,1-1,1.5
			c-0.1,0.1-0.1,0.2-0.1,0.3c0,0.7-0.5,1-0.9,1.2c-0.3,0.2-0.9,0.2-1.1,0c-0.2-0.1-0.3-0.7-0.2-1c0.1-0.6,0.5-1.1,0.7-1.7
			c0.2-0.4,0.3-0.8,0.4-1.2c0.1-0.3,0.3-0.6,0.4-0.9c0.1-0.1,0-0.3,0-0.5c-0.1,0-0.3,0-0.4,0.1c-0.1,0-0.2,0.1-0.3,0.2
			c-1.5,0.3-2.9,0.6-4.4,0.9c-0.9,0.2-1.7,0.5-2.6,0.7c-0.4,0.1-0.8,0.1-1.2,0.2c-0.4,0.1-0.8,0.2-1.2,0.3c-0.5,0.1-1,0.2-1.5,0.4
			c-0.6,0.1-1.2,0.3-1.8,0.4c-0.7,0.2-1.4,0.5-2.1,0.7c-0.1,0-0.2,0.1-0.3,0.2c-0.1,0.1-0.3,0.2-0.4,0.2c-0.9-0.2-1.6,0.4-2.3,0.7
			c-0.6,0.2-1.2,0.4-1.8,0.6c-0.1,0-0.2,0.1-0.2,0.1c-0.2,0.3-0.5,0.3-0.8,0.4c-0.3,0.1-0.5,0.2-0.7,0.4c0.7,0.4,1.4,0.9,2.2,0.9
			c0.4,0,0.5,0.1,0.4,0.5c-0.1,1.1-0.8,1.5-1.8,1c-0.1,0-0.2-0.1-0.3-0.1c-1-0.1-2-0.1-3.1-0.2c-0.3,0-0.6-0.1-0.9-0.2
			c-0.3-0.1-0.4,0.1-0.4,0.3c0,0.6,0.1,1.2,0.2,1.8c0.1,0.6,0.4,1.1,0.7,1.7c0.1,0.3,0.1,0.6-0.2,0.9c-0.3,0.2-0.4,0.6-0.9,0.5
			c-0.4-0.1-0.8-0.1-0.8-0.7c0-0.4-0.4-0.7-0.7-1c-0.7-0.9-1.3-1.7-2-2.7c-0.1,0.2-0.3,0.3-0.4,0.5c-1,0.8-2,1.5-3,2.3
			c-0.5,0.4-0.9,0.4-1.4,0.3c-0.4-0.1-0.6-0.7-0.4-1.1c0.2-0.3,0.3-0.7,0.5-1.1c0.1-0.1,0.2-0.3,0.3-0.4c0.2-0.2,0.5-0.5,0.7-0.7
			c0,0,0-0.1-0.1-0.1c-0.1,0-0.3,0-0.4,0.1c-0.5,0.1-1,0.5-1.6,0.3c-0.5,0.4-1.1,0-1.6,0.2c-0.9,0.4-1.7,0.2-2.6,0.2
			c-0.5,0-1,0.2-1.5,0.3c-0.6,0.1-1.1,0.5-1.7,0.3c-0.6-0.1-1.2-0.3-1.7-0.2c-0.7,0.1-1.3-0.2-2-0.2c-0.5-0.1-1,0.1-1.5,0.1
			c-0.2,0-0.5,0-0.7-0.1c-0.4-0.1-0.8-0.2-1.2,0c-0.1,0.1-0.3,0-0.5,0c-0.5-0.1-1-0.2-1.5-0.3c-0.3-0.1-0.6-0.2-1-0.3
			c-0.1,0-0.2,0-0.4-0.1c0,0,0,0.1,0,0.1c0.1,0.1,0.3,0.2,0.4,0.3c0.6,0.5,1.2,1,1.8,1.4c0.2,0.2,0.3,0.9,0,1.3
			c-0.2,0.4-0.6,0.5-1,0.3c-0.5-0.2-0.9-0.5-1.3-0.7c-0.6-0.4-1.1-0.9-1.8-1.1c-0.4-0.1-0.8-0.4-1.2-0.7c-0.3-0.2-0.4-0.1-0.5,0.2
			c0,0.3,0,0.6,0,0.9c0,0.5,0,1,0,1.5c0,0.2,0.1,0.4,0.1,0.6c0,0.5-0.3,0.9-0.6,1.3c-0.2,0.3-1.1,0.1-1.3-0.2
			c-0.2-0.4-0.5-0.8-0.7-1.2c-0.1-0.2-0.1-0.5-0.2-0.8c-0.1-0.4-0.1-0.9-0.5-1.2c-0.1-0.1,0-0.2-0.1-0.3c0-0.3,0-0.6-0.1-0.9
			c-0.1-0.4-0.3-0.5-0.7-0.2c-0.9,0.7-1.7,1.5-2.7,2.2c-0.4,0.3-0.9,0.4-1.4,0.5c-0.2,0-0.6-0.1-0.8-0.3c-0.3-0.4-0.3-0.8,0-1.2
			c0.6-0.7,1.1-1.5,1.5-2.3c0.2-0.4,0.3-0.8,0.5-1.2c0,0,0,0,0,0c-0.9,0.1-1.6-0.5-2.5-0.8c-0.2-0.1-0.4-0.1-0.6-0.1
			c-0.1,0-0.2,0-0.3-0.1c-0.8-0.5-1.7-0.9-2.7-0.9c-0.4,0-0.8-0.4-1.1-0.6c-0.1,0-0.1-0.1-0.2-0.1c-0.7,0.2-1.2-0.4-1.8-0.7
			c-0.6-0.2-1.3-0.3-1.8-0.8c-0.4-0.4-1-0.6-1.5-0.9c-0.4-0.2-0.7-0.6-1.1-0.9c-0.3-0.2-0.6-0.5-0.9-0.6c-0.7-0.4-1.4-0.6-1.9-1.3
			c-0.2-0.3-0.6-0.5-1-0.7c-0.1,0-0.2,0.1-0.3,0.1c-0.1,0.2-0.2,0.4-0.2,0.6c-0.2,0.9-0.2,1.8-0.4,2.8c-0.1,0.3-0.3,0.8-0.5,0.9
			c-0.3,0.1-0.7,0-1-0.1c-0.2-0.1-0.2-0.5-0.3-0.7c0-0.1,0-0.3,0-0.4c-0.2-0.3-0.3-0.5-0.1-0.8c0,0,0-0.1,0-0.1
			c-0.5-0.5-0.1-1.1-0.3-1.7c-0.2-0.6,0-1.3,0-1.9c-0.4,0.2-0.7,0.3-1.1,0.5c-0.2,0.1-0.4,0.4-0.7,0.5c-0.3,0.2-0.6,0.3-0.9,0.5
			c-0.3,0.2-0.5,0.5-0.8,0.7c-0.2,0.1-0.4,0.2-0.6,0.3c-0.2,0.1-0.5,0.1-0.8,0.1c-0.1-0.3-0.3-0.6-0.4-0.9c-0.2-0.4,0-0.8,0.4-1.1
			c0.4-0.3,0.9-0.6,1.2-0.9c0.6-0.7,1.1-1.4,1.7-2.3c-0.4-0.1-0.7-0.3-1.1-0.4c-0.9-0.2-1.8-0.4-2.8-0.7c-0.8-0.2-1.6-0.4-2.4-0.6
			C70,71.7,70,71.4,70,70.8c0-0.4,0.7-0.8,1.1-0.8c1,0.1,2,0.2,3,0.4c0.6,0.1,1.2,0.2,1.7,0.2c0.1,0,0.3,0,0.4-0.1
			c0.1-0.1,0.1-0.3,0-0.5c-0.1-0.5-0.3-1-0.4-1.5c-0.1-0.5-0.3-1-0.9-1.2c0.3-0.3,0.3-0.5-0.1-0.6c-0.1,0-0.1-0.2-0.1-0.3
			c0-0.2,0-0.5,0-0.7c0-0.1-0.1-0.2-0.1-0.2c0.3-0.5,0-0.8-0.2-1.2c-0.1-0.2-0.1-0.4-0.1-0.7c-0.1-0.2-0.1-0.4-0.2-0.7
			c0.6-0.4,0.1-0.9,0.1-1.4c0.1-0.6-0.1-1.3,0-2c0-0.1-0.1-0.3-0.1-0.4c-0.1-0.7,0.1-1.4,0.5-2c0.1-0.1,0.1-0.3,0.1-0.5
			c0.1-0.3,0.2-0.5,0.3-0.7c0,0,0.1-0.1,0.1-0.1c0.1-0.4,0.2-0.9,0.3-1.3c0-0.1,0-0.1,0-0.2c0.3-0.5,0.8-1,1-1.6
			c0.2-0.6,0.7-1,1.1-1.5c0.4-0.5,0.8-1,1.2-1.5c0.6-0.9,1.5-1.4,2.4-1.9c0.4-0.3,0.8-0.7,1.2-1c0.4,0.3,0.9,0,1.2-0.3
			c0.4-0.4,0.7-0.2,1.1-0.2c0.3,0,0.7,0.1,1,0c0.1,0,0.3-0.2,0.3-0.2c0-0.1-0.1-0.3-0.2-0.4c-0.5-0.4-1.1-0.7-1.5-1.2
			c-0.5-0.6-1-1.3-1.4-2c-0.3-0.5-0.1-1.3,0.3-1.8c0.3-0.4,0.5-0.9,0.9-1.6c0.3-0.2,0.8-0.5,0.8-1.1c0.6-0.5,1.1-1,1.7-1.5
			c0.5-0.4,0.9-0.8,1.4-1.2c0.7-0.6,1.4-1.1,2.1-1.6c1.2-0.8,2.3-1.6,3.6-2.3c0.8-0.4,1.5-0.9,2.2-1.3c0.8-0.4,1.6-0.8,2.4-1.2
			c0.8-0.4,1.7-0.7,2.6-1c0.5-0.2,0.9-0.5,1.4-0.7c0.7-0.3,1.4-0.6,2.2-0.8c1.6-0.6,3.1-1.2,4.7-1.7c1-0.4,2-0.6,3.1-1
			c0.8-0.3,1.7-0.5,2.5-0.9c0.3-0.1,0.6-0.4,0.8-0.6c0.2-0.2,0.4-0.5,0.6-0.7c0.6-0.6,1.2-1.1,1.7-1.6c0.3-0.2,0.5-0.5,0.8-0.7
			c0.4-0.3,0.8-0.7,1.2-1c0.1-0.1,0.3-0.2,0.4-0.3c0.6-0.6,1.3-1.2,2.1-1.6c0.1,0,0.1-0.1,0.2-0.2c0.5-0.4,0.9-0.8,1.4-1.2
			c0.5-0.4,1.1-0.9,1.7-1.3c0.3-0.2,0.7-0.4,1-0.6c1.5-0.9,2.9-1.9,4.4-2.7c0.5-0.3,1.1-0.5,1.6-0.8c0.4-0.2,0.7-0.4,1.1-0.6
			c0.2-0.1,0.4-0.1,0.6-0.2c0.9-0.4,1.8-0.7,2.6-1.2c1-0.5,2-0.9,3.1-1.2c0.5-0.2,1-0.4,1.6-0.6c0.6-0.2,1.3-0.3,1.9-0.5
			c1.1-0.3,2.2-0.7,3.3-0.9c0.5-0.1,1,0,1.5,0c0.4,0,0.9,0.1,1.3,0c0.8-0.1,1.5,0.1,2.2,0.3c0,0,0.1,0,0.1,0c1.2,0,1.6,1,2.2,1.7
			c0.3,0.4,0.7,0.9,0.4,1.6c-0.1,0.2-0.2,0.6,0.1,0.8c0,0,0,0.1,0,0.1c-0.2,0.9-0.7,1.6-1.4,2.2c-0.3,0.2-0.5,0.5-0.8,0.7
			c-0.3,0.3-0.6,0.5-0.9,0.8c-0.4,0.3-0.7,0.6-1.1,0.9c-0.1,0.1-0.2,0.2-0.3,0.3c-0.6,0.4-1,0.9-1,1.7c0,0.3-0.3,0.6-0.4,0.9
			c-0.2,0.9-0.5,1.8-0.7,2.8c-0.2,1-0.3,2.1-0.8,3c-0.1,0.2,0,0.5-0.2,0.8c-0.3,0.6-0.7,1-1.3,1.4c-0.5,0.3-0.9,0.6-1.4,0.9
			c0.2,0.1,0.3,0.2,0.5,0.2c0.7,0.2,1.5,0.2,2.2,0.4c0.5,0.1,0.9,0.4,1.4,0.6c0.3,0.1,0.6,0.2,0.9,0.2c0.4,0,0.7,0,0.9,0.4
			c0,0.1,0.2,0.1,0.3,0.1c1,0.2,1.9,0.4,2.9,0.6c0.5,0.1,1,0.4,1.5,0.6c0.6,0.2,1.1,0.4,1.7,0.6c0.5,0.2,1.1,0.3,1.6,0.4
			c0.4,0.1,0.8,0.2,1.1,0.3c1.4,0.4,2.8,0.9,4.2,1.4c1.1,0.4,2.3,0.7,3.5,1c0.3,0.1,0.6,0.2,0.9,0.3c0.8,0.5,1.8,0.6,2.7,0.8
			c0.7,0.2,1.3,0.5,2,0.7c0.3,0.1,0.7,0.2,1,0.3c0.9,0.2,1.9,0.5,2.8,0.7c0.7,0.2,1.5,0.3,2.2,0.4c0,0,0.1,0,0.1,0
			c0.9,0.2,1.8,0.4,2.6,0.5c0.4,0.1,0.8,0.1,1.1,0c0.4-0.1,1,0.1,1.3-0.5c0,0,0.1,0,0.2,0c0.8,0.2,1.5,0.1,2.2-0.1
			c0.7-0.2,1.4-0.3,2.1-0.5c0.8-0.3,1.5-0.7,2.2-1.1c0.4-0.2,0.9-0.3,1.3-0.6c0.6-0.3,1.2-0.8,1.6-1.4c0.3-0.4,0.7-0.6,1-0.9
			c0.6-0.5,1.2-1,1.8-1.4c0.3-0.2,0.6-0.5,0.9-0.7c1.2-1,2.5-2,3.7-2.9c0.8-0.6,1.8-1,2.8-1.3c0.8-0.3,1.5-0.7,2.2-1
			c0.8-0.3,1.6-0.6,2.4-0.8c1.1-0.3,2.2-0.6,3.3-0.8c0.3-0.1,0.7,0,1-0.1c0.8-0.1,1.7-0.2,2.5-0.2c0.1,0,0.2,0,0.3,0.1
			c0.4,0.4,1,0.8,1.3,1.4c0.4,0.7,0.5,1.6,0,2.4c-0.6,1.1-1.2,2.1-1.6,3.2c-0.2,0.6-0.5,1.2-0.5,2c0.1,0.6-0.4,1.3-0.6,1.9
			c0.4,0.3,0.4,0.6,0,0.9c-0.1,0.1-0.2,0.2-0.2,0.3c-0.2,0.9-0.3,1.8-0.5,2.7c-0.1,0.4-0.1,0.8-0.4,1.2c-0.1,0.1-0.1,0.2-0.1,0.3
			c0,0.1,0,0.2,0,0.3c-0.3,0.7-0.7,1.4-1,2.1c-0.3,0.6-0.5,1.1-0.7,1.7c-0.1,0.3-0.3,0.5-0.4,0.7c-0.2,0.4-0.4,0.7-0.7,1
			c-0.6,0.8-1.3,1.6-1.9,2.4c-0.3,0.4-0.5,0.8-0.8,1.2c0,0.1,0.1,0.3,0.1,0.4c0.5,0.8,1,1.6,1.4,2.4c0.3,0.6,0.7,1.2,0.9,1.9
			c0.2,0.6,0.3,1.2,0.5,1.7c0.1,0.3,0.1,0.6,0.3,0.8c0.2,0.4,0.3,0.7,0.3,1.1c0,0.3,0,0.6,0,0.9c0,0.7,0.1,1.5,0.1,2.2
			c0,0.4-0.2,0.8-0.3,1.2c-0.1,0.7-0.3,1.5-0.4,2.2c-0.2,0.8-0.3,1.6-0.8,2.4c-0.1,0.2-0.2,0.5-0.2,0.8c-0.1,0.5-0.3,1-0.5,1.5
			c-0.3,0.8-0.5,1.5-0.2,2.3c0.1,0.2,0,0.5,0,0.8c0,0.2-0.1,0.4-0.1,0.8c-0.5,0.1-1.2,0.4-1.8,0.3c-0.6,0-1.2,0-1.8-0.4
			c-0.4-0.3-1-0.4-1.5-0.6c-0.5-0.2-0.9-0.3-1.3-0.6c-0.4-0.2-0.8-0.5-1.1-0.9c-0.6-0.5-1.1-1-1.6-1.5c-0.3-0.2-0.5-0.5-0.8-0.7
			c0,0,0,0,0,0c-0.1-0.8-1-1-1.4-1.6c-0.3-0.5-0.7-0.9-1-1.4c-0.4-0.5-0.8-1.1-1.2-1.6c-0.7-1-1.3-2.1-2-3.1c-0.7-1.1-1.3-2.1-2-3.2
			c-0.3-0.5-0.8-0.8-1.2-1.2c0,0-0.1-0.1-0.2-0.1c-1.4-0.4-2.8-0.8-4.2-1.1c-0.6-0.1-1.3,0-2,0c-0.7,0-1.3-0.2-2-0.3
			c-0.2,0-0.3-0.1-0.5-0.1c-0.7,0-1.5,0.1-2.2,0.1c-0.5,0-1,0-1.6-0.1c-1.2-0.1-2.4,0-3.6,0.4c-0.5,0.2-1,0.3-1.4,0.2
			c-1-0.1-1.8,0.4-2.8,0.6c-0.7,0.1-1.4,0.3-2.1,0.4c-0.2,0.1-0.4,0.1-0.7,0.2c-0.2,0.1-0.3,0.1-0.5,0.2c-1,0.2-1.9,0.4-2.9,0.6
			c0,0-0.1,0-0.1,0c-1,0.6-2.1,0.6-3.2,1c-0.3,0.1-0.5,0.3-0.8,0.4c-0.7,0.2-1.5,0.3-2.2,0.7c-0.8,0.4-1.8,0.5-2.7,0.8
			c-1.2,0.4-2.3,0.8-3.5,1.2c-0.7,0.2-1.3,0.5-1.9,0.8c-0.6,0.3-1.2,0.6-1.8,0.8c-0.2,0.1-0.5,0.2-0.7,0.3c-0.3,0.1-0.7,0.3-1,0.4
			c-0.4,0.1-0.8,0.1-1.1,0.2c-0.7,0.2-1.4,0.4-2.1,0.5c-0.5,0.1-1,0.3-1.6,0.4c-0.3,0.1-0.6,0.2-0.8,0.4c-0.1,0-0.1,0.3-0.1,0.4
			c0.4,0.5,0.5,1.1,0.7,1.8c0.1,0.6,0.5,1.2,0.6,1.8c0.1,0.7,0.1,1.4,0.1,2.2c0,0.8,0,1.6,0,2.4c0,0.7-0.2,1.3-0.3,1.9
			c0,0.3-0.2,0.6-0.2,0.9c-0.1,1.2-0.8,2-1.6,2.7c-0.4,0.4-0.9,0.5-1.4,0.5c-0.4,0-0.7-0.1-1.1-0.1c-0.7,0.1-1.1-0.2-1.6-0.6
			c-0.3-0.2-0.7-0.2-1-0.3c-0.5-0.2-1.1-0.3-1.6-0.5c-0.8-0.3-1.6-0.6-2.4-1c-0.7-0.4-1.4-0.9-2.2-1.3c-0.9-0.5-1.9-1-2.8-1.6
			c-0.6-0.4-1.2-0.8-1.8-1.2c-0.6-0.5-1.3-0.9-1.9-1.4c-0.4-0.3-0.7-0.8-1-1.1c-0.4-0.4-0.8-0.6-1.2-1c-0.1-0.1-0.2-0.3-0.3-0.4
			c-0.5-0.5-1.1-0.9-1.6-1.4c-0.4-0.4-0.7-0.8-1-1.1c-0.1-0.1-0.2-0.2-0.3-0.3c-0.6-0.3-1.1-0.6-1.4-1.2c-0.1-0.1-0.2-0.2-0.3-0.2
			c-1-0.2-2-0.5-2.9-0.7c-0.3-0.1-0.6-0.2-0.8-0.3c-1.4-0.5-2.9-1-4.3-1.5c-1-0.4-2.1-0.7-3.1-1.1c-0.5-0.2-1-0.5-1.5-0.7
			c-1-0.4-2-0.6-3-1c-0.6-0.2-1.1-0.6-1.7-0.9c-1.5-0.6-2.8-1.5-4.2-2.3c-0.5-0.3-0.9-0.7-1.3-1c-0.6-0.5-1.2-0.9-1.8-1.4
			c-0.5-0.4-1-0.8-1.4-1.3c-0.3-0.3-0.5-0.7-0.7-1.2c-0.2-0.6-0.8-1-1.5-0.9c-0.1,0-0.3,0-0.4,0c-0.6-0.4-1.2-0.1-1.7,0.1
			c-0.3,0.1-0.5,0.5-0.7,0.8c-0.2,0.2-0.5,0.4-0.8,0.5c-0.4,0.2-0.7,0.3-0.9,0.7c-0.2,0.3-0.6,0.5-0.9,0.7c-0.1,0.1-0.2,0.1-0.2,0.2
			c0.1,0.5-0.4,0.7-0.6,1c-0.2,0.3-0.2,0.6-0.3,0.9c-0.1,0.2-0.1,0.3-0.3,0.4c-0.5,0.5-0.9,1-0.9,1.7c0,0,0,0.1,0,0.1
			c-0.3,0.6-0.6,1.3-0.8,1.9c-0.2,0.5-0.2,1-0.2,1.5c-0.1,0.1-0.2,0.2-0.3,0.3c0,0,0.1,0,0.1,0c0,0.3-0.1,0.5-0.1,0.8
			c0,0.5,0.1,0.9,0.2,1.4c0,0.1,0.1,0.1,0.1,0.2c0.1,0.6,0.1,0.6,0.6,0.9c-0.6,0.5-0.6,0.9-0.2,1.6c0.2,0.3,0.1,0.9,0.1,1.3
			c0,0.2,0.1,0.4,0.2,0.6c0.2,0.5,0.4,1.1,0.6,1.6c0.1,0.1,0.2,0.3,0.3,0.4c0.1,0,0.3,0,0.4-0.1c0.2-0.4,0.3-0.7,0.5-1.1
			c0.3-0.6,0.5-1.2,0.8-1.8c0-0.1,0.1-0.1,0.2-0.2c0.4-0.2,1.2,0,1.5,0.3c0.3,0.2,0.2,0.5,0.1,0.7c-0.3,1-0.6,2.1-0.9,3.1
			c0,0,0,0.1,0.1,0.2c0.5-0.2,0.9-0.3,1.3-0.5c0.6-0.3,1.3-0.6,1.9-0.9c0.5-0.2,1-0.2,1.2,0.2c0.3,0.5,0.2,1-0.2,1.5
			c-0.7,0.7-1.4,1.5-2.2,2.2c-0.2,0.2-0.4,0.4-0.8,0.6c0.4,0.1,0.6,0.1,0.8,0.2c0.3,0.1,0.6,0.1,0.9,0.3c0.8,0.5,1.7,0.6,2.7,0.8
			c0.5,0.1,1.1,0.3,1.6,0.6c0.3,0.2,0.5,0.5,0.4,0.9c-0.2,0.7-0.6,0.8-1.5,0.5c-0.4-0.1-0.7-0.2-1.1-0.2c-0.7-0.1-1.4-0.3-2.1-0.3
			c-0.3,0-0.7,0-1.1,0c0.2,0.6,0.7,0.9,1.2,1.2c0.2,0.1,0.4,0.2,0.6,0.3c0.4,0.2,0.7,0.5,1,0.8c0.3,0.2,0.7,0.4,1,0.6
			c0.1,0.1,0.2,0.1,0.3,0.2c0.4,0.3,0.7,0.7,1,0.9c1.2,0.7,2.4,1.3,3.6,1.9c0.5,0.2,1.1,0.4,1.6,0.5c0.5,0.2,1,0.4,1.5,0.5
			c0.2,0.1,0.4,0.1,0.6,0.1c0.1,0,0.2,0,0.2,0c0.7,0.6,1.6,0.8,2.5,1c0.3,0.1,0.5,0.2,0.8,0.3c0.2,0.1,0.3,0.1,0.6,0.2
			c-0.1-0.3-0.1-0.5-0.2-0.7c-0.2-0.6-0.5-1.1-0.6-1.6c-0.1-0.4-0.1-0.8-0.1-1.2c0-0.2,0.2-0.4,0.4-0.5c0.6-0.4,1.2-0.1,1.4,0.6
			c0.1,0.4,0.3,0.8,0.5,1.1c0.4,0.6,0.8,1.2,1.3,1.8c0.1,0.2,0.2,0.3,0.5,0.5c0.2-0.5,0.3-0.8,0.4-1.1c0.1-0.2,0.3-0.5,0.4-0.7
			c0.4-0.8,0.8-1.5,1.3-2.3c0.2-0.3,0.8-0.6,1.1-0.5c0.3,0.1,0.5,0.2,0.7,0.3c-0.1,0.9-0.2,1.7-0.3,2.7c0.3-0.1,0.5-0.1,0.7-0.2
			c0.6-0.3,1.3-0.6,1.8-1.1c0.3-0.3,0.6-0.5,1.1-0.5c0.7-0.1,1,0.3,1.1,1c0.1,0.5-0.4,0.7-0.6,1.1c-0.2,0.5-0.6,0.9-0.9,1.3
			c-0.3,0.4-0.6,0.8-0.9,1.2c-0.1,0.1-0.1,0.2-0.1,0.3c0.6,0.2,1.1,0.4,1.6,0.5c0.5,0.1,0.9,0,1.4,0c0.1,0,0.2,0,0.3,0
			c0.6,0.3,1.2,0.3,1.9,0.2c0.1,0,0.1,0,0.2,0c0.7,0.5,1.4,0.1,2.2,0.1c0.5,0,1,0.1,1.5,0.1c0.3,0,0.7,0,1,0c0.5,0,1,0.2,1.5,0.2
			c0.7,0,1.3-0.2,2-0.2c0.6,0,1.2,0,1.8-0.1c0.9-0.1,1.9-0.1,2.8-0.5c0.5-0.2,1-0.3,1.6-0.4c0.6-0.1,1.3-0.2,2.1-0.3
			c-0.3-0.4-0.5-0.7-0.8-1c-0.9-0.9-1.8-1.8-2.6-2.7c-0.2-0.3-0.4-0.6-0.5-1c-0.2-0.5,0.1-1,0.6-1c0.5-0.1,0.9,0.1,1.2,0.5
			c0.5,0.6,1.2,0.9,2,1.1c0.5,0.2,1.1,0.3,1.6,0.6c0.4,0.2,0.7,0.5,1.1,0.8c0.3,0.3,0.7,0.2,1-0.1c0.6-0.4,1.2-0.9,1.7-1.4
			c0.3-0.3,0.6-0.8,0.9-1.1c0.3-0.5,0.8-0.6,1.3-0.5c0.3,0.1,0.6,0.6,0.5,1c-0.3,1-0.7,1.9-1.1,2.9c0.7-0.2,1.4,0.1,2-0.4
			c0.2-0.1,0.4-0.2,0.6-0.2c0.6,0,1-0.4,1.6-0.6c0.7-0.2,1.5-0.1,2.1-0.7c0.1-0.1,0.4-0.1,0.6-0.2c0.8-0.3,1.6-0.6,2.4-0.9
			c0.5-0.2,1-0.3,1.6-0.4c0.4-0.1,0.9-0.2,1.3-0.3c0.5-0.2,1.1-0.3,1.6-0.6c0.4-0.2,0.8-0.3,1.2-0.3c0.7-0.1,1.4-0.3,2.1-0.4
			c0.2,0,0.4,0,0.6-0.1c0.8-0.2,1.5-0.4,2.3-0.6c0.6-0.1,1.2-0.2,1.8-0.3c0.2,0,0.4,0,0.6-0.1c0.5-0.2,1-0.4,1.6-0.4
			c0.5,0,0.7-0.3,0.5-0.8c-0.2-0.4-0.5-0.8-0.7-1.2c-0.2-0.4-0.5-0.9-0.7-1.3c-0.3-0.5,0-0.8,0.4-1.1c0.4-0.3,0.8-0.1,1.1,0.1
			c0.8,0.6,1.5,1.1,2.3,1.7c0.3-0.4,0.5-0.9,0.8-1.3c0.3-0.4,0.7-0.8,1.1-1.1c0.5-0.5,1.1-0.9,1.7-1.3c0.4-0.3,0.9-0.4,1.2-0.7
			c0.4-0.3,0.8-0.3,1.2-0.3c0.6,0.1,0.9,0.9,0.6,1.4c-0.7,1.1-1.4,2.2-2.1,3.4c0,0.1-0.1,0.1-0.2,0.2c-0.1,0.2-0.1,0.3-0.2,0.5
			c0.2,0.1,0.3,0.2,0.5,0.2c0.5,0,1-0.1,1.5-0.1c0.4-0.1,0.8-0.2,1.3-0.2c0.5-0.1,1-0.1,1.5-0.1c0.3,0,0.5,0,0.8-0.1
			c1-0.1,2.1-0.1,3.1-0.2c0.3,0,0.6-0.1,0.8,0.1c0.1,0.1,0.3,0.1,0.4,0.1c0.5,0,1,0.1,1.5,0c0.4,0,0.8-0.1,1.2-0.2
			c0.1,0,0.4-0.1,0.4,0c0.5,0.5,1.1,0.3,1.7,0.4c0.9,0.1,1.9,0.1,2.8,0.3c0.4,0.1,0.9,0.1,1.4,0.1c0.9,0.2,1.9,0.4,2.8,0.6
			c0.5,0.1,1,0.2,1.6,0.3c0.6,0.1,0.9-0.1,0.9-0.7c0.1-1,0.2-2,0.3-3c0.1-0.7,0.7-1.1,1.4-0.8c0.3,0.2,0.5,0.5,0.7,0.8
			c0.3,0.8,0.4,1.5,0.5,2.3c0,0.3,0.2,0.3,0.4,0.2c0.8-0.4,1.6-0.7,2.4-1.1c0.4-0.2,0.8-0.5,1.2-0.8c0.3-0.2,1-0.2,1.3,0.1
			c0.5,0.5,0.5,0.8,0.2,1.4C201.1,75.5,200.8,76.1,200.5,76.8z M130.6,14.6c0.6-0.4,1.2-0.8,1.8-1c0.5-0.2,0.9-0.7,1.5-0.6
			c0.1,0,0.3-0.1,0.4-0.2c0.6-0.7,1.6-0.7,2.3-1.2c1.1,0.1,1.9-0.7,3-1c0,0,0.1-0.1,0.1-0.1c0.2-0.1,0.5-0.2,0.7-0.3
			c0.6-0.2,1.3-0.4,1.9-0.6c0.3-0.1,0.5-0.1,0.8-0.2c0.3-0.1,0.6-0.1,0.9-0.2c0.6-0.2,1.2-0.5,1.9-0.5c0.6,0,1.1-0.4,1.7-0.5
			c0.2,0,0.3-0.1,0.5-0.1c0.6,0.2,1.1,0,1.4-0.6c-0.1,0-0.2-0.1-0.3-0.1c-0.7,0-1.3,0.1-2,0.2c-0.9,0.1-1.8,0.4-2.7,0.6
			c-0.4,0.1-0.9,0.2-1.3,0.3c-0.4,0.1-0.8,0.4-1.2,0.4c-0.7-0.1-1.4-0.1-2,0.5c0,0,0,0,0,0c-0.5,0.2-1,0.3-1.4,0.5
			c-1,0.4-2,0.8-2.9,1.3c-0.7,0.4-1.6,0.6-2.3,1.3c-0.5,0.6-1.3,1-2,1.5C131,13.9,130.8,14.3,130.6,14.6c-0.9-0.1-1.3,0.7-1.9,1.1
			c0.3,0,0.5-0.1,0.7-0.2C129.8,15.2,130.2,14.8,130.6,14.6z M112.8,51.2c-0.2,0.2-0.3,0.4-0.4,0.6c-0.1,0.2,0,0.4-0.1,0.6
			c-0.3,0.9-0.9,1.7-1,2.6c0,0,0,0.1,0,0.1c-0.5,0.9-1,1.7-1.5,2.6c-0.5,0.9-0.3,1.1,0.6,1.3c0.8,0.1,1.6,0.2,2.4,0.4
			c1,0.2,2,0.3,3.1,0.4c1.3,0.1,2.6,0.2,3.9,0.3c0.5,0,1.1,0.2,1.6,0.2c0.9,0.1,1.7,0,2.6,0.1c0.6,0,1.2,0.2,1.8,0.2
			c1.3,0,2.5,0,3.8,0c0.2,0,0.5,0.1,0.7,0c1.1-0.1,2.3-0.1,3.4-0.2c0.3,0,0.5-0.1,0.7-0.1c0.5-0.1,1-0.2,1.5-0.3
			c0.2,0,0.4,0,0.6-0.1c1.5-0.3,3-0.6,4.4-0.9c1.1-0.2,2.1-0.4,3.2-0.5c0.2,0,0.3-0.1,0.5-0.1c0.7-0.4,1.5-0.3,2.2-0.5
			c0.8-0.2,1.6-0.4,2.4-0.7c1.3-0.5,2.7-1.1,4-1.7c0.2-0.1,0.3-0.2,0.5-0.4c0.1,0,0.1-0.1,0.2-0.1c0.5-0.1,1-0.2,1.5-0.3
			c0.5-0.2,1-0.4,1.5-0.6c0.6-0.2,1.1-0.5,1.7-0.6c0.7-0.2,1.5-0.5,2.2-0.7c0.3-0.1,0.6-0.2,0.9-0.2c0.5-0.1,1.1-0.2,1.6-0.4
			c0.8-0.2,1.6-0.4,2.4-0.6c1.1-0.2,2.3-0.4,3.4-0.6c0.9-0.2,1.7-0.5,2.6-0.8c0.1,0,0.2-0.1,0.3-0.1c1-0.2,2.1-0.3,3.1-0.5
			c0.7-0.1,1.3-0.2,1.9-0.6c0.8-0.5,1.7-0.7,2.4-1.3c1.1-0.8,2.1-1.6,2.9-2.7c0.1-0.2,0.2-0.4,0.2-0.5c-0.1-0.1-0.3-0.3-0.5-0.3
			c-0.4,0-0.8,0-1.3,0c-0.9,0-1.9,0-2.8,0c-1.3,0.1-2.5,0.3-3.8,0.4c-1,0.1-2.1,0.1-3.1,0.2c-0.8,0.1-1.6,0.1-2.4,0.2
			c-0.8,0.1-1.5,0.3-2.3,0.4c-0.8,0.1-1.6,0.1-2.5,0.2c-0.4,0-0.8,0.2-1.2,0.3c-1.2,0.2-2.3,0.3-3.5,0.4c-1.1,0.2-2.2,0.5-3.3,0.6
			c-1.5,0.1-3.1,0.2-4.5,0.7c-0.6,0.2-1.2,0.3-1.7,0.4c-1.2,0.2-2.4,0.4-3.6,0.6c-0.7,0.1-1.4,0.2-2.1,0.3c-0.2,0-0.4,0-0.7,0
			c-1.1,0.2-2.1,0.4-3.2,0.6c-0.6,0.1-1.2,0.1-1.7,0.2c-1.1,0.2-2.3,0.3-3.4,0.5c-0.7,0.1-1.5,0.2-2.2,0.4c-0.7,0.1-1.5,0.3-2.2,0.4
			c-0.5,0.1-1,0.1-1.4,0.2c-0.7,0.2-1.3,0.4-2,0.5c-0.6,0.1-1.2,0.3-1.7,0.3c-1.2,0.1-2.5,0.2-3.7,0.2c-0.6,0-1.2-0.1-1.8-0.1
			c-0.1,0-0.3,0.1-0.4,0.1c-0.2,0-0.4,0.1-0.5,0c-0.4-0.1-0.8-0.2-1.2-0.3c-1.1-0.2-2.2-0.3-3.3-0.5
			C113.8,51.6,113.3,51.4,112.8,51.2z M176.4,110.2c0.2-0.3,0.6-0.5,0.5-0.7c-0.1-0.4,0.1-0.6,0.3-0.9c0.2-0.5,0.5-0.9,0.7-1.4
			c0.2-0.4,0.1-0.8,0.5-1.2c0.6-0.7,0.9-1.5,1.4-2.2c0.5-0.9,0.4-1.1-0.6-1.3c-0.8-0.2-1.6-0.3-2.4-0.5c-1-0.2-2-0.4-3-0.6
			c-1.4-0.2-2.9-0.3-4.3-0.5c-0.4,0-0.8-0.2-1.2-0.2c-0.8-0.1-1.7-0.1-2.5-0.2c-0.5,0-1.1-0.2-1.6-0.2c-1.3-0.1-2.6-0.1-3.9-0.1
			c-0.3,0-0.6-0.1-0.9-0.1c-1.1,0-2.2,0-3.3,0.1c-0.3,0-0.6,0-0.9,0.1c-0.5,0.1-0.9,0.1-1.4,0.2c-0.2,0-0.4,0-0.6,0
			c-2.3,0.5-4.6,0.5-6.9,1.1c-0.9,0.2-1.9,0.3-2.8,0.4c-1.3,0.2-2.7,0.5-3.9,1.1c-1.3,0.6-2.7,0.9-3.9,1.7c-0.1,0-0.2,0-0.2,0
			c-0.3,0-0.6,0-0.9,0.1c-0.8,0.3-1.6,0.7-2.4,0.9c-0.8,0.3-1.6,0.6-2.5,0.7c-0.8,0-1.5,0.6-2.3,0.5c-0.7,0-1.4,0.3-2.2,0.4
			c-1.1,0.2-2.3,0.4-3.4,0.5c-0.3,0-0.5,0.1-0.8,0.2c-0.9,0.2-1.8,0.3-2.6,0.5c-0.6,0.1-1.2,0.3-1.8,0.4c-0.8,0.1-1.6,0.2-2.4,0.3
			c-1.1,0.1-2.1,0.4-3,1c-0.8,0.5-1.6,1-2.3,1.5c-0.8,0.5-1.6,1.2-2.2,1.9c-0.3,0.3-0.2,0.6,0.1,0.7c0.3,0.1,0.6,0.1,0.9,0.1
			c0.8,0,1.6,0,2.4,0c1,0,1.9,0,2.9,0c0.7,0,1.3-0.2,2-0.3c1-0.1,2.1,0,3.1-0.1c0.8,0,1.5-0.1,2.3-0.2c0.8-0.1,1.6-0.2,2.4-0.3
			c0.7-0.1,1.4,0,2.1-0.1c0.5,0,0.9-0.2,1.4-0.3c1.2-0.1,2.4-0.2,3.6-0.3c1.1-0.1,2.2-0.4,3.2-0.4c1.6-0.1,3.1-0.2,4.6-0.5
			c0.6-0.1,1.2-0.2,1.8-0.3c1.2-0.2,2.4-0.3,3.7-0.5c0.7-0.1,1.4-0.2,2.1-0.2c0.2,0,0.4,0.1,0.7,0c1.1-0.1,2.2-0.3,3.2-0.4
			c0.5-0.1,1.1-0.1,1.6-0.1c1.1-0.1,2.3-0.3,3.4-0.4c0.7-0.1,1.4,0,2-0.2c1.5-0.5,3.1-0.4,4.6-0.8c1-0.3,2.1-0.4,3.1-0.5
			c1.2-0.1,2.5-0.1,3.8-0.1c0.6,0,1.2,0.1,1.9,0.2c0.1,0,0.2-0.1,0.3-0.1c0.2,0,0.4-0.1,0.6,0c0.4,0.1,0.8,0.3,1.2,0.3
			c1.1,0.2,2.2,0.4,3.2,0.6C175.4,109.8,175.9,110,176.4,110.2z M184.2,104c0,0,0,0.1-0.1,0.1c-0.1,0.2-0.2,0.5-0.3,0.6
			c-0.7,0.4-0.9,1.1-1.2,1.7c-0.6,1-1.1,2.2-1.5,3.3c-0.4,0.9-0.6,1.7-0.9,2.6c-0.3,0.8-0.5,1.6-0.7,2.4c-0.2,0.9-0.5,1.7-0.4,2.6
			c0,0.2,0,0.4-0.1,0.6c-0.1,0.9-0.1,1.7-0.2,2.6c-0.1,0.7,0.2,1.3,0.2,2c0,1.2,0.2,2.4,0.5,3.5c0.2,0.9,0.7,1.7,0.8,2.6
			c0.2,0.9,0.6,1.6,1,2.3c0.3,0.5,0.6,1,0.9,1.6c0.2,0.4,0.5,0.5,1,0.4c0.8-0.3,1.6-0.6,2.4-0.9c0.3-0.1,0.7-0.1,1.1-0.3
			c0.6-0.2,1.1-0.8,1.8-0.8c0.1,0,0.1-0.1,0.2-0.1c0.7-0.3,1.3-0.7,2-1c0.6-0.3,1.3-0.6,1.9-1c0.2-0.1,0.4-0.4,0.6-0.5
			c0.5-0.3,1.1-0.4,1.4-0.9c0.4-0.5,0.8-0.7,1.3-0.8c0,0,0,0,0,0c0.3-0.4,0.7-0.7,1.1-0.9c0.5-0.2,0.9-0.7,1.3-1.1
			c0.2,0,0.4-0.1,0.5-0.2c0.2-0.4,0.4-0.7,0.8-0.9c0.1,0,0.2-0.2,0.3-0.3c0.4-0.3,0.7-0.6,1.1-1c0.2-0.2,0.5-0.5,0.7-0.7
			c0.4-0.4,0.7-0.9,1-1.4c0.1-0.1,0.1-0.5,0-0.6c-0.3-0.2-0.5-0.5-0.7-0.7c-0.2-0.3-0.6-0.6-0.9-0.9c-0.6-0.5-1.2-0.8-1.7-1.3
			c-0.8-0.7-1.7-1.3-2.7-1.6c-0.6-0.2-1.1-0.4-1.6-0.6c-1.1-0.4-2.2-1-3.4-1.1c-0.1,0-0.2-0.1-0.2-0.1c-0.2-0.1-0.4-0.2-0.6-0.2
			c-0.6-0.1-1.1-0.5-1.4-1c-0.1-0.1-0.1-0.4,0-0.6c0.2-0.6,1-0.9,1.6-0.5c0.1,0.1,0.3,0.1,0.4,0.2c1.3,0.4,2.5,0.8,3.8,1.2
			c0.8,0.2,1.4,0.8,2.3,0.9c0.3,0,0.5,0.1,0.8,0.1c-0.1-0.2-0.2-0.5-0.3-0.7c0,0-0.1-0.1-0.1-0.1c-0.5-0.4-1-0.8-1.5-1.2
			c-0.7-0.5-1.5-1.1-2.2-1.6c-0.5-0.3-1-0.7-1.4-1c-0.4-0.3-0.9-0.6-1.3-0.9c-0.1-0.1-0.2-0.2-0.3-0.3c-0.5-0.4-1-0.9-1.6-1.3
			c0,0-0.1,0-0.2,0c-0.9-0.4-1.8-0.7-2.7-1.1C185.8,104.7,185,104.3,184.2,104z M105.2,57.6c0.4-0.5,0.7-0.9,1-1.4
			c0.1-0.2,0.1-0.5,0.3-0.7c0.5-0.5,0.8-1.2,1-1.9c0.1-0.5,0.4-1,0.5-1.4c0.3-0.7,0.6-1.4,0.8-2.1c0.3-0.9,0.4-1.8,0.6-2.7
			c0.3-1.1,0.5-2.1,0.5-3.3c0-0.7,0.1-1.4,0.1-2.2c0-0.1,0-0.3,0-0.4c0.1-0.7,0.2-1.4-0.3-2c0,0,0-0.1,0-0.1c0-0.7,0-1.4-0.1-2.1
			c-0.2-1.1-0.5-2.1-0.9-3.2c-0.3-0.9-0.6-1.8-1-2.6c-0.4-0.9-1-1.6-1.5-2.5c-0.2-0.4-0.5-0.5-1-0.3c-0.8,0.3-1.6,0.7-2.4,1
			c-0.3,0.1-0.7,0.2-1,0.3c-0.6,0.3-1.1,0.8-1.8,0.9c-0.1,0-0.1,0.1-0.2,0.1c-0.6,0.4-1.3,0.7-1.9,1.1c-0.6,0.3-1.2,0.7-1.8,1.1
			c-0.3,0.2-0.5,0.4-0.7,0.6c-0.4,0.3-0.9,0.6-1.3,0.8c-0.1,0.1-0.2,0.2-0.2,0.3c0,0.4-0.2,0.4-0.4,0.4c-0.4,0-0.7,0.1-0.8,0.5
			c-0.1,0.2-0.3,0.4-0.5,0.5c-0.8,0.2-1,0.9-1.6,1.3c-0.1,0-0.4,0-0.4,0.1c-0.3,0.6-0.8,1-1.2,1.4c-0.3,0.3-0.7,0.6-1,1
			c-0.2,0.2-0.5,0.5-0.7,0.8c-0.3,0.4-0.6,0.9-0.9,1.4c-0.1,0.2-0.1,0.5,0,0.6c0.3,0.2,0.5,0.5,0.8,0.8c0.2,0.2,0.3,0.3,0.5,0.4
			c0.4,0.4,0.9,0.8,1.3,1.2c0.3,0.2,0.6,0.4,0.8,0.5c0.5,0.3,0.9,0.7,1.4,0.9c0.7,0.3,1.4,0.4,2.1,0.7c1.4,0.6,2.8,1.2,4.3,1.3
			c0.1,0,0.1,0.1,0.2,0.1c0.2,0.1,0.4,0.2,0.6,0.2c0.6,0.1,1.1,0.4,1.4,1c0.1,0.1,0.1,0.3,0.1,0.4c-0.2,0.6-0.9,1-1.6,0.7
			C98,51,97.8,51,97.7,50.9c-1.1-0.3-2.2-0.5-3.2-0.8c-1-0.3-2-0.8-3-1.1c-0.2-0.1-0.4,0-0.6,0.1c0.1,0.2,0.1,0.3,0.2,0.5
			c0.1,0.1,0.2,0.2,0.3,0.3c1,0.7,1.9,1.4,2.9,2.1c0.8,0.5,1.6,1,2.3,1.4c0.1,0,0.1,0.1,0.1,0.1c0.4,0.3,0.9,0.6,1.3,0.8
			c0.1,0.1,0.3,0.2,0.4,0.3c0.5,0.4,1.1,0.8,1.6,1.2c0,0,0.1,0,0.2,0c0.9,0.3,1.8,0.7,2.8,1C103.7,57.1,104.5,57.4,105.2,57.6z
			 M110.7,28.3c0.1,0.2,0.1,0.3,0.2,0.4c0.3,0.5,0.7,1.1,1,1.6c0.3,0.8,0.6,1.7,0.8,2.6c0.2,0.7,0.3,1.4,0.5,2.1
			c0.1,0.7,0.3,1.4,0.4,2c0.1,0.8,0.1,1.6,0.2,2.3c0,0.5,0.2,1,0.2,1.5c0,0.5-0.1,1-0.1,1.5c0.1,0.7,0,1.5-0.1,2.3
			c0,0.2-0.1,0.4-0.1,0.6c0,0.4,0.1,0.8,0.1,1.2c0,0.6-0.1,1.2-0.1,1.8c0,0.1,0,0.3-0.1,0.4c-0.2,0.4,0,0.5,0.4,0.6
			c0.5,0.1,1,0.4,1.5,0.5c0.4,0.1,0.8,0.2,1.3,0.3c-0.1-0.2-0.1-0.3-0.1-0.4c-0.2-0.4-0.1-0.7,0.1-1c0.3-0.3,0.6-0.6,0.9-0.9
			c0.1-0.1,0.2-0.3,0.2-0.4c-0.4-0.6-0.6-1.3-0.7-2.1c0-0.2,0.1-0.5,0.2-0.7c0.4-0.5,0.9-0.9,1.4-1.3c-0.4-0.1-0.7-0.1-1-0.2
			c-0.8-0.2-1.3-0.9-1.1-1.7c0-0.1,0.1-0.2,0.2-0.3c0.6-0.2,0.9-0.8,1.6-0.8c0.1,0,0.3-0.2,0.5-0.4c-0.6-0.1-1.2-0.3-1.7-0.3
			c-0.7-0.1-1.1-0.7-1-1.3c0.2-0.7,0.7-0.9,1.2-1.2c0.2-0.1,0.4-0.2,0.6-0.4c0-0.1,0-0.1,0-0.2c-0.2-0.1-0.3-0.2-0.5-0.2
			c-0.6-0.1-1.2,0-1.7-0.1c-0.3-0.1-0.7-0.3-0.8-0.5c-0.2-0.4-0.2-0.9-0.1-1.3c0-0.2,0.3-0.3,0.5-0.5c0.2-0.2,0.3-0.3,0.5-0.5
			c-0.1,0-0.2,0-0.3-0.1c-0.8-0.2-1.1-0.7-0.8-1.4c0.1-0.3,0.4-0.5,0.6-0.7c0.2-0.2,0.5-0.3,0.7-0.5c0-0.1,0-0.1,0-0.2
			c-0.5,0-1.1-0.1-1.6,0c-0.9,0.1-1.6,0-2.2-0.7c-0.2-0.2-0.2-0.3,0-0.6c0.2-0.2,0.3-0.4,0.2-0.6C111.7,28.5,111.2,28.4,110.7,28.3z
			 M177.7,133.1c-0.3-0.6-0.6-1.2-0.8-1.8c-0.3-0.6-0.6-1.2-0.7-1.8c-0.2-1-0.4-2.1-0.6-3.1c-0.1-0.8-0.3-1.6-0.4-2.5
			c0-0.2,0.1-0.5,0.1-0.7c-0.1-1-0.3-1.9-0.3-2.9c0-0.5,0.2-0.9,0.1-1.4c-0.1-0.7,0.1-1.4,0.2-2.2c0-0.2,0.1-0.4,0.1-0.7
			c0-0.4-0.1-0.8,0-1.2c0.1-0.6,0.3-1.2,0.2-1.8c0-0.1,0-0.3,0.1-0.4c0.2-0.3,0.1-0.5-0.3-0.6c-0.5-0.2-1.1-0.4-1.6-0.6
			c-0.4-0.1-0.8-0.2-1.2-0.3c0.6,1.7-0.8,2-1.7,2.7c0.5,0,0.6,0,0.7,0.4c0.2,0.6,0.4,1.1,0.5,1.7c0,0.2-0.1,0.5-0.3,0.7
			c-0.4,0.4-0.9,0.8-1.4,1.3c0.2,0,0.3,0.1,0.4,0.1c0.7,0.1,1.5,0.3,1.7,1.2c0.1,0.4,0,0.7-0.4,1c-0.5,0.3-0.9,0.6-1.5,0.7
			c-0.1,0-0.2,0.2-0.4,0.3c0.6,0.2,1.1,0.3,1.6,0.4c0.5,0.1,1,0.5,1,0.9c0,0.7-0.4,1.2-1.3,1.6c-0.2,0.1-0.5,0.2-0.7,0.3
			c0,0.1,0,0.1,0,0.2c0.2,0.1,0.3,0.2,0.5,0.2c0.6,0.1,1.2,0.1,1.7,0.2c0.3,0.1,0.7,0.3,0.8,0.6c0.2,0.4,0.1,0.9,0.1,1.3
			c0,0.2-0.3,0.3-0.5,0.5c-0.2,0.2-0.3,0.3-0.5,0.5c0.1,0,0.2,0,0.3,0.1c0.3,0.2,0.9,0.3,0.9,0.8c0,0.6-0.2,1.1-0.8,1.4
			c-0.2,0.1-0.4,0.3-0.7,0.5c0.3,0.1,0.6,0.1,0.8,0.1c0.6,0,1.2,0,1.8,0c0.7,0,1.1,0.5,1.5,1.1c-0.2,0.3-0.6,0.5-0.4,0.8
			C176.7,133,177.1,133,177.7,133.1z M126,35.8c0.4,0.3,0.7,0.4,1,0.6c0.7,0.4,0.9,1.1,0.9,1.7c0,0.3-0.4,0.6-0.6,0.8
			c-0.1,0.1-0.2,0.1-0.2,0.2c-0.3,0.2-0.2,0.4,0,0.5c0.2,0.1,0.5,0.2,0.7,0.2c0.1,0.3,0.2,0.6,0.3,0.9c0.1,0.3,0.2,0.5,0.2,0.8
			c0,0.7-0.5,1-0.9,1.5c-0.1,0.2-0.3,0.4-0.5,0.4c-0.4,0.1-0.6,0.4-0.5,0.7c0,0.2,0.3,0.4,0.5,0.5c0.4,0.3,0.9,0.5,1,1
			c0.1,0.4,0.1,0.8,0.1,1.1c0,0.3-0.2,0.6-0.4,0.7c-0.3,0.3-0.8,0.5-1.1,0.8c-0.1,0.1-0.2,0.3-0.1,0.4c0,0.2,0.1,0.5,0.1,0.7
			c0,0.3,0.1,0.4,0.4,0.4c0.9-0.2,1.8-0.4,2.6-0.6c0.1,0,0.3-0.2,0.3-0.3c0-0.3-0.1-0.7-0.1-1c-0.1-0.6,0.1-0.8,0.6-0.8
			c0.6,0.1,0.7-0.4,1.2-0.6c-0.2-0.1-0.3-0.2-0.3-0.2c-0.3-0.3-0.7-0.5-1.1-0.1c-0.1,0.1-0.3,0-0.3,0c-0.2-0.4-0.5-0.9-0.5-1.3
			c0-0.4,0.4-0.8,0.7-1c0.6-0.3,1.2-0.7,1.9-0.5c0-0.4-0.3-0.6-0.6-0.5c-0.3,0.1-0.4,0.1-0.5-0.1c-0.1-0.1-0.2-0.2-0.4-0.2
			c-0.6-0.1-0.7-0.7-0.9-1.1c0-0.1,0-0.2,0-0.2c0.2-0.2,0.5-0.4,0.7-0.6c0.4-0.3,0.8-0.5,1.3-0.9c-0.3-0.1-0.6-0.1-0.8-0.2
			c-0.4-0.3-1-0.5-1.1-0.9c-0.3-0.9,0.3-1.7,0.6-2.5c0.1-0.1,0.4-0.2,0.6-0.3c0.2-0.1,0.4-0.1,0.7-0.1c0-0.1,0-0.1,0-0.2
			c-0.6-0.3-1.1-0.6-1.6-0.9c-0.4-0.2-0.7-0.6-0.9-0.9c-0.2-0.3-0.1-0.9,0.3-1.2c0.4-0.3,0.8-0.5,1.2-0.8c0.4-0.2,0.2-0.5,0-0.6
			c-0.3-0.2-0.7-0.3-1.1-0.4c-0.6-0.2-1.3-0.2-1.5-0.9c-0.1-0.4-0.1-0.8-0.1-1.2c0,0,0.1-0.1,0.2-0.1c0.5-0.2,1.1-0.5,1.6-0.8
			c0.3-0.2,0.3-0.4,0-0.5c-0.7-0.2-1.4-0.4-2.2-0.5c-0.5-0.1-0.8-0.4-1.1-0.8c-0.1-0.1-0.2-0.5-0.3-0.2c-0.1,0.2-0.9,0.2-0.4,0.7
			c0.2,0.3,0.2,1,0,1.3c-0.4,0.5-0.3,0.8,0.3,1c0.6,0.2,1,0.6,1.4,1c0.4,0.4,0.3,1.4-0.1,1.7c-0.2,0.2-0.4,0.3-0.7,0.5
			c0.7,0.5,0.8,1.2,0.9,1.9C127.1,34.7,126.9,35.3,126,35.8z M157.5,124.9c0,0.1,0,0.1,0,0.2c0.5,0.3,1.1,0.6,1.6,1
			c0.4,0.3,0.7,0.6,0.9,1c0.2,0.3,0,0.9-0.3,1.1c-0.4,0.2-0.8,0.5-1.2,0.7c-0.4,0.2-0.4,0.4,0,0.7c0.3,0.2,0.8,0.3,1.1,0.5
			c0.4,0.2,1,0.3,1.4,0.7c0.4,0.5,0.1,0.9,0.2,1.3c0,0-0.2,0.1-0.3,0.2c-0.5,0.2-1.1,0.5-1.6,0.7c-0.2,0.1-0.3,0.3,0,0.4
			c0.5,0.2,0.9,0.4,1.4,0.5c0.8,0.2,1.6,0.2,2,1.1c0,0.1,0.2,0.1,0.3,0.1c0.2-0.1,0.4-0.2,0.5-0.4c0-0.1,0-0.1-0.1-0.2
			c-0.3-0.5-0.3-1,0-1.5c0.3-0.5,0.3-0.7-0.3-0.9c-0.6-0.2-1-0.7-1.4-1.1c-0.3-0.3-0.5-0.8-0.1-1.2c0.3-0.3,0.6-0.7,0.9-1
			c-0.6-0.3-1-1.9-0.8-2.6c0.1-0.3,0.2-0.7,0.4-0.9c0.5-0.5,0.5-0.4,0-0.8c-0.1-0.1-0.2-0.1-0.3-0.2c-0.6-0.4-0.8-1.1-0.8-1.7
			c0-0.3,0.4-0.6,0.6-0.8c0,0,0.1-0.1,0.2-0.1c0.1-0.1,0.3-0.3,0.3-0.3c-0.1-0.2-0.2-0.3-0.4-0.4c-0.1-0.1-0.3-0.1-0.5-0.1
			c0,0,0.1-0.1,0.1-0.1c-0.1-0.2-0.2-0.5-0.4-0.7c-0.2-0.3-0.3-0.5-0.2-0.9c0.1-0.7,0.6-0.9,1-1.4c0.1-0.2,0.3-0.3,0.5-0.4
			c0.5-0.1,0.6-0.5,0.7-0.9c-0.2-0.1-0.4-0.2-0.6-0.4c-0.4-0.3-0.8-0.5-0.9-1c0-0.4-0.1-0.7-0.1-1.1c0-0.3,0.2-0.5,0.4-0.7
			c0.2-0.2,0.5-0.4,0.8-0.5c0.4-0.2,0.9-0.4,0.4-1c0-0.1,0-0.2,0-0.3c0-0.5-0.1-0.6-0.5-0.5c-0.6,0.1-1.1,0.2-1.7,0.3
			c-0.4,0.1-0.8,0.2-1,0.2c0,0.5,0,0.9,0,1.3c0.1,0.5-0.1,0.8-0.7,0.7c-0.6-0.1-0.7,0.4-1.2,0.5c0.2,0.2,0.4,0.2,0.4,0.3
			c0.3,0.3,0.5,0.4,0.9,0.1c0.3-0.2,0.5,0,0.6,0.3c0.1,0.3,0.2,0.6,0.3,0.9c0,0.1,0.1,0.2,0,0.2c-0.2,0.3-0.4,0.8-0.8,0.9
			c-0.6,0.3-1.2,0.7-2,0.5c0,0.4,0.2,0.6,0.6,0.5c0.1,0,0.3-0.1,0.4,0c0.2,0.1,0.4,0.4,0.7,0.5c0.5,0.2,0.5,0.7,0.7,1.1
			c0,0,0,0.2-0.1,0.2c-0.6,0.5-1.2,1.1-2,1.3c0.3,0.2,0.6,0.2,0.8,0.4c0.4,0.3,0.9,0.5,1,0.9c0.3,0.9-0.3,1.7-0.7,2.5
			c-0.1,0.1-0.4,0.2-0.6,0.2C157.9,124.9,157.7,124.9,157.5,124.9z M119.1,31.6c0.4,0.2,0.7,0.4,1.1,0.7c0.3,0.2,0.4,0.5,0.2,0.8
			c-0.3,0.5-0.5,1.2-1.3,1.3c-0.1,0-0.2,0.1-0.3,0.1c0.8,0.4,1.5,0.6,2.1,1c0.3,0.2,0.7,0.4,0.8,0.7c0.2,0.6-0.4,1.4-0.9,1.6
			c-0.2,0.1-0.3,0.2-0.4,0.3c0.1,0.1,0.2,0.3,0.4,0.4c0.3,0.3,0.8,0.4,1,0.7c0.4,0.7,0.2,1.8-0.5,2.3c-0.2,0.2-0.3,0.3-0.1,0.5
			c0.1,0.1,0.1,0.2,0.2,0.3c0.4,0.3,0.3,0.7,0.2,1c-0.1,0.4-0.3,0.7-0.5,1c-0.2,0.3-0.4,0.6-0.6,0.9c-0.1,0.2-0.1,0.5,0.3,0.5
			c0.6,0,1.2,1.2,1,1.8c-0.3,0.7-0.8,0.9-1.3,1.3c-0.5,0.4-1.1,0.8-1.7,1.1c0,0,0,0.1,0,0.1c0.4,0.1,0.7,0.3,1.1,0.3
			c0.8,0,1.5,0,2.3-0.1c0.1,0,0.2,0,0.3,0c0.3,0.2,0.6,0,0.8-0.2c-0.4-0.6-0.8-1.1-0.6-2c0.2-0.8,0.2-1,1-1.3
			c0.3-0.1,0.4-0.2,0.2-0.5c-0.1-0.2-0.3-0.3-0.4-0.5c-0.2-0.2-0.3-0.5-0.4-0.8c-0.1-0.2-0.1-0.4-0.2-0.5c-0.2-0.4-0.2-1,0.2-1.3
			c0.4-0.3,0.9-0.6,1.3-0.9c0.4-0.3,0.8-0.7,1.2-1c0-0.1,0-0.1,0-0.2c-0.5-0.1-1-0.3-1.5-0.3c-1-0.1-1.3-0.4-1.2-1.4
			c0-0.3,0.2-0.6,0.5-0.8c0.4-0.4,0.9-0.7,1.4-0.9c0,0,0.1-0.1,0.1-0.2c-0.1,0-0.2-0.1-0.3-0.1c-0.3-0.1-0.6-0.1-0.8-0.3
			c-0.4-0.2-0.8-0.6-1.2-0.8c-0.3-0.2-0.4-0.5-0.2-0.7c0.3-0.6,0.6-1.2,1.4-1.4c0.2,0,0.3-0.1,0.4-0.2c0.1-0.1,0.3-0.2,0.3-0.3
			c0-0.1-0.2-0.2-0.3-0.3c-0.6-0.2-1.3-0.4-1.9-0.6c-0.1-0.1-0.3-0.2-0.3-0.4c-0.1-0.1,0-0.3-0.1-0.5c-0.2-0.7-0.1-0.8,0.5-1
			c0.3-0.1,0.5-0.3,0.8-0.5c0.1,0,0.1-0.3,0-0.3c-0.4-0.1-0.7-0.3-1.1-0.4c-0.2-0.1-0.5,0-0.7-0.2c-0.4-0.2-0.7-0.5-0.9-0.6
			c0-1.3,0.9-1.6,1.8-2c-0.3-0.2-0.6-0.4-0.8-0.3c-0.6,0.2-1.1-0.1-1.6-0.2c-0.4-0.1-0.6-0.3-0.7-0.8c0-0.2-0.1-0.4-0.3-0.4
			c-0.2-0.1-0.4,0-0.6,0c0,0,0,0.1,0,0.1c0.1,0.1,0.3,0.2,0.4,0.4c0.2,0.3,0.4,0.7,0.3,0.9c-0.2,0.7-0.6,1.3-1.4,1.5
			c-0.1,0-0.1,0.1-0.3,0.2c0.4,0.1,0.6,0.2,0.9,0.3c0.9,0.1,1.2,0.4,1.2,1.2C119.5,30.6,119.7,31.2,119.1,31.6z M169.8,126.7
			c-0.5-0.2-0.8-0.3-1.1-0.5c-0.3-0.1-0.7-0.3-1-0.5c-0.3-0.2-0.6-0.4-0.7-0.7c-0.2-0.5,0.4-1.4,1-1.6c0.2-0.1,0.3-0.2,0.5-0.3
			c-0.1-0.1-0.2-0.3-0.4-0.4c-0.5-0.4-1-0.6-1.1-1.4c-0.1-0.7,0.2-1.2,0.6-1.5c0.4-0.3,0.3-0.4,0.1-0.7c-0.3-0.3-0.4-0.7-0.3-1.2
			c0.1-0.4,0.2-0.8,0.6-1.1c0.3-0.2,0.4-0.5,0.6-0.8c0.1-0.2,0-0.4-0.3-0.5c-0.6-0.1-1.2-1.3-0.9-1.9c0.3-0.6,0.9-0.9,1.4-1.3
			c0.4-0.3,0.9-0.6,1.4-0.9c0.1-0.1,0.2-0.1,0.4-0.3c-1.6-0.6-3.1-0.4-4.6-0.3c0.1,0.3,0.3,0.4,0.4,0.6c0.1,0.2,0.2,0.4,0.3,0.6
			c0,0.1,0.1,0.2,0.1,0.3c-0.1,0.4-0.3,0.8-0.4,1.1c-0.1,0.4-0.3,0.5-0.6,0.6c-0.2,0-0.4,0.1-0.6,0.2c0.1,0.2,0.2,0.4,0.3,0.6
			c0,0.1,0.1,0.1,0.2,0.1c0.3,0.2,0.4,0.5,0.4,0.8c0,0.2,0.1,0.4,0.1,0.5c0.2,0.4,0.1,1-0.2,1.3c-0.4,0.3-0.9,0.6-1.3,0.9
			c-0.4,0.3-0.9,0.7-1.3,1c0,0.1,0,0.1,0,0.2c0.5,0.1,1,0.3,1.5,0.4c0.9,0.1,1.2,0.5,1.1,1.3c0,0.3-0.1,0.6-0.3,0.7
			c-0.5,0.3-0.9,0.9-1.6,1c-0.1,0-0.1,0.1-0.2,0.2c0.2,0.1,0.3,0.1,0.4,0.2c0.3,0.1,0.5,0.1,0.8,0.3c0.4,0.3,0.8,0.6,1.2,0.9
			c0.3,0.2,0.3,0.5,0.2,0.8c-0.4,0.6-0.7,1.2-1.5,1.3c-0.2,0-0.3,0.1-0.4,0.2c-0.1,0.1-0.3,0.2-0.3,0.3c0,0.1,0.2,0.3,0.3,0.3
			c0.6,0.2,1.2,0.4,1.8,0.7c0.2,0.1,0.3,0.2,0.4,0.4c0.1,0.2,0,0.4,0,0.5c0.1,0.7,0.1,0.7-0.6,1c-0.3,0.1-0.5,0.3-0.8,0.5
			c0,0,0,0.3,0,0.3c0.4,0.1,0.7,0.5,1.2,0.4c0.1,0,0.3,0,0.3,0.1c0.4,0.3,0.7,0.6,1.1,0.9c-0.3,0.4-0.4,0.9-0.8,1.2
			c-0.3,0.3-0.8,0.4-1.3,0.6c0,0,0,0.1,0,0.1c0.3,0.1,0.6,0.3,0.8,0.2c0.6-0.2,1,0.2,1.5,0.2c0.5,0.1,0.7,0.4,0.7,0.8
			c0,0.2,0.1,0.4,0.3,0.4c0.2,0.1,0.4,0,0.6,0c0,0,0-0.1,0-0.1c-0.1-0.1-0.3-0.2-0.4-0.3c-0.2-0.3-0.4-0.7-0.3-0.9
			c0.3-0.6,0.6-1.3,1.3-1.4c0.1,0,0.2-0.1,0.5-0.2c-0.4-0.1-0.7-0.2-0.9-0.3c-0.3-0.1-0.7-0.2-1-0.4c-0.4-0.4-0.4-2,0.1-2.4
			c-0.4-0.3-0.8-0.5-1.1-0.8c-0.1-0.1-0.2-0.2-0.2-0.3c0.3-0.5,0.5-1,0.9-1.4C169.1,126.9,169.4,126.8,169.8,126.7z M137.5,44.4
			c0-0.1,0-0.1,0-0.2c-0.6-0.3-1.3-0.6-1.9-0.9c0.1-1.1,0.1-1.1,0.8-1.8c0,0,0.1,0,0.1-0.1c0.2-0.6,1.2-0.3,1.3-1c0,0,0.2,0,0.2,0
			c0.1,0,0.2-0.1,0.4-0.1c-0.3-0.5-0.7-0.7-1.2-0.7c-0.9,0-1.4-0.6-1.9-1.2c0.3-0.2,0.5-0.4,0.7-0.6c0.4-0.5,0.9-0.9,1.6-0.9
			c0.4,0,0.6-0.4,0.4-0.6c-0.3-0.3-0.7-0.6-1.1-0.6c-0.5-0.1-1-0.3-1.4-0.6c-0.5-0.4-0.6-0.8-0.2-1.3c0.1-0.1,0.1-0.2,0.1-0.3
			c0.1-0.4,0.3-0.7,0.8-0.7c0.2,0,0.4-0.2,0.5-0.3c-0.2-0.1-0.3-0.3-0.5-0.4c-0.4-0.1-0.9-0.1-1.3-0.2c-0.1,0-0.3-0.2-0.3-0.3
			c-0.3-1.1,0.7-2.3,1.9-2.3c0.1,0,0.3-0.2,0.4-0.4c-0.1-0.1-0.2-0.3-0.3-0.3c-0.3-0.1-0.6,0-0.9-0.1c-0.5-0.1-1-0.2-1.5-0.4
			c-0.4-0.1-0.5-0.8-0.3-1.1c0-0.1,0-0.3,0-0.4c-0.4-0.1-0.9-0.2-1.3-0.4c0,0-0.1,0.1-0.1,0.1c0.2,0.3,0.6,0.6,0.5,1.1
			c-0.1,0.5-0.2,0.9-0.7,1.1c-0.3,0.1-0.6,0.4-1,0.6c0.4,0.3,0.7,0.5,1.1,0.6c0.9,0.2,1.2,0.9,1.5,1.6c0,0,0,0.1,0,0.2
			c-0.2,0.5-0.4,1-0.9,1.2c-0.2,0.1-0.3,0.3-0.5,0.5c0.1,0.1,0.3,0.3,0.4,0.3c0.6,0.3,1.3,0.6,1.6,1.2c0.1,0.3,0.3,0.6,0.3,0.9
			c0,0.3,0,0.6-0.4,0.8c-0.3,0.1-0.5,0.4-0.8,0.6c-0.2,0.2-0.2,0.4-0.1,0.7c0.2,0.4,0.5,0.7,1,0.9c0.3,0.1,0.5,0.3,0.3,0.6
			c-0.1,0.2-0.1,0.4,0,0.6c0.2,0.4,0,0.6-0.2,0.9c-0.1,0.1-0.2,0.2-0.3,0.3c-0.3,0.5-0.3,0.6,0.1,0.9c0.1,0.1,0.3,0.3,0.3,0.4
			c0.1,0.5,0.1,1.1-0.3,1.6c-0.3,0.4-0.5,0.9-0.3,1.6c0.2,0.5,0.2,1,0.1,1.5c0,0.4,0.1,1-0.5,1.1c-0.1,0-0.1,0.2-0.1,0.3
			c0,0.1,0.1,0.1,0.1,0.2c1.2-0.2,2.4-0.5,3.5-0.7c0-0.1,0-0.1,0.1-0.2c-0.2-0.1-0.4-0.3-0.5-0.4c-0.3-0.2-0.7-0.4-0.8-0.7
			c-0.1-0.6-0.1-1.2-0.1-1.7c0-0.1,0.2-0.2,0.3-0.3C136.5,44.7,137,44.5,137.5,44.4z M153.5,122.1c-0.3,0.2-0.5,0.4-0.8,0.6
			c-0.4,0.5-0.9,0.8-1.6,0.9c-0.3,0-0.6,0.4-0.4,0.6c0.3,0.3,0.7,0.5,1.1,0.7c0.4,0.2,0.8,0.2,1.1,0.4c0.7,0.4,0.9,1,0.4,1.7
			c0,0.1-0.1,0.2-0.1,0.3c-0.1,0.4-0.3,0.7-0.8,0.6c-0.2,0-0.4,0.2-0.6,0.3c0.2,0.1,0.3,0.3,0.6,0.4c0.4,0.1,0.8,0.1,1.3,0.3
			c0.1,0,0.3,0.2,0.3,0.3c0.3,0.6-0.2,1.1-0.4,1.6c-0.1,0.2-0.5,0.2-0.7,0.3c-0.1,0.1-0.3,0.1-0.4,0.2c-0.1,0-0.3,0.1-0.4,0
			c-0.4-0.2-0.5,0.1-0.5,0.3c-0.1,0.3,0.2,0.3,0.4,0.3c0.8,0.2,1.5,0.3,2.3,0.6c0.5,0.1,0.6,0.8,0.4,1.2c-0.1,0.1-0.1,0.3,0,0.3
			c0.1,0.2,1.2,0.4,1.4,0.3c-0.2-0.3-0.5-0.5-0.4-1.1c0.1-0.6,0.2-0.9,0.8-1.1c0.3-0.1,0.6-0.3,0.9-0.5c0-0.1,0-0.1,0-0.2
			c-0.3-0.2-0.7-0.5-1-0.6c-0.8-0.3-1.1-1-1.4-1.6c0,0,0-0.1,0-0.1c0.3-0.4,0.3-1,0.9-1.2c0.2-0.1,0.4-0.3,0.6-0.6
			c-0.1-0.1-0.3-0.3-0.4-0.4c-0.6-0.3-1.2-0.7-1.6-1.3c-0.4-0.6-0.3-1.3,0.2-1.7c0.3-0.2,0.5-0.4,0.8-0.6c0.2-0.2,0.3-0.4,0.1-0.7
			c-0.2-0.4-0.5-0.7-0.9-0.9c-0.3-0.1-0.5-0.3-0.3-0.7c0.1-0.1,0.1-0.4,0-0.6c-0.2-0.4,0-0.7,0.2-0.9c0.1-0.2,0.2-0.3,0.4-0.4
			c0.2-0.2,0.1-0.4,0-0.6c-0.7-0.7-0.7-1.3-0.2-2.1c0.3-0.5,0.6-0.9,0.4-1.6c-0.1-0.4-0.1-1-0.1-1.4c0.1-0.4-0.1-1,0.6-1.1
			c0.1,0,0.1-0.2,0.2-0.3c0-0.1-0.1-0.1-0.1-0.2c-1.2,0.2-2.4,0.4-3.6,0.6c0,0.1,0,0.1-0.1,0.2c0.2,0.1,0.4,0.3,0.6,0.4
			c0.2,0.2,0.7,0.4,0.7,0.6c0.1,0.6,0,1.2,0,1.7c0,0.1-0.2,0.3-0.3,0.3c-0.5,0.1-1,0.2-1.6,0.4c0.2,0.6,0.7,0.4,1,0.6
			c0.3,0.2,0.6,0.5,0.9,0.7c0,0.2-0.1,0.4-0.1,0.6c0,0.4-0.2,0.6-0.5,0.9c-0.2,0.1-0.3,0.4-0.5,0.4c-0.5,0.2-1,0.5-1.4,0.7
			c-0.1,0.1-0.2,0-0.4,0.1c0.2,0.2,0.3,0.3,0.4,0.4c0.4,0.2,0.9,0.3,1.3,0.5c0.2,0.1,0.4,0.1,0.5,0.2
			C152.9,121.5,153.2,121.8,153.5,122.1z M137.5,120.3c0,0-0.1,0-0.1,0c-0.3-0.7-0.5-1.4-0.8-2c-0.3-0.7,0-1.3,0.4-1.8
			c0.4-0.5,0.3-1.1,0.2-1.6c0-0.2-0.4-0.4-0.6-0.5c-0.2-0.1-0.5,0-0.8,0c-0.7,0-1.4,0.1-1.8,0.8c-0.1,0.2-0.4,0.3-0.7,0.4
			c-0.4,0.1-0.4,0.3-0.4,0.6c0,0.4,0.3,0.4,0.5,0.3c0.4,0,1.2,0.5,1.3,0.9c0,0.2-0.1,0.5-0.3,0.7c-0.4,0.3-1,0.2-1.2,0.8
			c0,0-0.1,0-0.1,0c-0.4,0.2-0.7,0.3-1.1,0.5c-0.1,0.1-0.4,0.3-0.3,0.3c0.1,0.2,0.2,0.5,0.4,0.6c0.5,0.2,1,0.3,1.5,0.4
			c0.5,0.1,1.1,0.6,1.2,1.1c0.1,0.4-0.1,0.8-0.6,1.1c-0.4,0.2-0.5,0.5-0.2,0.7c0.3,0.2,0.6,0.3,1,0.4c0.3,0.1,0.4,0.2,0.3,0.5
			c-0.1,0.2-0.1,0.4-0.2,0.6c0,0.1-0.1,0.3-0.2,0.4c-0.1,0.2-0.3,0.3-0.5,0.5c-0.1,0.1-0.2,0.2-0.3,0.2c-0.5-0.3-1,0-1.5,0.1
			c-0.3,0-0.5,0.1-0.7,0.3c-0.1,0-0.2,0.2-0.2,0.3c0,0.1,0.1,0.3,0.3,0.3c0.5,0.1,0.9,0.2,1.4,0.3c0.4,0.1,0.6,0.3,0.6,0.7
			c0,0.7,0,0.7,0.7,1c0.1,0,0.2,0.1,0.3,0.1c0.5,0.3,0.9,0.1,1-0.4c0-0.5,0.4-0.7,0.8-0.9c0.2-0.1,0.4-0.2,0.6-0.3
			c-0.2-0.3-0.3-0.5-0.5-0.7c-0.2-0.2-0.4-0.3-0.7-0.5c0.2-0.3,0.3-0.6,0-0.9c0,0,0-0.2,0.1-0.3c0.2-0.3,0.4-0.6,0.7-0.8
			c0.3-0.3,0.2-0.4-0.1-0.7c-0.1-0.1-0.2-0.2-0.2-0.3c-0.1-0.3-0.1-0.6-0.1-0.9c-0.1-0.7-0.5-1.5,0.5-2
			C137.3,120.6,137.4,120.4,137.5,120.3z M151.5,39.5c0.3,0.7,0.6,1.3,0.8,1.9c0.2,0.5,0.4,1-0.1,1.5c-0.2,0.2-0.2,0.4-0.4,0.7
			c-0.2,0.5-0.2,1.5,0.2,1.7c0.2,0.1,0.5,0.2,0.8,0.1c0.8,0,1.7,0,2.2-0.9c0.1-0.2,0.5-0.3,0.7-0.4c0.3-0.1,0.3-0.3,0.3-0.6
			c0-0.3-0.1-0.4-0.4-0.4c-0.6,0.1-1-0.1-1.3-0.6c-0.3-0.4-0.2-0.7,0.2-1c0.3-0.3,0.9-0.2,1.1-0.8c0,0,0.1-0.1,0.2-0.1
			c0.3-0.2,0.7-0.3,1-0.5c0.4-0.2,0.4-0.8-0.1-0.9c-0.5-0.2-1-0.3-1.5-0.4c-0.6-0.1-1.1-0.4-1.3-1c-0.1-0.4,0.1-0.9,0.5-1.1
			c0.6-0.4,0.6-0.6,0-0.9c-0.2-0.1-0.4-0.1-0.6-0.2c-0.1-0.1-0.3-0.2-0.3-0.3c0-0.4,0.1-0.7,0.2-1c0.1-0.3,0.4-0.5,0.7-0.8
			c0.1-0.1,0.2,0,0.3,0c0.8,0.1,1.5-0.1,2.1-0.5c0.1-0.1,0.2-0.2,0.1-0.3c-0.1-0.1-0.2-0.3-0.3-0.3c-0.5-0.1-0.9-0.2-1.4-0.2
			c-0.3-0.1-0.7-0.5-0.6-0.7c0.1-0.5-0.1-0.8-0.6-0.9c-0.2,0-0.3-0.1-0.4-0.2c-0.5-0.3-0.9-0.1-1,0.6c0,0.2-0.1,0.4-0.2,0.5
			c-0.3,0.3-0.7,0.5-1.2,0.8c0.4,0.4,0.8,0.7,1.2,1.1c-0.2,0.2-0.3,0.5,0,0.8c0.1,0.1,0,0.3,0,0.4c-0.2,0.3-0.5,0.6-0.7,0.9
			c-0.1,0.1-0.1,0.5,0,0.5c0.3,0.2,0.3,0.3,0.3,0.7c0,0.1,0.1,0.3,0.1,0.5C152.4,38,152.5,38.9,151.5,39.5
			C151.5,39.5,151.4,39.5,151.5,39.5z M207.9,54.1c0-0.1,0-0.2,0-0.3c-0.2-0.3-0.4-0.6-0.6-0.9c-0.3-0.6-0.5-1.3-1-1.8
			c-0.4-0.5-0.4-1.3-0.9-1.8c-0.5-0.5-0.8-1.1-1.2-1.7c0,0-0.1,0-0.1,0c-0.4,0-0.7-0.4-1.1-0.1c0,0-0.2,0-0.2,0
			c-0.5-0.5-1.2-0.2-1.8-0.3c-0.5-0.1-1,0.1-1.5,0.1c-0.4,0-0.8,0.2-1.1,0.1c-0.4-0.1-0.8-0.1-1.2-0.1c-0.9,0-1.7,0-2.6-0.1
			c-0.5,0-0.9-0.1-1.4-0.1c-0.2,0-0.4,0-0.6,0c0,0,0,0.1-0.1,0.1c0.2,0.2,0.3,0.4,0.5,0.5c0.7,0.3,1.5,0.6,2.2,0.9
			c0.5,0.2,1,0.3,1.5,0.5c0.7,0.2,1.4,0.4,2.1,0.7c1,0.4,1.9,0.9,2.8,1.3c1.1,0.5,2.3,0.9,3.4,1.4c0.3,0.1,0.5,0.4,0.9,0.4
			c0.1,0,0.1,0.1,0.2,0.2c0.2,0.2,0.4,0.4,0.6,0.5C207.1,53.7,207.5,53.9,207.9,54.1z M96.4,111.3c0-0.1,0.1-0.1,0.1-0.2
			c-0.2-0.2-0.4-0.4-0.6-0.5c-0.9-0.4-1.8-0.8-2.7-1.2c-0.7-0.3-1.5-0.6-2.2-0.9c-0.9-0.4-1.8-0.7-2.7-1.2c-1.5-0.8-3-1.5-4.5-2.3
			c0,0-0.1,0-0.1,0c-0.2-0.1-0.4-0.2-0.5-0.3c-0.2-0.1-0.3-0.3-0.5-0.4c-0.4-0.2-0.8-0.5-1.2-0.8c0.1,0.3,0.1,0.6,0.2,0.8
			c0.2,0.4,0.4,0.7,0.6,1.1c0.1,0.3,0.2,0.6,0.4,0.8c0.4,0.4,0.5,0.9,0.7,1.4c0.1,0.3,0.4,0.5,0.5,0.8c0,0.8,1,1.1,1.1,1.8
			c0,0,0.1,0,0.1,0c0.4,0,0.7,0.4,1.1,0.1c0,0,0.2,0,0.2,0.1c0.6,0.5,1.3,0.4,1.9,0.4c0.8,0,1.6,0.2,2.4-0.1c0,0,0.1,0,0.1,0
			c0.6,0.1,1.2,0.2,1.7,0.3c0.3,0,0.6,0.1,0.9,0.1c0.8,0.1,1.7-0.2,2.5,0.1C96,111.4,96.2,111.3,96.4,111.3z M192.4,36.9
			c0.3,0,0.6,0,0.8-0.1c0.8-0.3,1.6-0.7,2.4-1.1c0.2-0.1,0.3-0.2,0.5-0.3c0.8-0.4,1.6-0.8,2.4-1.2c0.3-0.1,0.5-0.3,0.7-0.4
			c0.7-0.6,1.4-1.2,2.1-1.8c0,0,0.1,0,0.1-0.1c0.5-0.3,1.1-0.5,1.6-0.8c0.1-0.1,0.2-0.2,0.3-0.2c0.9-0.6,1.8-1.3,2.7-1.9
			c0.1-0.1,0.3-0.2,0.4-0.3c0.6-0.4,1.5-0.3,2-1c0,0,0.1,0,0.1,0c0.5-0.1,1-0.1,1.5-0.2c0.8-0.1,1.6,0.1,2.1-0.7
			c0.1-0.2,0.3-0.5,0.4-0.7c0.1-0.2,0-0.4,0.1-0.6c-0.2,0-0.4-0.1-0.6,0c-0.7,0.2-1.4,0.6-2.2,0.5c-0.2,0-0.5,0.2-0.7,0.3
			c-0.1,0-0.1,0.1-0.2,0.1c-0.7,0.1-1.3,0.2-1.9,0.6c-0.5,0.3-1,0.6-1.5,0.8c-0.3,0.2-0.6,0.5-1,0.6c-1,0.3-1.8,0.7-2.5,1.4
			c-0.1,0.1-0.2,0.2-0.3,0.2c-0.5-0.1-0.8,0.4-1.2,0.6c-0.1,0-0.3,0.1-0.4,0.2c-0.9,0.7-1.9,1.3-2.8,2.1c-0.3,0.3-0.7,0.6-1,0.8
			c-0.4,0.3-0.8,0.7-1.2,1c-0.2,0.2-0.5,0.3-0.7,0.5c-0.7,0.6-1.1,1.4-2,1.7C192.4,36.8,192.4,36.9,192.4,36.9z M96.4,121.3
			c-0.5,0.1-0.9,0.2-1.3,0.3c-0.3,0.1-0.5,0.2-0.7,0.3c-0.3,0.1-0.6,0.2-0.9,0.4c-0.3,0.1-0.5,0.4-0.8,0.5c-0.8,0.4-1.6,0.7-2.4,1.1
			c-0.3,0.1-0.6,0.3-0.8,0.5c-0.7,0.6-1.4,1.2-2.2,1.8c0,0-0.1,0-0.1,0.1c-0.6,0.3-1.2,0.6-1.8,0.8c-0.1,0-0.1,0.1-0.2,0.2
			c-0.9,0.6-1.7,1.2-2.6,1.7c-0.8,0.6-1.9,0.5-2.7,1.2c0,0-0.1,0-0.2,0c-0.9,0.1-1.8,0.1-2.7,0.2c-0.2,0-0.4,0.2-0.6,0.3
			c-0.4,0.3-0.5,0.7-0.7,1.1c-0.1,0.1-0.1,0.4,0,0.5c0.1,0.1,0.3,0.1,0.4,0.1c0.1,0,0.2-0.1,0.3-0.1c0.7-0.2,1.3-0.5,2-0.3
			c0.2,0.1,0.5-0.2,0.8-0.3c0.1,0,0.1-0.1,0.2-0.1c0.9,0,1.6-0.4,2.4-0.7c0.4-0.2,0.7-0.4,1.1-0.6c0.4-0.2,0.7-0.5,1.1-0.6
			c0.9-0.2,1.7-0.6,2.5-1.3c0.1-0.1,0.3-0.3,0.3-0.2c0.5,0.2,0.7-0.3,1-0.4c1.2-0.6,2.4-1.3,3.4-2.2c0.2-0.2,0.3-0.4,0.5-0.6
			c0.8-0.6,1.7-1.1,2.6-1.7c0.7-0.5,1.2-1.3,2-1.6C96.4,121.5,96.4,121.5,96.4,121.3z M143.7,40.7c0,0,0-0.1,0-0.1
			c-0.3-0.1-0.6-0.1-0.9-0.2c-0.5-0.1-0.9-0.3-1.1-0.8c-0.3-0.8,0-1.4,0.7-1.7c0.4-0.2,0.8-0.3,1.2-0.5c0.3-0.2,0.3-0.4,0.1-0.7
			c-0.4-0.5-0.9-0.7-1.4-0.8c-0.9-0.2-1-0.3-1.1-1.2c0-0.3-0.2-0.5,0.2-0.7c0.2-0.1,0.3-0.3,0.3-0.5c0-0.1-0.2-0.3-0.4-0.4
			c-0.2-0.1-0.5-0.2-0.7-0.3c-0.3-0.1-0.6-0.3-0.8-0.4c-0.3,0.5-0.6,1.2-0.9,1.8c1.5,0.6,2,1.9,1.7,3.5c0,0-0.1,0-0.3,0
			c-0.3,0.1-0.5,0.5-0.3,0.7c0.1,0.2,0.4,0.4,0.5,0.6c0.3,0.5,0.5,1,0.7,1.6c0,0.1-0.3,0.3-0.4,0.5c0,0,0,0.1,0,0.1
			c0.1,0.5-0.3,0.6-0.5,0.8c-0.2,0.2-0.5,0.3-0.8,0.5c0.2,0.2,0.4,0.4,0.6,0.6c0.5,0.5,0.6,1.5,0.1,1.9c-0.6,0.5-0.7,1.1-0.4,1.7
			c0.4,0.8,0.4,1.3,1.4,0.8c0.1,0,0.2,0,0.2,0c0.7-0.1,0.7-0.2,0.7-0.8c0-0.3,0-0.6,0.1-1c0.1-0.3,0.2-0.5,0.3-0.9c0,0,0.1,0,0.2,0
			c0.3-0.2,0.5-0.4,0.8-0.6c-0.1-0.2-0.3-0.4-0.4-0.5c-0.6-0.4-0.9-1-0.8-1.7c0-0.2,0.2-0.5,0.4-0.6C143,41,143.3,40.9,143.7,40.7z
			 M145.2,119.6c0,0,0,0.1,0,0.1c0.3,0.1,0.6,0.2,0.9,0.2c0.5,0.1,0.9,0.3,1.1,0.8c0.2,0.7-0.1,1.4-0.8,1.7
			c-0.4,0.2-0.9,0.3-1.4,0.5c-0.3,0.1-0.4,0.4-0.2,0.7c0.3,0.4,0.7,0.7,1.2,0.8c0.9,0.2,1.4,0.6,1.3,1.6c0,0,0,0,0,0
			c-0.1,0.1-0.1,0.3-0.2,0.4c-0.1,0.2-0.3,0.3-0.5,0.5c0.2,0.2,0.4,0.3,0.6,0.5c0.4,0.4,1.2,0.2,1.3,0.8c0.3-0.6,0.6-1.2,1-1.9
			c-1.5-0.7-1.9-2-1.6-3.6c0,0,0,0,0.1,0c0.6-0.1,0.7-0.3,0.4-0.9c-0.2-0.4-0.5-0.7-0.7-1.1c-0.1-0.2-0.1-0.5-0.2-0.7
			c-0.1-0.2-0.1-0.4,0.1-0.5c0.1,0,0.3-0.2,0.3-0.3c-0.1-0.4,0.2-0.5,0.4-0.6c0.3-0.2,0.6-0.3,0.9-0.5c-0.2-0.2-0.4-0.4-0.5-0.6
			c-0.2-0.3-0.4-0.6-0.4-0.9c0.1-0.5,0.1-1.1,0.7-1.3c0.1,0,0.1-0.2,0.2-0.3c0.3-0.7-0.1-1.4-0.4-2c-0.4-0.5-0.9,0-1.4,0
			c-0.2,0-0.4,0.1-0.5,0.3c-0.1,0.1,0,0.3,0,0.5c0,0.3,0,0.6-0.1,0.9c-0.1,0.3-0.3,0.6-0.4,0.9c0,0-0.1-0.1-0.2,0
			c-0.3,0.2-0.5,0.4-0.8,0.6c0.1,0.2,0.2,0.4,0.4,0.5c0.5,0.5,0.9,1,0.7,1.7c-0.1,0.2-0.2,0.5-0.4,0.7
			C145.9,119.2,145.5,119.4,145.2,119.6z M191,44.7c0.3,0.1,0.5,0.2,0.8,0.2c0.5,0,1-0.2,1.5,0c0.5,0.2,1.1,0.1,1.7,0.1c1,0,2,0,3,0
			c0.5,0,1,0,1.5,0c0.4,0,0.7,0.1,1.1,0.1c0.7,0,1.5,0.1,2.2,0c0.5,0,1-0.1,1.4-0.2c0.7-0.2,1-0.9,1.4-1.3c0.7-0.8,1.4-1.6,2.1-2.4
			c0.3-0.4,0.6-0.9,1-1.4c-0.2,0-0.3-0.1-0.4-0.1c-0.4,0.2-0.7,0.3-1.1,0.5c-0.1,0.1-0.3,0.1-0.4,0.1c-0.5,0.1-1,0.3-1.5,0.4
			c-0.4,0.1-0.8,0.3-1.2,0.5c-0.2,0.1-0.4,0.2-0.6,0.2c-0.3,0.1-0.5,0.3-0.8,0.3c-0.7,0-1.1,0.3-1.5,0.7c-0.3,0-0.5,0-0.7,0.1
			c-0.3,0.1-0.6,0.3-0.9,0.5c-0.3,0.2-0.6,0.3-1,0.4c-0.7,0.2-1.5,0.3-2.2,0.5c-0.1,0-0.1,0.1-0.2,0c-0.5-0.3-1,0.1-1.5,0.2
			c-0.2,0-0.6,0-0.7,0.2c-0.2,0.4-0.5,0.3-0.7,0.1c-0.1-0.1-0.3-0.1-0.4-0.1C192.3,44.5,191.7,44.6,191,44.7z M98.1,113.7
			c-0.3-0.1-0.5-0.2-0.8-0.2c-0.5-0.1-1.1,0.2-1.6-0.1c-0.2-0.1-0.4,0-0.6,0c-0.7-0.1-1.3-0.2-2-0.3c-0.5,0-1,0-1.5,0
			c-0.5,0-1,0-1.6,0c-0.2,0-0.4,0-0.6,0c-0.3,0-0.6-0.1-0.9-0.1c-0.7,0-1.5-0.1-2.2-0.1c-0.5,0-1,0.1-1.5,0.2
			c-0.7,0.1-1,0.8-1.4,1.3c-0.8,0.7-1.5,1.5-2.2,2.3c-0.4,0.4-0.6,0.9-1,1.4c0.2,0,0.3,0.1,0.4,0.1c0.4-0.1,0.8-0.3,1.2-0.5
			c0.1,0,0.2-0.1,0.4-0.1c0.5-0.1,1.1-0.2,1.6-0.4c0.4-0.1,0.9-0.3,1.3-0.4c0.2-0.1,0.3-0.1,0.5-0.2c0.3-0.1,0.6-0.3,0.9-0.3
			c0.7,0,1.1-0.3,1.5-0.7c0.2,0,0.4,0.1,0.6,0c0.5-0.2,1.1-0.3,1.6-0.6c0.5-0.3,1-0.3,1.5-0.4c0.6-0.1,1.2-0.5,1.9-0.3
			c0.3,0.1,0.7-0.1,1.1-0.2c0.6-0.1,1.1-0.4,1.8-0.2C96.8,114,97.4,113.8,98.1,113.7z M95.7,116.2c0-0.1,0-0.1,0-0.2
			c-0.2,0-0.3,0-0.5,0c-0.2,0-0.4,0-0.7,0.1c-0.9,0.1-1.8,0.1-2.7,0.4c-1.6,0.5-3.1,1.2-4.6,1.7c-0.5,0.2-1.1,0.1-1.7,0.5
			c-0.6,0.3-1.3,0.4-1.9,0.6c-0.3,0.1-0.5,0.3-0.8,0.4c-0.6,0.2-1.2,0.2-1.8,0.5c-0.5,0.3-1,0.3-1.5,0.3c-0.7,0-1.3,0.5-1.5,1.2
			c-0.1,0.5-0.2,1-0.4,1.5c-0.1,0.2-0.1,0.4-0.2,0.6c0.1,0,0.1,0.1,0.2,0.1c0.5-0.2,1.1-0.4,1.6-0.6c0.1-0.1,0.3-0.2,0.4-0.2
			c0.6-0.1,1.2-0.2,1.7-0.6c0.6-0.4,1.5-0.5,1.9-1.2c0,0,0.1,0,0.1,0c0.6-0.2,1.2-0.4,1.8-0.7c1.1-0.5,2.2-1,3.2-1.5
			c0.3-0.2,0.6-0.5,1.1-0.4c0,0,0.1-0.1,0.1-0.1c0.1-0.1,0.2-0.1,0.4-0.2c0.4-0.1,0.7-0.2,1.1-0.3c0.7-0.2,1.3-0.4,2-0.7
			c0.3-0.1,0.5-0.3,0.7-0.4c0.4-0.2,0.8-0.2,1.2-0.4C95.3,116.5,95.5,116.3,95.7,116.2z M211.2,33.8c-0.3,0-0.4,0.1-0.6,0.1
			c-0.8,0.2-1.4,0.8-2.2,0.9c-0.2,0-0.5,0.1-0.7,0.2c-1,0.5-1.9,1.2-2.9,1.7c-0.6,0.3-1.2,0.7-1.9,1c-0.2,0.1-0.4,0.1-0.5,0.2
			c-0.4,0.2-0.9,0.4-1.3,0.7c-0.7,0.4-1.5,0.9-2.2,1.1c-1.5,0.4-2.9,1-4.3,1.7c-0.3,0.1-0.6,0.3-0.9,0.4c-0.1,0.1-0.2,0.2-0.2,0.4
			c0.1,0,0.3,0.1,0.4,0.1c0.3,0,0.6-0.1,0.9-0.1c0.9-0.2,1.8-0.3,2.6-0.6c0.9-0.3,1.7-0.9,2.6-1.1c0.9-0.2,1.7-0.9,2.7-0.9
			c0.1,0,0.2-0.1,0.4-0.2c0.1-0.1,0.2-0.2,0.3-0.2c0.6-0.2,1.3-0.4,1.9-0.6c0.3-0.1,0.5-0.3,0.8-0.4c0.6-0.2,1.2-0.3,1.8-0.5
			c0.5-0.3,0.9-0.3,1.4-0.3c0.8,0,1.4-0.5,1.5-1.3c0.1-0.5,0.2-1,0.3-1.5C211,34.3,211.1,34.1,211.2,33.8z M208.1,60.9
			c0.2-0.8,0.3-1.5,0.4-2.1c0-0.3,0-0.8-0.2-1c-0.2-0.3-0.7-0.5-1-0.8c-0.4-0.3-0.6-0.9-1.2-0.9c-0.1,0-0.2-0.2-0.3-0.3
			c-0.4-0.3-0.8-0.7-1.2-1c-0.4-0.3-0.8-0.5-1.2-0.8c-0.1-0.1-0.2-0.1-0.3-0.1c-0.5,0-0.9-0.3-1.3-0.5c-1-0.5-2.1-0.8-3-1.5
			c0,0-0.1-0.1-0.2-0.1c-0.8-0.2-1.7-0.4-2.5-0.7c-0.4-0.2-0.8-0.4-1.3-0.4c-0.1,0-0.1-0.1-0.2-0.2c-0.3-0.2-0.6-0.4-0.9-0.5
			c-0.4-0.2-0.9-0.3-1.4-0.5c-0.4-0.2-0.7-0.4-1.1-0.5c-0.6-0.2-1.2-0.4-1.8-0.6c-1-0.3-1.9-0.8-3-0.8c-0.2,0-0.3,0-0.5,0.1
			c0.1,0.1,0.2,0.3,0.4,0.4c0.1,0,0.2,0,0.3,0c0.4,0.1,0.9,0,1.2,0.2c0.9,0.4,1.9,0.8,2.8,1.2c0.4,0.2,0.8,0.3,1.2,0.5
			c0.6,0.2,1.2,0.5,1.8,0.7c0.3,0.1,0.7,0.1,1,0.2c0.7,0.3,1.4,0.5,2.1,0.9c0.5,0.3,0.9,0.6,1.3,0.9c0.1,0.1,0.2,0.2,0.3,0.2
			c0.4,0,0.6,0.1,0.9,0.4c0.6,0.5,1.3,0.9,1.9,1.3c0.2,0.1,0.4,0.2,0.6,0.4c1.1,0.9,2.2,1.8,3.3,2.7c0.3,0.2,0.4,0.5,0.7,0.8
			c0.6,0.6,1.1,1.2,1.7,1.7C207.7,60.5,207.9,60.6,208.1,60.9z M81.9,96.9c-0.1,0.1-0.2,0.1-0.3,0.2c-0.2,0.6-0.3,1.3-0.5,1.9
			c-0.1,0.5-0.1,1,0.5,1.3c0.1,0.1,0.2,0.2,0.3,0.3c0.5,0.4,0.6,1.2,1.5,1.2c0.1,0,0.2,0.2,0.3,0.3c0.4,0.3,0.7,0.7,1.1,1
			c0.4,0.3,0.7,0.6,1.1,0.8c0.2,0.1,0.4,0.2,0.6,0.2c0.1,0,0.3,0,0.4,0.1c0.9,0.4,1.8,0.9,2.7,1.3c0.1,0,0.2,0.1,0.2,0.2
			c0.8,0.9,1.9,1,2.9,1.3c0.5,0.2,1,0.7,1.6,0.5c0,0,0.1,0.1,0.2,0.2c0.3,0.2,0.5,0.4,0.8,0.5c0.4,0.2,0.9,0.3,1.4,0.5
			c0.4,0.2,0.7,0.4,1.1,0.6c0.6,0.3,1.2,0.5,1.8,0.7c1,0.3,1.8,0.9,2.9,0.9c0.2,0,0.3,0,0.5-0.1c-0.1-0.1-0.2-0.3-0.4-0.4
			c-0.1-0.1-0.2,0-0.3-0.1c-0.5-0.1-1-0.2-1.5-0.4c-1.2-0.5-2.5-1-3.7-1.7c-1.2-0.7-2.5-0.8-3.7-1.5c-0.2-0.1-0.5-0.3-0.7-0.4
			c-0.7-0.1-1.1-0.6-1.6-0.9c-0.3-0.2-0.5-0.5-1-0.4c-0.1,0-0.2-0.1-0.3-0.2c-0.1-0.1-0.2-0.2-0.3-0.3c-0.3-0.2-0.7-0.4-1-0.6
			c-0.6-0.5-1.3-1.1-1.9-1.6c-0.9-0.8-1.8-1.6-2.7-2.4c-0.2-0.2-0.4-0.5-0.6-0.8c-0.5-0.6-1.1-1.2-1.7-1.9
			C81.9,97.2,81.9,97,81.9,96.9z M146.9,11.2c-0.1,0-0.2,0-0.2,0c-0.3,0.1-0.7,0.2-1,0.2c-0.9-0.2-1.6,0.1-2.4,0.4
			c-0.5,0.2-0.9,0.4-1.4,0.6c-0.5,0.2-1,0.3-1.5,0.4c-0.3,0.1-0.7,0.3-1,0.4c-0.8,0.3-1.6,0.6-2.4,0.9c-0.8,0.3-1.5,0.7-2.3,1.1
			c-0.6,0.3-1.2,0.4-1.7,1c-0.2,0.3-0.6,0.4-0.9,0.5c-0.6,0.2-1.2,0.3-1.5,0.9c0,0.1-0.1,0.1-0.2,0.1c-0.6,0.1-1,0.5-1.4,0.9
			c-0.2,0.3-0.5,0.5-0.8,0.7c-0.3,0.2-0.6,0.4-0.8,0.6c-0.4,0.4-0.9,0.8-1.3,1.2c-0.3,0.3-0.4,0.8-0.9,0.9c-0.3,0.1-0.5,0.5-0.7,0.7
			c-0.2,0.2-0.5,0.4-0.7,0.5c0.6,0.4,0.8,0.4,1.1-0.2c0-0.1,0.1-0.2,0.2-0.2c1-0.8,2-1.5,3.1-2.3c0.6-0.4,1.1-0.7,1.7-1.1
			c0.2-0.1,0.5-0.2,0.6-0.4c0.4-0.4,0.6-1.1,1.3-1c0,0,0.1,0,0.1,0c0.9-0.5,1.8-1,2.7-1.5c0.5-0.3,1.1-0.5,1.6-0.7
			c1-0.5,2-1.1,3-1.5c0.8-0.4,1.7-0.6,2.6-0.9c0.6-0.2,1.2-0.4,1.8-0.6c0.4-0.1,0.7-0.4,1-0.6c0.1-0.1,0.2,0,0.4-0.1
			c0.5-0.1,1-0.2,1.5-0.3C146.8,11.9,147,11.6,146.9,11.2z M140.7,148.7c0,0.1,0.1,0.1,0.1,0.2c0.7,0,1.3,0,2,0c0,0,0,0,0,0
			c1.2-0.3,2.3-0.7,3.5-1c0.7-0.2,1.3-0.6,1.9-0.7c0.7-0.1,1.4-0.3,2.1-0.6c0.5-0.3,1.1-0.5,1.6-0.7c0.4-0.2,0.8-0.3,1.2-0.5
			c0.5-0.2,1.1-0.3,1.6-0.8c0.3-0.3,0.6-0.5,1-0.6c0.6-0.2,1.3-0.3,1.6-0.9c0,0,0.1-0.1,0.2-0.1c0.6-0.1,1.1-0.5,1.5-0.9
			c0.2-0.2,0.4-0.4,0.7-0.6c0.6-0.5,1.2-0.9,1.8-1.4c0.5-0.4,0.6-1.2,1.3-1.3c0,0,0-0.1,0.1-0.1c0.2-0.2,0.3-0.3,0.5-0.5
			c0.3-0.2,0.6-0.5,1-0.7c-0.6-0.4-0.8-0.3-1,0c-0.3,0.4-0.6,0.8-1,1c-1.4,0.9-2.8,1.8-4.3,2.6c-0.2,0.1-0.5,0.2-0.6,0.3
			c-0.4,0.4-0.6,1.1-1.3,1c0,0-0.1,0-0.1,0.1c-0.9,0.4-1.7,0.9-2.6,1.3c-0.6,0.3-1.2,0.5-1.9,0.7c-1,0.4-1.9,1-2.9,1.4
			c-0.8,0.3-1.7,0.6-2.6,0.9c-0.6,0.2-1.2,0.3-1.8,0.5c-0.4,0.1-0.7,0.3-1,0.5c-0.1,0-0.2,0.1-0.3,0.1c-0.6-0.2-1.1,0.1-1.6,0.3
			C141.1,148.2,140.9,148.5,140.7,148.7z M162.2,34.2c0-0.1,0-0.1,0-0.2c-0.1,0-0.1-0.1-0.2-0.1c-0.7,0-1-0.5-1.2-1
			c-0.2-0.4-0.5-0.6-0.8-0.7c-0.1-0.1-0.3,0-0.4,0c0,0.1,0,0.3,0.1,0.4c0.4,1,0.3,1.4-0.6,2c-0.3,0.2-0.3,0.4-0.1,0.7
			c0.4,0.6,0.3,1.6-0.2,2.1c-0.3,0.3-0.3,0.6,0,0.8c0.7,0.6,1,1.6,0.8,2.5c-0.1,0.3-0.3,0.6-0.5,0.8c-0.2,0.2-0.4,0.3-0.2,0.6
			c0.3,0.6,0.5,1.3,0.2,2c0,0.1,0,0.3,0,0.5c0.8-0.1,1.5-0.2,2.2-0.3c-0.6-0.5-0.5-0.5-0.3-1.2c0-0.1,0.1-0.2,0.1-0.3
			c0.2-0.6,0.6-1,1.2-1.1c0.3-0.1,0.6-0.3,0.6-0.7c-0.4-0.2-0.9-0.4-1.3-0.6c-0.5-0.2-0.8-0.9-0.6-1.3c0.2-0.4,0.4-0.9,1-1
			c0.1,0,0.2-0.1,0.3-0.2c0.1-0.1,0.3-0.3,0.3-0.4c-0.1-0.1-0.2-0.3-0.4-0.3c-0.4-0.2-0.9-0.3-1.3-0.5c-0.6-0.3-0.7-0.9-0.9-1.4
			C160.4,34.6,161.3,34.3,162.2,34.2z M127.8,115.3c0.6,0.6,0.6,0.6,0.3,1.2c0,0.1,0,0.1-0.1,0.2c-0.3,0.6-0.7,1-1.3,1.1
			c-0.3,0.1-0.6,0.3-0.6,0.6c0.2,0.2,0.4,0.4,0.6,0.5c0.2,0.1,0.5,0.2,0.7,0.3c0.4,0.3,0.7,1,0.5,1.3c-0.3,0.4-0.4,0.9-1.1,0.9
			c-0.1,0-0.2,0.1-0.3,0.2c-0.1,0.1-0.3,0.3-0.2,0.3c0,0.1,0.2,0.3,0.3,0.3c0.4,0.2,0.9,0.3,1.3,0.5c0.6,0.3,0.7,1,0.9,1.6
			c-0.4,0.3-0.7,0.6-1.2,0.8c-0.4,0.2-0.9,0-1.3,0.4c0.1,0.1,0.2,0.2,0.2,0.2c0.7,0,1,0.5,1.2,1.1c0.1,0.4,0.4,0.6,0.7,0.7
			c0.1,0.1,0.3,0,0.5,0.1c0-0.1,0-0.3,0-0.4c-0.4-1-0.3-1.3,0.7-1.9c0.3-0.2,0.3-0.4,0.2-0.7c-0.4-0.8-0.3-1.6,0.4-2.2
			c0.3-0.2,0.3-0.5,0.1-0.7c-0.4-0.3-0.5-0.8-0.7-1.2c-0.4-0.8-0.1-1.4,0.2-2c0-0.1,0.2-0.2,0.3-0.2c0.3-0.1,0.4-0.3,0.3-0.6
			c-0.2-0.5-0.4-1.1-0.2-1.6c0.1-0.2,0.1-0.5,0.2-0.8C129.4,115.1,128.7,115.2,127.8,115.3z M146.7,36.2c-0.1,0.5-0.2,0.8-0.2,1.2
			c0,0.3-0.1,0.4-0.3,0.6c-0.3,0.3-0.4,0.7-0.5,1.1c0,0.1,0.4,0.3,0.5,0.5c0.1,0.2,0.3,0.5,0.2,0.7c-0.1,0.4-0.3,0.7-0.4,1
			c-0.1,0.3-0.1,0.9,0.1,1c0.7,0.5,0.3,1.2,0.2,1.7c-0.3,0.8-0.8,1.5-1.3,2.3c-0.1,0.1-0.1,0.3-0.1,0.4c0.1,0,0.3,0.1,0.4,0.1
			c0.8-0.1,1.7-0.2,2.5-0.4c0.5-0.1,1-0.2,1.6-0.3c-0.6-0.2-1.1-0.3-1.6-0.5c-0.6-0.2-0.7-0.3-0.5-1c0-0.1,0-0.1,0-0.2
			c0.2-0.3,0.3-0.8,0.6-0.9c0.6-0.2,1-0.8,1.7-0.9c0.1,0,0.1-0.1,0.2-0.2c0.1-0.1,0.2-0.3,0.3-0.4c0-0.2,0-0.4-0.1-0.7
			c-0.5-0.2-1.1-0.4-1.7-0.6c-0.6-0.1-0.7-0.7-1.1-1c0,0,0-0.2,0.1-0.3c0.4-0.6,0.9-0.9,1.6-1c0.7-0.1,0.9-0.4,1-1
			c-0.4-0.5-0.9-0.8-1.6-0.6c-0.1,0-0.3-0.1-0.4-0.1C147.4,36.7,147.1,36.4,146.7,36.2z M144.1,113.3c-1.5,0.2-2.9,0.3-4.4,0.5
			c0.5,0.3,1,0.4,1.5,0.6c0.2,0.1,0.4,0.3,0.6,0.5c0.1,0.1-0.1,0.3-0.1,0.5c0,0.1,0,0.1,0,0.2c-0.2,0.3-0.3,0.8-0.5,0.8
			c-0.6,0.2-1.1,0.8-1.8,0.8c-0.1,0-0.1,0.1-0.2,0.2c-0.1,0.1-0.2,0.3-0.3,0.4c0,0.2,0,0.4,0,0.7c0.2,0.1,0.4,0.2,0.6,0.3
			c0.8,0.3,1.7,0.4,2.1,1.3c0.1,0.1,0.1,0.4,0,0.5c-0.4,0.5-0.9,0.9-1.6,0.9c-0.7,0.1-1,0.4-1,0.9c0.4,0.6,0.9,0.8,1.6,0.7
			c0.1,0,0.2,0.1,0.3,0.1c0.4,0.2,0.7,0.4,1.2,0.7c-0.1-1.2,0.6-2,1.1-2.9c-0.2-0.1-0.4-0.3-0.5-0.4c-0.3-0.2-0.3-0.5-0.2-0.8
			c0.1-0.3,0.3-0.7,0.4-1c0.1-0.4,0.2-0.8-0.3-1.2c-0.1-0.1-0.1-0.4-0.1-0.6c0-0.2,0-0.3,0.1-0.5c0-0.2,0.1-0.3,0.1-0.5
			c0.5-0.8,0.9-1.5,1.4-2.3C144.1,113.6,144.1,113.5,144.1,113.3z M90.6,121.1c0-0.1,0-0.1,0-0.2c-0.6,0.1-1.1,0.1-1.6,0.3
			c-0.4,0.1-0.6,0.4-1,0.6c-0.8,0.4-1.7,0.7-2.5,1c-0.1,0-0.2,0.1-0.2,0.1c-0.9,0.5-1.7,1.2-2.7,1.5c-0.9,0.3-1.8,0.7-2.7,1.1
			c-0.1,0-0.2,0-0.2,0c-0.2,0-0.4,0-0.7,0.1c-0.5,0.1-1.1,0.2-1.6,0.4c-0.1,0-0.2,0.2-0.3,0.3c-0.2,0.6-0.3,1.3-0.5,2
			c0.3,0,0.6,0,0.9-0.1c0.8-0.2,1.7-0.4,2.5-0.6c0.6-0.2,1.1-0.6,1.7-0.9c0.7-0.4,1.6-0.6,2-1.5c0,0,0.1-0.1,0.1-0.1
			c0.5-0.2,1-0.5,1.5-0.6c0.7-0.2,1.2-0.6,1.5-1.3c0-0.1,0.2-0.2,0.3-0.1c0.3,0.2,0.6,0,0.8-0.2c0.3-0.2,0.7-0.4,1.1-0.6
			c0.4-0.3,0.8-0.6,1.3-1C90.2,121.2,90.4,121.1,90.6,121.1z M198.2,37.3c0.6-0.1,1.2-0.2,1.7-0.4c0.4-0.1,0.7-0.5,1-0.6
			c0.8-0.4,1.7-0.7,2.5-1.1c0.3-0.1,0.5-0.3,0.7-0.4c0.5-0.4,1-0.7,1.5-1.1c0,0,0.1,0,0.1,0c1.1-0.4,2.1-0.9,3.2-1.3
			c0.1,0,0.2,0,0.3,0c0.2,0,0.4,0,0.6-0.1c0.5-0.1,1.1-0.3,1.6-0.5c0.1,0,0.2-0.2,0.3-0.3c0.1-0.6,0.2-1.3,0.4-2.1
			c-1,0.3-1.9,0.4-2.8,0.7c-0.8,0.3-1.6,0.7-2.3,1.3c-0.6,0.5-1.5,0.7-1.9,1.5c0,0-0.1,0-0.1,0.1c-0.5,0.2-1,0.5-1.5,0.7
			c-0.7,0.3-1.2,0.7-1.4,1.4c0,0.1-0.2,0.1-0.3,0.1c-0.2,0.1-0.5,0.1-0.7,0.2c-0.2,0.1-0.4,0.4-0.7,0.5c-0.8,0.2-1.2,1.2-2.1,1.3
			C198.2,37,198.2,37.1,198.2,37.3z M131,71c0.1,0.2,0.1,0.4,0.2,0.4c0.6,0.4,1.3,0.8,1.9,1.1c0.3,0.2,0.6,0.3,0.9,0.4
			c0.5,0.2,1,0.6,1.5,0.7c0.6,0.2,1.2,0.3,1.7,0.7c0.3,0.3,0.6,0,0.8-0.2c0.3-0.3,0-0.4-0.2-0.5c-0.5-0.3-1.1-0.5-1.6-0.8
			c-0.6-0.4-1.2-0.8-1.9-1.1c-1.4-0.7-2.8-1.4-4.1-2.4c-0.1-0.1-0.2-0.1-0.3-0.2c-0.7-0.3-1.4-0.5-1.8-1.1c0,0-0.1-0.1-0.1-0.1
			c-0.4-0.2-0.8-0.4-1.1-0.6c-0.6-0.3-1.1-0.7-1.6-1c-0.9-0.5-1.7-1.1-2.6-1.6c-0.2-0.1-0.4-0.2-0.5-0.3c-0.3-0.1-0.5-0.3-0.8-0.4
			c-0.2-0.1-0.5-0.1-0.7-0.1c0,0.1,0,0.1-0.1,0.2c0.4,0.3,0.9,0.6,1.3,0.9c0.7,0.5,1.4,1,2.1,1.5c0.5,0.3,0.8,0.9,1.3,1
			c0.6,0.2,1,0.6,1.4,1c0.3,0.2,0.7,0.3,0.9,0.5c0.5,0.4,0.9,0.9,1.5,1.1C129.7,70.5,130.2,71.4,131,71z M169.1,97.2
			c0-0.1,0.1-0.1,0.1-0.2c-0.4-0.3-0.8-0.7-1.2-1c-0.7-0.6-1.5-1.1-2.2-1.6c-0.4-0.3-0.7-0.8-1.2-1c-0.6-0.2-0.9-0.6-1.3-1
			c-0.3-0.3-0.7-0.4-1-0.6c-0.5-0.4-0.9-0.9-1.5-1.2c-0.6-0.3-1-1.2-2-0.8c0.1-0.2,0.1-0.3,0.1-0.4c-0.9-0.5-1.9-1-2.7-1.6
			c-0.7-0.5-1.4-0.7-2.1-1c-0.4-0.1-0.7-0.3-1-0.5c-0.3-0.3-0.6-0.3-0.9,0.1c-0.3,0.3,0,0.4,0.2,0.6c0.1,0.1,0.2,0.2,0.3,0.3
			c0.4,0.2,0.9,0.5,1.3,0.7c0.6,0.3,1.1,0.7,1.7,1.1c1.4,0.8,2.8,1.5,4,2.6c0.1,0.1,0.2,0.2,0.3,0.2c0.9,0.3,1.5,0.9,2.2,1.4
			c0.8,0.5,1.5,1,2.2,1.5c0.9,0.6,1.8,1.2,2.7,1.8c0.2,0.1,0.4,0.2,0.5,0.3c0.2,0.1,0.4,0.2,0.6,0.3C168.6,97,168.9,97.1,169.1,97.2
			z M193.2,52.8c0,0.1-0.1,0.1-0.1,0.2c0.1,0.1,0.2,0.3,0.3,0.4c0.5,0.4,0.7,1,1.4,1.1c0.4,0.8,1.5,0.4,2,1c0.2,0.2,0.7,0.3,0.8,0.5
			c0.3,0.6,0.9,0.9,1.3,1.2c0.9,0.6,1.8,1.1,2.4,2c0,0.1,0.1,0.1,0.2,0.1c0.2,0.2,0.4,0.3,0.6,0.5c0.3,0.3,0.7,0.7,1,1
			c0.2,0.2,0.3,0.5,0.5,0.7c0.2,0.2,0.4,0.4,0.7,0.6c0.2,0.2,0.5,0.4,0.7,0.6c0.4,0.4,0.9,0.9,1.3,1.4c0.2,0.2,0.4,0.3,0.5,0
			c0-0.1-0.1-0.4-0.2-0.4c-0.3-0.2-0.6-0.3-0.4-0.7c0-0.1,0-0.2-0.1-0.3c-0.4-0.5-0.8-0.9-1.2-1.4c-0.2-0.3-0.4-0.6-0.6-0.9
			c-0.1-0.2-0.3-0.4-0.5-0.6c-0.8-0.7-1.7-1.4-2.5-2.1c-0.6-0.5-1.1-1-1.7-1.5c-0.2-0.2-0.4-0.4-0.7-0.5c-0.7-0.4-1.4-0.7-2.1-1.1
			c-0.5-0.3-1-0.6-1.5-0.8c-0.3-0.1-0.5-0.3-0.8-0.4C194.2,53.2,193.7,53,193.2,52.8z M96.2,105.4c0,0,0.1-0.1,0.1-0.1
			c-0.2-0.2-0.6-0.4-0.7-0.7c-0.3-0.8-1.2-0.8-1.6-1.5c0-0.1-0.2-0.1-0.3,0c-0.3,0.1-0.6,0-0.7-0.3c0-0.1-0.1-0.1-0.2-0.2
			c-0.4-0.2-1-0.3-1.1-0.9c0-0.1-0.1-0.1-0.2-0.2c-0.6-0.4-1.2-0.7-1.7-1.2c-0.5-0.5-1.3-0.8-1.6-1.6c0-0.1-0.1-0.1-0.2-0.1
			c-0.2-0.2-0.4-0.3-0.6-0.5c-0.4-0.4-0.7-0.8-1-1.2c-0.2-0.2-0.2-0.4-0.4-0.6c-0.2-0.2-0.4-0.5-0.6-0.7c-0.2-0.2-0.5-0.4-0.7-0.6
			c-0.4-0.5-0.8-0.9-1.2-1.4c-0.2-0.2-0.4-0.4-0.6-0.1c-0.2,0.3,0.1,0.4,0.2,0.5c0.3,0.2,0.5,0.3,0.3,0.7c0,0.1,0,0.2,0.1,0.3
			c0.4,0.6,0.9,1.2,1.4,1.8c0.1,0.2,0.3,0.3,0.3,0.5c0,0.4,0.3,0.7,0.7,0.9c0.1,0.1,0.2,0.1,0.3,0.2c0.8,0.8,1.5,1.5,2.3,2.3
			c0.8,0.8,1.8,1.5,2.8,2.1c1,0.6,1.9,1.4,3.1,1.7c0.1,0,0.2,0.1,0.3,0.2C95.2,105.1,95.6,105.4,96.2,105.4z M123.7,63.3
			c0.2,0.1,0.2,0.2,0.3,0.2c0.4,0.2,0.7,0.4,1.1,0.7c1.1,0.7,2.1,1.4,3.2,2c0.9,0.5,1.8,1,2.7,1.6c0.3,0.2,0.6,0.5,1.1,0.5
			c0.1,0,0.1,0.1,0.2,0.1c0.5,0.4,1.1,0.7,1.6,1.1c0.8,0.5,1.6,0.9,2.5,1.4c0.4,0.2,0.8,0.3,1.2,0.5c0.3,0.1,0.5,0.1,0.8,0.2
			c0.4,0.2,0.5,0.1,0.6-0.2c0.2-0.6-0.1-0.9-0.8-1.1c-0.4-0.1-0.7-0.1-1.1-0.3c-0.4-0.2-0.8-0.5-1.2-0.7c-0.5-0.3-1.1-0.5-1.6-0.8
			c-0.5-0.3-1-0.6-1.5-0.9c-0.9-0.6-1.8-1.2-2.7-1.8c-0.7-0.4-1.4-0.9-2-1.3c-0.4-0.2-0.8-0.5-1.2-0.7c-0.5-0.3-1-0.8-1.7-0.6
			c-0.4,0.1-0.8,0.2-1.2,0C123.9,63.3,123.8,63.3,123.7,63.3z M166,97.7c0,0,0-0.1,0.1-0.1c-0.1,0-0.1-0.1-0.2-0.1
			c-0.8-0.6-1.7-1.1-2.5-1.7c-0.8-0.5-1.5-1-2.3-1.5c-0.6-0.4-1.2-0.7-1.7-1c-0.5-0.3-0.8-0.9-1.4-0.9c-0.1,0-0.1-0.1-0.2-0.1
			c-0.5-0.4-1-0.8-1.6-1.1c-0.8-0.5-1.6-1-2.4-1.5c-0.4-0.2-0.8-0.4-1.2-0.5c-0.2-0.1-0.5-0.1-0.8-0.3c-0.4-0.2-0.5-0.2-0.6,0.2
			c-0.2,0.6,0,0.9,0.7,1.1c0.4,0.1,0.7,0.2,1.1,0.3c0.4,0.2,0.8,0.5,1.2,0.8c0.5,0.3,1,0.5,1.5,0.8c0.5,0.3,1.1,0.7,1.6,1
			c0.8,0.6,1.6,1.2,2.5,1.8c0.6,0.5,1.3,0.9,2,1.4c0.4,0.3,0.8,0.5,1.2,0.7c0.5,0.3,1,0.8,1.7,0.7c0.4-0.1,0.8-0.1,1.1,0.1
			C165.8,97.7,165.9,97.7,166,97.7z M138.1,152.6c0.3,0,0.4,0.1,0.6,0.1c0.2,0,0.3,0,0.5,0c0.4,0,0.9,0,1.3-0.1
			c0.9-0.1,1.8-0.3,2.8-0.4c0.4-0.1,0.9-0.1,1.3-0.2c0.4-0.1,0.8-0.4,1.2-0.4c0.8,0.1,1.4,0.1,2.1-0.4c0.4-0.2,0.9-0.2,1.4-0.4
			c1.2-0.5,2.4-0.9,3.4-1.5c0.6-0.3,1.3-0.3,1.8-1c0.7-1,2-1.2,2.9-2.1c0.4-0.4,1.1-0.6,1.7-0.9c0.1-0.1,0.2-0.1,0.4-0.1
			c-0.1-0.1-0.1-0.2-0.2-0.2c-0.2,0-0.4,0.1-0.5,0.2c-0.6,0.4-1.1,0.8-1.7,1.1c-0.5,0.3-1.1,0.6-1.7,0.9c-0.5,0.2-0.9,0.5-1.5,0.5
			c-0.1,0-0.2,0.1-0.3,0.2c-0.3,0.2-0.6,0.5-0.9,0.5c-0.8,0.2-1.5,0.6-2.3,0.7c-0.3,0-0.6,0.1-0.8,0.3c-0.3,0.1-0.5,0.4-0.8,0.5
			c-0.6,0.2-1.2,0.3-1.8,0.5c-0.5,0.2-1.1,0.4-1.6,0.5c-0.8,0.2-1.5,0.3-2.3,0.5c-0.2,0.1-0.5,0.3-0.7,0.2c-0.5-0.1-0.9,0-1.4,0.3
			c-0.3,0.2-0.8-0.1-1.1,0.3c0,0-0.1,0-0.2-0.1C139,151.8,138.5,151.9,138.1,152.6z M131.1,24.1c0.2,0.1,0.3,0.2,0.3,0.2
			c0.7,0,1.4,0,2,0c0.1,0,0.3-0.1,0.4-0.3c0.3-0.5,0.8-0.6,1.2-0.8c0.8-0.5,1.7-0.8,2.5-1.2c0.9-0.4,1.8-0.8,2.7-1.1
			c0.5-0.2,0.9-0.4,1.4-0.6c0.7-0.3,1.5-0.6,2.2-0.9c0.2-0.1,0.4-0.1,0.5-0.1c0.1-0.1,0.2-0.2,0.2-0.4c0-0.3-0.1-0.5-0.1-0.8
			c-0.1,0-0.4,0.1-0.6,0.1c-0.2,0.1-0.4,0.1-0.6,0.2c-0.7,0.2-1.4,0.6-2.2,0.7c-1.3,0.3-2.1,1.4-3.4,1.6c0,0-0.1,0-0.1,0.1
			c-0.2,0.2-0.5,0.3-0.8,0.5c-1.1,0.5-2.2,1-3.3,1.5c-0.1,0-0.1,0.1-0.1,0.1c-0.4,0.2-0.7,0.5-1.1,0.7
			C132,23.7,131.6,23.9,131.1,24.1z M143.5,142.1c0.1,0,0.4-0.1,0.6-0.1c0.2,0,0.4-0.1,0.6-0.2c0.7-0.2,1.3-0.4,2-0.5
			c1.3-0.3,2.4-1.3,3.7-1.6c0.5-0.1,0.9-0.4,1.4-0.6c1.5-0.7,3-1.4,4.5-2.1c0.3-0.1,0.5-0.4,0.8-0.6c-0.6-0.4-1.1-0.3-1.7-0.3
			c-0.3,0-0.8,0.1-1,0.3c-0.4,0.5-0.9,0.6-1.3,0.8c-0.8,0.4-1.6,0.7-2.4,1c-0.9,0.4-1.9,0.7-2.8,1.1c-0.4,0.1-0.8,0.2-1.2,0.4
			c-1,0.4-1.9,1-3.1,1.1c-0.1,0-0.2,0.2-0.2,0.3C143.4,141.6,143.4,141.8,143.5,142.1z M128.4,23.3c0.4,0.4,0.6,0,0.8-0.1
			c0.7-0.4,1.5-0.9,2.2-1.3c0.4-0.2,0.8-0.3,1.1-0.6c0.4-0.2,0.8-0.6,1.2-0.8c1-0.5,1.9-0.9,2.9-1.4c0.3-0.1,0.6-0.3,0.9-0.5
			c0.7-0.4,1.4-0.9,2.2-1.2c0.7-0.3,1.5-0.5,2.2-0.8c0.2-0.1,0.3-0.2,0.5-0.3c0.3-0.1,0.6-0.2,0.9-0.3c0.2-0.1,0.4-0.1,0.6-0.2
			c0.2-0.1,0.5-0.3,0.7-0.4c0.4-0.2,0.5-0.5,0.3-0.8c-0.6,0.1-1.1,0.2-1.8,0.4c-0.1-0.1-0.4,0-0.7,0.1c-0.6,0.3-1.3,0.6-2,0.9
			c-1.3,0.6-2.6,1.1-3.9,1.7c-0.6,0.3-1.1,0.6-1.7,1c-0.6,0.4-1.2,0.7-1.8,1.1c-0.7,0.4-1.3,0.9-1.9,1.3c-0.5,0.3-1.1,0.6-1.6,0.9
			C129.2,22.5,128.8,22.9,128.4,23.3z M144.5,145.2c0-0.1,0-0.1,0-0.2c0.3,0.3,0.5,0.2,0.8,0c0.6-0.3,1.3-0.6,2-0.9
			c1.3-0.5,2.7-1,4-1.6c0.6-0.3,1.2-0.6,1.8-0.9c0.6-0.3,1.3-0.7,1.9-1c0.7-0.4,1.4-0.9,2.1-1.4c0.5-0.3,1-0.5,1.5-0.8
			c0.4-0.2,0.7-0.5,1-0.8c0.2-0.2,0.4-0.4,0-0.6c-0.8,0.5-1.6,1-2.4,1.4c-0.9,0.5-1.9,0.9-2.8,1.4c-0.9,0.4-1.9,0.8-2.9,1.2
			c-0.5,0.2-0.9,0.6-1.4,0.8c-0.8,0.4-1.7,0.7-2.5,1.1c-0.1,0.1-0.3,0.1-0.4,0.1c-0.8,0.3-1.5,0.6-2.3,0.9c-0.1,0-0.2,0-0.3,0
			c-0.2,0-0.4,0.1-0.6,0.2c-0.2,0.1-0.4,0.2-0.6,0.3c-0.4,0.1-0.6,0.4-0.4,0.8C143.4,145.3,144,145.3,144.5,145.2z M143.2,131.6
			c0-0.1,0-0.1,0.1-0.2c-0.2-0.6-0.4-1.1-0.5-1.7c0-0.1,0.1-0.2,0.1-0.3c0.3-0.3,0.6-0.6,0.9-0.8c-0.5-0.9-0.4-1.7-0.1-2.4
			c-0.5-0.6-1.1-1.2-1.5-1.8c-0.5,0.3-1,0.6-1.5,1c-0.3,0.2-0.6,0.3-0.9,0.3c-0.1,0-0.3,0.1-0.3,0.3c0,0,0.1,0.2,0.2,0.3
			c0.1,0.1,0.2,0.2,0.3,0.3c0.5,0.3,1.1,0.5,1.6,0.8c0.4,0.2,0.7,0.7,0.6,1.1c-0.1,0.8-1.5,1.5-2.1,1.2c-0.1,0-0.3,0-0.4,0
			c0,0.1,0,0.1,0,0.2c0.4,0.1,0.8,0.2,1.2,0.3c0.1,0,0.1,0.1,0.2,0.2c0.4,0.3,0.7,0.6,1.1,0.9C142.4,131.4,142.8,131.5,143.2,131.6z
			 M146.6,35.6c0.5-0.3,1-0.6,1.5-1c0.2-0.2,0.4-0.3,0.8-0.3c0.1,0,0.3-0.2,0.5-0.2c-0.1-0.1-0.1-0.3-0.2-0.4
			c-0.6-0.3-1.2-0.6-1.8-0.9c-0.9-0.4-1-1.4-0.2-1.9c0.4-0.3,0.9-0.6,1.5-0.4c0.1,0,0.2,0,0.3-0.1c0-0.1,0-0.1,0-0.2
			c-0.4-0.1-0.8-0.2-1.2-0.3c-0.1,0-0.2-0.1-0.2-0.2c-0.4-0.3-0.7-0.6-1.1-0.9c-0.3-0.2-0.7-0.4-1.2-0.2c0.1,0.3,0.3,0.6,0.4,0.9
			c0.1,0.4,0.5,0.9-0.1,1.3c-0.1,0.1-0.3,0.2-0.4,0.3c-0.2,0.1-0.3,0.3-0.1,0.5c0.1,0.2,0.3,0.4,0.3,0.6c0,0.6-0.1,1.1-0.2,1.6
			C145.6,34.5,146.1,35.1,146.6,35.6z M106.8,116.7c0.1,0.2,0.1,0.3,0.1,0.4c0.4,0.5,0.8,1.1,1.2,1.6c0.4,0.4,0.8,0.6,1.2,0.9
			c0.1,0.1,0.3,0.2,0.4,0.3c0.3,0.6,1,0.4,1.5,0.6c0,0,0.1,0,0.2-0.1c0.3-0.2,0.6-0.5,0.9-0.8c-0.1-0.3-0.2-0.6-0.4-0.9
			c-0.3-0.4-0.3-0.8,0-1c0.4-0.4,0-0.8,0-1.1c0,0-0.2-0.1-0.3-0.1c-0.5,0-0.9,0.1-1.4,0.1c-0.9,0-1.8,0-2.7,0
			C107.2,116.6,107,116.7,106.8,116.7z M176.6,39.2c0.1,0.2,0.2,0.6,0.4,0.8c0.3,0.5,0.4,0.7,0.1,1.2c-0.1,0.1-0.1,0.3-0.1,0.4
			c0.2,0.7,0.2,0.7,0.9,0.6c0.1,0,0.3,0,0.4,0c1.1,0,2.3-0.1,3.4-0.1c0.2,0,0.3-0.1,0.5-0.1c-0.3-1-1.1-1.5-1.7-2.2
			c-0.4-0.5-1.2-0.6-1.7-1.1c-0.2-0.3-0.9-0.2-1.3-0.2C177.2,38.5,176.9,38.9,176.6,39.2z M172,36.5c0,0.2,0,0.3,0,0.3
			c0,0.8-0.2,1.2-1,1.5c-0.3,0.1-0.3,0.3-0.1,0.5c0.5,0.7,0.4,1.3-0.3,1.9c-0.3,0.3-0.4,0.8-0.2,1c0.3,0.2,0.3,0.5,0.2,0.8
			c-0.1,0.4,0.1,0.5,0.4,0.5c0.6-0.1,1.2-0.1,1.8-0.2c0.5-0.1,0.9-0.2,1.4-0.3c-0.3-0.3-0.4-0.6-0.6-0.7c-0.5-0.2-0.4-0.5-0.3-0.9
			c0.2-0.5,0.1-0.7-0.4-0.9c-0.1,0-0.3-0.2-0.3-0.3c-0.1-0.8,0.1-1.2,0.9-1.6c0.3-0.2,0.6-0.4,0.9-0.6
			C173.6,37.1,172.9,36.8,172,36.5z M114.5,121.4c0.4,0.5,1.9,1.2,2.2,1c0-0.1,0-0.1,0-0.2c0-0.7,0.3-1.2,1-1.4
			c0.3-0.1,0.4-0.2,0.2-0.5c-0.5-0.8-0.4-1.4,0.3-2c0.3-0.3,0.5-0.8,0.2-1c-0.3-0.3-0.2-0.5-0.1-0.8c0.1-0.4,0-0.5-0.4-0.5
			c-0.6,0-1.2,0-1.9,0.1c-0.4,0-0.9,0.1-1.4,0.2c0.3,0.3,0.4,0.6,0.6,0.7c0.5,0.3,0.4,0.6,0.2,1c-0.2,0.5-0.1,0.7,0.4,0.8
			c0.3,0.1,0.4,0.2,0.3,0.5c0,0.2,0,0.3-0.1,0.5c-0.2,0.3-0.3,0.6-0.6,0.8C115.4,121,114.9,121.2,114.5,121.4z M164.7,43.8
			c1-0.3,2-0.1,2.9-0.5c-0.2-0.5-0.4-0.9-0.7-1.2c-0.2-0.3-0.1-0.6,0.2-0.8c0.4-0.4,0.9-0.8,1.3-1.2c0-0.1,0-0.1,0-0.2
			c-0.4-0.1-0.8-0.3-1.2-0.4c-0.6-0.2-1.4,0-1.6-1c0-0.1-0.1-0.2-0.2-0.2c-0.1,0-0.2,0.1-0.3,0.2c-0.1,0.1,0,0.3-0.1,0.3
			c-0.6,0.4-0.2,0.7,0,1c0.5,0.9,0.5,1.6-0.2,2.3c-0.3,0.3-0.2,0.6-0.2,0.9C164.6,43.3,164.7,43.5,164.7,43.8z M124.3,115.6
			c-1.4,0-2.8,0.2-3.1,0.4c0.3,0.2,0.3,0.3,0.7,1.1c0.2,0.4,0.1,0.6-0.2,0.8c-0.5,0.4-0.9,0.8-1.3,1.2c0,0.1,0,0.1,0,0.2
			c0.4,0.1,0.8,0.3,1.2,0.4c0.6,0.2,1.4,0.1,1.6,1c0,0.1,0.2,0.2,0.2,0.2c0.1,0,0.2-0.1,0.2-0.2c0.1-0.1,0.1-0.3,0.2-0.3
			c0.3-0.2,0.3-0.4,0.1-0.6c-0.2-0.4-0.4-0.9-0.5-1.4c0-0.1,0-0.3,0-0.4c0.2-0.3,0.3-0.6,0.6-0.8c0.3-0.3,0.3-0.6,0.3-1
			C124.3,116.1,124.3,115.9,124.3,115.6z M198.8,59.4C198.8,59.4,198.7,59.4,198.8,59.4c-0.1,0.2-0.1,0.3,0,0.4
			c0.3,0.6,0.6,1.2,1,1.7c0.3,0.4,0.6,0.8,0.9,1.2c0.4,0.6,0.8,1.3,1.3,1.8c0.7,0.7,1.4,1.4,2.1,2.1c0.4,0.4,0.8,0.7,1.3,1
			c0.1,0.1,0.4,0,0.4,0c0.1-0.3,0.2-0.5,0.1-0.9c-0.2-0.5-0.7-0.7-1-1c-0.5-0.5-1.2-0.8-1.6-1.3c-0.7-0.8-1.4-1.6-2-2.5
			c-0.1-0.1-0.1-0.4-0.3-0.4c-0.8-0.4-1.3-1.1-1.8-1.8C199,59.5,198.9,59.5,198.8,59.4z M90.8,98.7c0.1,0,0.1-0.1,0.2-0.1
			c-0.4-0.7-0.7-1.3-1.1-2c-0.3-0.5-0.6-0.9-0.9-1.3c-0.4-0.6-0.8-1.3-1.3-1.9c-0.3-0.4-0.6-0.7-1-1c-0.7-0.7-1.5-1.4-2.2-2.1
			c-0.1-0.1-0.3-0.1-0.3,0c-0.1,0.3-0.2,0.6-0.2,0.9c0.1,0.6,0.6,0.8,1,1.1c0.6,0.5,1.2,0.9,1.7,1.5c0.7,0.7,1.2,1.6,1.8,2.4
			c0.1,0.2,0.2,0.5,0.3,0.6c0.7,0.5,1.2,1.1,1.7,1.8C90.6,98.6,90.7,98.6,90.8,98.7z M139.4,27.9c0.1,0.4,0.2,0.7,0.2,0.9
			c-0.1,0.4-0.3,0.9-0.5,1.3c-0.2,0.3-0.2,0.6,0.1,0.8c0.3,0.2,0.5,0.6,0.8,0.6c0.3,0,0.6-0.4,0.9-0.6c0.2-0.1,0.4-0.3,0.6-0.4
			c0.4-0.1,0.8-0.2,1.2-0.3c0.1,0,0.2-0.3,0.1-0.3c-0.1-0.2-0.4-0.4-0.5-0.6c-0.3-0.4-0.6-0.6-1.1-0.6c-0.1-0.3-0.2-0.5-0.3-0.8
			C140.4,27.9,139.9,27.9,139.4,27.9z M149.1,132.5c-0.4-0.8-0.3-1.4,0.2-2c0.4-0.6,0.4-0.6-0.1-1.1c-0.7-0.6-0.7-0.6-1.4,0
			c-0.2,0.2-0.5,0.3-0.8,0.4c-0.4,0.1-0.8,0.2-1.2,0.3c0,0-0.1,0.3-0.1,0.3c0.4,0.6,0.7,1.3,1.6,1.3c0.1,0.3,0.2,0.5,0.3,0.8
			C148,132.5,148.5,132.5,149.1,132.5z M151.2,91.9c0,0.9,0.2,1.1,1,1.4c0.7,0.3,1.4,0.6,2.1,1c0.8,0.4,1.4,1,2.2,1.5
			c0.5,0.3,1,0.9,1.7,0.8c0.1,0,0.2,0.2,0.3,0.4c0.1,0.1,0.1,0.3,0.2,0.3c0.4,0,0.7,0,1.2-0.1c-0.6-0.5-1.1-0.9-1.6-1.3
			c-0.9-0.6-1.8-1.2-2.8-1.8c-0.3-0.2-0.8-0.2-1-0.5c-0.3-0.5-0.8-0.6-1.3-0.8C152.6,92.6,151.9,92.3,151.2,91.9z M138.8,68.4
			c0-0.8-0.3-1-1-1.2c-0.7-0.2-1.4-0.5-2-0.8c-0.8-0.5-1.6-1-2.5-1.5c-0.4-0.3-0.9-0.5-1.4-0.6c-0.3-0.1-0.5-0.1-0.6-0.5
			c0-0.1-0.1-0.2-0.2-0.2c-0.4,0-0.7,0.1-1.1,0.1c0,0,0,0.1-0.1,0.1c0.6,0.4,1.3,0.8,1.9,1.3c1.1,0.7,2.1,1.6,3.4,2
			c0.1,0,0.1,0.2,0.2,0.2c0.1,0.1,0.2,0.3,0.4,0.3c0.5,0.2,1.1,0.4,1.6,0.6C137.9,68.1,138.3,68.2,138.8,68.4z M169.1,36.7
			c-0.6-0.2-1.1-0.5-1.7-0.7c-0.3-0.1-0.4-0.3-0.3-0.6c0-0.1,0-0.4-0.1-0.4c-0.4-0.1-0.8-0.2-1.1-0.2c-0.1,0-0.3,0.2-0.5,0.4
			c-0.3,0.3-0.7,0.6-1.1,0.9c1,0.2,1.2,1.1,1.6,1.8c0.1-0.1,0.2-0.3,0.3-0.3c0.4-0.2,0.8-0.5,1.1-0.4
			C167.9,37.3,168.4,36.7,169.1,36.7z M119.7,122.4c0,0.1,0,0.1,0,0.2c0.1,0.1,0.2,0.1,0.4,0.2c0.4,0.2,0.8,0.4,1.2,0.5
			c0.4,0.1,0.4,0.3,0.4,0.7c0,0.1,0,0.3,0.1,0.4c0.4,0.1,0.8,0.3,1.1,0.3c0.2,0,0.3-0.2,0.5-0.4c0.3-0.3,0.7-0.5,1-0.8
			c-0.3-0.3-0.7-0.5-0.9-0.8c-0.2-0.3-0.3-0.7-0.5-1.2c-0.2,0.1-0.2,0.2-0.3,0.3c-0.3,0.2-0.8,0.5-1,0.5
			C121,121.9,120.4,122.5,119.7,122.4z M155.1,97.2c-1-0.6-2-1.4-3.3-1.6C152.2,97.1,153.4,97.7,155.1,97.2z M134.7,63.2
			c0,0.1-0.1,0.1-0.1,0.2c0.8,0.4,1.6,0.9,2.4,1.3c0.3,0.1,0.6,0.1,0.9,0.1c0,0,0.1-0.1,0.1-0.1c-0.3-0.4-0.5-0.9-0.9-1.2
			C136.4,62.8,135.5,63.2,134.7,63.2z M121.2,21.8c0,0.1,0.1,0.2,0.1,0.3c0.2-0.1,0.3-0.1,0.5-0.2c0.1,0,0.1-0.1,0.2-0.2
			c0.4-0.3,0.8-0.6,1.2-1c0.3-0.4,1-0.6,1.1-1.2c0,0,0,0,0,0c0.5-0.4,1.1-0.7,1.6-1.1c0.1-0.1,0.1-0.3,0.1-0.4c-0.1,0-0.3,0-0.4,0.1
			c-0.4,0.4-0.8,0.8-1.3,1.2c-0.2,0.2-0.6,0.3-0.8,0.5c-0.2,0.2-0.6,0.4-0.6,0.9c0,0.1-0.1,0.1-0.2,0.2
			C122.2,21,121.7,21.4,121.2,21.8z M167,139.1c0-0.1-0.1-0.1-0.1-0.2c-0.2,0.1-0.4,0.1-0.5,0.2c-0.1,0-0.2,0.1-0.2,0.2
			c-0.4,0.3-0.9,0.6-1.2,0.9c-0.3,0.4-1.1,0.5-1.1,1.2c0,0-0.1,0-0.1,0c-0.7,0.1-1.1,0.7-1.6,1.1c-0.1,0.1-0.1,0.3-0.1,0.4
			c0.1,0,0.3,0,0.4,0c0.2-0.2,0.5-0.4,0.7-0.6c0.4-0.3,0.7-0.7,1.2-0.9c0.3-0.1,0.7-0.4,0.7-0.6c0.1-0.6,0.6-0.7,1-1
			C166.3,139.7,166.7,139.4,167,139.1z M151.4,136.1c0-0.1,0-0.1,0-0.2c-0.6-0.2-1.1,0-1.7,0.3c-1,0.5-1.9,0.9-2.9,1.4
			c-0.2,0.1-0.5,0.2-0.7,0.3c0.1,0.1,0.2,0.1,0.3,0.1c0.8-0.2,1.7-0.5,2.5-0.7c0.1,0,0.1-0.1,0.2-0.2c0.4-0.2,0.7-0.5,1.1-0.7
			C150.6,136.3,151,136.3,151.4,136.1z M136.9,24.3c0,0.1,0,0.1,0,0.2c0.5,0.2,0.9,0,1.3-0.2c1.3-0.6,2.6-1.3,3.8-2c0,0,0-0.1,0-0.1
			c-0.6,0.2-1.2,0.3-1.7,0.6c-0.5,0.2-1.1,0.2-1.5,0.7c-0.2,0.2-0.5,0.4-0.8,0.5C137.7,24.1,137.3,24.2,136.9,24.3z M103.7,119.5
			c0-0.1,0-0.1,0-0.2c-0.6-0.4-1.2-0.1-1.8,0c0,0,0,0.1,0,0.1C102.5,119.4,103.1,119.4,103.7,119.5z M105,112.1c0.1,0,0.1,0,0.2,0.1
			c0.1-0.2,0.3-0.5,0.4-0.7c0-0.1-0.2-0.3-0.3-0.3c-0.1,0-0.3,0.1-0.3,0.1C104.9,111.5,105,111.8,105,112.1z M184.2,46.6
			c-0.1,0-0.1,0-0.2,0c-0.1,0.2-0.3,0.4-0.4,0.7c0,0.1,0.2,0.3,0.3,0.3c0.1,0,0.4-0.1,0.4-0.1C184.2,47.1,184.2,46.8,184.2,46.6z
			 M187,39.2c-0.6,0.2-1.2-0.3-1.9,0.1C185.8,39.7,186.4,39.4,187,39.2z M160.4,144.4c0.5-0.3,0.9-0.6,1.2-0.9
			C161,143.5,160.4,143.9,160.4,144.4z M149.8,7.9c0.4,0,0.7,0,1.1,0C150.6,7.4,150.2,7.4,149.8,7.9z M97.6,118.1
			c0.8,0.1,1.3-0.1,1.5-0.5C98.5,117.8,98.1,117.9,97.6,118.1z M191.3,40.3c-0.6-0.2-1.2,0.1-1.4,0.5
			C190.4,40.6,190.8,40.5,191.3,40.3z M181.8,49.3c-0.3-0.4-0.9-0.2-1.3,0.3C181,49.5,181.4,49.4,181.8,49.3z M137.8,152
			c-0.4,0-0.7,0-1.1,0C137.1,152.5,137.5,152.6,137.8,152z M126.4,17.3c0.6,0,1.1-0.4,1.1-0.9C127.1,16.8,126.8,17,126.4,17.3z
			 M107.4,109.4c0.3,0.4,0.6,0.3,1.3-0.2C108.2,109.3,107.8,109.3,107.4,109.4z M197.8,37.4c-0.3,0.1-0.6,0.2-1,0.3
			C197.5,37.9,197.6,37.9,197.8,37.4z M91,120.7c0.3,0,0.5,0,0.7-0.1c0.1,0,0.1-0.1,0.1-0.1c0,0-0.1-0.1-0.1-0.1
			C91.4,120.3,91.1,120.2,91,120.7z M125.4,69.6c-0.1-0.4-0.3-0.7-0.8-0.6C124.9,69.3,125.1,69.4,125.4,69.6z M96.8,111.4
			c0.3,0,0.5,0.1,0.8,0.1C97.4,111.3,97.2,111,96.8,111.4z M164.6,91.3c0.1,0.5,0.3,0.7,0.8,0.6C165.1,91.7,164.8,91.5,164.6,91.3z"
			/>
		<path fill="#545454" d="M181.1,122.3c0.3-0.3,0.4-0.4-0.1-0.9c0.1-0.2,0.4-0.5,0-0.7c-0.2-0.1-0.1-0.3,0.1-0.4
			c0.1,0,0.3-0.2,0.3-0.3c0-0.9,0.7-1.2,1.2-1.7c0.7-0.6,1.7-0.4,2.5-0.6c0.2,0,0.4,0.2,0.6,0.3c0.2,0.1,0.3,0.3,0.4,0.5
			c0.1,0.1,0.1,0.4,0.1,0.4c-0.4,0.3-0.6,0.8-1.1,0.9c-0.4,0.1-0.8,0.1-1,0.5c-0.1,0.2-0.1,0.4-0.2,0.6c0,0,0.1,0,0.1,0.1
			c0.5-0.2,0.9-0.5,1.4-0.6c0.7-0.2,1.4-0.3,2.1-0.3c0.4,0,0.5-0.1,0.5-0.5c0-0.4,0-0.8,0.4-1c0.4-0.2,0.8-0.1,1.3,0.1
			c0.6,0.3,0.6,1,1.1,1.4c0.1,0.1,0.2,0.3,0.3,0.4c0.1,0.1,0.1,0.2,0.1,0.2c-0.2,0.6,0,1.3-0.2,1.9c0,0.2,0,0.4,0,0.6
			c0,0.2,0,0.4-0.1,0.6c-0.4,0.4-0.3,0.9-0.4,1.4c-0.1,0.7-0.3,1.4-0.9,1.9c-0.2,0.1-0.3,0.4-0.5,0.5c-0.4,0.3-0.8,0.4-1.3,0.4
			c-0.5,0-1,0.1-1.4,0.2c-0.7-0.4-1.3-0.7-1.9-1c-0.8-0.4-1.4-0.9-1.8-1.6c0-0.1,0-0.2-0.1-0.3c-0.6-0.3-0.7-0.8-0.6-1.4
			c0-0.4-0.3-0.8-0.5-1.2C181.2,122.7,181.2,122.5,181.1,122.3z M187.7,124.3c0.1-0.6-0.4-0.9-0.8-1.1c-0.3-0.2-0.7,0-1.1,0
			c-0.5-0.1-0.6,0.3-0.6,0.6c0,0.4,0.1,0.7,0.3,1.1c0.1,0.2,0.3,0.2,0.5,0.4C186.6,124.9,187.2,124.6,187.7,124.3z"/>
		<path fill="#545454" d="M107.8,39.2c0,0-0.2,0.1-0.3,0.2c0.1,0.2,0.2,0.4,0.4,0.7c-0.1,0.2-0.3,0.4,0.1,0.7
			c0.2,0.1,0.1,0.3-0.1,0.4c-0.1,0-0.3,0.2-0.3,0.3c0,0.9-0.7,1.3-1.3,1.8c-0.7,0.5-1.6,0.3-2.3,0.6c-0.1,0-0.2,0-0.3-0.1
			c-0.3-0.3-0.6-0.6-0.8-0.9c-0.1-0.1-0.1-0.3,0-0.3c0.4-0.3,0.6-0.8,1.1-0.9c0.4-0.1,0.8-0.1,0.9-0.6c0.1-0.2,0.1-0.4,0.2-0.8
			c-0.6,0.3-1.1,0.6-1.6,0.7c-0.7,0.2-1.4,0.3-2.1,0.4c-0.4,0-0.5,0.1-0.5,0.5c0,0.4,0.1,0.8-0.3,1c-0.4,0.2-0.8,0.2-1.3-0.1
			c-0.3-0.2-0.5-0.4-0.7-0.7c-0.1-0.2-0.3-0.4-0.4-0.6c-0.5-0.6-0.4-1.3-0.4-2c0-0.4,0-0.7,0-1.1c0-0.2,0.1-0.4,0.1-0.6
			c0.1-0.4,0.3-0.8,0.3-1.2c0.1-0.8,0.2-1.5,0.9-2c0.2-0.1,0.2-0.3,0.4-0.5c0.4-0.4,0.9-0.5,1.4-0.5c0.5,0,1-0.2,1.4-0.2
			c0.4,0.2,0.7,0.3,1,0.5c1.1,0.6,2.4,1,3,2.2c0,0,0,0,0,0c0.7,0.3,0.8,0.9,0.7,1.5c0,0.1,0.2,0.3,0.2,0.4c0.1,0.1,0.1,0.1,0.2,0.2
			C107.5,38.5,107.6,38.8,107.8,39.2z M101,37.5c0.1,0.2,0.1,0.5,0.3,0.6c0.4,0.5,1,0.5,1.6,0.4c0.5-0.1,0.8-0.3,0.8-0.8
			c0-0.4-0.1-0.8-0.5-1c-0.1-0.1-0.3-0.2-0.4-0.3C102.1,36.9,101.6,37.2,101,37.5z"/>
	</g>
</g>
<g id="Layer_4">
	<g>
		<path fill="#545454" d="M0,67.1c0-0.8,0-1.5,0.1-2.3c2.2,0,4.9-0.1,7.4-0.1c2.1,0,3.2,0,5.1,0.5c2.7,0.6,4.7,3.1,4.7,5.6
			c0,3.1-2,5.3-4.7,6.3v0.2c1.6,0.8,2.5,2.8,4.3,6.2c0.9,1.7,1.1,2,1.6,2.1l2,0.1c0,0.7,0,1.5,0,2.2c-0.6,0-1.8,0-2.5,0
			c-0.7,0-2.7,0-3.2,0c-1.1-1.6-3.1-6.2-4-8C10,79,9.2,78.5,7.9,78.5c-1,0-1.4,0-1.5,0.1l0,7.1l2.6,0.1c0,0.7,0,1.5,0,2.2
			c-1.3,0-3.1,0-4.7,0c-1.4,0-2.9,0-4.2,0c0-0.8,0-1.5,0-2.2l2.1-0.1c0.1,0,0.1,0,0.1-0.1V67.1L0,67.1z M6.3,76.3
			c0.2,0.1,0.7,0.1,1.5,0.1c3.7,0,5.2-2.3,5.2-4.6c0-3-2.1-4.8-4.9-4.8c-0.9,0-1.5,0-1.7,0.1L6.3,76.3z"/>
		<path fill="#545454" d="M21.6,81.1c0-4.8,3.3-8.7,8.2-8.7c2,0,3.5,0.7,4.5,1.9c1.1,1.3,1.6,3.1,1.6,5c-0.1,0.5-1.2,1.6-1.5,1.6
			C32.7,81,28.4,81,25.8,81c0,1.6,0.4,2.8,1.1,3.5c1,1,2,1.2,3.3,1.2c1.6,0,3.7-0.6,4.8-1.1c0.2,0.7,0.4,1.5,0.5,2.2
			c-2,1-4.6,1.6-6.2,1.6C24.6,88.4,21.6,85.7,21.6,81.1L21.6,81.1z M29.2,74.6c-1,0-1.7,0.3-2.3,1c-0.5,0.6-1.1,1.6-1.1,3.2
			c1.7,0,4.1,0,5.8-0.1c0.3,0,0.4-0.1,0.4-0.4c0-1-0.3-2.1-0.7-2.7C30.8,75,30.2,74.6,29.2,74.6L29.2,74.6z"/>
		<path fill="#545454" d="M47.6,86.8c-2.4,1.3-3.9,1.6-5.2,1.6c-1.8,0-4.3-1.6-4.3-3.8c0-2,2.3-5,7.4-5c1.1,0,1.8,0,2.2,0
			c0.1-2.9-0.7-4.3-2.6-4.3c-1.4,0-3.1,1-4.4,2.2c-0.5-0.6-1-1.2-1.5-1.9c2-1.8,4.3-3.3,7.3-3.3c2.7,0,5.1,2,5.1,5.6
			c0,2-0.1,5.9-0.1,7.4c0,0.3,0.1,0.5,0.3,0.4l2.2-0.1c0,0.6,0,1.4,0,2.1c-0.5,0.2-2.8,0.6-4.9,0.6c-0.4-0.3-0.8-0.9-1.3-1.6H47.6z
			 M42.1,84.2c0,1,1,1.6,2.1,1.6c1,0,2.3-0.5,3.3-1.2c0.1-0.1,0.1-0.1,0.1-0.3c0-0.8,0-1.9,0-2.8c-0.2,0-0.8,0-1.5,0
			C43.3,81.6,42.1,82.8,42.1,84.2L42.1,84.2z"/>
		<path fill="#545454" d="M67,86.8c-3.1,1.5-3.9,1.6-4.9,1.6c-1.6,0-3.1-0.5-4.3-1.7c-1.3-1.3-2.1-3.2-2.1-5.5
			c0-2.5,0.9-4.8,2.5-6.6c1.3-1.4,3.2-2.2,5.2-2.2c1.3,0,2.5,0.3,3.4,0.6l0.2-0.1c0-2.3,0-4.4-0.1-6.7L64,66.1c0-0.7,0-1.5,0-2.1
			c1.9-0.2,6.5-0.9,6.9-0.9c0,0,0.1,0,0.1,0.1c0,6.1-0.1,15.3-0.1,22.1c0,0.4,0.1,0.6,0.3,0.6l2.2-0.1c0,0.6,0,1.4,0,2.1
			c-0.5,0.2-3.1,0.6-4.9,0.6c-0.5-0.3-0.8-0.8-1.2-1.6H67z M66.8,84.1c0-2.8,0-5.9,0-8.5c-0.8-0.4-1.8-0.8-2.9-0.8
			c-1.1,0-2.2,0.5-2.8,1.4c-0.7,1-1.1,2.4-1.1,4.4c0,1.6,0.3,2.8,1,3.8c0.6,0.8,1.5,1.3,2.4,1.3c1.2,0,2.2-0.4,3.3-1.1
			C66.8,84.6,66.8,84.4,66.8,84.1L66.8,84.1z"/>
		<path fill="#545454" d="M74.6,75.4c0-0.7,0-1.5,0-2.1c1.7-0.2,6.2-0.9,6.6-0.9c0,0,0,0,0,0.1c0,3.9-0.1,9.6-0.1,13.3l2.3,0.1
			c0,0.7,0,1.5,0,2.1c-1.2,0-2.9,0-4.4,0c-1.3,0-2.9,0-4.2,0c0-0.7,0-1.5,0-2.1l2.2-0.1c0.1,0,0.1-0.1,0.1-0.1V75.5L74.6,75.4z
			 M78.9,64.7c1.6,0,2.4,1.2,2.4,2.3c0,1.5-1.1,2.5-2.5,2.5c-1.3,0-2.4-1-2.4-2.4C76.4,65.8,77.3,64.7,78.9,64.7L78.9,64.7z"/>
		<path fill="#545454" d="M84.9,75.4c0-0.7,0-1.4,0-2.1c1.6-0.2,5.7-1,5.9-1c0.1,0,0.1,0,0.1,0.1c0.1,0.7,0.3,1.5,0.4,2.1l0.2,0
			c3.5-2.1,4.3-2.3,5.9-2.3c1.7,0,3.1,1.3,3.8,2.5c0.6,1,0.7,2,0.7,2.9c0,2.4-0.1,5.6-0.1,8.1l2.1,0.1c0,0.7,0,1.5,0,2.1
			c-1.2,0-2.8,0-4.1,0c-1.3,0-2.8,0-3.9,0c0-0.7,0-1.5,0-2.1l1.8-0.1c0.1,0,0.1-0.1,0.1-0.1c0-1.7,0-4,0-5.8c0-1.5,0-2.7-0.4-3.4
			c-0.5-1-1.3-1.1-2-1.1c-1.1,0-2.8,0.8-3.9,1.7c-0.1,2.5-0.1,6.3-0.1,8.7l2.1,0.1c0,0.7,0,1.5,0,2.1c-1.2,0-2.9,0-4.2,0
			c-1.3,0-2.8,0-4,0c0-0.7,0-1.5,0-2.1l2-0.1c0.1,0,0.1-0.1,0.1-0.1V75.5L84.9,75.4z"/>
		<path fill="#545454" d="M109.8,83.7c-1.6-0.8-3.5-2.4-3.5-5.1c0-3.4,3.1-6.2,7.5-6.2c1.3,0,2.5,0.2,2.9,0.3
			c0.4,0.1,0.6,0.1,0.8,0.1c1.6-0.1,3.9-0.1,5-0.2c0.1,0.8,0.1,1.6,0,2.4c-0.8,0-2.4,0-3.2,0l0,0.1c0.6,0.7,1,1.8,1,3
			c0,1.3-0.5,2.9-1.6,4c-1.2,1.2-3.1,2.2-6.4,2c-0.7,0.6-1.3,1.1-1.3,1.6c0,0.9,0.9,1,4.2,1.1c3.2,0.1,4.5,0.3,5.7,1.1
			c1.1,0.8,1.6,1.4,1.6,3c0,2.1-1.5,4-4.2,5c-1.6,0.6-3.7,1-5.7,1c-4.6,0-7.4-1.5-7.4-4.2c0-0.6,0.2-0.9,0.8-1.4
			c1.5-1,2.3-1.6,3.2-2.2V89c-1.2-0.4-2.4-1-2.4-2.8c0-0.3,0.1-0.4,3.1-2.3V83.7z M118.4,91.7c0-1.3-0.7-1.6-3.4-1.8
			c-1.8-0.1-3-0.2-3.7-0.3c-1.2,1.1-2,1.9-2,3c0,1.6,2,2.3,3.9,2.3c1.3,0,2.7-0.2,3.7-0.8C117.8,93.6,118.4,92.8,118.4,91.7
			L118.4,91.7z M110.4,78.3c0,3,1.3,3.9,2.9,3.9c1.7,0,2.9-1.4,2.9-4.2c0-1.3-0.2-2.1-0.7-2.8c-0.4-0.6-1.1-0.9-2.1-0.9
			C111.6,74.3,110.4,75.8,110.4,78.3L110.4,78.3z"/>
		<path fill="#545454" d="M143.2,85.6l3,0.1c0,0.8,0,1.5,0,2.3c-1.4,0-3.3,0-4.9,0c-1.6,0-3.4,0-5,0c0-0.8,0-1.5,0-2.3l2.7-0.1
			c0.1,0,0.1-0.1,0.1-0.1V67.2c-2.4,0-3,0.1-3.7,0.2c-0.6,0.1-0.8,0.3-0.8,0.7l-0.6,3.4c-0.9-0.1-1.9-0.1-2.8-0.2
			c0.1-2.2,0.3-4.3,0.4-6.5c0.7,0,2,0,3.3,0c0.9,0,5.3,0,6.5,0c1.1,0,6.7,0,7.6,0c1.5,0,5.4,0,6.2,0c0,2.9,0,6.2-0.1,9.6l0.2,0
			c3.7-1.9,4.4-2,5.7-2c1.6,0,3.3,1.3,4.1,2.7c0.4,0.7,0.5,1.6,0.5,2.7c0,2.5,0,5.4-0.1,8.1l2.1,0.1c0,0.7,0,1.5,0,2.1
			c-1.2,0-2.7,0-4,0c-1.3,0-2.8,0-4,0c0-0.7,0-1.4,0-2.1l1.8-0.1c0.1,0,0.1-0.1,0.1-0.1c0-1.8,0-4.3,0-6c0-1.6,0-2.6-0.4-3.4
			c-0.5-0.8-1.3-1-1.9-1c-1.2,0-2.8,0.7-4,1.6c0,2.5-0.1,6.4-0.1,8.9l2.3,0.1c0,0.7,0,1.5-0.1,2.1c-1.2,0-2.9,0-4.4,0
			c-1.1,0-2.8,0-3.9,0c0-0.7,0-1.5,0-2.1l1.9-0.1c0.1,0,0.1-0.1,0.1-0.1c0-5.6,0-13.6,0-17.6c0-0.4-0.3-0.7-1-0.8
			c-0.7,0-4.4-0.1-6.8-0.1L143.2,85.6z"/>
		<path fill="#545454" d="M169.7,81.1c0-4.8,3.3-8.7,8.2-8.7c2,0,3.5,0.7,4.5,1.9c1.1,1.3,1.6,3.1,1.6,5c-0.1,0.5-1.2,1.6-1.5,1.6
			c-1.6,0.1-5.9,0.1-8.5,0.1c0,1.6,0.4,2.8,1.1,3.5c1,1,2,1.2,3.3,1.2c1.6,0,3.7-0.6,4.8-1.1c0.2,0.7,0.4,1.5,0.5,2.2
			c-2,1-4.6,1.6-6.2,1.6C172.7,88.4,169.7,85.7,169.7,81.1L169.7,81.1z M177.3,74.6c-1,0-1.7,0.3-2.3,1c-0.5,0.6-1.1,1.6-1.1,3.2
			c1.7,0,4.1,0,5.8-0.1c0.3,0,0.4-0.1,0.4-0.4c0-1-0.3-2.1-0.7-2.7C178.9,75,178.2,74.6,177.3,74.6L177.3,74.6z"/>
		<path fill="#545454" d="M201.4,85.7c0.1,0,0.1-0.1,0.1-0.1V67.2c-2.4,0-3,0.1-3.7,0.1c-0.6,0.1-0.8,0.3-0.8,0.7l-0.6,3.5
			c-0.9-0.1-1.9-0.1-2.8-0.3c0.1-2.1,0.3-4.3,0.4-6.4c0.7,0,2,0,3.3,0c0.9,0,5.3,0,6.5,0c1.1,0,5.4,0,6.3,0c1.5,0,2.5,0,3.2,0
			c0.1,2.1,0.3,4.3,0.3,6.4c-0.9,0.1-1.9,0.2-2.8,0.3l-0.5-3.5c-0.1-0.4-0.2-0.6-0.8-0.6c-0.7-0.1-1.3-0.2-3.8-0.2l-0.1,18.5l3,0.1
			c0,0.7,0,1.5,0,2.3c-1.4,0-3.3,0-4.9,0c-1.6,0-3.4,0-5,0c0-0.8,0-1.5,0-2.3L201.4,85.7z"/>
		<path fill="#545454" d="M222.8,86.8c-2.4,1.3-3.9,1.6-5.2,1.6c-1.8,0-4.3-1.6-4.3-3.8c0-2,2.3-5,7.4-5c1.1,0,1.8,0,2.2,0
			c0.1-2.9-0.7-4.3-2.6-4.3c-1.4,0-3.1,1-4.4,2.2c-0.5-0.6-1-1.2-1.5-1.9c2-1.8,4.3-3.3,7.3-3.3c2.7,0,5.1,2,5.1,5.6
			c0,2-0.1,5.9-0.1,7.4c0,0.3,0.1,0.5,0.3,0.4l2.2-0.1c0,0.6,0,1.4,0,2.1c-0.5,0.2-2.8,0.6-4.9,0.6c-0.4-0.3-0.8-0.9-1.3-1.6H222.8z
			 M217.3,84.2c0,1,1,1.6,2.1,1.6c1,0,2.3-0.5,3.3-1.2c0.1-0.1,0.1-0.1,0.1-0.3c0-0.8,0-1.9,0-2.8c-0.2,0-0.8,0-1.5,0
			C218.5,81.6,217.3,82.8,217.3,84.2L217.3,84.2z"/>
		<path fill="#545454" d="M230.6,75.4c0-0.7,0-1.4,0-2.1c1.5-0.2,5.7-0.9,5.9-0.9c0,0,0.1,0,0.1,0.1c0.1,1.2,0.1,2.9,0.2,4.7l0.2,0
			c2.1-4.1,3.2-4.9,4.8-4.9c0.8,0,1.7,0.2,2.3,0.4c0,1.1-0.8,3.3-1.3,3.7c-0.3-0.1-1.3-0.3-2-0.3c-0.4,0-0.7,0.1-1.1,0.4
			c-0.7,0.5-1.3,1.4-2.1,3c-0.4,0.8-0.6,2-0.6,3.2c0,1,0,2.1,0,3l3.2,0.1c0,0.6,0,1.4,0,2.1c-1.4,0-3.3,0-4.9,0c-1.4,0-3,0-4.3,0
			c0-0.7,0-1.5,0-2.1l1.9-0.1c0.1,0,0.1-0.1,0.1-0.1c0-3.3,0-7.1,0-10.2L230.6,75.4z"/>
		<path fill="#545454" d="M252.8,88.4c-2,0-3.9-0.6-5.2-1.7c-1.6-1.4-2.5-3.3-2.5-5.9c0-2.6,1.1-5,3.2-6.7c1.5-1.1,3.4-1.7,5.3-1.7
			c1.8,0,3.3,0.4,4.7,1.3c1.8,1.3,3,3.4,3,6.4c0,3-1.4,5.5-3.4,6.9C256.4,87.9,254.8,88.4,252.8,88.4L252.8,88.4z M253.2,86.3
			c0.9,0,1.7-0.2,2.4-1c1-1.1,1.3-2.6,1.3-5c0-2.1-0.4-3.5-1.1-4.5c-0.6-0.9-1.5-1.3-2.5-1.3c-0.8,0-1.8,0.3-2.4,1.1
			c-0.9,1-1.4,2.6-1.4,4.8c0,2.4,0.4,3.9,1.3,4.9C251.4,85.9,252.2,86.3,253.2,86.3L253.2,86.3z"/>
		<path fill="#545454" d="M269.6,88.4c-0.8,0-1.8-0.1-2.7-1c-1.1-0.9-1.1-1.7-1.1-2.8c0-1.9,0-4.3,0-5c0-0.9,0-3.7,0-4.4
			c-0.7,0-1.6,0-2.5,0c0-0.8,0-1.6,0.1-2.3c0.8,0,1.6-0.1,2.3-0.1c0.1,0,0.3-0.1,0.3-0.3c0-1,0.1-2.2,0.2-3.2
			c1.3-0.7,3.6-1.5,3.7-1.5c0,0,0.1,0,0.1,0.1c0,1,0,3.5-0.1,4.8c1.8,0,3.8,0,5.6,0c0,0.8-0.1,1.7-0.1,2.5c-1.6,0-3.7,0-5.5,0
			c0,0.4,0,2.1,0,3.6c0,1.5,0,3.2,0,4.9c0,1.3,1,1.9,2,1.9s2.4-0.3,3.6-0.5c0.1,0.7,0.3,1.5,0.3,2.2
			C273.8,88.1,271.5,88.4,269.6,88.4L269.6,88.4z"/>
		<path fill="#545454" d="M280.5,85.1c0.1,0.2,0.1,0.3,0.3,0.4c0.6,0.4,1.4,0.6,2.3,0.6c0.8,0,1.5,0,2.1-0.4
			c0.5-0.3,0.9-0.8,0.9-1.6c0-1.4-0.8-1.7-3.5-2.5c-3-0.9-4.4-2.2-4.4-4.3c0-1.9,1.3-3.3,2.6-4c1.1-0.6,2.6-1,4.6-1
			c1.9,0,3.4,0.4,3.8,0.6c0.2,1.4,0.3,2.9,0.4,4.3c-0.7,0.1-1.6,0.3-2.4,0.4l-0.5-2.1c0-0.1-0.1-0.3-0.2-0.4
			c-0.5-0.3-1.1-0.5-1.8-0.5s-1.4,0.2-1.8,0.5c-0.4,0.3-0.8,0.8-0.8,1.6c0,1.1,0.6,1.4,3.4,2.2c2.6,0.7,4.5,1.6,4.5,4.4
			c0,1.8-1,3.2-2.6,4.2c-1,0.6-2.8,0.9-4.8,0.9c-1.8,0-3.5-0.3-4.5-0.6c-0.2-1.5-0.4-3-0.5-4.4c0.8-0.2,1.6-0.3,2.4-0.4L280.5,85.1z
			"/>
	</g>
</g>
</svg>
