<?xml version="1.0" encoding="utf-8"?>
<!-- Generator: Adobe Illustrator 17.1.0, SVG Export Plug-In . SVG Version: 6.00 Build 0)  -->
<!DOCTYPE svg PUBLIC "-//W3C//DTD SVG 1.1//EN" "http://www.w3.org/Graphics/SVG/1.1/DTD/svg11.dtd">
<svg version="1.1" id="Layer_1" xmlns="http://www.w3.org/2000/svg" xmlns:xlink="http://www.w3.org/1999/xlink" x="0px" y="0px"
	 width="290px" height="160px" viewBox="0 0 290 160" enable-background="new 0 0 290 160" xml:space="preserve">
<g>
	<path fill="#545454" d="M73.6,53.1l-9.3,55.2l-22.6,0.5l-4.9-28.6L32,106.7l-22.6,0.8L0,53.1l19.7-1.8l4,33l5.3-33h15.5l6.2,33.4
		L54,51.3L73.6,53.1z"/>
	<path fill="#545454" d="M123.2,104.9l-19.7,2.5l-2.4-9H92l-2,9l-20.3-2l15.8-53l22.1-1.1L123.2,104.9z M99.6,86.3l-3-13.9
		l-2.9,13.9H99.6z"/>
	<path fill="#545454" d="M164.7,51.7c-0.2,2.5-0.3,5-0.4,7.4c-0.1,2.4-0.3,4.9-0.5,7.4l-16.9,0.9v5h14.6l-0.8,12.3l-13.9,0.4l0.1,22
		l-20.1,0.4l1.3-55.8C128.1,51.7,164.7,51.7,164.7,51.7z"/>
	<path fill="#545454" d="M204.5,51.7c-0.2,2.5-0.3,5-0.4,7.4c-0.1,2.4-0.3,4.9-0.5,7.4l-16.9,0.9v5h14.6l-0.8,12.3l-13.9,0.4l0.1,22
		l-20.1,0.4l1.3-55.8C167.9,51.7,204.5,51.7,204.5,51.7z M241.7,87.2l-1.7,17.7l-33.5,2.6l1.3-56.8h20.7l-2.9,36.5H241.7z"/>
	<path fill="#545454" d="M290,76.2c0,2.3-0.2,4.6-0.5,6.9c-4.5,0.3-9.1,0.8-13.5,1.4c-4.5,0.7-9,1.3-13.5,1.9
		c0.7,1.9,1.8,3.4,3.2,4.6c1.5,1.1,3.2,1.7,5.3,1.7c1.1,0,2.2-0.2,3.5-0.6s2.5-0.9,3.8-1.5c1.2-0.6,2.4-1.2,3.6-1.9s2.1-1.3,2.9-1.9
		l-1.9,18.1c-1,0.8-2.2,1.5-3.4,2c-1.2,0.6-2.5,1-3.8,1.4s-2.6,0.6-3.9,0.8c-1.3,0.2-2.6,0.2-3.9,0.2c-2.6,0-5-0.4-7.2-1.1
		s-4.1-1.7-5.9-3s-3.3-2.8-4.6-4.6c-1.3-1.8-2.4-3.7-3.3-5.7c-0.9-2.1-1.5-4.3-2-6.6s-0.7-4.6-0.7-7c0-2.5,0.2-4.9,0.7-7.4
		s1.1-4.8,2.1-7.1s2.1-4.4,3.5-6.3c1.4-2,3-3.7,4.9-5.1c1.9-1.4,4-2.6,6.3-3.4c2.3-0.8,4.9-1.2,7.8-1.2c2.4,0,4.5,0.3,6.5,1
		s3.7,1.6,5.2,2.7c1.5,1.2,2.9,2.5,4,4.1s2.1,3.3,2.8,5.2c0.7,1.9,1.3,3.9,1.6,6C289.8,71.9,290,74,290,76.2z M274.1,74.1
		c0-0.7-0.1-1.5-0.2-2.3c-0.2-0.8-0.4-1.5-0.8-2.1s-0.8-1.2-1.4-1.6s-1.3-0.6-2.2-0.6c-1.1,0-2,0.3-2.8,0.9s-1.5,1.3-2.1,2.1
		c-0.6,0.9-1.1,1.8-1.4,2.8c-0.4,1-0.7,1.9-0.8,2.8l11.8-1.1v-0.9H274.1z"/>
</g>
<g opacity="0.3">
	<path fill="#545454" d="M69.9,135.4c0,0.9,0.2,2.6-1.9,3.1c-0.2,0-0.4,0.2-0.4,0.2c0.3,2.2-1.4,3.5-2.5,5c-0.7,1-1,2.2-1.7,3.1
		c-0.4,0.6-1.1,1-1.7,1.6c-0.8,1.4-1.6,3-2.5,4.5c-0.1,0.2-0.5,0.4-0.8,0.4c-3.1,0-6.2,0.1-9.3-0.1c-1.1-0.1-2.2-0.6-3.2-1.1
		c-4.4-2.2-8.8-4.4-13-6.8c-3.2-1.9-6.4-3.9-9.3-6.2c-2.1-1.6-3.8-3.7-5.5-5.8c-1.7-2.2-0.9-6.2,1.4-8.9c1.8-2.1,3.4-4.5,5.2-6.6
		c2.7-3.4,5.4-6.7,8.3-10c3.1-3.5,6.4-6.8,9.8-10.1c2.8-2.7,5.8-5.3,8.7-7.9c1.4-1.3,2.7-2.9,4.2-4.2c2.1-1.8,4.5-3.3,6.6-5
		c1.8-1.5,3.4-3.3,5.2-4.8c2.3-1.8,4.8-3.5,7.1-5.2c1.8-1.3,3.5-2.8,5.3-4.1c2.1-1.5,4.3-3,6.4-4.5c0.5-0.3,0.8-0.9,1.3-1.2
		c3-2.1,5.9-4.3,9-6.4c2.4-1.6,5-3.1,7.4-4.7c0.9-0.6,1.7-1.4,2.5-2c2-1.4,4-2.8,6.1-4.2c2.3-1.4,4.6-2.8,6.9-4.1
		c1.3-0.8,2.7-1.5,4-2.3c1.7-1,3.3-2,4.9-3c0.3-0.2,0.9,0.1,1.6,0.2c0.1-0.6,0.2-1.3,0.3-1.9c0.5-2.4,1.2-4.8,0.7-7.3
		c-0.1-0.3,0.2-0.9,0.4-1c2.4-0.9,1.6-3.2,2.1-4.9c0.6-1.8,1.1-3.8,2.2-5.3c0.8-1.2,1.1-2.7,2.7-3.6c2-1.1,5.1-1.9,6.8,0.4
		c1,1.3,2.5,2.3,2.1,4.5c-0.2,1,0.9,2.3,1.4,3.6c-0.6,0-1,0.1-1.4,0.1c0.1,0.9,0.2,1.8,0.3,2.6c0.1,0.5,0.3,1.1,0.7,2.1
		c0.7-0.7,1.1-1.3,1.7-1.6c1.1-0.6,1.7-1.8,3.1-2.2c1.1-0.3,1.9-1.4,2.9-2.1c2.5-1.8,5-3.7,7.7-5.2c2.3-1.3,4.8-2.4,7.4-3
		c2.1-0.5,4.3,0.5,5.6,2.3c1,1.3,0.4,2.9-0.1,4.5c-1,3.7-3.5,6.1-6,8.7c-2.3,2.3-4.4,4.9-6.7,7.5c3.7-1.2,7.2-2.7,10.9-3.5
		c4.3-1,8.6-1.6,13-2.1c2.9-0.4,5.3,1.2,7.5,2.8c0.4,0.3,0.6,1.2,0.6,1.9c0.2,3.7-1.7,6.2-4.9,7.6c-2.9,1.3-6.2,1.9-9.3,2.8
		c-2.2,0.6-4.5,1.2-6.7,1.8c-0.3,0.1-0.5,0.4-0.7,0.7c0.3,0.1,0.5,0.4,0.8,0.4c4.8,0.5,9.7,0.7,14,3.3c1,0.6,2.1,1,2.9,1.8
		c2.2,2.1,1.9,4.2-0.6,5.8s-5.2,2.4-8,3c-2,0.4-4.2,0.1-6.3,0c-4.3-0.1-8.6-0.1-12.9-0.2c-0.4,0-0.8,0.2-0.9,0.3
		c1.9,2.5,4.1,4.9,5.5,7.7c1,1.9,1.1,4.4,1.3,6.6c0,0.5-1.1,1.4-1.7,1.5c-1.5,0.2-3.2,0.4-4.7,0c-2.5-0.6-5-1.7-7.5-2.4
		c-3.9-1-6.5-4-9.9-5.9c-0.4-0.2-1.1-0.5-1.4-0.3c-1.2,0.6-2.2,1.5-3.3,2.2c-0.8,0.5-1.8,0.5-2.5,1.1c-1.7,1.3-3.2,2.9-4.8,4.3
		c-1.8,1.6-3.7,3.1-5.6,4.6c-1.7,1.4-3.4,2.6-5.1,4c-1.5,1.2-2.9,2.5-4.3,3.8c-2,1.7-4.1,3.4-6.1,5.2c-3.5,3.1-7,6.3-10.5,9.4
		c-1.7,1.5-3.6,3-5.3,4.5c-0.4,0.4-0.7,1-1.1,1.5c-0.6,0.7-1.3,1.2-1.9,1.9c-0.6,0.7-1.2,1.4-1.9,2c-1.5,1.5-3,2.9-4.5,4.5
		c-1.3,1.4-2.3,3-3.6,4.4c-1.1,1.2-2.4,2.1-3.6,3.1c-0.1,0.1-0.3,0.1-0.3,0.1c0.3,2.6-2.3,3-3.5,4.6c-1.3,1.7-2.7,3.3-4.1,4.9
		C72.1,133.3,71.2,134.2,69.9,135.4z M43.3,100.4c-0.6,0.8,0.2,2.4-1.6,2c-0.2,0-0.6,1.3-1,1.8c-1.9,2.1-3.8,4.2-5.8,6.2
		c-0.4,0.5-1,0.8-1.5,1.2c-0.4,1-0.8,2.2-1.6,2.8c-1.4,1.1-3.1,1.8-3.8,3.7c-0.3,0.8-1.3,1.2-1.8,1.9c-1.3,1.8-2.5,3.6-3.7,5.4
		c1.9,0.5,4,1,5.9,1.6c3.2,1.1,6.6,1.9,9.5,3.5c4,2.2,7.7,4.9,11.6,7.5c1.2,0.8,2.5,1.5,3.5,2.4c1.6,1.6,3,3.4,4.6,5.1
		c0.3,0.3,1.4,0.3,1.5,0.1c1-2.5,3.6-4,4.3-6.7c0.1-0.4,0.3-0.8,0.5-1c0.4-0.2,0.9-0.2,1.3-0.4c-0.2-1.8,1.7-5.5,3.2-6.2
		s3.9-3,4.7-4.2c1.4-2.1,2.9-4.1,4.5-6c1.1-1.2,2.8-1.9,3.8-3.2c1.3-1.6,2.2-3.4,3.8-4.8c1.5-1.3,2.7-3.1,4.3-4.5
		c2.5-2.2,4.4-4.9,6.6-7.4c1-1.2,1.8-1.2,2.6,0.7c-0.2-2.9,0.8-4.3,2.6-4.2c0.2-0.6,0.3-1.3,0.7-1.7c2.2-2.1,4.5-4.2,6.9-6.1
		c1.2-0.9,1.8-3.1,3.7-2.4c0.7-1,1.3-2,2-2.8c0.6-0.7,1.4-1.1,2.1-1.7c0.6-0.5,1.2-1.1,1.9-1.6c1.4-1.1,2.9-2.2,4.5-3.4
		c0,0,0.4,0.3,0.3,0.3c0.5-0.7,0.8-1.5,1.4-2.1c0.6-0.5,1.4-0.7,2.1-1.2c2.4-1.8,4.8-3.7,7.3-5.6c0.9-0.7,2.5-1,2.8-1.8
		c0.5-1.5,1.7-1.4,2.7-1.9c0.7-0.4,1.4-0.8,2-1.2c1.2-0.7,2.3-1.5,3.5-2.1c0.2-0.1,0.8,0.4,1.2,0.8c0.8,0.8,1.5,1.7,2.4,2.4
		c1.1,0.9,2.2,1.8,3.4,2.5c1.4,0.9,2.9,1.6,4.4,2.3c2.6,1.3,5.3,1.3,8.1,1.2c1.6-0.1,2.2-0.9,1.6-2.3c-1.6-4.2-4.4-7.4-8.2-9.7
		c-1.6-1-0.4-2-0.3-2.9c0-0.4,1-1,1.4-0.9c3.7,0.2,7.5,0.6,11.2,0.9c5.1,0.3,10.1,0.2,15.1-0.7c1.4-0.3,2.6-1,3.9-1.7
		c0.3-0.2,0.7-1.1,0.5-1.3c-1.5-1.9-2.5-4.3-5.5-4.6c-2.2-0.2-4.4-1.1-6.6-1.3c-3.9-0.4-7.8-0.8-11.7-0.7c-1.5,0-2.5-0.1-4.1-1.5
		c1.6-0.4,2.7-0.7,3.8-0.9c2.9-0.6,5.8-1,8.7-1.7c2.7-0.7,5.3-2,8.1-2.5c3.6-0.6,6.6-2.2,9.2-4.5c0.5-0.4,0.6-1.5,0.6-2.2
		c-0.3-2.6-2.4-3.3-4.6-3.7c-2.8-0.6-5.5,0.1-8.2,0.9c-5.1,1.5-10.2,2.9-15.2,4.6c-1.3,0.4-2.5,1.1-3.9,0.6c-0.7-0.2-1.3-0.7-2-1.1
		c0.5-0.7,0.9-1.5,1.5-2.1c1.2-1.2,2.6-2.3,3.8-3.5c1.8-1.9,3.4-3.9,5.1-5.8c2.2-2.4,4-5.1,4.8-8.3c0.5-1.8-0.7-3.2-2.5-2.7
		c-2.3,0.6-4.6,1.3-6.7,2.4c-5.7,3-10.4,7.4-15.2,11.6c-1.6,1.3-2.9,2.9-4.3,4.4c-0.2-0.1-0.4-0.2-0.6-0.3c-0.1-0.9-0.3-1.9-0.2-2.8
		c0.1-1.1,0.6-2.2,0.7-3.4c0.3-2.9,0.5-5.9-0.6-8.7s-2.8-3.7-4.7-2.6c-0.7,0.4-1.2,1-1.7,1.7c-3.2,4.1-3.8,9.1-4.7,14
		c-0.4,2.1-0.1,4.3-0.4,6.3c-0.2,1.1-1.1,2.1-1.9,2.9c-1.9,1.9-4.6,2.1-6.9,3.2c-2.6,1.3-5.2,2.8-7.8,4.3c-3,1.8-6,3.7-8.9,5.6
		c-1.1,0.7-2.2,1.5-3.4,2.2c-0.4,0.2-0.7,0.5-1,0.8c-2.6,1.5-5.2,2.9-7.7,4.6c-1.7,1.1-3.1,2.6-4.7,3.9c-0.5,0.4-1.1,0.6-1.8,1
		c-0.1,0.3-0.3,1-0.7,1.4c-0.3,0.3-1,0.3-1.5,0.3c-0.2,0-0.5-0.3-0.7-0.5c-0.2,0.4-0.6,0.7-0.6,1.1c-0.1,0.4,0,0.9,0,0.9
		c-0.8,0.3-1.2,0.4-1.6,0.6c-2.1,1.6-4.1,3.2-6.2,4.8c-0.7,0.5-2,0.7-2.3,1.3c-0.6,1.2-1.4,1.8-2.6,2.2c-0.1,0-0.1,0.2-0.1,0.3
		c-0.4,0.5-0.7,1.1-1.2,1.4c-3.2,2-6.4,3.9-8.5,7.2c-0.1,0.1-0.4,0.3-0.5,0.3c-1.1-0.6-1.1,0.5-1.6,0.9c-1.1,0.9-1.4,3-2.8,2.6
		c-1.2,0.8-2,1.4-2.8,2s-1.6,1.2-2.7,1.9c-0.8-0.3-1.3,0.2-1.2,2.4c-2.9,0.1-3.5,2.6-4.8,4.5c-0.3-0.3-0.6-0.6-1.2-1.3
		C45.8,99.8,45.2,100.8,43.3,100.4z M55.8,150.7c0.4-2-0.5-3.6-1.8-5c-2.2-2.3-4.5-4.6-6.7-6.9c-0.7-0.7-1.4-1.3-2.3-1.8
		c-1.6-0.8-3.5-1.3-4.9-2.3c-2.9-2.2-6-4-9.5-5c-0.7-0.2-1.4-0.4-2.1-0.7c-2.2-1.2-4.5-1.8-6.9-0.9c-2.7,0.9-3.4,2.7-1.6,4.9
		c2,2.4,4.3,4.7,6.8,6.7c2.4,1.8,5.2,3.2,7.9,4.7c2.6,1.5,5.4,2.7,8,4.3c2.9,1.8,6.4,1.1,9.5,2.4C53.2,151.5,54.6,150.8,55.8,150.7z
		"/>
	<path fill="#545454" d="M67.9,122.2c-2.5-3.3-6.2-4.8-9.9-6.2c-3.5-1.3-7.2-1.8-10.8-2.7c-1.5-0.4-3-0.7-4.7-1.2
		c0.6-0.8,1-1.2,1.3-1.7c6.1,1.8,12,3.5,18,5.3c0,0,0-0.6-0.3-0.9c-2.4-2.2-4.7-4.4-7.2-6.4c-1-0.7-2.6-0.8-4-0.9s-2.8-1.4-2.6-2.3
		c2-0.2,3.8-0.5,5.6-0.7c0.3,0,0.6-0.1,0.9,0c1.5,0.2,3.1,0.3,4.6,0.6c1,0.2,2,0.6,3,0.9c1.2,0.3,2.5,0.6,3.7,0.8
		c0.4,0.1,1,0.3,1.2,0.1c1.1-1.2,1.6-0.1,2,0.5c2.6-1.1,4.7,1.3,7.5,0.9c-1.8-1.9-3.3-3.4-5.5-4.2c-0.5-0.2-1-0.4-1.5-0.7
		c-2.6-1.8-4.9-3.9-8.3-4.1c-1.1,0-2.3-0.2-3.1-0.7c-0.7-0.5-0.9-1.7-1.4-2.6c0.3-0.1,0.5-0.3,0.8-0.2c3.8,0.7,7.6,1.4,11.4,2.1
		c1,0.2,2,0.5,3,0.6c0.5,0.1,1.1,0,1.7-0.3c-2.2-1.1-4-2.8-6.7-2.8c-1.7,0-3.4-0.7-5-1.4c-0.4-0.2-0.4-1.2-0.5-1.9
		c0-0.1,0.8-0.3,1.2-0.3c2.6-0.4,5.3-0.9,7.9-1.3c2.7-0.4,5.4-0.7,8.1-1c1.6-0.2,3.2-0.4,4.9-0.5c1.4-0.1,2.9,0,4.3,0.1
		c2.3,0.1,4.5,0.2,7.2,0.3c-1-1.1-1.8-2.1-2.8-3c-2.3-2.2-4.6-4.5-6.9-6.7c-0.7-0.6-1.6-1.1-2.5-1.5c-1.1-0.5-2.1-1.1-1.7-3
		c7.3,1.6,14.6,3.1,21.9,4.7c-0.5-0.6-1-1.4-1.6-2.2c-1.2-1.5-2.4-3.1-3.8-4.4c-1.2-1.1-2.7-2-4.2-2.8c-1.3-0.7-1.2-1.5-0.6-2.4
		c7.6,0.5,15,1.1,22.5,1.6c0.1-0.1,0.2-0.2,0.3-0.3c-1.2-0.9-2.4-1.9-3.7-2.8c-1.4-1-2.8-2-4.3-2.8c-1-0.6-2.3-0.8-3.4-1.3
		c-0.6-0.2-1.1-0.6-1.6-0.9c0.5-0.4,0.9-1.1,1.4-1.2c2.3-0.1,4.7,0,7-0.1c1.7-0.1,3.3-0.7,5-0.7c2.1,0,4.3,0.3,6.4,0.5
		c0.9,0.1,1.8,0.2,2.7,0.2c1.2,0,2.7,1,2.8,1.9c-3.7-0.2-7.3-0.5-11-0.7c0,0.1-0.1,0.2-0.1,0.3c3.2,1.1,6.3,2.3,9.5,3.4
		c0,0.2,0,0.5,0,0.7c-0.6,0.1-1.3,0.5-1.7,0.2c-4-2-8.4-2.9-12.8-3.9c-0.8-0.2-1.7,0-2.5,0.2c-0.3,0.1-0.4,0.6-0.7,1
		c0.3,0.1,0.7,0.1,1,0.2c0.3,0,0.7-0.1,0.8,0.1c2,1.7,4,3.4,6,5c0.8,0.6,1.7,1.2,2.7,1.5c1.7,0.6,1.8,0.8,1.1,2
		c-2.7-0.1-5.1-0.1-7.6-0.2c-1.4-0.1-2.7-0.5-4.1-0.6c-3.8-0.3-7.5-0.6-11.6-0.8c0.4,0.6,0.6,1.2,1,1.7c1.8,2.1,3.7,4.2,5.6,6.2
		c1.4,1.4,2.9,2.6,4.7,4.2c0,0.1-0.1,0.8-0.4,1.4c-0.1,0.3-0.9,0.5-1.1,0.3c-3.1-2.4-6.7-3.1-10.5-3.3c-0.5,0-1-0.2-1.4-0.4
		c-1.8-0.6-3.7-1.3-5.6-1.8c-0.7-0.2-1.5,0.1-2.8,0.1c4.4,4.2,8.4,8,12.5,11.9c-0.1,0.2-0.1,0.3-0.2,0.5c-2.2,0.1-4.4,0.2-6.6,0.2
		c-2.3-0.1-4.7-0.3-6.9-0.5c-1.9,0.3-3.8,0.5-5.7,0.8c-2,0.3-4,0.6-5.9,0.9c-1.1,0.2-2.3,0.4-3.4,0.6c-0.7,0.1-1.5,0.3-2,0.4
		c5.5,2.9,11,5.7,16.5,8.5c-0.3,1.9-1.2,2-2.5,1.2c-1.4-0.9-2.8-1.8-4.2-2.7c-0.2-0.1-0.4-0.2-0.5-0.2c-1,0.8-2.2-0.2-2.8-0.1
		c-3.1,0.9-5.4-1.8-8.6-1.2c0.6,0.5,1.1,0.9,1.6,1.2c3,1.9,6.1,3.8,9.1,5.8c0.9,0.6,1.8,1.3,2.5,2.2c0.5,0.6,0.8,1.5,1.3,2.6
		c-1.8-0.2-3-1.9-3.7-0.3c-1.4-0.5-2.6-0.9-3.9-1.3s-2.5-0.7-3.7-1c-0.7,0.1-1.3,0.3-1.9,0.2c-1.6-0.3-3.1-0.9-4.7-1.1
		c-1.9-0.2-3.8-0.2-6-0.4c0.4,0.7,0.6,1.2,0.9,1.5c2.8,2.8,5.5,5.6,8.3,8.4c0.7,0.7,1.6,1.4,2.4,2C70.1,120.7,70.2,120.7,67.9,122.2
		z"/>
	<path fill="#545454" d="M43.5,144.1c-3.6-0.9-7-2.2-9.4-5.1c-0.3-0.4-0.4-0.9-0.6-1.4c0.5-0.2,1-0.5,1.6-0.6c3.3-0.2,5.7,1.7,8,3.7
		C44.1,141.6,44.2,142.8,43.5,144.1z"/>
</g>
<g opacity="0.3">
	<path fill="#545454" d="M203.1,50.1c0.9,0.6,1.4,0.9,2,1.3c0.7-1,1.4-1.3,2.1,0.1c0.2,0.4,0.7,0.6,1.1,0.8c1.3-3.1,2.4-6,3.8-8.9
		c0.6-1.2,1.5-2.2,0.9-3.7c0-0.1,0.1-0.4,0.3-0.5c1-0.7,0.7-1.4,0.1-2.1c-0.6-0.8-1.3-1.5-1.9-2.4c-0.2-0.3-0.3-0.8-0.4-1.2
		c0.2-0.2,0.3-0.3,0.5-0.5c1.2,0.9,2.3,1.7,3.6,2.7c0.6-1.8,1.1-3.4,1.5-5c0.4-1.4,0.7-2.8,1.1-4.2c0.3-1.3,0.6-2.6,0.9-3.8
		c0.5-1.7,0.9-3.4,2.1-4.9c0.4-0.6,1-1.4,1.5-2.2c0.4-0.7,1.5-1.4,2.2-1.4c4.9,0.3,9.7,0.8,14.3,2.5c7.1,2.5,14.1,5.4,20.4,9.6
		c3,2,6.2,3.7,8.9,6c1.7,1.4,2.9,3.6,4.2,5.5c0.3,0.4,0.1,1.3-0.1,1.8c-0.9,2-1.9,3.9-2.8,5.8c-0.3,0.7-0.4,1.6-0.8,2.2
		c-1.4,2.3-2.8,4.6-4.2,7c-0.2,0.3-0.3,0.8-0.1,1.1c0.1,0.2,0.6,0.2,1,0.2c1.8,0,3.6-0.1,5.4-0.1c0.5,1.6-0.6,1.7-1.3,1.7
		c-1.6,0.1-3.2,0.1-4.8,0c-1.6,0-3.1,1.3-3.1,2.9c-0.3,0-0.9,0-1,0.2c-0.9,1.6-1.7,3.3-2.6,5c-0.2,0.4-0.4,0.8-0.7,1.1
		c-1.5,1.4-1.5,2,0.1,3.3c1,0.8,2.1,1.6,3.1,2.5c-1.8-0.4-3.8,0.3-5.2-1.5c-0.1-0.2-1.2,0-1.4,0.3c-0.8,1.1-1.5,2.3-2.3,3.5
		c-0.6,0.8-1.2,1.6-1.8,2.4c-0.5,0.6-1,1.3,0.1,1.9c0.1,0,0.2,0.2,0.2,0.2c-0.2,3.5,2.8,2.5,4.5,3.1c1,0.3,2.2,0.1,2.6,2.1
		c-3.5-0.7-6.7-1.3-9.8-2c-1.1-0.2-1.7-0.1-2.2,0.9c-0.2,0.5-0.5,1-0.8,1.5c-2,2.8-3.9,5.7-5.9,8.5c-1,1.4-2.1,2.8-3.2,4.2
		c-0.8,1-0.6,1.8,0.6,2.1c1.5,0.4,2.9,0.7,4.8,1.1c-2,1.4-4.3-0.4-5.9,1.3c-2.2-1.3-2.7-0.9-4.4,3.7c-0.3-0.3-0.6-0.6-0.9-0.9
		c-1.3,2.6-2.5,5.2-4,8.1c0.8,1.1,2.5,0.5,3.9,0.7c1,0.1,2.1-0.3,3.1-0.3c0.5,0,1,0.4,1.6,0.7c-0.4,0.3-0.8,0.7-1.3,0.7
		c-2.5,0.1-5.1,0.2-7.6,0.2c-0.8,0-1.7,0-2.7,0.1c0.3,0.8,0.5,1.3,0.6,1.5c-1.3,1.3-2.4,2.6-3.8,4.1c1.4,1.3,2.7,2.6,4,3.8
		c-0.2,0.2-0.3,0.5-0.5,0.7c-1.2-0.5-2.4-1-3.6-1.4c-0.4-0.1-1.3-0.1-1.4,0.1c-0.5,1-0.8,2.1-1.2,3.2c-0.2,0.5-0.2,1.1-0.5,1.4
		c-2.1,1.8-1.5,4.4-1.9,6.7c-0.4,2,0.8,4.2-0.8,6.1c-0.4,0.5-0.2,1.5-0.3,2.2c-0.8,5-3.6,8.4-8.3,10.1c-1.4,0.5-2.9,1.2-4.4,1.4
		c-1.2,0.2-2.4-0.2-3.7-0.3c-3.8-0.2-7.4-1.2-11-2.2c-3.9-1-7.7-2.4-11.6-3.3c-4.6-1.1-9.2-2.2-14.1-2.4c-3.8-0.2-7.6,0-11.4,0.3
		c-2.5,0.2-5,0.1-7.5,0.1c-2.3,0.1-4.5,0.3-6.8,0.2s-4.6-0.6-6.9-0.9c-0.2,0-0.4-0.5-0.6-0.7c-0.5-0.4-1-0.8-1.5-1.3
		c-0.3-0.3-0.5-0.7-0.7-1.1c0.3-0.2,0.6-0.4,0.9-0.5c-1.7-2.3-1.7-3.1-0.1-3.5c0,0.6,0,1.1,0,1.6c0.2,0.1,0.3,0.1,0.5,0.2
		c0.3-0.8,0.9-1.6,0.7-2.2c-0.2-0.7-1.1-1.2-1.8-1.5c-0.9-0.4-1.9-0.4-2.8-0.7c-2.4-0.7-3.7-2.7-4.9-4.5c-0.9-1.4,0.4-4,2.3-4.9
		c0.4-0.2,0.9-0.4,1.7-0.8c-1.4-0.8-2.4-1.4-3.4-1.9c-2.2-1.1-3.4-3-4-5.3c-0.4-1.5,2-3.5,4.1-3.6c0.7,0,1.4-0.2,1.9-0.3
		c-0.9-3.8-2.5-7.2-1.4-11.1c0.7-2.3,3.4-4.3,5.9-4.2c2.1,0.2,3.7,1,5.1,2.6c1.6,1.9,3.2,3.7,5.1,5.2c3.5,2.8,7.2,5.4,12,5.8
		c1.8,0.2,3.5,0.9,5.3,1.2c1.2,0.2,2.5,0.2,3.7,0.2c0.3,0,0.7-0.2,1-0.1c2.4,0.7,4.8,0.7,7.1,0.2c2.3-0.6,4.7-0.4,6.9-2
		c2.1-1.6,4.8-2.6,7.1-4c0.8-0.5,1.3-1.4,2-2.1c0.1-0.1,0.1-0.4,0.2-0.4c2.7-1.2,1.1-2.4,0-3.6c-0.2-0.2-0.2-0.7-0.3-1.1
		c0.3,0,0.5,0,0.6-0.1c1.3-0.4,2.7,1.5,3.9-0.2c0.8-1.1,1.6-2.3,2.4-3.5c0.5-0.7,1.3-1.6,1.1-2.2c-0.2-0.7-1.4-1-2-1.6
		c-1.8-1.8-3.6-3.7-5.4-5.5c-0.6-0.6-1.2-1.3-1.7-2.1c5.2-0.5,7.2,4,10.4,6.7c1.1-2.1,2.1-3.9,3.1-5.8c1.3-2.2,2.7-4.4,3.8-6.7
		c1-1.9,1.6-4.1,2.5-6.1c0.4-1,0.9-1.9,1.5-2.8c1.4-2,0.9-2.7-1.1-3.6c-1.4-0.7-2.8-1.4-4.2-2.1c-1.1-0.6-1.4-1.5-0.8-2.8
		c2.7,1.3,5.4,2.7,7.9,3.9c0.7-1.7,1.4-3.5,2.2-5.3c1-2.2,2.2-4.2,3.2-6.4c0.2-0.4-0.6-1.3-1-1.9c-0.8-1-1.7-1.8-2.5-2.8
		C203.3,51.6,203.3,51.1,203.1,50.1z M128.3,128.9c-1.2,0.3-1.9,0.4-2.6,0.5c-0.7,0.1-1.6,0.4-2.2,0.1c-1.4-0.6-2.3,0.2-3.2,1
		c-0.3,0.3-0.8,1-0.7,1.2c1,1.8,2.3,3.4,4.6,3.9c3.1,0.6,6.2,1.3,9.3,2c0.4,0.1,0.6,0.5,1,0.8c-0.3,0.3-0.5,0.6-0.9,0.8
		c-1.4,0.5-2.8,0.8-4.2,1.3c-0.3,0.1-0.8,0.4-0.9,0.8c-0.7,2.2-1,3.7,1.7,4.3c2.4,0.6,5,0.5,7.5,0.4c4.6-0.2,9.2-0.9,13.8-0.9
		c3.7,0.1,7.3-0.5,11,0.5c4,1.1,8.2,1.4,12.2,2.4c3.9,0.9,7.8,2.4,11.7,3.4c3.3,0.8,6.6,1.5,9.9,1.9c2,0.2,4.1-0.5,6.1-1.1
		c3.2-0.9,5.3-3,6.9-5.2c1.7-2.3,2.4-5.5,2-8.5c-0.7-5.2,1.3-9.6,3.6-13.9c1-2,1.1-2.5-0.8-3.7c-0.8-0.5-1.4-1.2-2.1-1.9
		c0.1-0.1,0.2-0.2,0.3-0.3c0.6,0.2,1.2,0.4,1.8,0.6c-0.2-0.8-0.4-1.4-0.5-1.9c2.4-1.3,2.8,1.1,4.3,2c0.5-1.5,1-3,1.5-4.4
		c0.5-0.3,1.4-0.5,1.8-1c1.3-1.9,2.5-3.9,3.7-5.8c1.4-2.1,2.7-4.4,4.4-6.3c0.8-1,0.8-1.6,0.1-2.4c-0.3-0.3-0.5-1-0.4-1.2
		c0.2-0.3,0.9-0.5,1.3-0.5c0.6,0.1,1.1,0.4,1.6,0.6c2.4-3.4,4.6-6.6,6.9-9.9c0.7-1.1,1.5-2.1,2.2-3.2c0.7-1,2.1-2.2,1.8-3
		c-0.8-2.7,2.2-0.8,2.3-2.2l0.1-0.1c2-3,3.8-6.1,6.1-8.8c1.1-1.4,1.3-2.2,0.1-3.4c-0.3-0.3-0.5-1-0.3-1.3s0.9-0.6,1.3-0.5
		c0.8,0.1,1.5,0.4,2.4,0.7c1.7-3.2,3.5-6.3,5.3-9.6c-0.4-0.5-0.9-1.1-1.6-2c1.4,0.1,2.2,0.2,3.1,0.2c1.8-3.9,4.7-7.3,5.4-11.8
		c-1.7-0.1-3.3-0.2-4.9-0.4c-2-0.2-4-0.5-5.9-0.9c-2.3-0.6-4.6-1.5-6.9-2.1c-1.8-0.5-3.6-0.8-5.4-1.5c-2.2-0.8-4.3-1.8-6.4-2.8
		c-2.8-1.3-5.8-2.3-8.3-4c-2.8-2-5.1-4.7-7.6-7c-0.3,0.7-0.9,1.8-1.3,2.9c-1.1,3.2-2.1,6.4-3.3,9.5c-0.6,1.5-0.9,2.8,0.1,4.3
		c0.4,0.5,0.7,1.2,0.9,1.8c0.1,0.4-0.2,0.8-0.3,1.2c-0.4-0.2-1-0.4-1.2-0.7c-0.4-0.5-0.7-1.1-1.1-1.9c-1.3,3.7-2.2,7.2-3.8,10.2
		c-1.2,2.2-2,3.9,0.1,5.8c0.3,0.3,0.7,0.6,0.9,0.9c0.2,0.5,0.4,1.1,0.3,1.5c-0.1,0.3-0.6,0.6-1,0.8s-0.8,0.3-1.3,0.4
		c-0.4-0.8-0.6-1.5-1.1-2.1c-0.2-0.3-0.6-0.5-1-0.5c-0.2,0-0.5,0.4-0.7,0.6c-1.5,3.1-3.1,6.1-4.5,9.2c-0.3,0.7,0,1.6,0.1,2.4
		c0.1,0.7,0.4,1.3,0.7,2.3c-2.1-0.6-2.8,0.1-2.9,1.6c0,0.4-0.3,0.7-0.5,1c-0.6,1-1.4,1.9-1.8,2.9c-1.1,2.4-1.9,4.9-3,7.3
		c-1.4,3-2.8,5.9-4.4,8.8c-0.6,1.1-0.3,2.4-1.4,3.6c-1.8,1.8-3,4.3-4.4,6.5c2.1,2.1,4.8,3.5,6.1,6.2c-0.1,0.2-0.3,0.4-0.4,0.5
		c-2.4-1.4-4.8-2.9-7.3-4.3c-0.5,0.3-1.2,0.6-1.7,1.1c-1.4,1.4-2.6,3-3.9,4.4c-1.1,1.2-2.3,2.5-3.7,3.2c-1.9,1-4,1.6-6.1,2.2
		c-1.3,0.4-2.6,0.5-4,0.6c-1.3,0.1-2.6-0.1-3.8,0.1c-4.8,0.8-9.4,0.2-13.8-1.5c-3.8-1.4-7.5-3.3-11.1-5.2c-1.9-1-3.5-2.5-5.1-3.8
		c-1.3-1.1-2.5-2.5-3.9-3.6c-0.5-0.4-1.5-0.6-2.2-0.5c-1.2,0.2-2,1.8-3.6,1.3c0,0-0.2,0.1-0.2,0.2c-0.1,1.9-0.8,4.1,0,5.6
		c1,2.1,3.1,3.8,4.8,5.4c0.9,0.9,1.1,1.2-0.1,1.8c-0.8,0.4-1.6,1-2.2,1.4c-0.6-0.5-1.3-1.2-2.1-1.7c-1.5-1-2.3,0.6-3.4,1.1
		c-0.3,0.1-0.3,1.1-0.1,1.5c0.8,2.3,6.1,5.8,8.6,5.6c1.3-0.1,2,0.4,2.6,1.4C128.7,128.3,128.4,128.8,128.3,128.9z M223,23.1
		c2.4,2.2,4.4,4.3,6.7,6c1.8,1.3,3.9,2.3,6,3.3c1.6,0.8,3.3,1.3,5,1.9c3,1.1,6,2.3,9.1,3.4c1,0.4,2.2,0.5,3.2,0.9
		c4.1,1.7,8.3,2.8,12.7,1.6c2.7-0.7,3.1-1.9,1.5-4c-2.7-3.8-7-5.7-10.5-8.4c-2.7-2-5.8-3.6-8.9-5.1c-3-1.4-6.1-2.5-9.2-3.7
		c-1-0.4-2.1-1-3.1-1.2c-2.8-0.5-5.6-1-8.4-1.2c-1.4-0.1-3.7,2.7-3.5,4.1c0.1,0.8,0.7,1.5,1.2,2.3C224.3,23.1,223.8,23.1,223,23.1z"
		/>
	<path fill="#FFFFFF" d="M252,32.4c0.1-4-5.2-7-12.7-7.4c-0.5,3.3,0.4,4.5,3.5,5c0.9,0.1,1.9,0.3,2.5,0.8
		C247.4,32.5,249.7,32.5,252,32.4z"/>
	<path fill="#545454" d="M238.9,63.3c0.5-2.3,2.7-2.9,4.3-3.8c3.5-2,7.1-3.6,10.7-5.3c0.1,0,0.1-0.1,0.1-0.1c1-0.1,2.3-1.1,2.8,0.4
		c0.4,1.2-0.5,1.8-1.7,2.3c-4.1,1.7-8,3.8-12,5.6c-1.3,0.6-2.6,1-4,1.5C239.1,63.6,239,63.4,238.9,63.3z"/>
	<path fill="#545454" d="M241.2,78.3c-1.8,0.1-1.8-1.5-2.3-3.2c-2.2,1.1-4.3,2.1-6.4,3.1c-0.1-0.2-0.3-0.4-0.4-0.5
		c0.2-0.4,0.4-0.9,0.7-1.2c1.9-1.4,3.8-2.8,5.7-4.2c0.6-0.4,0.9-1.2,1.6-1.5c0.7-0.4,1.6-0.6,2.5-0.8c0.1,0.2,0.3,0.4,0.4,0.6
		c-0.6,1.2-1.4,2.4-1.7,3.6C241.1,75.4,241.3,76.8,241.2,78.3z"/>
	<path fill="#545454" d="M248.1,50.5c-1,0.4-2.1,0.7-3.5,1.2c0.4-2.2,1.1-3.5,2.7-4.4c1.2-0.6,2-1.8,3.2-2.4
		c0.5-0.3,1.4,0.1,2.2,0.2c-0.2,0.8-0.3,1.7-0.7,2.3c-0.4,0.5-1.3,0.7-1.8,1.1c-0.4,0.3-0.7,0.8-0.7,1.2c0,1,0.2,2.1,0.3,3.3
		C247.9,53.1,248.7,51.4,248.1,50.5z"/>
	<path fill="#545454" d="M232.1,86.9c-4.7,1.8-9.4,3.6-14.4,5.4c0.2-0.6,0.1-1.2,0.4-1.5c3.7-2.6,7.8-4.5,12.4-4.8
		c0.5,0,1,0.2,1.5,0.4C232.1,86.6,232.1,86.8,232.1,86.9z"/>
	<path fill="#545454" d="M223.4,63.6c-1.2-4.6-2.3-9.2-3.5-13.8c0.2-0.1,0.5-0.2,0.7-0.4c0.5,0.6,1.2,1.1,1.3,1.7
		c1,3.7,1.8,7.4,2.6,11.1c0.1,0.5-0.5,1.1-0.8,1.6C223.7,63.8,223.5,63.7,223.4,63.6z"/>
	<path fill="#545454" d="M205.4,106.9c1.1-0.5,2.1-1.2,3.2-1.5c3-0.9,5.9-1.6,8.9-2.3c0.7-0.2,1.6,0,2.4,0.1c0.2,0,0.4,0.4,0.7,0.6
		c-0.2,0.2-0.4,0.5-0.7,0.5c-4.2,1.2-8.5,2.3-12.7,3.4c-0.5,0.1-1.1-0.1-1.6-0.1C205.5,107.3,205.5,107.1,205.4,106.9z"/>
	<path fill="#545454" d="M198.8,89.3c0.7,0.6,1.5,1.1,2.1,1.8c1.4,1.7,2.7,3.5,3.9,5.4c0.4,0.6,0.5,1.4,0.7,2
		c-0.8-0.1-1.9,0-2.5-0.5c-2.7-2.1-4.2-4.9-4.7-8.3C198.5,89.6,198.6,89.5,198.8,89.3z"/>
	<path fill="#545454" d="M230.8,57.3c1.5-1.1,3.1-2.3,4.9-3.4c0.4-0.3,1.1-0.1,1.7-0.1c-0.1,0.7,0.1,1.8-0.3,2.1
		c-2.2,1.6-4.5,3-6.8,4.4c-0.4,0.2-1-0.1-1.6-0.2c0.1-0.5,0.2-1,0.5-1.4C229.5,58.1,230.1,57.8,230.8,57.3z"/>
	<path fill="#545454" d="M228.1,37.5c2,0.5,3,1.8,3.3,3c0.7,3.2,1,6.5,1.1,9.8C229.8,46.6,230,41.9,228.1,37.5z"/>
	<path fill="#545454" d="M225.7,77.4c-0.8-1.5-1.5-2.8-2-4.1c-0.8-2.1-1.6-4.3-2.3-6.4c-0.1-0.3,0-0.7,0-1.1c0.4,0.1,1,0.1,1.1,0.4
		c0.6,1.1,1,2.3,1.5,3.5c1,2.2,2,4.4,2.9,6.6c0.2,0.6,0.2,1.3,0.3,2C226.7,77.9,226.1,77.6,225.7,77.4z"/>
	<path fill="#545454" d="M206.7,76c1.6,0.1,2.6,1.1,2.6,2.5c0,1.7,0.2,3.4,0.3,5.1c0,0.2,0.3,0.3,0.2,0.4c-0.3,0.8-0.7,1.6-1,2.3
		c-0.3-0.6-0.8-1.1-0.9-1.7c-0.3-1.3-0.4-2.6-0.6-4C207.1,79.2,206.9,77.6,206.7,76z"/>
	<path fill="#545454" d="M197.7,109.4c0.7,0.2,1.3,0.4,1.8,0.5c0.5,1.3,1.1,2.6,1.5,3.9c0.4,1.2,0.5,2.5,0.8,4
		C199.6,117.5,197.5,112.7,197.7,109.4z"/>
	<path fill="#545454" d="M218.8,107.7c1.7-0.9,3.7-1.1,4.8-0.1c-1.8,0.2-3.3,0.4-4.7,0.6C218.8,108.1,218.8,107.9,218.8,107.7z"/>
	<path fill="#545454" d="M252,32.4c-2.3,0-4.6,0-6.6-1.5c-0.7-0.5-1.7-0.7-2.5-0.8c-3.2-0.5-4.1-1.7-3.5-5
		C246.8,25.5,252.1,28.5,252,32.4z"/>
</g>
</svg>
